<?xml version="1.0" encoding="iso-8859-1"?>
<!-- Generator: Adobe Illustrator 19.2.0, SVG Export Plug-In . SVG Version: 6.00 Build 0)  -->
<svg version="1.1" xmlns="http://www.w3.org/2000/svg" xmlns:xlink="http://www.w3.org/1999/xlink" x="0px" y="0px"
	 viewBox="0 0 411.799 604.9" style="enable-background:new 0 0 411.799 604.9;" xml:space="preserve">
<g id="CameraPerson">
	<g>
		<rect x="66.84" y="54.62" style="fill:#9FA6AA;" width="173.952" height="114.87"/>
		<rect x="46.41" y="104.546" style="fill:#595E60;" width="222.268" height="171.249"/>
		<rect x="106.006" y="54.62" style="fill:#879093;" width="38.963" height="114.87"/>
		<path style="fill:#996133;" d="M17.806,202.947c1.719-1.937,4.686-2.116,6.626-0.394c1.942,1.742,2.117,4.686,0.395,6.627
			L12.1,223.521l0.812,9.412c1.095,4.818,3.155,10.861,7.03,15.253c1.755,1.988,3.57,3.177,5.337,3.805
			c3.184-0.315,6.289-1.776,8.193-4.143c1.371-1.704,2.41-6.123,3.117-10.209l0.421-10.397c0.104-2.591,2.288-4.604,4.881-4.5
			c2.586,0.104,4.603,2.288,4.5,4.881l-0.335,8.262l1.301,14.237l0,0c2.376,6.1,7.932,16.915,11.121,22.524
			c3.165,5.567,11.737,16.096,11.857,16.244c2.754,3.073,4.75,5.416,4.75,5.416l-15.708,14.983l-2.441,2.329
			c0,0-19.856-20.18-26.145-26.346c-6.121-6.001-26.944-21.786-29.397-30.307l-0.001-0.002c-0.003-0.006-0.003-0.017-0.006-0.027
			c-0.062-0.221-0.122-0.445-0.159-0.656c-0.13-0.743-0.255-1.609-0.369-2.565c-2.339-16.291,0.68-30.182,2.133-31.773
			c0.013-0.016,0.033-0.036,0.045-0.053c0.188-0.389,0.408-0.761,0.702-1.089L17.806,202.947z"/>
		<g>
			<g>
				<path style="fill:#8C643E;" d="M295.904,659.869c0,0,0.117-4.574,9.269-3.166c9.154,1.408,15.019,2.929,18.421,2.347
					c3.404-0.588,3.404,9.153,2.818,9.505c-0.588,0.352-14.668,2.346-15.608,1.995C309.867,670.193,295.904,659.869,295.904,659.869
					z"/>
			</g>
			<g>
				<path style="fill:#D6CCC0;" d="M293.441,676.063c0,0-4.458,3.051-2.935,11.143c0.706,2.934,9.134,2.029,26.498,10.128
					c17.368,8.093,40.612,14.932,66.54,1.089c2.699-1.411,4.812-12.323-4.576-13.143
					C369.583,684.456,293.441,676.063,293.441,676.063z"/>
			</g>
			<g>
				<path style="fill:#996133;" d="M330.675,667.614c0,2.142-2.005,3.87-4.482,3.87h-21.758c-2.475,0-4.485-1.728-4.485-3.87V637.81
					c0-2.137,2.01-3.872,4.485-3.872h21.758c2.477,0,4.482,1.736,4.482,3.872V667.614z"/>
			</g>
			<g>
				<path style="fill:#C95230;" d="M295.904,659.869c0,0-3.871,14.2-3.753,17.486c10.79,3.286,7.489,1.91,18.165,6.956
					c10.676,5.045,53.283,19.27,71.939,3.669c2.346-2.349-2.818-16.095-28.98-22.435c-5.047-1.989-12.667-10.015-15.6-14.241
					c-4.928-1.407-12.204,3.756-20.886,11.733C308.104,671.017,296.257,656.114,295.904,659.869z"/>
			</g>
			<g>
				<path style="fill:#D6CCC0;" d="M343.253,670.696c-0.022-0.038-1.438-2.556-0.892-5.739c-1.284,0.322-2.623,0.784-3.927,1.44
					c-0.244,0.12-0.527,0.117-0.763-0.013c-0.243-0.128-0.4-0.366-0.425-0.633c-0.176-1.589-0.104-3.062,0.232-4.446
					c-0.236,0.023-0.478,0.049-0.722,0.073c-1.719,0.176-3.685,0.378-5.947,0.572c-0.322,0.033-0.618-0.13-0.777-0.397
					c-0.163-0.273-0.156-0.611,0.022-0.875c3.921-5.955,11.315-5.647,11.616-5.647c0.326,0.017,0.614,0.222,0.73,0.528
					c0.115,0.304,0.042,0.649-0.19,0.878c-0.952,0.953-1.703,1.937-2.252,2.974c2.596-0.229,4.539-0.305,6.126-0.021
					c0.31,0.053,0.559,0.276,0.648,0.575c0.087,0.298,0,0.62-0.222,0.834c-0.704,0.664-1.235,1.341-1.63,2.006
					c2.914-0.367,5.055-0.129,5.205-0.109c0.449,0.053,0.771,0.46,0.72,0.914c-0.056,0.45-0.45,0.776-0.914,0.721
					c-0.042-0.005-2.544-0.274-5.775,0.262c-0.786,2.836,0.488,5.147,0.566,5.283c0.222,0.395,0.086,0.9-0.31,1.124
					c-0.128,0.075-0.27,0.111-0.406,0.111C343.683,671.11,343.404,670.96,343.253,670.696z M344.223,660.861
					c-1.331-0.027-2.957,0.077-4.977,0.27c-0.317,1.031-0.464,2.119-0.439,3.278c1.387-0.589,2.773-0.995,4.073-1.268
					C343.186,662.39,343.623,661.624,344.223,660.861z M339.692,656.795c-1.902,0.256-4.857,1.029-7.101,3.341
					c1.463-0.136,2.792-0.27,3.999-0.396c0.502-0.052,0.981-0.1,1.446-0.146C338.443,658.624,338.997,657.694,339.692,656.795z"/>
			</g>
		</g>
		<g>
			<g>
				<g>
					<path style="fill:#8C643E;" d="M222.14,659.869c0,0-0.119-4.574-9.272-3.166c-9.152,1.408-15.017,2.929-18.42,2.347
						c-3.403-0.588-3.403,9.153-2.816,9.505c0.587,0.352,14.668,2.346,15.608,1.995C208.176,670.193,222.14,659.869,222.14,659.869z
						"/>
				</g>
				<g>
					<path style="fill:#E1D5C9;" d="M224.603,676.063c0,0,4.458,3.051,2.935,11.143c-0.706,2.934-9.136,2.029-26.499,10.128
						c-17.368,8.093-40.611,14.932-66.539,1.089c-2.699-1.411-4.813-12.323,4.575-13.143
						C148.462,684.456,224.603,676.063,224.603,676.063z"/>
				</g>
				<g>
					<path style="fill:#A06937;" d="M187.368,667.614c0,2.142,2.005,3.87,4.482,3.87h21.758c2.476,0,4.485-1.728,4.485-3.87V637.81
						c0-2.137-2.009-3.872-4.485-3.872H191.85c-2.477,0-4.482,1.736-4.482,3.872V667.614z"/>
				</g>
				<g>
					<path style="fill:#D45F36;" d="M222.14,659.869c0,0,3.871,14.2,3.751,17.486c-10.79,3.286-7.489,1.91-18.165,6.956
						c-10.676,5.045-53.283,19.27-71.94,3.669c-2.345-2.349,2.818-16.095,28.982-22.435c5.048-1.989,12.666-10.015,15.598-14.241
						c4.93-1.407,12.204,3.756,20.887,11.733C209.939,671.017,221.786,656.114,222.14,659.869z"/>
				</g>
			</g>
			<g>
				<path style="fill:#E1D5C9;" d="M174.334,671.11c-0.136,0-0.279-0.036-0.406-0.111c-0.396-0.223-0.532-0.729-0.308-1.124
					c0.079-0.136,1.352-2.447,0.568-5.283c-3.234-0.536-5.736-0.267-5.777-0.262c-0.465,0.055-0.86-0.271-0.913-0.721
					c-0.054-0.453,0.266-0.861,0.721-0.914c0.147-0.02,2.288-0.258,5.202,0.109c-0.396-0.666-0.928-1.342-1.629-2.006
					c-0.225-0.214-0.311-0.536-0.224-0.834c0.09-0.299,0.339-0.522,0.647-0.575c1.588-0.284,3.531-0.207,6.128,0.021
					c-0.55-1.037-1.299-2.021-2.254-2.974c-0.23-0.229-0.304-0.574-0.188-0.878c0.116-0.305,0.403-0.511,0.731-0.528
					c0.302,0,7.697-0.308,11.619,5.647c0.173,0.264,0.18,0.602,0.019,0.875c-0.16,0.267-0.457,0.431-0.778,0.397
					c-2.257-0.194-4.223-0.396-5.948-0.572c-0.245-0.025-0.483-0.05-0.716-0.073c0.33,1.384,0.403,2.858,0.231,4.446
					c-0.031,0.267-0.19,0.505-0.424,0.633c-0.242,0.129-0.525,0.133-0.763,0.013c-1.31-0.656-2.649-1.118-3.929-1.44
					c0.543,3.183-0.872,5.701-0.894,5.739C174.896,670.96,174.62,671.11,174.334,671.11z M175.419,663.141
					c1.304,0.273,2.687,0.679,4.077,1.268c0.022-1.159-0.121-2.247-0.436-3.278c-2.027-0.193-3.652-0.298-4.982-0.27
					C174.678,661.624,175.115,662.39,175.419,663.141z M180.264,659.594c0.464,0.046,0.944,0.094,1.447,0.146
					c1.21,0.126,2.535,0.26,4.003,0.396c-2.246-2.312-5.205-3.084-7.105-3.341C179.308,657.694,179.858,658.624,180.264,659.594z"/>
			</g>
		</g>
		<g>
			<polygon style="fill:#996133;" points="279.21,239.009 259.019,239.009 256.823,252.626 259.019,266.471 279.21,266.471 			"/>
			<rect x="238.794" y="239.009" style="fill:#A06937;" width="20.225" height="27.462"/>
		</g>
		<g>
			<g>
				<g>
					<path style="fill:#8C643E;" d="M221.995,649.351h-40.246v-186.51l67.729,6.574c0,0-3.133,1.758-10.938,14.812
						C227.9,502.017,221.995,649.351,221.995,649.351z"/>
				</g>
				<g>
					<path style="fill:#7F5634;" d="M296.049,649.351h40.243v-186.51l-67.731,6.574c0,0,3.136,1.758,10.941,14.812
						C290.143,502.017,296.049,649.351,296.049,649.351z"/>
				</g>
				<g>
					<g>
						<path style="fill:#8C643E;" d="M181.749,403.343v63.876c0,0,57.946,4.393,77.273,4.393l2.197-27.853l-2.197-40.416H181.749z"
							/>
					</g>
					<g>
						<path style="fill:#7F5634;" d="M259.022,403.343v68.269c19.324,0,77.27-4.393,77.27-4.393v-63.876H259.022z"/>
					</g>
				</g>
			</g>
			<g>
				<path style="fill:#7F5634;" d="M228.41,647.154c0,1.215-0.956,2.197-2.137,2.197h-49.83c-1.18,0-2.136-0.982-2.136-2.197
					v-16.478c0-1.213,0.956-2.197,2.136-2.197h49.83c1.181,0,2.137,0.983,2.137,2.197V647.154z"/>
			</g>
			<g>
				<path style="fill:#724B2D;" d="M342.769,647.154c0,1.215-0.956,2.197-2.134,2.197h-49.834c-1.178,0-2.137-0.982-2.137-2.197
					v-16.478c0-1.213,0.959-2.197,2.137-2.197h49.834c1.178,0,2.134,0.983,2.134,2.197V647.154z"/>
			</g>
		</g>
		<g>
			<path style="fill:#996133;" d="M385.968,483.437l-2.174,7.027c-0.669,2.164-2.97,3.373-5.133,2.704
				c-1.564-0.485-2.62-1.827-2.837-3.348c0,0-0.004,0-0.009,0.007c-1.66-1.534-2.552,0.463-2.552,0.463
				c-0.669,2.167-2.965,3.377-5.131,2.702c-1.968-0.605-3.127-2.563-2.823-4.539c0,0-0.004,0-0.009,0
				c-0.995-1.777-2.068-0.056-2.068-0.056s-0.009-0.004-0.018-0.009c-0.841,1.855-2.93,2.853-4.927,2.231
				c-1.808-0.557-2.935-2.257-2.871-4.059h-0.008c-0.61-2.291-2.523-1.046-2.523-1.046l-0.004-0.005
				c-1.034,0.861-2.463,1.205-3.841,0.776c-2.158-0.67-3.372-2.964-2.703-5.132c0.622-3.848-2.706-2.969-2.706-2.969
				s0-0.013,0.001-0.017c-0.833,0.326-1.774,0.4-2.695,0.111c-2.165-0.669-3.375-2.964-2.705-5.122l2.042-6.613
				c5.392-26.672,12.546-20.614,17.547-24.073c5.005-3.457,8.499-15.614,8.499-15.614s20.074,6.208,25.7,7.955
				c-6.395,18.939-3.207,17.601-0.71,25.707C393.143,466.456,388.551,477.794,385.968,483.437z"/>
		</g>
		<g>
			<path style="fill:#E96642;" d="M398.599,446.903c18.557-55.86,17.542-101.114-3.014-134.503
				c-22.346-36.289-59.514-44.331-70.374-45.929l-6.724,45.643c5.866,0.866,25.935,5.184,37.812,24.476
				c12.889,20.933,12.375,54.05-1.486,95.766L398.599,446.903z"/>
		</g>
		<g>
			<path style="fill:#F3764B;" d="M20.239,286.098c42.589,40.631,83.946,59.034,122.915,54.7
				c42.355-4.714,65.496-34.89,71.579-44.028l-38.404-25.567c-3.286,4.934-15.76,21.239-38.276,23.743
				c-24.433,2.719-54.16-11.885-85.966-42.23L20.239,286.098z"/>
		</g>
		<g>
			<g>
				<path style="fill:#F3764B;" d="M194.156,265.373c-13.705,0-24.816,10.217-24.816,28.239l12.409,126.643h77.663l2.197-69.416
					l-2.197-85.466H194.156z"/>
			</g>
			<g>
				<path style="fill:#E96642;" d="M343.734,293.611c0-18.022-11.11-28.239-24.817-28.239h-59.895v154.882h77.267L343.734,293.611z"
					/>
			</g>
		</g>
		<g>
			<polygon style="fill:#E1593C;" points="225.548,315.962 250.074,289.685 218.154,265.373 203.648,265.373 			"/>
		</g>
		<g>
			<polygon style="fill:#D65037;" points="293.081,315.962 268.595,289.458 300.771,265.373 314.982,265.373 			"/>
		</g>
		<g>
			<polygon style="fill:#F9F9F9;" points="259.001,263.176 256.805,284.115 259.001,312.709 259.07,312.883 268.595,289.458 
				300.675,265.373 			"/>
			<polygon style="fill:#FFFFFF;" points="218.154,265.373 250.074,289.685 259.001,312.709 259.001,263.176 			"/>
		</g>
		<g>
			<path style="fill:#D6CCC0;" d="M320.159,420.255V266.702c0-1.613-1.309-2.917-2.923-2.917h-8.574
				c-1.613,0-2.921,1.304-2.921,2.917v153.553H320.159z"/>
		</g>
		<g>
			<path style="fill:#C95230;" d="M323.523,428.201c0,3.536-2.868,6.398-6.398,6.398h-8.355c-3.53,0-6.394-2.862-6.394-6.398v-8.355
				c0-3.531,2.864-6.394,6.394-6.394h8.355c3.53,0,6.398,2.863,6.398,6.394V428.201z"/>
		</g>
		<g>
			<path style="fill:#E1D5C9;" d="M210.855,420.255V266.702c0-1.613-1.308-2.917-2.923-2.917h-8.571
				c-1.614,0-2.923,1.304-2.923,2.917v153.553H210.855z"/>
		</g>
		<g>
			<path style="fill:#D45F36;" d="M214.22,428.201c0,3.536-2.866,6.398-6.398,6.398h-8.353c-3.532,0-6.393-2.862-6.393-6.398v-8.355
				c0-3.531,2.861-6.394,6.393-6.394h8.353c3.532,0,6.398,2.863,6.398,6.394V428.201z"/>
		</g>
		<g>
			<ellipse style="fill:#3F3F3F;" cx="256.498" cy="103.672" rx="103.67" ry="103.672"/>
			<path style="fill:#353535;" d="M256.498,0c-0.128,0-0.253,0.004-0.379,0.006v207.331c0.126,0,0.252,0.007,0.379,0.007
				c57.255,0,103.67-46.417,103.67-103.672C360.168,46.417,313.753,0,256.498,0z"/>
			<path style="fill:#996133;" d="M336.673,176.597c-0.185,4.629-1.884,10.259-6.504,10.003l0,0
				c-4.627-0.253-8.164-4.214-7.907-8.834l1.541-27.772c0.258-4.623,4.214-8.162,8.835-7.904l0,0
				c4.625,0.255,8.613,4.256,7.901,8.831C339.553,157.337,337.177,164.039,336.673,176.597z"/>
			<path style="fill:#A06937;" d="M175.578,176.597c0.186,4.629,1.886,10.259,6.507,10.003l0,0c4.621-0.253,8.159-4.214,7.903-8.834
				l-1.54-27.772c-0.259-4.623-4.214-8.162-8.834-7.904l0,0c-4.622,0.255-8.61,4.256-7.906,8.831
				C172.699,157.337,175.069,164.039,175.578,176.597z"/>
			<g>
				<path style="fill:#A06937;" d="M218.527,57.331c-16.572,0-30.618,11.415-35.543,27.226v42.776l4.568,73.399
					c0,21.908,16.76,39.665,37.437,39.665h47.713V57.331H218.527z"/>
				<g>
					<path style="fill:#996133;" d="M329.316,83.717c-5.155-15.374-19.002-26.387-35.278-26.387h-37.903v183.066h31.441
						c20.674,0,37.436-17.757,37.436-39.665l4.304-69.1V83.717z"/>
				</g>
			</g>
			<path style="fill:#3F3F3F;" d="M224.989,238.477c-19.585,0-35.518-16.931-35.518-37.745l-4.569-73.46V84.852
				c4.895-15.325,18.376-25.602,33.625-25.602h37.971v-3.838h-37.971c-17.031,0-32.053,11.483-37.377,28.574l-0.086,0.278v43.067
				l4.569,73.461c0.029,22.903,17.672,41.522,39.356,41.522h31.509v-3.839H224.989z"/>
			<path style="fill:#353535;" d="M331.134,83.107c-5.555-16.566-20.462-27.695-37.096-27.695h-37.54v3.838h37.54
				c14.884,0,28.253,9.947,33.359,24.784v47.538l-4.301,69.043l-0.003,0.117c0,20.814-15.932,37.745-35.517,37.745h-31.078v3.839
				h31.078c21.684,0,39.324-18.619,39.355-41.523l4.3-69.043l0.004-48.345L331.134,83.107z"/>
			<g>
				<linearGradient id="SVGID_1_" gradientUnits="userSpaceOnUse" x1="247.856" y1="132.896" x2="249.0554" y2="190.9488">
					<stop  offset="0" style="stop-color:#A06937"/>
					<stop  offset="1" style="stop-color:#996133"/>
				</linearGradient>
				<path style="fill:url(#SVGID_1_);" d="M240.798,191.551c0,3.193,7.203,5.783,15.7,5.858l-0.372-64.536
					C250.383,137.783,240.798,191.551,240.798,191.551z"/>
				<linearGradient id="SVGID_2_" gradientUnits="userSpaceOnUse" x1="262.6134" y1="133.2991" x2="264.0527" y2="190.1519">
					<stop  offset="0.0054" style="stop-color:#996133"/>
					<stop  offset="1" style="stop-color:#915A30"/>
				</linearGradient>
				<path style="fill:url(#SVGID_2_);" d="M264.573,154.915c-3.397-13.817-5.94-20.469-8.447-22.042v64.536
					c0.124,0,0.244,0.006,0.372,0.006c8.671,0,15.7-2.626,15.7-5.863C272.198,191.551,269.224,173.846,264.573,154.915z"/>
				<ellipse style="fill:#996133;" cx="243.545" cy="192.171" rx="5.104" ry="3.926"/>
				<ellipse style="fill:#915A30;" cx="269.264" cy="192.171" rx="5.103" ry="3.926"/>
			</g>
			<path style="fill:#3F3F3F;" d="M200.652,126.045c-0.642,0-1.287-0.223-1.811-0.68c-1.149-1.001-1.269-2.743-0.267-3.894
				c4.937-5.667,10.68-8.722,17.07-9.087c11.319-0.644,20.429,7.547,20.811,7.896c1.126,1.028,1.202,2.773,0.173,3.898
				c-1.027,1.125-2.77,1.203-3.895,0.179c-0.088-0.081-7.817-6.992-16.812-6.46c-4.836,0.286-9.272,2.708-13.185,7.2
				C202.192,125.725,201.424,126.045,200.652,126.045z"/>
			<path style="fill:#353535;" d="M312.691,126.045c-0.771,0-1.537-0.32-2.082-0.947c-3.922-4.502-8.371-6.925-13.221-7.201
				c-9.046-0.515-16.696,6.387-16.773,6.457c-1.124,1.029-2.869,0.951-3.901-0.175c-1.028-1.125-0.949-2.87,0.176-3.898
				c0.382-0.35,9.478-8.539,20.811-7.896c6.39,0.364,12.133,3.42,17.07,9.087c1.002,1.151,0.882,2.893-0.267,3.894
				C313.98,125.822,313.334,126.045,312.691,126.045z"/>
			<g>
				<path style="fill:#353535;" d="M297.902,73.246c3.444,0,6.237,2.793,6.237,6.238c0,4.858,3.94,8.795,8.797,8.795
					c9.097,0,13.594,7.375,13.594,16.472l0.637,30.521h3.63V59.386c0-13.014-10.55-23.564-23.563-23.564h-56.862l-6.717,19.326
					l6.717,18.097H297.902z"/>
				<path style="fill:#3F3F3F;" d="M185.398,135.272l0.342-30.521c0-9.097,3.536-16.472,12.634-16.472
					c4.858,0,8.797-3.938,8.797-8.795c0-3.446,2.792-6.238,6.235-6.238h42.729V35.822h-51.098c-13.014,0-23.565,10.55-23.565,23.564
					v75.886H185.398z"/>
			</g>
			<path style="fill:#996133;" d="M256.126,252.816h19.913c6.372,0,11.537-5.475,11.537-12.234c0-6.756-5.165-12.234-11.537-12.234
				h-19.913L245.57,244.42L256.126,252.816z"/>
			<path style="fill:#A06937;" d="M256.126,228.348h-19.911c-6.373,0-11.54,5.478-11.54,12.234c0,6.759,5.167,12.234,11.54,12.234
				h19.911V228.348z"/>
			<g>
				<path style="fill:#353535;" d="M288.624,212.914c0-0.344-0.089-0.655-0.29-0.914c-0.054-0.083-0.121-0.155-0.189-0.23
					c-1.544-3.47-5.597-7.272-12.374-8.703c-6.505-1.34-13.381-0.929-19.652,1.219v9.03h22.22c4.393,0,7.956,3.565,7.956,7.957
					v16.054c0,6.965-5.648,12.615-12.615,12.615h-17.562v3.837h17.412c8.783,0,15.933-7.147,15.933-15.933v-20.463
					C289.464,215.807,289.162,214.301,288.624,212.914z"/>
				<g>
					<path style="fill:#3F3F3F;" d="M288.624,212.914c0-0.344-0.089-0.655-0.29-0.914c-0.054-0.083-0.121-0.155-0.189-0.23
						c-1.544-3.47-5.597-7.272-12.374-8.703c-6.509-1.342-13.393-0.929-19.669,1.223c-6.278-2.152-13.16-2.566-19.67-1.223
						c-7.049,1.487-11.156,5.543-12.555,9.117h0.053c-0.736,1.584-1.158,3.34-1.158,5.198v20.463
						c0,8.786,7.148,15.933,15.933,15.933h34.827c8.783,0,15.933-7.147,15.933-15.933v-20.463
						C289.464,215.807,289.162,214.301,288.624,212.914z M286.295,237.326c0,6.965-5.648,12.615-12.615,12.615h-34.903
						c-6.968,0-12.613-5.65-12.613-12.615v-16.054c0-4.392,3.56-7.957,7.956-7.957h44.218c4.393,0,7.956,3.565,7.956,7.957V237.326z
						"/>
				</g>
			</g>
			<g>
				<g>
					<path style="fill:#915A30;" d="M286.025,217.249c-0.05-0.082-0.113-0.154-0.175-0.23c-1.433-3.469-5.19-7.273-11.481-8.703
						c-6.037-1.341-12.426-0.927-18.247,1.224c-5.826-2.151-12.211-2.566-18.25-1.224c-6.538,1.489-10.351,5.544-11.647,9.117h0.059
						c-1.786,3.441,10.783,13.821,29.922,13.798C275.69,231.255,288.376,220.49,286.025,217.249z"/>
					<path style="fill:#F9E4D2;" d="M233.935,215.808c0,0,22.542,5.132,44.202-0.271c0.653,0.929,0.711,2.358,0.711,2.358
						s-4.412,6.052-23.112,6.036c-10.019,0.243-19.799-4.028-22.157-5.983C233.458,216.633,233.935,215.808,233.935,215.808z"/>
				</g>
				<g>
					<path style="fill:#84502C;" d="M286.025,217.249c-0.05-0.082-0.113-0.154-0.175-0.23c-1.433-3.469-5.19-7.273-11.481-8.703
						c-6.037-1.341-12.426-0.927-18.247,1.224c0,0-0.008-0.003-0.013-0.004v8.472c6.791,0.017,14.476-0.581,22.054-2.47
						c0.655,0.929,0.714,2.358,0.714,2.358s-4.365,5.966-22.769,6.031v7.301c0.033,0,0.063,0.003,0.096,0.003
						C275.69,231.255,288.376,220.49,286.025,217.249z"/>
					<path style="fill:#F7D8BA;" d="M278.849,217.895c0,0-0.059-1.429-0.711-2.358c-7.569,1.889-15.242,2.487-22.028,2.47v5.919
						C274.491,223.861,278.849,217.895,278.849,217.895z"/>
				</g>
			</g>
			<path style="fill:none;" d="M287.576,238.477c19.584,0,35.517-16.931,35.517-37.745l0.003-0.117l4.301-69.043V84.035
				c-5.106-14.837-18.475-24.784-33.359-24.784h-37.54v179.226H287.576z"/>
			<path style="fill:none;" d="M184.902,84.852v42.419l4.569,73.46c0,20.814,15.933,37.745,35.518,37.745h31.509V59.25h-37.971
				C203.277,59.25,189.797,69.527,184.902,84.852z"/>
			<g>
				<path style="fill:#3F3F3F;" d="M209.136,144.069c-0.227-0.013-0.455-0.06-0.677-0.151c-1.032-0.436-1.528-1.618-1.104-2.656
					c0.108-0.26,2.7-6.378,9.624-6.525c6.778-0.128,10.365,5.646,10.513,5.892c0.591,0.965,0.285,2.222-0.679,2.809
					c-0.964,0.589-2.222,0.281-2.811-0.685c-0.096-0.154-2.537-4.021-6.936-3.925c-4.211,0.087-5.863,3.843-5.931,4.001
					C210.787,143.642,209.972,144.115,209.136,144.069z"/>
			</g>
			<g>
				<path style="fill:#353535;" d="M287.448,144.08c-0.297-0.017-0.599-0.101-0.88-0.259c-0.98-0.552-1.335-1.785-0.792-2.768
					c0.14-0.255,3.498-6.185,10.259-6.327c6.944-0.099,9.772,5.86,9.89,6.113c0.468,1.024,0.022,2.24-1.003,2.714
					c-1.021,0.471-2.232,0.025-2.705-0.992c-0.09-0.18-1.87-3.864-6.096-3.747c-4.377,0.088-6.675,4.057-6.77,4.226
					C288.954,143.742,288.204,144.122,287.448,144.08z"/>
			</g>
		</g>
		<rect x="105.905" y="104.546" style="fill:#4D5254;" width="59.188" height="171.249"/>
		<g>
			<circle style="fill:#595E60;" cx="218.14" cy="137.751" r="31.935"/>
			<path style="fill:#4D5254;" d="M250.076,137.751c0-17.638-14.298-31.935-31.936-31.935v63.87
				C235.778,169.686,250.076,155.388,250.076,137.751z"/>
			<circle style="fill:#B2B8BB;" cx="218.141" cy="137.751" r="17.802"/>
			<rect x="168.397" y="160.512" style="fill:#B2B8BB;" width="49.743" height="29.296"/>
			<rect x="200.34" y="137.751" style="fill:#B2B8BB;" width="35.603" height="34.254"/>
			<path style="fill:#9FA6AA;" d="M235.942,137.751c0-9.832-7.969-17.802-17.802-17.802v35.604
				C227.973,155.553,235.942,147.583,235.942,137.751z"/>
			<circle style="fill:#B2B8BB;" cx="218.141" cy="172.006" r="17.802"/>
			<path style="fill:#9FA6AA;" d="M235.942,172.006c0-9.831-7.969-17.801-17.802-17.801v35.604
				C227.973,189.808,235.942,181.837,235.942,172.006z"/>
			<rect x="218.14" y="137.751" style="fill:#9FA6AA;" width="17.802" height="34.254"/>
		</g>
		<g>
			<rect x="20.239" y="132.722" style="fill:#879093;" width="171.025" height="119.993"/>
			<rect x="27.135" y="139.617" style="fill:#9FA6AA;" width="157.233" height="106.202"/>
			<rect x="27.135" y="139.617" style="fill:#9FA6AA;" width="157.233" height="106.202"/>
			<polygon style="fill:#B2B8BB;" points="184.368,245.819 27.135,245.819 184.368,139.617 			"/>
			<polygon style="fill:#B2B8BB;" points="27.135,139.617 27.135,245.82 105.752,192.718 			"/>
			<polygon style="fill:#9FA6AA;" points="27.135,245.82 184.368,245.82 105.752,192.718 			"/>
			<rect x="48.901" y="153.873" style="fill:#595E60;" width="114.007" height="77.69"/>
			<g>
				<circle style="fill:#798184;" cx="105.752" cy="192.718" r="36.546"/>
				<circle style="fill:#475059;" cx="105.752" cy="192.718" r="33.383"/>
				<path style="fill:#353D44;" d="M115.988,160.94c3.947,5.483,6.28,12.207,6.28,19.479c0,18.437-14.947,33.384-33.384,33.384
					c-3.572,0-7.009-0.567-10.236-1.605c6.06,8.418,15.939,13.905,27.104,13.905c18.438,0,33.382-14.946,33.382-33.384
					C139.135,177.853,129.416,165.262,115.988,160.94z"/>
				<circle style="fill:#9FA6AA;" cx="96.849" cy="178.662" r="6.793"/>
			</g>
		</g>
	</g>
</g>
<g id="Layer_1">
</g>
</svg>
