<?xml version="1.0" encoding="iso-8859-1"?>
<!-- Generator: Adobe Illustrator 19.2.0, SVG Export Plug-In . SVG Version: 6.00 Build 0)  -->
<svg version="1.1" xmlns="http://www.w3.org/2000/svg" xmlns:xlink="http://www.w3.org/1999/xlink" x="0px" y="0px"
	 viewBox="0 0 880.311 724.457" style="enable-background:new 0 0 880.311 724.457;" xml:space="preserve">
<g id="Drone">
	<g>
		<g>
			<g>
				<g>
					<g>
						<path style="fill:#636E75;" d="M546.593,187.987c0,4.121,3.372,7.493,7.492,7.493h42.574l8.828-17.381l-8.828-59.606h-42.574
							c-4.12,0-7.492,3.372-7.492,7.493V187.987z"/>
					</g>
					<g>
						<path style="fill:#535F66;" d="M646.704,125.986c0-4.121-3.372-7.493-7.492-7.493h-42.574v76.986h42.574
							c4.12,0,7.492-3.371,7.492-7.493V125.986z"/>
					</g>
				</g>
				<g>
					<circle style="fill:#D3D3D3;" cx="596.648" cy="185.967" r="24.3"/>
					<circle style="fill:#636E75;" cx="596.648" cy="185.967" r="19.44"/>
					<circle style="fill:#3F3F3F;" cx="596.648" cy="185.967" r="17.758"/>
					<path style="fill:#333333;" d="M602.094,169.063c2.1,2.917,3.34,6.493,3.34,10.362c0,9.807-7.95,17.757-17.758,17.757
						c-1.899,0-3.727-0.301-5.444-0.854c3.224,4.478,8.479,7.396,14.417,7.396c9.808,0,17.758-7.95,17.758-17.758
						C614.406,178.059,609.236,171.362,602.094,169.063z"/>
					<circle style="fill:#D3D3D3;" cx="591.913" cy="178.49" r="3.614"/>
				</g>
			</g>
			<g>
				<path style="fill:#636E75;" d="M384.836,188.866v57.246c0,4.61-2.641,8.813-6.794,10.814l-7.319,3.525
					c-0.779,0.375-1.274,1.164-1.274,2.028v1.623c0,1.561,1.266,2.826,2.826,2.826h15.841c3.511,0,6.658-2.164,7.915-5.442
					l30.889-80.57L384.836,188.866z"/>
				<path style="fill:#636E75;" d="M409.962,49.891v57.246c0,4.61-2.641,8.813-6.795,10.814l-7.318,3.525
					c-0.779,0.376-1.275,1.164-1.275,2.029v1.622c0,1.562,1.266,2.827,2.827,2.827h15.84c3.511,0,6.658-2.165,7.915-5.443
					l23.669-61.737L409.962,49.891z"/>
				<path style="fill:#535F66;" d="M596.648,77.324L410.859,38.513c-1.806-0.372-3.682,0.088-5.11,1.253
					c-1.429,1.164-2.258,2.91-2.258,4.752v2.148c0,1.892,1.078,3.618,2.778,4.449l75.653,44.667
					c7.184,3.511,11.74,10.808,11.74,18.804s-4.556,15.293-11.74,18.804l-100.778,49.252c-1.699,0.831-2.777,2.557-2.777,4.45v2.147
					c0,1.843,0.828,3.588,2.257,4.753c1.429,1.164,3.305,1.625,5.11,1.253l210.914-43.395l13.996-20.723L596.648,77.324z"/>
				<path style="fill:#636E75;" d="M596.648,51.982h-24.69c-33.477,0-60.613,27.138-60.613,60.613
					c0,5.949,4.823,10.772,10.772,10.772h74.531l13.996-35.693L596.648,51.982z"/>
				<g>
					<path style="fill:#636E75;" d="M398.45,165.622h-0.534c-5.804,0-10.508,4.704-10.508,10.508v6.929
						c0,1.606,4.824,2.908,10.775,2.908s10.775-1.302,10.775-2.908v-6.929C408.959,170.326,404.255,165.622,398.45,165.622z"/>
					<g>
						<path style="fill:#E0E0E0;" d="M449.416,135.749c-14.26-2.9-32.001-4.62-51.233-4.62c-19.231,0-36.972,1.72-51.231,4.62
							l51.232,18.375L449.416,135.749z"/>
						<path style="fill:#EFEFEF;" d="M346.951,135.749c-20.634,4.197-33.976,10.865-33.976,18.375
							c0,7.51,13.342,14.178,33.976,18.375l51.232-18.375L346.951,135.749z"/>
						<path style="fill:#E0E0E0;" d="M346.951,172.499c14.26,2.9,32,4.62,51.231,4.62c19.233,0,36.974-1.72,51.233-4.62
							l-51.232-18.375L346.951,172.499z"/>
						<path style="fill:#EFEFEF;" d="M483.392,154.124c0-7.51-13.342-14.178-33.976-18.375l-51.232,18.375l51.232,18.375
							C470.05,168.302,483.392,161.634,483.392,154.124z"/>
					</g>
					<path style="fill:#636E75;" d="M398.45,136.642h-0.534c-5.804,0-10.508,4.705-10.508,10.509v6.929
						c0,1.606,4.824,2.908,10.775,2.908s10.775-1.302,10.775-2.908v-6.929C408.959,141.347,404.255,136.642,398.45,136.642z"/>
				</g>
				<g>
					<path style="fill:#636E75;" d="M419.94,31.025h-0.482c-5.221,0-9.452,4.231-9.452,9.452v6.232c0,1.445,4.34,2.616,9.692,2.616
						c5.353,0,9.692-1.171,9.692-2.616v-6.232C429.391,35.257,425.159,31.025,419.94,31.025z"/>
					<g>
						<path style="fill:#E0E0E0;" d="M465.781,4.156C452.954,1.548,436.996,0,419.698,0c-17.298,0-33.256,1.548-46.082,4.156
							l46.082,16.527L465.781,4.156z"/>
						<path style="fill:#EFEFEF;" d="M373.616,4.156c-18.56,3.774-30.56,9.772-30.56,16.527c0,6.755,12,12.753,30.56,16.527
							l46.082-16.527L373.616,4.156z"/>
						<path style="fill:#E0E0E0;" d="M373.616,37.211c12.826,2.609,28.784,4.156,46.082,4.156c17.298,0,33.256-1.547,46.083-4.156
							l-46.083-16.527L373.616,37.211z"/>
						<path style="fill:#EFEFEF;" d="M496.341,20.684c0-6.755-12.001-12.753-30.559-16.527l-46.083,16.527l46.083,16.527
							C484.341,33.436,496.341,27.438,496.341,20.684z"/>
					</g>
					<path style="fill:#636E75;" d="M419.94,4.959h-0.482c-5.221,0-9.452,4.231-9.452,9.452v6.232c0,1.445,4.34,2.616,9.692,2.616
						c5.353,0,9.692-1.171,9.692-2.616v-6.232C429.391,9.19,425.159,4.959,419.94,4.959z"/>
				</g>
			</g>
			<g>
				<path style="fill:#535F66;" d="M822.563,260.45l-7.319-3.525c-4.154-2.001-6.795-6.203-6.795-10.814v-57.246l-42.082-7.951
					l30.889,80.57c1.257,3.278,4.404,5.442,7.915,5.442h15.841c1.561,0,2.826-1.266,2.826-2.826v-1.623
					C823.838,261.614,823.342,260.825,822.563,260.45z"/>
				<path style="fill:#535F66;" d="M797.438,121.475l-7.319-3.525c-4.154-2.001-6.795-6.204-6.795-10.814V49.891l-34.862,10.883
					l23.669,61.737c1.256,3.278,4.404,5.443,7.914,5.443h15.841c1.562,0,2.827-1.266,2.827-2.827v-1.622
					C798.713,122.639,798.218,121.851,797.438,121.475z"/>
				<path style="fill:#4A5356;" d="M812.142,182.644l-100.779-49.252c-7.184-3.511-11.739-10.808-11.739-18.804
					s4.556-15.293,11.739-18.804l75.654-44.667c1.699-0.831,2.777-2.558,2.777-4.449v-2.148c0-1.843-0.829-3.588-2.258-4.752
					c-1.428-1.165-3.305-1.625-5.109-1.253L596.638,77.324v74.528l210.914,43.395c1.806,0.372,3.682-0.089,5.109-1.253
					c1.429-1.165,2.258-2.91,2.258-4.753v-2.147C814.919,185.201,813.841,183.475,812.142,182.644z"/>
				<path style="fill:#535F66;" d="M621.328,51.982h-24.69v71.386h74.531c5.949,0,10.772-4.823,10.772-10.772
					C681.941,79.12,654.804,51.982,621.328,51.982z"/>
				<g>
					<path style="fill:#535F66;" d="M794.835,165.622h0.535c5.804,0,10.508,4.704,10.508,10.508v6.929
						c0,1.606-4.824,2.908-10.775,2.908c-5.951,0-10.776-1.302-10.776-2.908v-6.929
						C784.326,170.326,789.031,165.622,794.835,165.622z"/>
					<g>
						<path style="fill:#E0E0E0;" d="M743.87,135.749c14.26-2.9,32.001-4.62,51.232-4.62c19.231,0,36.973,1.72,51.232,4.62
							l-51.232,18.375L743.87,135.749z"/>
						<path style="fill:#EFEFEF;" d="M846.335,135.749c20.634,4.197,33.976,10.865,33.976,18.375
							c0,7.51-13.342,14.178-33.976,18.375l-51.232-18.375L846.335,135.749z"/>
						<path style="fill:#E0E0E0;" d="M846.335,172.499c-14.26,2.9-32.001,4.62-51.232,4.62c-19.232,0-36.973-1.72-51.232-4.62
							l51.232-18.375L846.335,172.499z"/>
						<path style="fill:#EFEFEF;" d="M709.895,154.124c0-7.51,13.342-14.178,33.976-18.375l51.232,18.375l-51.232,18.375
							C723.236,168.302,709.895,161.634,709.895,154.124z"/>
					</g>
					<path style="fill:#535F66;" d="M794.835,136.642h0.535c5.804,0,10.508,4.705,10.508,10.509v6.929
						c0,1.606-4.824,2.908-10.775,2.908c-5.951,0-10.776-1.302-10.776-2.908v-6.929
						C784.326,141.347,789.031,136.642,794.835,136.642z"/>
				</g>
				<g>
					<path style="fill:#535F66;" d="M773.347,31.025h0.481c5.22,0,9.451,4.231,9.451,9.452v6.232c0,1.445-4.339,2.616-9.692,2.616
						c-5.353,0-9.692-1.171-9.692-2.616v-6.232C763.895,35.257,768.127,31.025,773.347,31.025z"/>
					<g>
						<path style="fill:#E0E0E0;" d="M727.505,4.156C740.331,1.548,756.289,0,773.587,0c17.299,0,33.257,1.548,46.083,4.156
							l-46.083,16.527L727.505,4.156z"/>
						<path style="fill:#EFEFEF;" d="M819.67,4.156c18.56,3.774,30.561,9.772,30.561,16.527c0,6.755-12.001,12.753-30.561,16.527
							l-46.083-16.527L819.67,4.156z"/>
						<path style="fill:#E0E0E0;" d="M819.67,37.211c-12.826,2.609-28.784,4.156-46.083,4.156c-17.298,0-33.256-1.547-46.082-4.156
							l46.082-16.527L819.67,37.211z"/>
						<path style="fill:#EFEFEF;" d="M696.945,20.684c0-6.755,12-12.753,30.56-16.527l46.082,16.527l-46.082,16.527
							C708.945,33.436,696.945,27.438,696.945,20.684z"/>
					</g>
					<path style="fill:#535F66;" d="M773.347,4.959h0.481c5.22,0,9.451,4.231,9.451,9.452v6.232c0,1.445-4.339,2.616-9.692,2.616
						c-5.353,0-9.692-1.171-9.692-2.616v-6.232C763.895,9.19,768.127,4.959,773.347,4.959z"/>
				</g>
			</g>
		</g>
		<g>
			<defs>
				<rect id="SVGID_1_" y="76.591" width="411.184" height="647.866"/>
			</defs>
			<clipPath id="SVGID_2_">
				<use xlink:href="#SVGID_1_"  style="overflow:visible;"/>
			</clipPath>
			<g style="clip-path:url(#SVGID_2_);">
				<path style="fill:#0A7070;" d="M90.284,429.885c-8.941,1.95-14.947,10.386-13.835,19.472
					c2.441,19.942,13.152,50.195,28.752,65.155c22.409,21.473,59.078,0,59.078,0l3.2-130.832
					C167.48,383.679,126.283,422.038,90.284,429.885z"/>
				<g>
					<g>
						<path style="fill:#0A7070;" d="M150.51,456.589c-10.65-25.721-42.276-37.062-70.651-25.33
							c-21.351,8.844-34.746,28.231-35.528,48.271L25.748,645.184c-1.724,15.081,9.106,28.695,24.181,30.417
							c15.49,1.771,29.48-9.36,31.262-24.863l14.995-103.95c1.436-8.739,15.663-35.988,36.228-45.154
							C153.034,492.441,158.854,476.762,150.51,456.589z"/>
						<path style="fill:#0A7070;" d="M112.42,472.362c3.043,7.321-0.451,15.718-7.769,18.751c-7.336,3.038-15.742-0.439-18.77-7.772
							c-3.027-7.321,0.449-15.721,7.772-18.751C100.996,461.546,109.384,465.039,112.42,472.362z"/>
					</g>
				</g>
				<path style="fill:#0C6666;" d="M284.817,429.885c-36.008-7.847-77.2-46.206-77.2-46.206l3.201,130.835
					c0,0,36.667,21.479,59.076,0c15.6-14.957,26.318-45.21,28.761-65.155C299.771,440.272,293.761,431.834,284.817,429.885z"/>
				<g>
					<path style="fill:#0C6666;" d="M347.513,645.981l-16.748-165.848c-0.573-20.045-13.755-39.58-35.01-48.658
						c-28.232-12.052-59.99-1.059-70.92,24.544c-8.569,20.081-2.913,35.826,17.594,45.247c20.459,9.398,34.376,36.788,35.723,45.549
						L292,650.931c1.612,15.516,15.473,26.798,30.991,25.202C338.081,674.577,349.06,661.086,347.513,645.981z"/>
					<path style="fill:#0C6666;" d="M262.747,472.215c-3.119,7.291,0.283,15.726,7.561,18.84c7.302,3.117,15.742-0.264,18.846-7.568
						c3.114-7.287-0.27-15.727-7.56-18.833C274.3,461.528,265.872,464.928,262.747,472.215z"/>
				</g>
				<g>
					<path style="fill:#EFEFEF;" d="M252.217,579.904l47.123-27.011l-9.224-14.536c-0.853-1.687-2.92-2.357-4.604-1.505
						l-39.72,22.405c-0.8,0.404-1.417,1.127-1.699,1.986c-0.29,0.87-0.215,1.808,0.2,2.616L252.217,579.904z"/>
					<g>
						<path style="fill:#0C6666;" d="M294.988,660.921c3.101,6.504,8.666,11.504,15.462,13.901
							c6.795,2.405,14.261,1.995,20.774-1.114l0.265-0.149c6.679-3.2,11.789-8.975,14.151-15.999
							c2.362-7.037,2.075-15.409-1.309-22.007l-41.892-85.101c-0.89-1.592-2.877-2.209-4.516-1.408l-48.062,26.97
							c-1.673,0.815-2.379,2.805-1.615,4.496L294.988,660.921z"/>
						<path style="fill:#0C6666;" d="M331.692,643.838c-3.032-6.322-10.609-8.991-16.92-5.951
							c-6.335,3.023-9.002,10.606-5.969,16.928c3.05,6.305,10.602,8.981,16.938,5.944
							C332.06,657.729,334.725,650.147,331.692,643.838z"/>
					</g>
				</g>
				<g>
					<path style="fill:#EFEFEF;" d="M118.489,580.536l-42.947-21.731l8.479-15.768c0.91-1.657,3.009-2.255,4.677-1.345
						l36.892,18.419c0.791,0.433,1.39,1.176,1.646,2.045c0.264,0.879,0.16,1.815-0.282,2.609L118.489,580.536z"/>
					<g>
						<path style="fill:#0A7070;" d="M78.233,661.754c-3.319,6.397-9.07,11.204-15.977,13.365c-6.907,2.17-14.399,1.5-20.852-1.835
							l-0.263-0.158c-6.616-3.432-11.573-9.383-13.73-16.49c-2.158-7.119-1.609-15.481,1.998-21.962l43.09-78.418
							c0.944-1.562,2.961-2.109,4.584-1.252l43.893,21.723c1.656,0.873,2.305,2.888,1.485,4.552L78.233,661.754z"/>
						<path style="fill:#0A7070;" d="M41.861,643.398c3.245-6.216,10.945-8.623,17.195-5.364c6.275,3.243,8.722,10.919,5.477,17.135
							c-3.264,6.199-10.939,8.614-17.214,5.357C41.061,657.277,38.616,649.602,41.861,643.398z"/>
					</g>
				</g>
				<g>
					<path style="fill:#FFC08D;" d="M154.971,369.112v35.816c0,3.454-2.437,6.42-5.82,7.093
						c-7.679,1.534-34.434,11.243-37.222,18.558c-2.783,7.316-1.605,11.214,3.114,17.454c12.29,16.269,51.914,25.825,72.301,25.825
						l15.65-54.738h0.024l-15.651-50.009H154.971z"/>
					<path style="fill:#FFB680;" d="M259.669,448.034c4.718-6.24,5.889-10.272,3.118-17.589c-2.779-7.309-29.549-16.89-37.22-18.423
						c-3.367-0.667-5.794-3.627-5.794-7.057v-35.853h-32.406v104.747C207.757,473.859,247.386,464.303,259.669,448.034z"/>
				</g>
				<g>
					<path style="fill:#F9F9F9;" d="M187.414,438.826l-19.022-9.258l-13.926-22.173l-45.086,16.157v405.958l64.199,11.488
						c0.479,0.082,0.96-0.029,1.349-0.311c0.384-0.281,0.642-0.702,0.713-1.176l11.901-77.791l13.601-1.638l6.475-253.452
						L187.414,438.826z"/>
					<path style="fill:#EFEFEF;" d="M220.442,407.394l-14.257,23.233l-18.69,8.198v322.869l11.77,77.845
						c0.064,0.467,0.323,0.89,0.707,1.164c0.382,0.276,0.857,0.393,1.322,0.31l68.604-11.492V424.692L220.442,407.394z"/>
					<g>
						<path style="fill:#E2E2E2;" d="M236.192,562.578c0,0-16.706,7.163-29.592,9.082c-12.88,1.921-5.36,12.542,22.762,19.196
							C257.491,597.51,236.192,562.578,236.192,562.578z"/>
						<path style="fill:#E2E2E2;" d="M238.221,532.63c0,0,0.416-4.309-7.325-10.389c-7.724-6.092,6.632-8.244,15.58-5.734
							C255.419,519.012,238.221,532.63,238.221,532.63z"/>
					</g>
					<path style="fill:#E2E2E2;" d="M234.409,411.911c0.164-0.181,0.241-0.433,0.205-0.679c-0.041-0.247-0.182-0.469-0.394-0.592
						c-1.672-0.993-5.289-3.094-6.858-3.662c-4.637-1.686-7.467-8.369-7.467-8.369v0.012c-5.877,16.761-17.365,30.964-32.528,40.205
						l18.77,26.682c0.142,0.206,0.38,0.339,0.628,0.357c0.244,0.011,0.491-0.087,0.657-0.27L234.409,411.911z"/>
					<path style="fill:#EFEFEF;" d="M140.455,411.911c-0.158-0.181-0.233-0.433-0.207-0.679c0.042-0.247,0.182-0.469,0.404-0.592
						c1.665-0.993,5.279-3.094,6.855-3.662c4.638-1.686,7.463-8.369,7.463-8.369v0.012c5.873,16.761,17.361,30.964,32.524,40.205
						l-18.76,26.682c-0.148,0.206-0.387,0.339-0.633,0.357c-0.246,0.011-0.494-0.087-0.664-0.27L140.455,411.911z"/>
					<g>
						<path style="fill:#EFEFEF;" d="M138.909,562.578c0,0,16.703,7.163,29.59,9.082c12.88,1.921,5.361,12.542-22.766,19.196
							C117.607,597.51,138.909,562.578,138.909,562.578z"/>
						<path style="fill:#EFEFEF;" d="M136.884,532.63c0,0-0.408-4.309,7.315-10.389c7.73-6.092-6.625-8.244-15.571-5.734
							C119.685,519.012,136.884,532.63,136.884,532.63z"/>
					</g>
				</g>
				<g>
					<polygon style="fill:#FFC08D;" points="131.632,1347.117 165.841,1347.117 165.299,1398.297 131.632,1398.297 					"/>
					<polygon style="fill:#FFC08D;" points="243.286,1347.117 209.078,1347.117 209.618,1398.297 243.286,1398.297 					"/>
					<path style="fill:#FC4129;" d="M293.801,767.951c-0.364-2.112-0.936-4.259-1.587-6.407c-0.224-1.645-0.475-3.325-0.683-4.953
						l-10.975-66.897h-1.848h-2.476h-88.878l-12.015,30.876l-0.109,120.404l0.014,0.006l11.972,19.47
						c7.936,0,10.205,6,10.712,14.058c-0.223,25.902-0.612,79.992-0.356,120.859c0.12,19.133,1.454,38.064,2.799,53.79
						c0.389,4.512,0.599,9.19,0.607,13.72c0.013,5.792,0.413,11.594,1.249,17.34c0.099,0.661,0.18,1.322,0.263,1.983
						c0.469,4.033,0.575,8.129,0.331,12.185l-1.57,25.875c-0.738,12.049-0.949,24.13-0.703,36.196
						c-0.406,16.956,0.152,33.927,1.68,50.819l0.238,6.513l1.184,128.893c0.004,1.101,0.903,1.984,2.001,1.984
						c0.89,0,1.629,0.708,1.66,1.604l0.628,17.217c0.011,0.37,0.31,0.655,0.675,0.655h34.96c0.352,0,0.643-0.268,0.674-0.619
						l1.446-16.352c0.128-1.417,1.312-2.505,2.741-2.505c0.991,0,1.809-0.761,1.889-1.744l21.096-268.166
						c-0.323-14.473,0.973-28.929,3.868-43.057c0,0,14.305-88.418,18.514-119.73C301.598,853.812,301.243,812.237,293.801,767.951z"
						/>
					<rect x="187.297" y="665.329" style="fill:#D31E00;" width="92.952" height="30.122"/>
					<path style="fill:#FF573B;" d="M187.427,840.973l-0.145-151.28H98.41h-2.486h-1.848l-10.965,66.897
						c-0.21,1.628-0.467,3.309-0.689,4.953c-0.652,2.148-1.225,4.295-1.582,6.407c-7.448,44.286-7.794,85.861,0,144.017
						c4.203,31.312,18.509,119.73,18.509,119.73c2.902,14.128,4.201,28.584,3.87,43.057l21.097,268.166
						c0.078,0.983,0.896,1.744,1.891,1.744c1.421,0,2.611,1.088,2.735,2.505l1.447,16.352c0.033,0.352,0.329,0.619,0.68,0.619
						h34.953c0.364,0,0.663-0.285,0.676-0.655l0.63-17.217c0.035-0.896,0.767-1.604,1.665-1.604c1.1,0,1.989-0.884,2.001-1.984
						l1.18-128.893l0.233-6.513c1.53-16.893,2.087-33.864,1.689-50.819c0.237-12.066,0.034-24.147-0.701-36.196l-1.572-25.875
						c-0.245-4.021-0.133-8.188,0.326-12.185c0.084-0.661,0.168-1.322,0.258-1.983c0.843-5.747,1.245-11.549,1.256-17.34
						c0.004-4.53,0.21-9.208,0.6-13.72c1.353-15.726,2.689-34.657,2.804-53.79c0.257-40.867-0.135-94.957-0.358-120.859
						c0.516-8.058,2.781-14.058,10.72-14.058l-0.021-19.47C187.406,840.979,187.42,840.973,187.427,840.973z"/>
					<rect x="94.334" y="665.329" style="fill:#EF2200;" width="92.945" height="30.122"/>
					<g>
						<path style="fill:#EF2200;" d="M139.144,1347.117h-2.914c-0.573,0-1.041,0.387-1.041,0.872v12.986
							c0,0.48,0.468,0.873,1.041,0.873h2.914c0.572,0,1.041-0.393,1.041-0.873v-12.986
							C140.185,1347.504,139.716,1347.117,139.144,1347.117z"/>
						<path style="fill:#EF2200;" d="M150.192,1347.117h-2.916c-0.57,0-1.039,0.387-1.039,0.872v12.986
							c0,0.48,0.469,0.873,1.039,0.873h2.916c0.574,0,1.04-0.393,1.04-0.873v-12.986
							C151.232,1347.504,150.767,1347.117,150.192,1347.117z"/>
						<path style="fill:#EF2200;" d="M162.283,1347.989c0-0.485-0.466-0.872-1.043-0.872h-2.912c-0.576,0-1.043,0.387-1.043,0.872
							v12.986c0,0.48,0.467,0.873,1.043,0.873h2.912c0.577,0,1.043-0.393,1.043-0.873V1347.989z"/>
					</g>
					<g>
						<g>
							<g>
								<path style="fill:#D31E00;" d="M216.595,1347.117h-2.915c-0.574,0-1.043,0.387-1.043,0.872v12.986
									c0,0.48,0.469,0.873,1.043,0.873h2.915c0.574,0,1.041-0.393,1.041-0.873v-12.986
									C217.636,1347.504,217.169,1347.117,216.595,1347.117z"/>
							</g>
							<g>
								<path style="fill:#D31E00;" d="M227.645,1347.117h-2.915c-0.574,0-1.041,0.387-1.041,0.872v12.986
									c0,0.48,0.467,0.873,1.041,0.873h2.915c0.569,0,1.039-0.393,1.039-0.873v-12.986
									C228.685,1347.504,228.215,1347.117,227.645,1347.117z"/>
							</g>
							<g>
								<path style="fill:#D31E00;" d="M239.737,1347.989c0-0.485-0.469-0.872-1.045-0.872h-2.915c-0.572,0-1.042,0.387-1.042,0.872
									v12.986c0,0.48,0.47,0.873,1.042,0.873h2.915c0.576,0,1.045-0.393,1.045-0.873V1347.989z"/>
							</g>
						</g>
					</g>
				</g>
				<path style="fill:#0C6666;" d="M308.478,837.057c2.168-1.339,3.27-3.898,2.75-6.391l-16.644-79.529
					c-8.895-42.507-12.517-85.955-10.778-129.351l5.056-126.279l-12.195-68.228l-42.179-16.953l12.167,117.769l-18.766,68.28
					c-0.773,2.802-1.161,5.701-1.169,8.604l-0.462,239.012c-0.009,1.675,0.659,3.278,1.842,4.46
					c1.186,1.189,2.785,1.851,4.452,1.851h23.365C272.44,850.302,294.397,845.713,308.478,837.057z"/>
				<path style="fill:#095959;" d="M289.529,486.964c0.69-1.223,0.35-2.779-0.788-3.605l-21.083-15.333
					c-0.639-0.469-1.058-1.184-1.131-1.974c-0.08-0.79,0.185-1.573,0.726-2.159l9.957-10.78c0.496-0.544,0.766-1.266,0.731-2.002
					c-0.027-0.738-0.354-1.434-0.902-1.932l-42.561-38.853c0,0,10.874,103.582-7.751,193.195
					C257.448,544.123,283.673,497.339,289.529,486.964z"/>
				<path style="fill:#0A7070;" d="M148.375,604.457c0-2.558-0.346-5.102-1.026-7.573l-18.891-68.785l12.157-117.768l-42.176,16.955
					l-12.201,68.229l5.054,126.283c1.746,43.39-1.878,86.832-10.771,129.339L63.88,830.666c-0.525,2.493,0.575,5.052,2.752,6.391
					c14.071,8.656,36.031,13.245,52.555,13.245h23.363c1.668,0,3.27-0.661,4.454-1.851c1.182-1.182,1.84-2.785,1.84-4.46
					L148.375,604.457z"/>
				<path style="fill:#0C6666;" d="M140.615,410.326l-42.555,38.853c-0.541,0.499-0.871,1.194-0.9,1.932
					c-0.025,0.736,0.234,1.458,0.733,2.002l9.961,10.786c0.535,0.579,0.799,1.362,0.724,2.152c-0.079,0.79-0.489,1.505-1.136,1.974
					l-21.077,15.333c-1.14,0.826-1.475,2.383-0.782,3.605c5.849,10.375,32.067,57.159,62.792,116.558
					C129.752,513.908,140.615,410.326,140.615,410.326z"/>
				<g>
					<path style="fill:#FFAC27;" d="M150.732,429.369c0-0.905,0.456-1.744,1.217-2.236c0.759-0.484,1.71-0.555,2.529-0.186
						l8.707,3.934c3.289,1.485,6.787,2.428,10.377,2.798c1.561,0.156,2.78,1.257,3.215,2.696c1.595-1.557,3.768-2.521,6.17-2.521
						h4.558l5.729,5.894l1.755,12.448l-7.483,5.517h-4.558c-2.402,0-4.575-0.97-6.17-2.527c-0.435,1.438-1.654,2.545-3.215,2.704
						c-3.59,0.367-7.088,1.311-10.377,2.798l-8.707,3.925c-0.819,0.37-1.771,0.307-2.529-0.185c-0.761-0.491-1.217-1.329-1.217-2.23
						V429.369z"/>
					<path style="fill:#F99F00;" d="M224.181,429.369c0-0.905-0.455-1.744-1.219-2.236c-0.762-0.484-1.708-0.555-2.528-0.186
						l-8.708,3.934c-3.292,1.485-6.789,2.428-10.372,2.798c-1.567,0.156-2.784,1.257-3.218,2.696
						c-1.593-1.557-3.767-2.521-6.181-2.521h-4.553v23.859h4.553c2.414,0,4.588-0.97,6.181-2.527
						c0.434,1.438,1.664,2.545,3.218,2.704c3.583,0.367,7.08,1.311,10.372,2.798l8.708,3.925c0.82,0.37,1.767,0.307,2.528-0.185
						c0.764-0.491,1.219-1.329,1.219-2.23V429.369z"/>
				</g>
				<g>
					<path style="fill:#EF9900;" d="M264.791,1378.084c0,0-7.041-11.343-13.046-11.8c-6.016-0.469-14.489,11.184-8.439,17.405
						C249.366,1389.909,262.549,1381.74,264.791,1378.084z"/>
					<path style="fill:#F9F9F9;" d="M321.778,1428.97c0,0,1.2,11.465-5.761,13.899c-6.956,2.446-30.06,3.231-45.932-1.169
						c-15.87-4.413-18.215-9.229-34.729-8.791c-16.513,0.439-32.178-5.256-35.092-8.61c-2.939-3.365-1.604-11.394,2.363-16.797
						c3.947-5.395,57.37,10.845,57.37,10.845l43.681,9.745L321.778,1428.97z"/>
					<path style="fill:#F99F00;" d="M319.5,1420.719c-16.254-10.734-25.02-3.729-35.537-17.746
						c-10.509-14.021-18.698-24.45-18.698-24.45s-12.246-2.916-29.277,9.996c-12.366,9.377-27.357-7.063-26.59-18.584
						c0.013-0.223-0.12-0.431-0.331-0.503c-0.215-0.073-0.448,0.004-0.576,0.189c-2.231,3.255-6.994,13.361-7.321,40.61
						c3.073,3.252,2.135,4.354,14.859,6.76c12.739,2.41,30.857,7.807,41.08,13.905c10.207,6.104,46.054,13.079,62.303,9.334
						C326.016,1436.052,335.765,1431.452,319.5,1420.719z"/>
					<path style="fill:#3F3F3F;" d="M327.686,1430.685c-0.583-1.644-6.787,1.854-8.283,2.516c-1.503,0.656,0.372,5.384-3.513,7.948
						c-3.899,2.557-18.816,5.169-38.137,1.34c-19.312-3.816-10.121-6.881-32.509-9.511c-20.349-2.387-50.414-3.33-45.782-16.959
						c0.05-0.162-0.024-0.337-0.181-0.404c-0.154-0.067-0.338-0.005-0.419,0.144c-2.564,4.739-3.684,12.124,11.543,14.926
						c23.189,4.267,38.366,2.417,54.859,11.009c11.905,5.74,36.382,4.961,46.035,3.277
						C320.969,1443.274,331.34,1437.369,327.686,1430.685z"/>
					<path style="fill:#F9F9F9;" d="M280.269,1408.428c0.908-1.253,2.355-2.118,4.377-2.118c1.501,0,2.694,0.486,3.584,1.259
						c0.445-0.551,0.386-1.358-0.159-1.834c-1.516-1.31-3.208-1.854-5.014-1.592c-4.052,0.58-7.069,5.181-7.213,5.379
						c-0.388,0.604-0.212,1.421,0.4,1.809c0.211,0.146,0.454,0.217,0.7,0.217c0.444,0,0.855-0.212,1.119-0.599
						C278.421,1410.388,279.228,1409.335,280.269,1408.428z"/>
					<path style="fill:#F9F9F9;" d="M280.269,1401.089c1.111,0,2.011,0.322,2.704,0.848c0.178-0.099,0.331-0.232,0.45-0.421
						c0.403-0.602,0.229-1.416-0.366-1.812c-5.808-3.818-13.316,5.413-13.63,5.81c-0.453,0.567-0.358,1.393,0.209,1.851
						c0.239,0.192,0.532,0.292,0.814,0.292c0.389,0,0.771-0.18,1.028-0.492c0.048-0.052,2.833-3.436,5.809-4.979
						C277.992,1401.509,278.992,1401.089,280.269,1401.089z"/>
					<path style="fill:#F9F9F9;" d="M275.553,1394.79c1.497,0,2.599,0.581,3.336,1.453c0.046-0.036,0.093-0.047,0.127-0.083
						c0.528-0.508,0.541-1.34,0.036-1.86c-1.381-1.434-3.05-2.095-4.94-1.96c-5.631,0.385-11.324,8.076-11.562,8.398
						c-0.435,0.586-0.308,1.412,0.284,1.837c0.225,0.17,0.518,0.257,0.762,0.257c0.414,0,0.826-0.193,1.072-0.538
						c1.428-1.948,5.935-7.05,9.583-7.333C274.654,1394.862,275.09,1394.79,275.553,1394.79z"/>
					<path style="fill:#F9F9F9;" d="M270.146,1388.734c1.591,0,2.878,0.516,3.82,1.322c0.17-0.105,0.346-0.25,0.463-0.439
						c0.377-0.618,0.189-1.434-0.43-1.808c-8.783-5.408-18.17,7.573-18.568,8.128c-0.416,0.592-0.283,1.407,0.307,1.827
						c0.222,0.168,0.5,0.25,0.757,0.25c0.41,0,0.827-0.193,1.076-0.556c0.062-0.082,4.37-6.033,9.278-7.806
						C267.724,1389.074,268.814,1388.734,270.146,1388.734z"/>
					<path style="fill:#F9F9F9;" d="M265.415,1383.917c1.887,0,3.478,0.405,4.841,1.072c0.159-0.111,0.292-0.265,0.393-0.445
						c0.328-0.643,0.067-1.439-0.562-1.767c-10.63-5.433-21.13,8.333-21.561,8.92c-0.437,0.572-0.314,1.398,0.258,1.837
						c0.225,0.174,0.504,0.264,0.791,0.264c0.394,0,0.801-0.184,1.047-0.529c0.069-0.075,3.846-5.039,8.815-7.601
						C261.008,1384.584,263.005,1383.917,265.415,1383.917z"/>
					<path style="fill:#F9F9F9;" d="M260.944,1378.802c1.988,0.123,3.854,0.655,5.577,1.518c0.161-0.1,0.291-0.235,0.402-0.405
						c0.392-0.619,0.195-1.428-0.413-1.815c-9.874-6.173-20.57,3.279-24.855,9.138c-0.428,0.583-0.295,1.41,0.293,1.837
						c0.232,0.176,0.501,0.251,0.772,0.251c0.406,0,0.801-0.186,1.06-0.543C243.866,1388.659,252.083,1377.614,260.944,1378.802z"/>
				</g>
				<g>
					<path style="fill:#F99F00;" d="M110.07,1378.084c0,0,7.033-11.343,13.04-11.8c6.017-0.469,14.49,11.184,8.435,17.405
						C125.482,1389.909,112.303,1381.74,110.07,1378.084z"/>
					<path style="fill:#F9F9F9;" d="M53.079,1428.97c0,0-1.209,11.465,5.756,13.899c6.966,2.446,30.065,3.231,45.928-1.169
						c15.875-4.413,18.219-9.229,34.739-8.791c16.51,0.439,32.17-5.256,35.083-8.61c2.936-3.365,1.613-11.394-2.364-16.797
						c-3.943-5.395-57.367,10.845-57.367,10.845l-43.684,9.745L53.079,1428.97z"/>
					<path style="fill:#FFAC27;" d="M166.362,1369.62c-0.126-0.184-0.361-0.262-0.574-0.189c-0.213,0.072-0.346,0.28-0.329,0.505
						c0.766,11.521-14.227,27.961-26.598,18.582c-17.029-12.912-29.279-9.996-29.279-9.996s-8.184,10.429-18.693,24.45
						c-10.517,14.018-19.277,7.012-35.543,17.746c-16.271,10.735-6.513,15.333,0.105,19.513c16.236,3.751,52.088-3.23,62.295-9.335
						c10.217-6.1,28.34-11.495,41.078-13.907c12.724-2.405,11.795-3.505,14.862-6.76
						C173.357,1382.981,168.595,1372.875,166.362,1369.62z"/>
					<path style="fill:#3F3F3F;" d="M175.994,1415.766c-0.08-0.148-0.259-0.21-0.418-0.143c-0.155,0.068-0.23,0.242-0.175,0.404
						c4.615,13.62-25.451,14.562-45.792,16.952c-22.388,2.626-13.199,5.695-32.505,9.509c-19.334,3.829-34.242,1.217-38.141-1.34
						c-3.896-2.563-2.014-7.291-3.519-7.947c-1.496-0.655-7.696-4.163-8.285-2.512c-3.653,6.677,6.712,12.589,16.39,14.28
						c9.658,1.693,34.135,2.465,46.038-3.278c16.49-8.589,31.672-6.741,54.865-11.002
						C179.667,1427.885,178.557,1420.509,175.994,1415.766z"/>
					<path style="fill:#F9F9F9;" d="M94.581,1408.428c-0.9-1.253-2.35-2.118-4.375-2.118c-1.505,0-2.692,0.486-3.578,1.259
						c-0.458-0.551-0.386-1.358,0.146-1.834c1.531-1.31,3.224-1.854,5.024-1.592c4.046,0.58,7.082,5.181,7.208,5.379
						c0.39,0.604,0.219,1.421-0.387,1.809c-0.22,0.146-0.466,0.217-0.714,0.217c-0.436,0-0.853-0.212-1.11-0.599
						C96.432,1410.388,95.622,1409.335,94.581,1408.428z"/>
					<path style="fill:#F9F9F9;" d="M94.591,1401.089c-1.114,0-2.012,0.322-2.713,0.848c-0.176-0.099-0.326-0.232-0.446-0.421
						c-0.409-0.602-0.235-1.416,0.366-1.812c5.807-3.818,13.319,5.413,13.634,5.81c0.444,0.567,0.364,1.393-0.211,1.851
						c-0.239,0.192-0.534,0.292-0.819,0.292c-0.392,0-0.773-0.18-1.027-0.492c-0.049-0.052-2.835-3.436-5.807-4.979
						C96.864,1401.509,95.856,1401.089,94.591,1401.089z"/>
					<path style="fill:#F9F9F9;" d="M100.599,1394.961c-0.396-0.099-0.831-0.171-1.299-0.171c-1.494,0-2.593,0.581-3.335,1.453
						c-0.049-0.036-0.098-0.047-0.132-0.083c-0.523-0.508-0.536-1.34-0.032-1.86c1.389-1.434,3.055-2.095,4.938-1.96
						c5.643,0.385,11.334,8.076,11.565,8.398c0.434,0.586,0.305,1.412-0.279,1.837c-0.221,0.17-0.516,0.257-0.775,0.257
						c-0.408,0-0.812-0.193-1.063-0.538C108.755,1400.346,104.25,1395.243,100.599,1394.961z"/>
					<path style="fill:#F9F9F9;" d="M104.712,1388.734c-1.596,0-2.878,0.516-3.819,1.322c-0.172-0.105-0.354-0.25-0.47-0.439
						c-0.372-0.618-0.187-1.434,0.435-1.808c8.775-5.408,18.177,7.573,18.564,8.128c0.42,0.592,0.279,1.407-0.301,1.827
						c-0.229,0.168-0.508,0.25-0.767,0.25c-0.402,0-0.818-0.193-1.065-0.556c-0.072-0.082-4.384-6.033-9.281-7.806
						C107.13,1389.074,106.041,1388.734,104.712,1388.734z"/>
					<path style="fill:#F9F9F9;" d="M109.437,1383.917c-1.88,0-3.478,0.405-4.849,1.072c-0.15-0.111-0.284-0.265-0.386-0.445
						c-0.328-0.643-0.07-1.439,0.561-1.767c10.632-5.433,21.13,8.333,21.562,8.92c0.444,0.572,0.317,1.398-0.254,1.837
						c-0.234,0.174-0.505,0.264-0.787,0.264c-0.396,0-0.793-0.184-1.048-0.529c-0.062-0.075-3.855-5.039-8.816-7.601
						C113.85,1384.584,111.854,1383.917,109.437,1383.917z"/>
					<path style="fill:#F9F9F9;" d="M113.905,1378.802c-1.983,0.123-3.854,0.655-5.57,1.518c-0.163-0.1-0.292-0.235-0.401-0.405
						c-0.389-0.619-0.195-1.428,0.413-1.815c9.872-6.173,20.57,3.279,24.852,9.138c0.434,0.583,0.291,1.41-0.29,1.837
						c-0.238,0.176-0.507,0.251-0.78,0.251c-0.398,0-0.803-0.186-1.052-0.543C130.985,1388.659,122.774,1377.614,113.905,1378.802z"
						/>
				</g>
				<g>
					<g>
						<g>
							<path style="fill:#3F3F3F;" d="M141.689,474.826c-5.323,0.015-10.239,2.843-12.931,7.435L112.8,509.497
								c-7.809,13.331-11.945,14.693-11.899,30.143l0.047,16.072c0.018,6.138,3.899,11.599,9.688,13.637
								c5.789,2.037,12.234,0.209,16.093-4.565l10.102-12.499c7.786-9.634,19.496-15.248,31.884-15.284l19.706-0.059l6.812-26.973
								l-6.997-35.28L141.689,474.826z"/>
							<path style="fill:#333333;" d="M234.782,474.55c5.323-0.016,10.257,2.783,12.975,7.359l16.119,27.141
								c7.889,13.284,12.033,14.622,12.079,30.071l0.048,16.072c0.018,6.137-3.831,11.622-9.607,13.693
								c-5.777,2.072-12.232,0.282-16.119-4.469l-10.176-12.439c-7.844-9.587-19.588-15.132-31.974-15.095l-19.707,0.058
								l-0.185-62.253L234.782,474.55z"/>
						</g>
					</g>
					<path style="fill:#FFCB99;" d="M151.636,505.433c-0.205-0.907-0.513-1.56-0.911-2.016c-0.172-0.195-49.453,9.595-49.453,9.595
						c-3.078,0.692-4.95,4.019-4.183,7.428l0.581,2.572c0.061,0.273,0.138,0.539,0.228,0.795c0.42,1.193,0.312,2.509-0.301,3.617
						c-0.611,1.107-1.668,1.9-2.901,2.182l-3.151,0.719c-3.079,0.692-4.951,4.019-4.183,7.429l0.58,2.571
						c0.247,1.098,0.737,2.069,1.392,2.859c0.472,0.572,0.613,1.348,0.374,2.05c-0.24,0.701-0.827,1.229-1.55,1.391
						c-3.079,0.692-4.951,4.02-4.183,7.429l0.578,2.572c0.767,3.408,3.885,5.611,6.963,4.918l19.899-4.442
						c14.143-2.493,10.249-14.092,10.249-14.092c-0.01-0.045-0.021-0.089-0.031-0.133c-0.228-0.937-0.071-1.926,0.437-2.746
						c0.506-0.82,1.321-1.402,2.262-1.618l7.327-1.675c14.143-2.494,10.249-14.093,10.249-14.093
						c-0.204-0.907-0.512-1.56-0.911-2.016c-0.171-0.195-0.227-0.466-0.146-0.714c0.079-0.247,0.284-0.435,0.537-0.493
						C155.529,517.031,151.636,505.433,151.636,505.433z"/>
					<path style="fill:#FFC08D;" d="M226.336,506.319c0.182-0.823,0.455-1.415,0.814-1.83c0.154-0.178,44.838,8.424,44.838,8.424
						c2.792,0.61,4.504,3.613,3.827,6.705l-0.512,2.332c-0.054,0.248-0.122,0.488-0.203,0.722c-0.372,1.082-0.268,2.274,0.293,3.274
						c0.561,1,1.521,1.711,2.639,1.961l2.858,0.634c2.792,0.61,4.505,3.614,3.828,6.705l-0.513,2.332
						c-0.217,0.995-0.655,1.878-1.243,2.598c-0.426,0.519-0.55,1.224-0.329,1.857c0.222,0.634,0.757,1.109,1.411,1.251
						c2.792,0.61,4.507,3.614,3.829,6.705l-0.512,2.332c-0.675,3.092-3.487,5.103-6.278,4.491l-18.045-3.915
						c-12.822-2.182-9.358-12.707-9.358-12.707c0.009-0.041,0.018-0.081,0.027-0.121c0.202-0.849,0.055-1.744-0.409-2.483
						c-0.464-0.74-1.204-1.264-2.057-1.453l-6.646-1.478c-12.821-2.182-9.358-12.707-9.358-12.707
						c0.182-0.823,0.456-1.415,0.815-1.83c0.153-0.178,0.202-0.424,0.129-0.648c-0.073-0.224-0.259-0.392-0.489-0.443
						C222.873,516.845,226.336,506.319,226.336,506.319z"/>
					<path style="fill:#FFC08D;" d="M250.585,488.967c-0.524-0.462-1.122-0.832-1.77-1.093l-16.374-6.592
						c-1.465-0.59-3.123-0.482-4.5,0.293c-1.926,1.086-3.511,3.33,0.176,7.812c2.977,3.621,9.259,5.771,13.076,6.796
						c2.116,0.567,2.133,0.539,3.433,2.302l5.794,11.882l24.465,4.747L250.585,488.967z"/>
					<path style="fill:#FFCB99;" d="M149.701,478.121c-1.524-0.848-3.357-0.955-4.97-0.294l-18.036,7.386
						c-0.714,0.292-1.373,0.704-1.948,1.218l-26.66,29.031l26.983-5.401l6.318-13.159c1.426-1.956,1.442-1.924,3.775-2.564
						c4.208-1.156,11.131-3.572,14.395-7.588C153.601,481.774,151.835,479.309,149.701,478.121z"/>
				</g>
				<g>
					<g>
						<path style="fill:#D44700;" d="M106.244,314.284c5.202-5.521,3.421-12.627,0.654-18.664
							c-4.258-9.311-0.987-17.583,6.14-23.451c0.592-0.408,5.134-3.668,6.442-9.46c1.397-6.2-3.209-13.289-3.729-21.763
							c-0.53-8.468-2.23,12.621-2.23,12.621s4.827,10.992-2.441,16.672c0,0.013,0,0.024-0.01,0.034
							c-7.487,6.147-11.278,15.299-7.253,24.843c2.442,5.77,5.624,12.055,1.346,17.698c-4.319,5.71-3.836,11.158,1.141,16.933
							c0.592,0.69,1.312,1.419,2.109,1.792C104.254,326.98,101.693,319.101,106.244,314.284z"/>
						<path style="fill:#C43C00;" d="M266.967,245.306c0,0-10.564,2.67-7.803,15.576c2.764,12.902,13.461,15.881,9.023,25.983
							c3.799-5.904,2.753-8.658-4.468-20.266c-7.205-11.598,5.712-20.297,5.712-20.297L266.967,245.306z"/>
						<path style="fill:#C43C00;" d="M246.82,325.445c0,0-2.901,7.09,0.329,18.344c3.245,11.257,12.894,13.233,9.576,22.449
							c2.374-6.65,0.968-9.199-4.232-16.34c-7.147-9.795,0.383-24.453,0.383-24.453H246.82z"/>
						<path style="fill:#D44700;" d="M140.38,344.176c0,0-2.916,7.09,0.32,18.341c3.237,11.253,12.892,13.234,9.587,22.452
							c2.36-6.656,0.956-9.199-4.25-16.34c-7.13-9.798,0.39-24.453,0.39-24.453H140.38z"/>
						<path style="fill:#D44700;" d="M136.369,331.526c0,0-4.161,6.429-3.052,18.09c1.117,11.659,10.236,15.374,5.293,23.831
							c3.549-6.111,2.645-8.864-1.165-16.848c-5.215-10.94,4.87-23.957,4.87-23.957L136.369,331.526z"/>
						<path style="fill:#D44700;" d="M114.518,266.028c0,0-1.938,7.413-11.294,14.455c-9.351,7.043-18.255,2.819-21.157,12.173
							c2.12-6.735,4.764-7.932,13.224-10.505c11.591-3.531,14.398-19.762,14.398-19.762L114.518,266.028z"/>
						<path style="fill:#C43C00;" d="M239.057,369.29c-3.137-11.872,3.25-23.302,0.208-35.186c-0.336-1.31-0.867-2.46-1.455-3.544
							c-0.615-1.64-1.435-3.25-2.631-4.518c-4.025-4.259-8.235-5.061-8.512-14.779c0.102-0.548,0.175-1.087,0.321-1.647
							c0.143-0.588-12.711-10.992-12.583-11.542c-0.079,0.361,2.054,2.101,2.865,3.474c1.703,2.825,3.162,5.827,4.341,8.906
							c1.051,2.726,2.438,6.017,3.812,8.346c-0.013,0-0.013,0-0.025-0.005l0.025,0.009c0.646,1.122,1.54,2.242,2.737,3.316
							c6.062,5.391,9.055,11.271,8.956,15.812c0,0.27,0.013,0.53,0,0.796c-0.004,0.176-0.012,0.36-0.012,0.507
							c-0.293,6.877-2.366,14.091-1.314,21.265c2.653,18.114,9.044,22.372,9.725,23.267
							C242.278,379.498,240.415,374.415,239.057,369.29z"/>
						<g>
							<path style="fill:#D44700;" d="M98.616,210.598c-3.021,26.917,15.922,72.027,15.922,72.027s36.396,2.016,72.699,2.619
								V177.042C154.336,179.094,100.905,190.335,98.616,210.598z"/>
							<path style="fill:#C43C00;" d="M210.456,177.996c-3.846-1.31-12.434-1.627-23.219-0.954v108.202
								c34.068,0.56,68.063-0.125,71.736-4.896c7.58-9.854,14.952-35.604,16.088-61.004
								C276.202,193.942,225.989,183.305,210.456,177.996z"/>
						</g>
						<path style="fill:#FFB680;" d="M254.676,278.002l7.24-4.93c1.266-0.863,2.833-1.105,4.282-0.679
							c1.465,0.419,2.649,1.479,3.246,2.864c3.1,7.215,3.525,15.288,1.201,22.777l-1.695,5.466
							c-0.827,7.266-1.643,10.221-5.482,13.623l-1.093,0.49c-1.526,0.69-3.312,0.441-4.609-0.629l-5.277-4.425L254.676,278.002z"/>
						<path style="fill:#FFC08D;" d="M119.57,278.002l-7.238-4.93c-1.255-0.863-2.832-1.105-4.278-0.679
							c-1.468,0.419-2.647,1.479-3.252,2.864c-3.096,7.215-3.518,15.288-1.2,22.777l1.691,5.466
							c0.834,7.266,1.649,10.221,5.488,13.623l1.082,0.49c1.541,0.69,3.335,0.441,4.62-0.629l5.281-4.425L119.57,278.002z"/>
						<path style="fill:#E25314;" d="M134.614,376.017c-3.903-4.775-2.042-10.438,0.544-15.173
							c3.988-7.301,1.818-14.202-3.624-19.37c-0.461-0.363-3.949-3.273-4.677-8.042c-0.774-5.107,3.356-10.586,4.279-17.43
							c0.919-6.838,1.083,10.364,1.083,10.364s-4.547,8.634,1.009,13.658c0.004,0.018,0.004,0.025,0.01,0.031
							c5.718,5.414,8.256,13.049,4.44,20.556c-2.298,4.543-5.249,9.449-2.109,14.274c3.176,4.884,2.466,9.266-1.901,13.669
							c-0.53,0.526-1.153,1.067-1.816,1.326C135.497,386.427,138.021,380.187,134.614,376.017z"/>
						<path style="fill:#D44700;" d="M254.931,356.627c-4.917,0.501-7.882-3.231-9.903-7.048c-3.125-5.887-8.695-7.464-14.544-6.103
							c-0.449,0.146-3.928,1.197-7.438-0.42c-3.757-1.726-5.595-6.911-9.771-10.533c-4.169-3.626,7.402,3.84,7.402,3.84
							s3.774,6.848,9.575,5.342c0.013,0,0.018,0,0.031,0c6.138-1.438,12.28-2.605,15.618,3.251c2.016,3.539,3.933,9.642,8.552,9.672
							c4.651,0.024,7.424,3.295,8.449,8.144c0.12,0.585,0.208,1.245,0.088,1.805C262.284,360.612,259.216,356.185,254.931,356.627z"
							/>
						<g>
							<path style="fill:#FFCB99;" d="M187.934,159.703l10.422,119.749l7.923,51.414l-18.345,56.979h-5.055
								c-8.929,0-17.489-3.964-23.805-11.024l-28.095-31.428c-9.357-11.842-14.039-25.437-15.12-41.461
								c-1.833-27.074-4.896-107.192-4.896-107.192L187.934,159.703z"/>
							<path style="fill:#FFC08D;" d="M186.953,159.703l0.468,228.142h5.059c8.457,0,17.021-3.964,23.331-11.024l28.108-31.428
								c10.036-14.152,15.74-28.932,15.74-54.24c0-23.702,4.273-94.414,4.273-94.414L186.953,159.703z"/>
							<path style="fill:#FFC08D;" d="M173.796,325.445c-0.492,0.627-0.589,1.469-0.249,2.184c0.354,0.713,1.089,1.171,1.877,1.171
								h13.73v-8.845c-0.388,0.018-0.756,0.036-1.12,0.066C179.434,320.581,175.552,323.212,173.796,325.445z"/>
						</g>
						<path style="fill:#C43C00;" d="M260.871,176.858c-12.045-15.032-33.199-25.472-51.42-30.301
							c6.455-1.893,7.709-4.43,7.396-6.559c7.271-3.991,13.306-10.06,14.306-19.898c2.52-24.533-38.177-29.061-43.823-29.25
							c-0.021,0-0.07-0.007-0.093-0.007l-12.079,8.941c-0.019,0-0.043-0.005-0.056-0.005l1.008,10.509l0.671,74.215l10.402,12.025
							c1.175,0.115,2.358,0.253,3.55,0.424c21.232,3.031,67.572,39.519,69.849,58.475
							C287.124,217.515,272.508,191.389,260.871,176.858z"/>
						<path style="fill:#D44700;" d="M187.237,90.843c-5.938-0.238-51.439-6.495-50.124,20.953
							c0.624,13.098,7.279,20.788,14.071,25.29c-0.226,0.695-0.329,1.486-0.25,2.411c0.19,2.152,1.825,3.833,4.217,5.141
							c-15.697,3.137-33.153,11.828-46.675,34.499c-25.771,43.215,4.549,74.296,4.549,74.296s11.81-34.201,24.701-44.055
							c12.161-9.301,29.676-14.803,49.457-12.85v-47.017c0.015-0.006,0.035,0,0.054-0.006V90.843z"/>
						<g>
							<g>
								<g>
									<path style="fill:#D44700;" d="M167.355,241.836c-2.131-3.044-10.125-7.046-18.225-8.19
										c-17.659-2.507-25.829,6.32-29.534,9.282c-0.111,0.082-0.116,0.249-0.04,0.367c0.076,0.112,0.24,0.169,0.36,0.093
										c16.753-12.22,37.166-3.524,45.256,0.879c0.688,0.378,1.534,0.23,2.054-0.354
										C167.741,243.336,167.804,242.461,167.355,241.836z"/>
								</g>
							</g>
							<g>
								<g>
									<path style="fill:#C43C00;" d="M205.064,241.836c2.129-3.044,10.122-7.046,18.217-8.19
										c17.677-2.507,25.833,6.32,29.543,9.282c0.117,0.082,0.117,0.249,0.041,0.367c-0.086,0.112-0.242,0.169-0.361,0.093
										c-16.761-12.22-37.166-3.524-45.263,0.879c-0.671,0.378-1.527,0.23-2.047-0.354
										C204.678,243.336,204.609,242.461,205.064,241.836z"/>
								</g>
							</g>
						</g>
						<path style="fill:#D44700;" d="M257.282,258.319c-1.205-7.489-7.929-10.414-14.391-11.904
							c-9.986-2.295-14.543-9.932-14.854-19.161c0.038-0.721,0.227-6.299-3.571-10.871c-4.058-4.889-17.281-11.424-24.32-16.17
							c-7.036-4.755,2.471,5.244,2.471,5.244s22.508,10.041,22.709,22.172c0,0.006,0.013,0.019,0.013,0.031
							c0.306,9.682,5.253,18.259,15.271,20.888c6.054,1.593,12.978,2.902,14.844,9.733c1.889,6.906,6.51,9.836,14.119,9.425
							c0.914-0.054,1.929-0.184,2.713-0.585C266.132,267.639,258.329,264.853,257.282,258.319z"/>
						<path style="fill:#E25314;" d="M91.331,270.298c8.108-9.227,21.146-10.296,29.314-19.454c0.896-1.009,1.562-2.085,2.137-3.186
							c1.012-1.42,1.911-2.996,2.277-4.707c2.805-13.411,20.099-32.638,20.643-32.831c0.564-0.206-9.546,0.19-9.013,0
							c-0.35,0.124-0.598,2.868-1.281,4.313c-1.408,2.988-3.085,5.874-4.971,8.573c-1.68,2.39-3.638,5.378-4.814,7.814
							c0-0.004,0-0.011,0-0.016l-0.01,0.016c-0.554,1.162-0.999,2.53-1.216,4.13c-1.096,8.033-4.293,13.798-8.126,16.253
							c-0.224,0.144-0.432,0.302-0.66,0.442c-0.151,0.088-0.308,0.182-0.426,0.27c-5.874,3.592-13.019,5.893-18.388,10.775
							c-13.555,12.302-13.508,19.982-13.882,21.042C84.652,278.668,87.834,274.285,91.331,270.298z"/>
						<path style="fill:#D44700;" d="M262.025,297.121c-3.145-11.877,3.239-23.295,0.199-35.19
							c-0.334-1.304-0.859-2.453-1.459-3.538c-0.606-1.641-1.43-3.25-2.636-4.518c-4.012-4.263-8.231-5.06-8.504-14.779
							c0.101-0.547,0.176-1.084,0.32-1.644c0.145-0.59-12.72-10.993-12.582-11.543c-0.088,0.359,2.05,2.1,2.872,3.467
							c1.694,2.837,3.148,5.835,4.343,8.912c1.05,2.726,2.43,6.014,3.799,8.353l-0.013-0.008l0.013,0.012
							c0.652,1.116,1.546,2.237,2.745,3.31c6.051,5.39,9.061,11.268,8.951,15.811c0,0.264,0.014,0.53,0,0.796
							c-0.013,0.183-0.013,0.36-0.013,0.506c-0.29,6.878-2.368,14.089-1.311,21.27c2.657,18.11,9.053,22.368,9.727,23.257
							C265.24,307.33,263.38,302.246,262.025,297.121z"/>
						<path style="fill:#E25314;" d="M181.249,192.215c-5.566-2.871-22.339-7.583-35.26-1.302
							c-12.924,6.29-11.788,15.698-19.833,19.849c-8.039,4.155-8.151,20.873-9.621,25.661c4.07-3.792,2.61-19.727,10.532-24.308
							c7.932-4.578,10.154-11.042,12.735-13.991c2.581-2.954,17.82-10.522,33.544-4.801S181.249,192.215,181.249,192.215z"/>
						<path style="fill:#D44700;" d="M189.153,192.493c0,0,10.09-5.389,21.718-1.516c11.627,3.874,6.425,10.929,19.659,14.945
							c7.195,2.188,16.88,18.335,16.515,18.684c-0.384,0.354-9.113-10.333-13.592-13.654c-4.494-3.328-12.277-1.758-16.336-11.075
							c-4.161-9.555-22.573-6.689-22.573-6.689L189.153,192.493z"/>
						<g>
							<path style="fill:#D44700;" d="M239.739,221.685c-7.465-6.44-15.789-12.626-22.136-17.286
								c-7.292-5.35-12.915-8.977-27.494-13.435c-1.05-0.318-2.1-0.578-3.156-0.802l-2.208,2.883l-0.744,5.456l2.952,2.719
								c10.883,1.216,21.498,6.375,30.502,12.072c10.248,6.476,17.77,15.54,22.148,17.853c13.312,7.017,23.056,21.212,21.017,35.197
								C268.228,248.868,255.985,235.723,239.739,221.685z"/>
							<path style="fill:#E25314;" d="M123.559,219.709c-5.318,8.675-16.626,41.377-9.541,49.593c0,0-0.544-24.939,14.616-42.762
								c8.596-10.092,17.529-15.221,30.998-19.446c7.494-2.346,18.257-6.786,26.656-5.972c0.217,0.022,0.436,0.069,0.665,0.1
								v-11.059c-9.09-1.946-17.809,4.193-27.041,5.379C142.631,197.752,128.582,211.547,123.559,219.709z"/>
						</g>
						<path style="fill:#E25314;" d="M145.982,204.989c-0.762,0-1.408-0.158-2.133-0.211c-1.283,2.54-2.691,5.596-3.47,8.068
							c-0.007-0.013,0-0.019-0.007-0.024l0.007,0.024c-0.389,1.231-0.63,2.646-0.614,4.257c0.074,8.108-2.268,14.276-5.706,17.25
							c-0.199,0.176-0.392,0.36-0.598,0.53c-0.135,0.118-0.272,0.229-0.382,0.33c-5.29,4.406-12.028,7.704-16.645,13.305
							c-11.63,14.126-10.496,21.727-10.708,22.83c0.983-5.273,3.502-10.06,6.39-14.509c6.705-10.297,19.455-13.227,26.219-23.471
							c0.748-1.128,1.244-2.289,1.643-3.456c0.817-1.551,1.297-3.262,1.581-4.984c1.072-6.693-1.561-10.527,8.306-14.867
							c0.471-0.296-2.134-1.96-1.631-2.229c0.146-0.079,0.185-1.321,0.183-3.08C147.586,204.811,146.845,204.989,145.982,204.989z"
							/>
						<g>
							<path style="fill:none;" d="M162.958,262.556l-37.167,0.064c-2.489,0-4.851,1.198-6.318,3.203
								c-1.472,1.992-1.917,4.606-1.182,6.976l6.557,19.048c2.309,7.467,9.114,12.474,16.932,12.474h20.884
								c3.435,0,6.508-2.176,7.642-5.418l7.407-19.056c1.213-3.467,0.685-7.342-1.419-10.356
								C173.255,265.151,168.279,262.556,162.958,262.556z"/>
							<path style="fill:none;" d="M248.122,262.62l-37.171-0.064c-5.321,0-10.295,2.595-13.33,6.935
								c-2.104,3.014-2.642,6.889-1.416,10.356l7.396,19.056c1.133,3.243,4.215,5.418,7.644,5.418h20.885
								c7.814,0,14.62-5.007,16.933-12.474l6.552-19.048c0.736-2.369,0.297-4.983-1.173-6.976
								C252.965,263.818,250.607,262.62,248.122,262.62z"/>
							<path style="fill:#EF2200;" d="M186.016,270.972c-1.701,0-3.324-0.678-4.53-1.887l-1.888-1.905
								c-3.786-5.421-10.001-8.659-16.604-8.659l-37.214,0.058c-3.186,0.006-6.243,1.321-8.452,3.562l0.004-0.017l-0.708,0.536
								c-0.954,0.738-2.133,1.127-3.337,1.115l-1.099-0.018c-0.35,0-0.697,0.136-0.955,0.389c-0.257,0.255-0.4,0.595-0.4,0.955
								v3.971c0,0.79,0.637,1.433,1.43,1.433h0.175c0.601,0,1.119,0.4,1.287,0.973l0.554,1.917v-0.024
								c0.053,0.208,0.091,0.42,0.152,0.626l6.559,17.81c2.842,9.164,11.191,15.316,20.79,15.316h20.884
								c5.149,0,9.75-3.256,11.455-8.121l7.059-16.914l0.359-0.637c1.096-1.975,3.164-3.208,5.417-3.266
								c0.076,0,0.148,0.027,0.23,0.034l6.038-3.538l-6.038-3.71H186.016z M177.712,279.847l-7.407,19.056
								c-1.134,3.243-4.207,5.418-7.642,5.418h-20.884c-7.817,0-14.623-5.007-16.932-12.474l-6.557-19.048
								c-0.735-2.369-0.29-4.983,1.182-6.976c1.468-2.005,3.829-3.203,6.318-3.203l37.167-0.064c5.321,0,10.297,2.595,13.335,6.935
								C178.396,272.505,178.925,276.38,177.712,279.847z"/>
							<path style="fill:#D31E00;" d="M262.673,264.147c-0.261-0.253-0.602-0.389-0.955-0.389l-1.098,0.018
								c-1.208,0.012-2.389-0.377-3.35-1.115l-0.71-0.542l0.015,0.019c-2.218-2.241-5.257-3.552-8.441-3.558l-37.212-0.058
								c-6.616,0-12.828,3.238-16.613,8.659l-1.89,1.905c-1.188,1.208-2.83,1.887-4.53,1.887h-0.705v7.248
								c2.157,0.136,4.127,1.321,5.188,3.232l0.35,0.637l7.07,16.914c1.7,4.865,6.306,8.121,11.453,8.121h20.885
								c9.595,0,17.946-6.151,20.786-15.316l6.559-17.81c0.061-0.203,0.098-0.414,0.141-0.614l0.012,0.018l0.545-1.917
								c0.164-0.578,0.695-0.978,1.297-0.978h0.165c0.805,0,1.44-0.642,1.44-1.433v-3.971
								C263.073,264.742,262.921,264.402,262.673,264.147z M255.613,272.799l-6.552,19.048c-2.312,7.467-9.118,12.474-16.933,12.474
								h-20.885c-3.429,0-6.511-2.176-7.644-5.418l-7.396-19.056c-1.226-3.467-0.688-7.342,1.416-10.356
								c3.035-4.339,8.009-6.935,13.33-6.935l37.171,0.064c2.484,0,4.843,1.198,6.318,3.203
								C255.91,267.815,256.35,270.43,255.613,272.799z"/>
						</g>
						<g>
							<g>
								<path style="fill:#D65037;" d="M211.561,340.453c0,0.195-12.982,1.11-17.095-0.028c-1.9-0.399-3.891-0.099-5.099,1.364
									c-0.326,0.408-0.852,0.643-1.4,0.643c-0.559,0-1.072-0.235-1.411-0.643c-1.206-1.454-3.186-1.759-5.094-1.364
									c-4.116,1.143-17.098,0.224-17.098,0.028c0.868,1.346,3.232,10.689,7.773,17.418c4.544,6.73,7.146,7.396,15.551,7.438
									c8.406,0.095,12.036-1.922,16.11-7.535C207.871,352.16,210.575,341.906,211.561,340.453z"/>
							</g>
							<path style="fill:#FFFFFF;" d="M167.783,343.121c0.596,1.821,2.002,3.262,3.806,3.905c5.109,1.82,10.128,3.122,15.739,3.121
								c6.317-0.003,12.164-1.478,17.913-3.696c1.623-0.625,2.91-1.908,3.541-3.529l0.689-1.774l-22.423,3.892l-19.767-3.448
								L167.783,343.121z"/>
							<g>
								<path style="fill:#F49267;" d="M164.364,340.453c0.868,1.346,3.232,10.689,7.773,17.418
									c4.544,6.73,7.146,7.396,15.551,7.438c8.406,0.095,12.036-1.922,16.11-7.535c4.072-5.613,6.776-15.868,7.762-17.32
									c-7.767,9.943-4.506,17.912-24.223,17.912C167.622,358.365,172.96,349.855,164.364,340.453z"/>
								<path style="fill:#EA805C;" d="M194.466,340.425c-1.9-0.399-3.891-0.099-5.099,1.364c-0.326,0.408-0.852,0.643-1.4,0.643
									c-0.559,0-1.072-0.235-1.411-0.643c-1.206-1.454-3.186-1.759-5.094-1.364c-4.116,1.143-17.098,0.224-17.098,0.028
									c1.91,0.934,3.855,1.809,5.842,2.634c11.143,4.71,24.382,4.71,35.512,0c1.983-0.826,3.93-1.701,5.843-2.634
									C211.561,340.648,198.578,341.563,194.466,340.425z"/>
							</g>
						</g>
						<g>
							<g>
								<defs>
									<path id="SVGID_3_" d="M127.423,270.664c0,0,5.848,24.483,39.923,9.671C167.346,280.335,154.599,259.403,127.423,270.664z"
										/>
								</defs>
								<clipPath id="SVGID_4_">
									<use xlink:href="#SVGID_3_"  style="overflow:visible;"/>
								</clipPath>
								<path style="clip-path:url(#SVGID_4_);fill:#F9F9F9;" d="M127.423,270.664c0,0,5.848,24.483,39.923,9.671
									C167.346,280.335,154.599,259.403,127.423,270.664z"/>
								<g style="clip-path:url(#SVGID_4_);">
									<g>
										<path style="fill:#282828;" d="M140.521,274.669c0.169,4.898,4.282,8.726,9.186,8.553
											c4.886-0.164,8.716-4.276,8.542-9.177c-0.164-4.886-4.282-8.729-9.176-8.559
											C144.184,265.653,140.351,269.774,140.521,274.669z"/>
										<path style="fill:#F9F9F9;" d="M144.376,272.634c0.061,1.465,1.281,2.605,2.753,2.562
											c1.472-0.053,2.624-1.288,2.569-2.753c-0.049-1.47-1.277-2.621-2.745-2.567
											C145.48,269.924,144.329,271.158,144.376,272.634z"/>
									</g>
								</g>
							</g>
							<g>
								<defs>
									<path id="SVGID_5_" d="M246.501,270.664c0,0-5.856,24.483-39.932,9.671C206.569,280.335,219.321,259.403,246.501,270.664z"
										/>
								</defs>
								<clipPath id="SVGID_6_">
									<use xlink:href="#SVGID_5_"  style="overflow:visible;"/>
								</clipPath>
								<path style="clip-path:url(#SVGID_6_);fill:#F9F9F9;" d="M246.501,270.664c0,0-5.856,24.483-39.932,9.671
									C206.569,280.335,219.321,259.403,246.501,270.664z"/>
								<g style="clip-path:url(#SVGID_6_);">
									<path style="fill:#282828;" d="M220.87,274.045c-0.174,4.9,3.66,9.004,8.557,9.177c4.895,0.173,9.004-3.654,9.177-8.559
										c0.176-4.895-3.666-9.01-8.557-9.177C225.145,265.315,221.048,269.153,220.87,274.045z"/>
									<path style="fill:#F9F9F9;" d="M224.866,272.278c-0.059,1.465,1.092,2.698,2.557,2.753c1.474,0.045,2.702-1.1,2.766-2.565
										c0.047-1.477-1.105-2.704-2.576-2.756C226.143,269.662,224.914,270.812,224.866,272.278z"/>
								</g>
							</g>
							<path style="fill:#282828;" d="M126.494,271.23c-0.021,0.025-0.039,0.067-0.021,0.101c0.021,0.042,0.069,0.06,0.107,0.036
								c4.197-1.779,21.943-7.699,41.067,9.223c0.03,0.03,0.069,0.03,0.105,0c0.024-0.019,0.03-0.064,0.012-0.094
								C165.819,277.17,151.628,255.109,126.494,271.23z"/>
							<path style="fill:#282828;" d="M247.41,271.226c-25.122-16.117-39.305,5.938-41.254,9.27c-0.02,0.03-0.007,0.076,0.019,0.094
								c0.034,0.03,0.075,0.024,0.099,0c19.131-16.922,36.86-11.002,41.062-9.223c0.046,0.019,0.095,0,0.098-0.036
								C247.449,271.297,247.442,271.249,247.41,271.226z"/>
						</g>
					</g>
				</g>
			</g>
		</g>
	</g>
</g>
<g id="Layer_1">
</g>
</svg>
