<?xml version="1.0" encoding="iso-8859-1"?>
<!-- Generator: Adobe Illustrator 19.2.0, SVG Export Plug-In . SVG Version: 6.00 Build 0)  -->
<svg version="1.1" xmlns="http://www.w3.org/2000/svg" xmlns:xlink="http://www.w3.org/1999/xlink" x="0px" y="0px"
	 viewBox="0 0 367.62 576.832" style="enable-background:new 0 0 367.62 576.832;" xml:space="preserve">
<g id="FemaleReporter">
	<g>
		<polygon style="fill-rule:evenodd;clip-rule:evenodd;fill:#F7F3D4;" points="44.811,689.312 44.624,698.708 45.187,705.099 
			48.195,698.145 49.51,689.499 52.705,675.78 55.524,664.503 55.148,656.046 51.766,641.011 9.544,646.011 6.158,666.708 
			7.663,682.512 10.297,693.048 14.741,695.138 15.493,698.897 20.191,701.528 22.822,705.85 29.964,711.864 35.791,714.872 
			38.985,714.12 44.811,718.442 48.195,719.006 48.382,714.308 45.187,707.541 44.06,698.897 44.06,690.251 44.436,678.787 
			48.195,665.256 45.187,678.975 		"/>
		<path style="fill-rule:evenodd;clip-rule:evenodd;fill:#333333;" d="M171.611,675.291l7.421,117.126h85.823
			c6.054-45.776,18.199-93.297,22.508-139.208c2.905-30.943-1.784-61.567-14.326-93.331l-122.042,8.246l-88.016,1.65
			c-9.06,71.597,3.971,150.798,8.92,223.468h82.409L171.611,675.291z"/>
		<path style="fill-rule:evenodd;clip-rule:evenodd;fill:#FFFEE6;" d="M130.129,291.77c6.441,7.593,39.99,100.21,48.802,100.21
			c4.36,0,33.228-9.616,37.127-36.755c5.517-38.402-14.224-98.951-10.196-105.066v-40.742h-54.474v39.795
			C152.684,251.272,128.644,290.019,130.129,291.77z"/>
		<path style="fill-rule:evenodd;clip-rule:evenodd;fill:#F7F3D4;" d="M205.863,209.417H178.39v174.204
			c0.18,126.06,52.14-24.294,57.494-24.294c5.355,0-36.895-98.734-30.02-109.17V209.417z"/>
		<path style="fill-rule:evenodd;clip-rule:evenodd;fill:#61C2C2;" d="M76.637,367.755l-3.864-18.363l-43.468-27.107L9.987,492.799
			c-2.377,17.434-3.977,33.94-4.918,50.111c-2.089,35.875-1.701,71.88-2.922,107.802l57.957-5.247
			c-3.574-18.17-5.978-27.893-6.936-35.653c-1.596-12.931,0.824-20.409,8.533-52.444l5.848-30.062
			c-4.962-29.644-0.521-43.987,9.088-72.982V367.755z"/>
		<path style="fill-rule:evenodd;clip-rule:evenodd;fill:#4CA6A6;" d="M76.637,454.324v-86.569l-3.864-18.363l-43.468-27.108
			l-0.565,4.99l24.95,16.73c4.507,3.023,7.812,5.659,10.674,8.497c9.373,9.292,10.512,14.134,10.932,26.113
			c0.509,14.536,0.866,29.039,1.102,43.541c0.186,11.466,0.166,22.519-0.194,33.472L76.637,454.324z"/>
		<path style="fill-rule:evenodd;clip-rule:evenodd;fill:#4CA6A6;" d="M50.696,607.048c0.744,0.202,1.49,0.4,2.238,0.595
			c-0.322-3.524-0.315-6.747,0.053-10.355L50.696,607.048z"/>
		<path style="fill-rule:evenodd;clip-rule:evenodd;fill:#4CA6A6;" d="M3.39,590.987c-0.366,19.028-0.551,38.065-1.156,57.082
			l57.356-5.192c-3.292-16.522-5.511-25.682-6.422-33.064c-0.777-6.302-0.602-11.31,0.675-18.494L3.39,590.987z"/>
		<path style="fill-rule:evenodd;clip-rule:evenodd;fill:#62CCCC;" d="M1.208,595.496C0.875,614.561,0.647,633.633,0,652.684
			l62.249-5.635c-3.213-16.339-5.57-34.269-3.9-51.178L1.208,595.496z"/>
		<path style="fill-rule:evenodd;clip-rule:evenodd;fill:#FF99CC;" d="M178.37,280.657c-9.595,0-18.355-3.578-25.024-9.47v78.333
			h49.296v-77.687C196.073,277.339,187.609,280.657,178.37,280.657z"/>
		<path style="fill-rule:evenodd;clip-rule:evenodd;fill:#DE71A8;" d="M202.643,271.834c-6.57,5.505-15.033,8.823-24.272,8.823
			c-9.595,0-18.355-3.578-25.024-9.47v15.114c7.172,4.046,15.451,6.359,24.271,6.359c9.13,0,17.682-2.478,25.025-6.792V271.834z"/>
		<path style="fill-rule:evenodd;clip-rule:evenodd;fill:#FC6E3A;" d="M165.469,561.131c7.516,23.05,11.528,37.782,19.994,46.571
			c11.787,12.241,31.378,13.208,51.504,10.34s40.785-9.574,54.706-12.678c-3.136-20.87-6.38-40.533-10.921-60.344
			c-3.065-13.38-7.112-26.239-11.566-39.003c-10.389-29.771-9.15-40.829-4.233-72.381c3.814-23.977,7.823-37.722,16.043-51.311
			c13.293-21.98,29.957-37.089,50.342-52.093l-6.531-22.751c-10.731-37.384-7.836-38.814-45.02-51.473l-54.822-18.666
			L196.118,339.08l-25.241,71.658l18.03,48.657l-10.818,67.234L165.469,561.131z"/>
		<path style="fill-rule:evenodd;clip-rule:evenodd;fill:#BD491E;" d="M200.486,526.465l2.454-39.87
			c0.31-5.037-3.914-9.431-9.389-9.769l-7.375-0.454l-8.086,50.256l-2.736,7.48l14.617,0.899
			C195.444,535.345,200.175,531.502,200.486,526.465z"/>
		<path style="fill-rule:evenodd;clip-rule:evenodd;fill:#CF5629;" d="M165.469,561.131c2.979,9.135,5.406,16.961,7.779,23.631
			c6.218-10.002,11.185-20.491,15.547-31.212c6.763-16.623,11.399-32.394,14.915-48.308c3.985-18.036,6.534-36.256,9.114-56.113
			l-25.921-83.887l-16.025,45.495l18.03,48.657l-10.818,67.234L165.469,561.131z"/>
		<path style="fill-rule:evenodd;clip-rule:evenodd;fill:#AD411A;" d="M196.174,533.263c1.794-5.579,3.383-11.105,4.809-16.62
			l1.877-30.513c0.312-5.075-3.944-9.502-9.459-9.842l-7.142-0.439l-8.17,50.781l-2.703,7.39l14.407,0.888
			C192.155,535.052,194.378,534.426,196.174,533.263z"/>
		<path style="fill-rule:evenodd;clip-rule:evenodd;fill:#FC6E3A;" d="M60.091,562.881l-9.396,40.028
			c12.131,3.294,24.692,5.6,37.3,7.8c22.893,3.995,40.299,7.516,55.576-0.231c6.945-3.521,13.45-9.371,19.831-18.563
			c8.251-11.888,14.445-24.579,19.747-37.612c6.763-16.623,11.399-32.394,14.916-48.308c3.985-18.036,6.533-36.256,9.113-56.113
			l-38.638-125.044l-15.968-63.717l-47.785-13.233c-7.245,1.311-14.49,2.624-21.735,3.935c-32.615,5.905-34.866,4.382-51.105,30.424
			l-18.926,30.349l40.667,27.27c4.507,3.023,7.811,5.659,10.674,8.497c9.373,9.292,10.512,14.134,10.932,26.114
			c0.509,14.535,0.866,29.039,1.102,43.54c0.459,28.319-0.324,54.116-4.448,82.117C68.816,521.413,65.02,541.885,60.091,562.881z"/>
		<path style="fill-rule:evenodd;clip-rule:evenodd;fill:#BD491E;" d="M189.793,534.907c0.148,0.008,0.296,0.013,0.442,0.016
			c3.167-9.738,5.705-19.307,7.831-28.929c1.681-7.61,3.105-15.251,4.386-23.036c-1.184-3.629-4.73-6.405-9.05-6.672l-30.832-1.898
			c-5.515-0.339-10.282,3.533-10.595,8.609l-2.471,40.169c-0.312,5.075,3.944,9.502,9.459,9.842L189.793,534.907z"/>
		<path style="fill-rule:evenodd;clip-rule:evenodd;fill:#FF9670;" d="M207.21,449.941l-0.012-0.043l-28.489-91.577l-29.177-89.965
			l-2.241-6.477l-43.467-8.744l-6.761,26.233l24.149,6.996l-31.876,1.749C123.437,347.599,162.802,396.33,207.21,449.941z"/>
		<path style="fill-rule:evenodd;clip-rule:evenodd;fill:#FD7D4E;" d="M130.155,570.023l13.271-68.549l-69.856-13.673
			c-0.472,4.074-1.009,8.179-1.621,12.333c-3.134,21.279-6.931,41.751-11.859,62.747l-5.568,23.718
			c10.741,1.729,23.513,4.989,36.007,6.615C113.685,596.226,125.299,595.104,130.155,570.023z"/>
		<polygon style="fill-rule:evenodd;clip-rule:evenodd;fill:#61C2C2;" points="267.995,250.511 207.141,217.283 205.841,228.88 
			205.828,250.156 178.43,327.161 177.717,345.239 184.158,375.134 222.596,265.376 		"/>
		<polygon style="fill-rule:evenodd;clip-rule:evenodd;fill:#62CCCC;" points="186.996,342.404 180.098,322.473 178.43,327.16 
			177.735,344.808 185.946,370.03 187.781,364.789 		"/>
		<polygon style="fill-rule:evenodd;clip-rule:evenodd;fill:#61C2C2;" points="170.389,332.798 184.163,375.106 185.005,372.673 
			183.989,343.719 151.412,249.596 151.403,228.648 149.002,217.283 88.148,250.511 149.522,268.383 		"/>
		<path style="fill-rule:evenodd;clip-rule:evenodd;fill:#191919;" d="M276.719,223.577l0.589-127.867
			c0.242-52.386-43.673-95.461-97.59-95.709h-0.001c-53.915-0.249-98.226,42.414-98.467,94.805L80.66,222.673
			C145.962,234.101,211.309,235.234,276.719,223.577z"/>
		<path style="fill-rule:evenodd;clip-rule:evenodd;fill:#F2F1D9;" d="M205.899,234.415v-20.912h-54.476v20.932
			c7.458,4.047,16.124,6.42,26.153,6.42h1.88C189.683,240.855,198.43,238.479,205.899,234.415z"/>
		<path style="fill-rule:evenodd;clip-rule:evenodd;fill:#E8E4C7;" d="M205.899,213.503h-27.473v27.352h1.029
			c10.228,0,18.975-2.376,26.444-6.439V213.503z"/>
		<path style="fill-rule:evenodd;clip-rule:evenodd;fill:#FFFFEC;" d="M177.364,232.303l1.88,0.009
			c43.451,0.2,60.413-42.56,65.889-75.799c8.967-54.427,17.8-105.75-64.345-106.128c-85.815-0.395-76.788,50.928-68.205,107.804
			C117.507,190.846,135.527,232.11,177.364,232.303z"/>
		<path style="fill-rule:evenodd;clip-rule:evenodd;fill:#F7F3D4;" d="M245.132,156.513c8.967-54.429,17.8-105.75-64.345-106.129
			c-0.589-0.003-1.155,0.006-1.734,0.008l-0.839,181.914l1.03,0.005C222.695,232.511,239.656,189.751,245.132,156.513z"/>
		<path style="fill-rule:evenodd;clip-rule:evenodd;fill:#F7F3D4;" d="M256.086,137.14c2.064-17.213,1.472-28.929-3.77-30.492
			c-11.238-3.352-19.454,29.147-11.681,47.512C244.539,163.384,253.704,156.984,256.086,137.14z"/>
		<path style="fill-rule:evenodd;clip-rule:evenodd;fill:#FFFFEC;" d="M117.261,153.591c7.943-18.293,0.027-50.865-11.242-47.617
			c-5.256,1.515-5.957,13.225-4.051,30.456C104.166,156.295,113.272,162.779,117.261,153.591z"/>
		<path style="fill-rule:evenodd;clip-rule:evenodd;fill:#191919;" d="M195.629,26.82C128.36,18.052,93.163,52.057,90.712,112.919
			l98.706-2.676c-13.997-3.868-25.799-17.149-33.371-31.972C174.585,51.79,184.792,29.853,195.629,26.82z"/>
		<path style="fill-rule:evenodd;clip-rule:evenodd;fill:#191919;" d="M263.537,109.798c2.836-36.425-6.972-64.835-69.553-65.123
			c-24.955-0.116-41.88,3.938-53.142,11.068c15.898,33.698,52.155,57.341,94.44,57.535
			C245.072,113.324,254.55,112.108,263.537,109.798z"/>
		<path style="fill-rule:evenodd;clip-rule:evenodd;fill:#F7F3D4;" d="M256.227,111.622c-25.289-0.986-50.43-10.02-70.095-21.294
			c13.016,8.559,25.934,19.386,48.362,25.975l1.987,6.577C239.843,120.721,249.384,117.42,256.227,111.622z"/>
		<path style="fill-rule:evenodd;clip-rule:evenodd;fill:#F7F3D4;" d="M147.076,66.887c-1.317-1.501-2.55-3.036-3.688-4.613
			c11.314,19.628,22.312,35.212,39.011,51.447l8.631-2.136c-0.472-0.32,5.987-2.443,9.881-3.886
			C178.286,100.205,159.306,85.636,147.076,66.887z"/>
		<path style="fill-rule:evenodd;clip-rule:evenodd;fill:#141515;" d="M198.222,123.849c1.751-0.731,3.629-1.378,5.629-1.92
			c8.683-2.358,19.802-2.85,33.224-0.114c0.369-0.8,0.91-1.705,0.952-2.466c-14.055-2.925-25.727-2.419-34.852,0.058
			c-2.132,0.578-4.121,1.262-5.96,2.03c-1.837,0.767-3.553,1.632-5.141,2.575l-0.007,0.003l1.332,2.241l0.006-0.004
			C194.861,125.389,196.467,124.581,198.222,123.849z"/>
		<path style="fill-rule:evenodd;clip-rule:evenodd;fill:#F7F3D4;" d="M167.83,182.016l18.622,0.086l-6.18-83.182
			C177.71,126.626,174.451,154.327,167.83,182.016z"/>
		<polygon style="fill-rule:evenodd;clip-rule:evenodd;fill:#FFFFFF;" points="166.681,206.859 183.008,207.555 197.485,200.073 
			201.844,196.371 196.086,196.448 169.656,196.43 153.516,195.941 155.207,197.811 160.098,201.452 		"/>
		<path style="fill-rule:evenodd;clip-rule:evenodd;fill:#EA7D8E;" d="M164.672,208.37c2.325,1.529,4.825,2.485,7.582,3.022
			c3.813,0.744,7.528,0.743,11.339-0.029c2.599-0.527,4.975-1.44,7.197-2.872c4.85-3.127,7.766-8.691,12.813-12.41l0.001-0.237
			c-20.758,11.935-30.376,11.967-51.622-0.157c-0.13-0.068-0.262-0.022-0.392-0.089l-0.001,0.035
			C156.867,199.373,159.719,205.112,164.672,208.37z"/>
		<path style="fill-rule:evenodd;clip-rule:evenodd;fill:#FFFFFF;" d="M230.081,128.587c-4.393-3.663-18.949-7.374-30.686,1.393
			C206.597,148.31,228.904,139.783,230.081,128.587z"/>
		<path style="fill-rule:evenodd;clip-rule:evenodd;" d="M221.82,132.08c0.017-4.194-3.255-7.608-7.307-7.627
			c-4.051-0.019-7.349,3.366-7.366,7.559c-0.016,4.193,3.255,7.608,7.307,7.627C218.506,139.658,221.803,136.273,221.82,132.08z"/>
		
			<ellipse transform="matrix(0.0046 -1 1 0.0046 81.7572 345.4881)" style="fill-rule:evenodd;clip-rule:evenodd;fill:#FFFFFF;" cx="214.415" cy="131.678" rx="1.921" ry="1.856"/>
		<path style="fill-rule:evenodd;clip-rule:evenodd;fill:#141515;" d="M198.906,129.106l0.828,1.005l0.007-0.005l0.005-0.005
			c1.341-1.131,2.832-2.043,4.415-2.762c1.585-0.719,3.265-1.245,4.983-1.603c8.837-1.843,18.523,0.725,21.503,3.987l0.964-0.879
			c-3.211-3.514-13.467-6.319-22.731-4.387c-1.802,0.376-3.575,0.931-5.255,1.695c-1.682,0.764-3.272,1.737-4.712,2.949v-0.001
			L198.906,129.106z"/>
		<path style="fill-rule:evenodd;clip-rule:evenodd;fill:#141515;" d="M155.961,121.708c1.995,0.561,3.867,1.226,5.612,1.973
			c1.748,0.748,3.346,1.57,4.793,2.448l0.007,0.004l1.352-2.228l-0.006-0.004c-1.58-0.958-3.287-1.838-5.117-2.622
			c-1.833-0.785-3.815-1.487-5.942-2.085c-9.101-2.561-20.768-3.174-34.85-0.378c0.035,0.76,0.567,1.671,0.929,2.474
			C136.186,118.676,147.299,119.27,155.961,121.708z"/>
		<path style="fill-rule:evenodd;clip-rule:evenodd;fill:#FFFFFF;" d="M160.343,129.8c-11.656-8.874-26.246-5.298-30.673-1.675
			C130.745,139.331,152.972,148.062,160.343,129.8z"/>
		
			<ellipse transform="matrix(0.0046 -1 1 0.0046 12.841 276.3539)" style="fill-rule:evenodd;clip-rule:evenodd;" cx="145.235" cy="131.727" rx="7.593" ry="7.336"/>
		
			<ellipse transform="matrix(0.0046 -1 1 0.0046 13.2838 276.0632)" style="fill-rule:evenodd;clip-rule:evenodd;fill:#FFFFFF;" cx="145.307" cy="131.359" rx="1.921" ry="1.856"/>
		<path style="fill-rule:evenodd;clip-rule:evenodd;fill:#141515;" d="M150.632,125.466c1.714,0.374,3.39,0.916,4.968,1.649
			c1.574,0.733,3.057,1.658,4.389,2.802l0.005,0.005l0.006,0.006l0.837-0.998l-0.006-0.005h-0.001
			c-1.428-1.225-3.009-2.214-4.684-2.993c-1.673-0.778-3.441-1.35-5.239-1.742c-9.246-2.017-19.529,0.692-22.771,4.177l0.956,0.888
			C132.103,126.021,141.813,123.542,150.632,125.466z"/>
		<path style="fill-rule:evenodd;clip-rule:evenodd;fill:#F2FDFD;" d="M199.158,149.499c8.454,1.714,17.576,2.446,26.374,1.948
			c2.773-0.159,5.581-0.493,8.491-1.108c4.555-0.964,8.482-2.439,9.981-7.213c0.55-1.748,0.891-3.514,1.192-5.629
			c0.305-2.138,0.443-4.279,0.155-6.317c-0.228-1.609-0.836-3.042-2.236-3.918c-0.787-0.493-1.938-0.704-4.003-1.026
			c-1.966-0.308-3.935-0.53-6.053-0.656c-4.195-0.247-8.377-0.474-12.561-0.608c-3.298-0.107-6.602-0.153-9.922-0.105
			c-5.236,0.075-19.742-0.251-23.515,2.986c-2.338,2.007-2.421,3.557-2.014,6.339c0.255,1.726,0.67,3.301,1.411,5.221
			C189.054,146.133,193.514,148.354,199.158,149.499z"/>
		<path style="fill-rule:evenodd;clip-rule:evenodd;fill:#F2FDFD;" d="M125.437,149.838c2.903,0.642,5.708,1.002,8.48,1.187
			c8.792,0.58,17.92-0.069,26.39-1.704c5.653-1.093,10.134-3.273,12.793-9.968c0.759-1.913,1.188-3.484,1.459-5.208
			c0.433-2.779,0.365-4.329-1.955-6.357c-3.743-3.272-18.252-3.08-23.487-3.203c-3.319-0.079-6.622-0.063-9.922,0.013
			c-4.185,0.095-8.369,0.283-12.566,0.493c-2.119,0.106-4.09,0.311-6.059,0.6c-2.067,0.303-3.221,0.504-4.012,0.989
			c-1.408,0.863-2.031,2.29-2.272,3.897c-0.308,2.036-0.189,4.178,0.096,6.318c0.281,2.118,0.606,3.888,1.139,5.64
			C116.978,147.321,120.891,148.832,125.437,149.838z"/>
		<path style="fill-rule:evenodd;clip-rule:evenodd;fill:#FFFFFF;" d="M230.081,128.587c-1.49-1.243-4.151-2.49-7.474-3.253
			c-1.303-0.059-2.605-0.111-3.909-0.153c-2.681-0.087-5.361-0.13-8.053-0.111c-3.765,0.701-7.641,2.214-11.251,4.91
			C206.597,148.31,228.904,139.783,230.081,128.587z"/>
		<path style="fill-rule:evenodd;clip-rule:evenodd;" d="M221.82,132.08c0.012-3.072-1.742-5.727-4.274-6.934
			c-1.982-0.055-3.964-0.085-5.952-0.082c-2.604,1.156-4.434,3.828-4.447,6.948c-0.016,4.193,3.256,7.608,7.307,7.627
			C218.505,139.658,221.804,136.272,221.82,132.08z"/>
		
			<ellipse transform="matrix(0.0046 -1 1 0.0046 81.7569 345.4878)" style="fill-rule:evenodd;clip-rule:evenodd;fill:#FFFFFF;" cx="214.415" cy="131.678" rx="1.921" ry="1.856"/>
		<path style="fill-rule:evenodd;clip-rule:evenodd;fill:#141515;" d="M198.906,129.106l0.828,1.005l0.007-0.006l0.005-0.005
			c1.342-1.132,2.832-2.043,4.415-2.761c1.585-0.719,3.265-1.245,4.983-1.603c8.837-1.843,18.523,0.725,21.503,3.987l0.964-0.879
			c-1.169-1.28-3.274-2.464-5.924-3.361c-2.331-0.122-4.659-0.227-6.988-0.302c-3.159-0.103-6.317-0.145-9.494-0.096
			c-0.759,0.01-1.724,0.014-2.822,0.02c-0.939,0.293-1.861,0.64-2.758,1.047c-1.682,0.764-3.272,1.737-4.712,2.949v-0.001
			L198.906,129.106z"/>
		<path style="fill-rule:evenodd;clip-rule:evenodd;fill:#FFFFFF;" d="M160.16,129.799c-3.585-2.73-7.446-4.279-11.205-5.013
			c-2.691-0.044-5.373-0.025-8.053,0.037c-1.303,0.03-2.605,0.07-3.91,0.116c-3.33,0.734-6.003,1.956-7.504,3.185
			C130.562,139.33,152.789,148.062,160.16,129.799z"/>
		<path style="fill-rule:evenodd;clip-rule:evenodd;" d="M152.389,131.76c0.017-3.12-1.789-5.809-4.382-6.989
			c-1.989-0.022-3.971-0.01-5.953,0.027c-2.543,1.184-4.321,3.822-4.338,6.895c-0.023,4.192,3.245,7.608,7.297,7.626
			C149.064,139.338,152.367,135.953,152.389,131.76z"/>
		
			<ellipse transform="matrix(0.0046 -1 1 0.0046 13.099 275.8767)" style="fill-rule:evenodd;clip-rule:evenodd;fill:#FFFFFF;" cx="145.125" cy="131.359" rx="1.921" ry="1.856"/>
		<path style="fill-rule:evenodd;clip-rule:evenodd;fill:#141515;" d="M150.45,125.465c1.715,0.374,3.391,0.916,4.969,1.65
			c1.575,0.732,3.058,1.657,4.39,2.801l0.005,0.006l0.006,0.005l0.836-0.997l-0.006-0.006v0.001
			c-1.428-1.226-3.01-2.214-4.685-2.993c-0.893-0.415-1.811-0.771-2.747-1.072c-1.099-0.016-2.064-0.029-2.822-0.046
			c-3.177-0.078-6.336-0.064-9.495,0.009c-2.33,0.053-4.659,0.138-6.991,0.237c-2.658,0.873-4.774,2.038-5.954,3.307l0.956,0.888
			C131.92,126.02,141.63,123.541,150.45,125.465z"/>
		<g>
			<path style="fill-rule:evenodd;clip-rule:evenodd;fill:#A067AB;" d="M111.388,127.389c-0.497,0.913-0.789,1.921-0.944,2.967
				c-0.171,1.134-0.224,2.308-0.195,3.501c0.029,1.161,0.136,2.311,0.287,3.443c0.143,1.086,0.304,2.103,0.502,3.105
				c0.202,1.02,0.435,1.976,0.717,2.907c0.903,2.972,2.58,4.934,4.74,6.311c2.009,1.282,4.354,1.988,6.844,2.538
				c1.469,0.325,2.964,0.586,4.484,0.794c1.49,0.204,2.939,0.346,4.361,0.44l0.043,0.003c1.201,0.078,2.472,0.136,3.807,0.171
				c1.263,0.034,2.536,0.043,3.813,0.03c6.578-0.068,13.16-0.747,19.368-1.946c3.112-0.602,5.93-1.523,8.402-3.26
				c2.506-1.763,4.565-4.304,6.072-8.099c0.398-1.005,0.72-1.953,0.986-2.909c0.271-0.975,0.467-1.882,0.61-2.791
				c0.19-1.221,0.292-2.264,0.193-3.276c0.962-0.136,1.948-0.207,2.925-0.217c0.363-0.003,0.739,0.003,1.121,0.016
				c0.313,0.012,0.681,0.036,1.107,0.073c0.485,0.042,0.965,0.097,1.437,0.169c-0.106,1.007-0.011,2.048,0.167,3.266
				c0.134,0.911,0.321,1.819,0.584,2.797c0.257,0.957,0.57,1.907,0.96,2.917c1.47,3.809,3.507,6.368,5.996,8.154
				c2.455,1.759,5.265,2.707,8.372,3.337c6.197,1.256,12.771,1.996,19.348,2.124c1.276,0.024,2.55,0.026,3.813,0.005
				c1.335-0.023,2.606-0.069,3.808-0.137l0.043-0.003c1.423-0.081,2.874-0.21,4.365-0.4c1.522-0.194,3.02-0.441,4.492-0.753
				c2.495-0.527,4.845-1.212,6.867-2.475c2.172-1.357,3.866-3.303,4.797-6.267c0.291-0.928,0.532-1.883,0.743-2.901
				c0.207-1,0.377-2.016,0.531-3.101c0.161-1.13,0.278-2.279,0.318-3.439c0.041-1.193-0.001-2.367-0.162-3.502
				c-0.146-1.048-0.429-2.058-0.918-2.976c-0.528-0.992-1.281-1.855-2.338-2.517l0.002-0.004c-0.618-0.388-1.312-0.649-2.192-0.86
				c-0.732-0.176-1.582-0.318-2.66-0.487c-0.959-0.149-1.977-0.286-3.084-0.406c-1.041-0.114-2.102-0.205-3.198-0.27h-0.008
				c-2.055-0.121-4.143-0.239-6.322-0.347c-2.066-0.103-4.168-0.194-6.331-0.263c-1.644-0.053-3.316-0.092-5.021-0.111
				c-1.678-0.02-3.356-0.019-5.029,0.005c-0.596,0.008-1.273,0.012-2.033,0.016c-6.475,0.032-18.663,0.095-22.781,3.353
				l-0.566,0.071c-2.001,0.249-3.923,0.371-5.87,0.361c-1.948-0.009-3.867-0.147-5.866-0.415l-0.479-0.064
				c-4.074-3.307-16.281-3.482-22.762-3.575c-0.76-0.01-1.437-0.021-2.034-0.034c-1.672-0.04-3.349-0.055-5.028-0.052
				c-1.705,0.003-3.378,0.027-5.022,0.065c-2.163,0.05-4.266,0.121-6.334,0.205c-2.181,0.088-4.268,0.187-6.324,0.288H124.9
				c-1.097,0.055-2.158,0.136-3.199,0.24c-1.108,0.111-2.128,0.238-3.088,0.378c-1.081,0.159-1.932,0.293-2.665,0.462
				c-0.883,0.203-1.58,0.458-2.2,0.84l0.003,0.004C112.688,125.546,111.926,126.401,111.388,127.389z M186.529,131.401
				c0.142-0.535,0.535-1.073,1.32-1.752l0.001,0.001l0.102-0.085v-0.001v0.001c2.96-2.306,14.111-2.364,20.038-2.394
				c0.796-0.004,1.506-0.007,2.068-0.015c1.657-0.023,3.303-0.024,4.942-0.005c1.61,0.018,3.253,0.057,4.918,0.11
				c2.034,0.065,4.13,0.157,6.262,0.263c2.016,0.1,4.129,0.22,6.279,0.346v0c1.028,0.061,2.02,0.146,2.99,0.252
				c0.904,0.099,1.862,0.23,2.877,0.388c0.991,0.155,1.756,0.281,2.316,0.415c0.411,0.099,0.692,0.193,0.864,0.301h0.008
				c0.343,0.214,0.596,0.509,0.78,0.856c0.225,0.422,0.362,0.94,0.441,1.505c0.128,0.907,0.162,1.831,0.131,2.759
				c-0.033,0.96-0.138,1.96-0.281,2.973c-0.147,1.037-0.301,1.97-0.478,2.824c-0.174,0.836-0.38,1.647-0.638,2.47
				c-0.573,1.826-1.603,3.017-2.92,3.839c-1.466,0.917-3.373,1.455-5.447,1.893c-1.446,0.306-2.817,0.537-4.129,0.704
				c-1.34,0.172-2.692,0.29-4.053,0.368l-0.043,0.003c-1.267,0.071-2.48,0.116-3.635,0.137c-1.226,0.022-2.453,0.02-3.674-0.004
				c-6.254-0.122-12.561-0.837-18.555-2.052c-2.553-0.519-4.813-1.261-6.663-2.587c-1.813-1.3-3.32-3.227-4.452-6.159
				c-0.354-0.917-0.622-1.721-0.823-2.468c-0.195-0.726-0.344-1.476-0.465-2.295C186.442,132.86,186.367,132.014,186.529,131.401z
				 M114.812,130.999c0.084-0.564,0.227-1.08,0.456-1.501c0.188-0.345,0.443-0.637,0.788-0.848h0.008
				c0.174-0.107,0.455-0.198,0.867-0.293c0.561-0.129,1.326-0.248,2.319-0.394c1.017-0.149,1.975-0.271,2.881-0.361
				c0.971-0.097,1.963-0.173,2.992-0.224v-0.001c2.151-0.107,4.265-0.207,6.282-0.288c2.134-0.086,4.229-0.158,6.265-0.205
				c1.665-0.039,3.308-0.062,4.919-0.065c1.637-0.004,3.285,0.012,4.942,0.05c0.561,0.013,1.271,0.024,2.068,0.035
				c5.926,0.085,17.073,0.244,20.014,2.578l0.102,0.086l0.001-0.002c0.779,0.686,1.165,1.229,1.302,1.765
				c0.157,0.614,0.074,1.459-0.102,2.59c-0.129,0.818-0.286,1.566-0.487,2.29c-0.207,0.744-0.484,1.546-0.845,2.46
				c-1.16,2.922-2.684,4.835-4.509,6.118c-1.862,1.309-4.129,2.031-6.687,2.525c-6.005,1.159-12.318,1.816-18.573,1.881
				c-1.222,0.012-2.448,0.003-3.674-0.03c-1.155-0.03-2.367-0.087-3.634-0.17l-0.043-0.003c-1.36-0.09-2.711-0.222-4.05-0.405
				c-1.31-0.179-2.68-0.422-4.122-0.741c-2.07-0.457-3.971-1.014-5.429-1.944c-1.308-0.834-2.328-2.034-2.884-3.866
				c-0.251-0.825-0.45-1.638-0.616-2.475c-0.169-0.856-0.316-1.79-0.453-2.829c-0.134-1.014-0.23-2.015-0.254-2.976
				C114.633,132.828,114.675,131.905,114.812,130.999z"/>
		</g>
		<path style="fill-rule:evenodd;clip-rule:evenodd;fill:#FF9265;" d="M255.915,254.543l-45.856,14.101l-31.255,90.013
			l12.387,39.613l0.428-0.568c28.337-34.814,54.4-69.669,78.11-109.591l-31.84-1.749l24.293-6.996L255.915,254.543z"/>
		<polygon style="fill-rule:evenodd;clip-rule:evenodd;fill:#E2754D;" points="255.915,254.543 210.059,268.644 209.998,268.817 
			257.064,259.023 		"/>
		<path style="fill-rule:evenodd;clip-rule:evenodd;fill:#DE6539;" d="M195.517,392.895l-11.395-36.627l-2.172-6.67l-3.146,9.06
			l12.387,39.613l0.428-0.568C192.924,396.1,194.222,394.499,195.517,392.895z"/>
		<polygon style="fill-rule:evenodd;clip-rule:evenodd;fill:#CF5629;" points="246.37,286.828 264.44,281.625 257.514,254.114 
			255.945,254.593 262.182,279.367 237.889,286.363 		"/>
		<path style="fill-rule:evenodd;clip-rule:evenodd;fill:#CF5629;" d="M193.448,400.527l0.429-0.567
			c28.337-34.814,54.4-69.669,78.111-109.591l-3.49-0.192c-23.189,38.742-48.612,72.752-76.195,106.685L193.448,400.527z"/>
		<path style="fill-rule:evenodd;clip-rule:evenodd;fill:#CF5629;" d="M88.957,291.122
			c34.104,59.488,73.468,108.219,117.877,161.829l-0.012-0.042l-1.712-5.504c-42.83-51.746-80.929-99.151-114.105-156.395
			L88.957,291.122z"/>
		<polygon style="fill-rule:evenodd;clip-rule:evenodd;fill:#CF5629;" points="97.432,279.476 96.684,282.378 112.155,286.86 
			121.21,286.363 		"/>
		
			<rect x="87.044" y="510.527" transform="matrix(0.1728 -0.9849 0.9849 0.1728 -431.448 509.4155)" style="fill-rule:evenodd;clip-rule:evenodd;fill:#FFB17D;" width="1.056" height="2.112"/>
		
			<rect x="90.164" y="511.076" transform="matrix(0.1727 -0.985 0.985 0.1727 -429.4077 513.0065)" style="fill-rule:evenodd;clip-rule:evenodd;fill:#FFB17D;" width="1.056" height="2.112"/>
		
			<rect x="93.283" y="511.625" transform="matrix(0.1729 -0.9849 0.9849 0.1729 -427.3687 516.4386)" style="fill-rule:evenodd;clip-rule:evenodd;fill:#FFB17D;" width="1.056" height="2.111"/>
		
			<rect x="96.403" y="512.174" transform="matrix(0.1729 -0.9849 0.9849 0.1729 -425.3287 519.9521)" style="fill-rule:evenodd;clip-rule:evenodd;fill:#FFB17D;" width="1.056" height="2.111"/>
		
			<rect x="80.806" y="509.43" transform="matrix(0.1728 -0.985 0.985 0.1728 -435.5276 502.3722)" style="fill-rule:evenodd;clip-rule:evenodd;fill:#FFB17D;" width="1.056" height="2.111"/>
		
			<rect x="74.567" y="508.334" transform="matrix(0.173 -0.9849 0.9849 0.173 -439.6058 495.2356)" style="fill-rule:evenodd;clip-rule:evenodd;fill:#FFB17D;" width="1.056" height="2.111"/>
		
			<rect x="71.448" y="507.786" transform="matrix(0.1728 -0.985 0.985 0.1728 -441.6487 491.7959)" style="fill-rule:evenodd;clip-rule:evenodd;fill:#FFB17D;" width="1.056" height="2.111"/>
		
			<rect x="77.686" y="508.882" transform="matrix(0.1728 -0.985 0.985 0.1728 -437.5674 498.8378)" style="fill-rule:evenodd;clip-rule:evenodd;fill:#FFB17D;" width="1.056" height="2.111"/>
		
			<rect x="83.925" y="509.979" transform="matrix(0.1732 -0.9849 0.9849 0.1732 -433.4858 505.6861)" style="fill-rule:evenodd;clip-rule:evenodd;fill:#FFB17D;" width="1.056" height="2.112"/>
		
			<rect x="102.641" y="513.27" transform="matrix(0.1739 -0.9848 0.9848 0.1739 -421.2616 526.5005)" style="fill-rule:evenodd;clip-rule:evenodd;fill:#FFB17D;" width="1.055" height="2.112"/>
		
			<rect x="99.521" y="512.722" transform="matrix(0.1729 -0.9849 0.9849 0.1729 -423.2891 523.4907)" style="fill-rule:evenodd;clip-rule:evenodd;fill:#FFB17D;" width="1.056" height="2.111"/>
		
			<rect x="124.48" y="517.111" transform="matrix(0.1727 -0.985 0.985 0.1727 -406.962 551.7963)" style="fill-rule:evenodd;clip-rule:evenodd;fill:#FFB17D;" width="1.056" height="2.111"/>
		
			<rect x="130.72" y="518.208" transform="matrix(0.1728 -0.985 0.985 0.1728 -402.8841 558.8011)" style="fill-rule:evenodd;clip-rule:evenodd;fill:#FFB17D;" width="1.056" height="2.111"/>
		
			<rect x="127.6" y="517.659" transform="matrix(0.1727 -0.985 0.985 0.1727 -404.9216 555.3176)" style="fill-rule:evenodd;clip-rule:evenodd;fill:#FFB17D;" width="1.056" height="2.111"/>
		
			<rect x="105.761" y="513.819" transform="matrix(0.173 -0.9849 0.9849 0.173 -419.2108 530.4832)" style="fill-rule:evenodd;clip-rule:evenodd;fill:#FFB17D;" width="1.055" height="2.112"/>
		
			<rect x="133.84" y="518.756" transform="matrix(0.1728 -0.985 0.985 0.1728 -400.8444 562.3181)" style="fill-rule:evenodd;clip-rule:evenodd;fill:#FFB17D;" width="1.056" height="2.111"/>
		
			<rect x="136.96" y="519.305" transform="matrix(0.1728 -0.985 0.985 0.1728 -398.8002 565.8889)" style="fill-rule:evenodd;clip-rule:evenodd;fill:#FFB17D;" width="1.056" height="2.111"/>
		
			<rect x="121.361" y="516.562" transform="matrix(0.1728 -0.985 0.985 0.1728 -409.0058 548.2167)" style="fill-rule:evenodd;clip-rule:evenodd;fill:#FFB17D;" width="1.056" height="2.111"/>
		
			<rect x="108.881" y="514.368" transform="matrix(0.1733 -0.9849 0.9849 0.1733 -417.1772 533.8309)" style="fill-rule:evenodd;clip-rule:evenodd;fill:#FFB17D;" width="1.055" height="2.112"/>
		
			<rect x="112.001" y="514.916" transform="matrix(0.1729 -0.9849 0.9849 0.1729 -415.1285 537.5972)" style="fill-rule:evenodd;clip-rule:evenodd;fill:#FFB17D;" width="1.055" height="2.112"/>
		
			<rect x="118.241" y="516.013" transform="matrix(0.173 -0.9849 0.9849 0.173 -411.0507 544.5988)" style="fill-rule:evenodd;clip-rule:evenodd;fill:#FFB17D;" width="1.055" height="2.112"/>
		
			<rect x="115.121" y="515.465" transform="matrix(0.173 -0.9849 0.9849 0.173 -413.0907 541.0717)" style="fill-rule:evenodd;clip-rule:evenodd;fill:#FFB17D;" width="1.055" height="2.112"/>
		<path style="fill-rule:evenodd;clip-rule:evenodd;fill:#CF5629;" d="M131.284,573.034l13.789-71.145l-1.649-0.323l-13.269,68.457
			c-4.856,25.081-16.471,26.203-39.624,23.191c-11.816-1.538-23.88-4.538-34.24-6.32l-0.638,2.716
			c10.741,1.729,23.513,4.989,36.007,6.615C114.813,599.236,126.428,598.114,131.284,573.034z"/>
		<path style="fill-rule:evenodd;clip-rule:evenodd;fill:#CF5629;" d="M67.289,351.418c4.197,4.666,6.132,8.377,7.083,13.103
			c-1.271-34.741,7.995-61.956,11.991-92.934C80.006,298.197,69.885,321.797,67.289,351.418z"/>
		<path style="fill-rule:evenodd;clip-rule:evenodd;fill:#CF5629;" d="M280.252,383.576c0.244-0.417,0.492-0.834,0.743-1.251
			c3.327-5.503,6.866-10.573,10.622-15.32c4.105-26.166,1.598-49.611,2.844-74.599C289.679,322.813,290.87,351.133,280.252,383.576z
			"/>
		<path style="fill-rule:evenodd;clip-rule:evenodd;fill:#FFFFFF;" d="M187.382,531.961c5.474,0.337,10.205-3.508,10.515-8.543
			l2.454-39.87c0.309-5.037-3.915-9.432-9.389-9.769l-30.601-1.884c-5.475-0.336-10.206,3.508-10.516,8.544l-2.453,39.87
			c-0.31,5.036,3.914,9.432,9.389,9.769L187.382,531.961z"/>
		<path style="fill-rule:evenodd;clip-rule:evenodd;fill:#CCCCCC;" d="M179.158,479.655l0.487-4.773l0.006-0.079
			c0.094-0.56,0.187-1.13,0.281-1.703l-3.15-0.193c-0.072,1.031-0.146,1.984-0.215,2.811l-0.37,3.638
			c-0.082,0.818,0.514,1.548,1.331,1.63C178.345,481.068,179.076,480.472,179.158,479.655z"/>
		
			<rect x="164.301" y="473.25" transform="matrix(0.0614 -0.9981 0.9981 0.0614 -334.2193 641.6852)" style="fill-rule:evenodd;clip-rule:evenodd;fill:#F00000;" width="19.559" height="50.6"/>
		<path style="fill-rule:evenodd;clip-rule:evenodd;" d="M182.387,484.394c1.473,0.091,2.754-1.041,2.845-2.516
			c0.091-1.473-1.041-2.753-2.515-2.844l-14.816-0.911c-1.473-0.092-2.754,1.04-2.845,2.514c-0.091,1.474,1.041,2.754,2.515,2.845
			L182.387,484.394z"/>
		<path style="fill-rule:evenodd;clip-rule:evenodd;fill:#FFFFFF;" d="M156.018,495.477l36.363,2.237
			c0.823,0.052,1.532-0.575,1.583-1.398c0.051-0.823-0.576-1.532-1.399-1.583l-36.363-2.238c-0.824-0.05-1.532,0.576-1.583,1.399
			C154.569,494.717,155.195,495.426,156.018,495.477z"/>
		<path style="fill-rule:evenodd;clip-rule:evenodd;fill:#FFFFFF;" d="M155.595,502.367l36.363,2.237
			c0.823,0.05,1.531-0.575,1.583-1.398c0.05-0.824-0.576-1.532-1.399-1.583l-36.363-2.238c-0.824-0.051-1.532,0.576-1.583,1.399
			C154.145,501.607,154.771,502.316,155.595,502.367z"/>
		<path style="fill-rule:evenodd;clip-rule:evenodd;fill:#4C4C4C;" d="M154.951,512.822l36.363,2.237
			c0.411,0.026,0.766-0.288,0.791-0.699c0.026-0.411-0.288-0.766-0.699-0.791l-36.364-2.238c-0.411-0.025-0.765,0.288-0.791,0.7
			C154.226,512.442,154.539,512.796,154.951,512.822z"/>
		<path style="fill-rule:evenodd;clip-rule:evenodd;fill:#4C4C4C;" d="M154.73,516.408l36.364,2.237
			c0.411,0.026,0.766-0.288,0.791-0.699c0.026-0.411-0.288-0.766-0.699-0.791l-36.364-2.238c-0.411-0.026-0.765,0.288-0.791,0.699
			C154.006,516.028,154.318,516.382,154.73,516.408z"/>
		<path style="fill-rule:evenodd;clip-rule:evenodd;fill:#4C4C4C;" d="M154.293,523.513l36.364,2.238
			c0.411,0.025,0.766-0.289,0.791-0.7c0.026-0.411-0.288-0.765-0.699-0.791l-36.364-2.238c-0.411-0.025-0.766,0.289-0.791,0.7
			C153.568,523.134,153.881,523.489,154.293,523.513z"/>
		<path style="fill-rule:evenodd;clip-rule:evenodd;fill:#4C4C4C;" d="M154.513,519.927l36.364,2.238
			c0.411,0.026,0.766-0.288,0.791-0.699c0.026-0.412-0.288-0.766-0.699-0.792l-36.364-2.237c-0.411-0.026-0.765,0.288-0.791,0.699
			C153.788,519.548,154.102,519.903,154.513,519.927z"/>
		<path style="fill-rule:evenodd;clip-rule:evenodd;fill:#61C2C2;" d="M196.089,445.367l27.383,7.689
			c32.889,13.761,73.493,35.522,113.863,39.072c18.914,1.663,32.544-5.191,29.972-33.65c-3.345-36.977-32.191-87.84-41.228-124.856
			c-15.589,11.653-34.593,30.136-45.085,48.704c-1.416,2.505-2.839,4.929-4.076,7.463l8.253,11.949l5.954,21.181
			c-27.666-7.718-47.704-18.6-72.483-31.198L196.089,445.367z"/>
		<path style="fill-rule:evenodd;clip-rule:evenodd;fill:#44B3B3;" d="M267.211,437.776c1.298-8.162,2.618-15.135,4.119-21.324
			c-18.347-6.887-34.196-15.332-52.686-24.732l-22.555,53.646l27.383,7.689c12.4,5.188,25.895,11.512,40.063,17.571
			C263.619,461.406,265.065,451.543,267.211,437.776z"/>
		<path style="fill-rule:evenodd;clip-rule:evenodd;fill:#44B3B3;" d="M327.489,338.963c-0.511-1.808-0.982-3.591-1.409-5.341
			c-15.589,11.653-34.593,30.136-45.085,48.704c-1.416,2.505-2.839,4.929-4.076,7.463l2.507,3.629
			c1.168-2.354,2.437-4.656,3.826-6.952C295.194,366.721,309.855,352.522,327.489,338.963z"/>
		<path style="fill-rule:evenodd;clip-rule:evenodd;fill:#99FFFF;" d="M269.353,415.702c-16.839-6.485-31.691-14.288-48.645-22.93
			l-22.377,53.224l25.142,7.06c8.703,3.642,17.946,7.842,27.582,12.119L269.353,415.702z"/>
		<path style="fill-rule:evenodd;clip-rule:evenodd;fill:#46B8B8;" d="M71.409,470.589c-14.395-36.158-23.035-81.559-30.954-128.257
			c5.761,53.823,12.278,106.763,24.083,153.532l1.726-2.713C67.201,485.836,68.967,478.685,71.409,470.589z"/>
		<polygon style="fill-rule:evenodd;clip-rule:evenodd;fill:#E2754D;" points="149.534,268.388 103.359,254.927 102.208,259.406 
			149.574,268.56 		"/>
		<polygon style="fill-rule:evenodd;clip-rule:evenodd;fill:#F7F3D4;" points="178.407,182.281 175.823,194.239 178.694,197.3 
			181.467,194.335 		"/>
		<path style="fill-rule:evenodd;clip-rule:evenodd;fill:#EA7D8E;" d="M203.603,195.864l-22.106-1.569
			c-1.925,0.98-3.844,1.091-5.755-0.065l-24.157,1.356v0.05c20.005,8.123,30.715,8.33,52.017,0.461L203.603,195.864z"/>
		<path style="fill-rule:evenodd;clip-rule:evenodd;fill:#FFE300;" d="M172.592,443.217l-0.005-0.006
			c-0.719-1.99-1.499-4.069-2.34-6.234c-0.852-2.189-1.779-4.504-2.782-6.942c-5.145-12.505-12.247-28.155-21.392-46.985
			c-5.262-10.836-10.288-21.821-14.666-33.04c-4.37-11.197-8.095-22.622-10.763-34.353c-3.885-17.076-5.743-34.018-7.737-52.211
			c-0.258-2.352-0.523-4.771-0.71-6.463l-2.963,0.327c0.294,2.649,0.501,4.535,0.711,6.451c2.003,18.279,3.869,35.3,7.793,52.55
			c2.709,11.907,6.476,23.471,10.892,34.785c4.407,11.292,9.464,22.345,14.759,33.25c9.136,18.809,16.213,34.403,21.323,46.822
			c0.991,2.409,1.911,4.705,2.758,6.884c0.856,2.202,1.627,4.254,2.314,6.155l-0.003,0.002l0.003,0.007l0.005,0.005
			c1.319,3.654,2.284,7.085,2.987,10.139c0.143,0.621,0.27,1.198,0.381,1.732c0.116,0.557,0.225,1.103,0.325,1.636l0.002,0.013
			c0.819,4.354,0.779,12.591,0.683,17.096l-0.145,3.655c-0.032,0.821,0.607,1.514,1.429,1.546c0.821,0.032,1.514-0.608,1.546-1.429
			l0.192-4.794l0.002-0.079c0.453-4.314,0.873-9.233,1.074-11.408c0.09-0.98,0.187-1.95,0.287-2.872
			c0.091-0.822,0.174-1.488,0.245-1.936l0.001,0.001l0.006-0.038v-0.006c0.704-4.327,1.656-8.61,2.795-12.871
			c1.136-4.249,2.464-8.478,3.923-12.712c2.363-6.85,4.883-13.665,7.396-20.459c4.014-10.853,8.01-21.658,11.285-32.391l0.006-0.006
			l0.002-0.008l-0.003-0.001l2.497-8.197c5.564-18.274,11.136-36.573,17.149-54.646l0.002,0.001l0.003-0.008l0.005-0.023
			c3.665-11.014,7.564-21.882,11.763-31.862c4.179-9.934,8.655-18.98,13.49-26.393l-2.497-1.622
			c-4.934,7.565-9.489,16.768-13.735,26.86c-4.224,10.041-8.147,20.976-11.836,32.06l-0.002-0.001l-0.002,0.008l-0.006,0.024
			c-6.043,18.163-11.615,36.463-17.18,54.738l-2.5,8.204l-0.005,0.006l-0.002,0.008l0.003,0.001
			c-3.21,10.516-7.214,21.344-11.236,32.221c-2.532,6.848-5.073,13.717-7.418,20.517c-1.474,4.278-2.822,8.57-3.982,12.91
			c-1.036,3.876-1.922,7.791-2.617,11.77l-0.026-0.12c-0.127-0.608-0.259-1.207-0.393-1.79c-0.721-3.13-1.717-6.668-3.089-10.47
			l0.003-0.001L172.592,443.217z"/>
		<path style="fill-rule:evenodd;clip-rule:evenodd;fill:#999999;" d="M141.595,442.741c5.843,0.548,10.557-6.471,12.15-15.262
			l15.374-84.822c1.593-8.793-3.259-16.706-9.104-17.253l-17.205-1.612c-5.845-0.548-12.063,6.323-12.15,15.262l-0.828,86.184
			c-0.086,8.939,3.261,16.707,9.104,17.253L141.595,442.741z"/>
		<path style="fill-rule:evenodd;clip-rule:evenodd;fill:#4C4C4C;" d="M164.432,368.517l4.687-25.861
			c1.593-8.793-3.259-16.706-9.104-17.253l-17.205-1.612c-5.844-0.548-12.064,6.324-12.149,15.262l-0.255,26.435
			c2.826,1.055,5.883,1.937,9.137,2.61C148.167,369.878,156.835,369.911,164.432,368.517z"/>
		<path style="fill-rule:evenodd;clip-rule:evenodd;fill:#7F7F7F;" d="M164.932,365.757l4.187-23.101
			c1.593-8.793-3.259-16.706-9.104-17.253l-17.205-1.612c-5.844-0.548-12.064,6.324-12.149,15.262l-0.231,24.025
			c2.696,0.98,5.596,1.804,8.675,2.441C148.087,367.373,157.114,367.331,164.932,365.757z"/>
		<path style="fill-rule:evenodd;clip-rule:evenodd;fill:#4C4C4C;" d="M166.791,355.95l2.328-13.294
			c1.54-8.801-3.259-16.706-9.104-17.253l-17.205-1.612c-5.844-0.548-12.014,6.324-12.149,15.262l-0.215,14.161
			c2.802,1.166,2.683,1.416,9.008,2.875C145.78,357.549,158.456,358.067,166.791,355.95z"/>
		<path style="fill-rule:evenodd;clip-rule:evenodd;fill:#666666;" d="M167.222,353.122l1.897-10.465
			c1.593-8.793-3.259-16.706-9.104-17.253l-17.205-1.612c-5.844-0.548-12.064,6.324-12.149,15.262l-0.109,11.309
			c2.847,1.196,5.91,2.191,9.164,2.941C149.236,355.502,158.848,355.279,167.222,353.122z"/>
		<polygon style="fill-rule:evenodd;clip-rule:evenodd;fill:#1E7850;" points="152.315,292.555 116.44,295.753 151.641,306.744 
			188.836,302.441 		"/>
		
			<ellipse transform="matrix(0.2795 -0.9601 0.9601 0.2795 -159.0969 351.1985)" style="fill-rule:evenodd;clip-rule:evenodd;fill:#333333;" cx="154.461" cy="281.608" rx="29.303" ry="29.303"/>
		<path style="fill-rule:evenodd;clip-rule:evenodd;fill:#484848;" d="M183.299,286.802c2.644-14.579-6.11-29.096-20.649-33.33
			c-5.489-1.598-11.067-1.514-16.188-0.055c1.709,14.618,11.936,27.508,26.954,31.881
			C176.709,286.257,180.027,286.742,183.299,286.802z"/>
		<polygon style="fill-rule:evenodd;clip-rule:evenodd;fill:#A6E153;" points="116.431,295.624 112.606,336.451 148.33,346.786 
			152.155,305.959 		"/>
		<polygon style="fill-rule:evenodd;clip-rule:evenodd;fill:#4AB80B;" points="151.784,305.925 147.96,346.752 184.982,343.231 
			188.806,302.404 		"/>
		
			<ellipse transform="matrix(0.2795 -0.9602 0.9602 0.2795 -133.3856 353.46)" style="fill-rule:evenodd;clip-rule:evenodd;fill:#666666;" cx="168.815" cy="265.604" rx="3.251" ry="3.251"/>
		<path style="fill-rule:evenodd;clip-rule:evenodd;fill:#7F7F7F;" d="M129.896,418.385c0.237-0.77,1.021-1.61,2.509-3.157
			c4.476-4.646,3.732-4.555,9.402-1.481l7.551,4.095l5.721,2.273l9.222-50.888c-4.742-1.851-8.449-0.635-16.906,0.544
			c-10.244,1.429-10.515,0.395-14.602,9.836l-2.582,5.961l-0.088,9.142c0.137,0.206,0.283,0.425,0.439,0.655l-0.456,1.053
			L129.896,418.385z"/>
		<path style="fill-rule:evenodd;clip-rule:evenodd;fill:#666666;" d="M149.829,369.414c4.543,0.232,8.971,0.002,13.112-0.643
			C159.26,367.744,155.878,368.488,149.829,369.414z"/>
		<path style="fill-rule:evenodd;clip-rule:evenodd;fill:#F7F3D4;" d="M122.527,405.524c-7.058,8.867-5.03,8.396,0.626,18.239
			l4.88,8.492c0.871-0.445,1.607-0.975,2.208-1.587l-0.161-1.039l-0.177-1.986l-0.059-2.163l0.059-3.496l-0.03-4.118l0.027-0.005
			c-0.247-0.553-0.487-1.128-0.699-1.744c-0.46-1.335,0.168-2.052,2.449-4.42c4.476-4.646,3.732-4.555,9.402-1.481l7.551,4.094
			l16.136,6.414c9.194,3.655,16.342,5.616,24.283,6.803c4.764,0.711,9.815,1.144,15.763,1.497l13.209,21.721l15.583-31.173
			l-9.896-10.894l-16.476-10.96L177.34,375.07l-6.541-4.959c-9.666-7.331-12.023-5.564-24.158-3.871
			c-10.245,1.43-10.517,0.395-14.603,9.836l-2.706,6.25c-2.212,5.111-2.633,4.92,0.476,9.508l-4.313,9.962L122.527,405.524z"/>
		<path style="fill-rule:evenodd;clip-rule:evenodd;fill:#62CCCC;" d="M265.974,411.65c-16.314-6.801-31.329-14.735-48.39-23.408
			l-24.781,58.939l30.085,8.448c7.368,3.083,15.086,6.529,23.085,10.1L265.974,411.65z"/>
		<path style="fill-rule:evenodd;clip-rule:evenodd;fill:#4CA6A6;" d="M269.353,415.702c-1.432-0.552-2.849-1.114-4.254-1.683
			l-18.232,49.292c1.387,0.619,2.783,1.239,4.187,1.863L269.353,415.702z"/>
		<path style="fill-rule:evenodd;clip-rule:evenodd;fill:#FFFFFF;" d="M179.682,467.814v-3.835c0-1.987-1.61-3.598-3.598-3.598
			c-1.987,0-3.597,1.611-3.597,3.598v3.835c0,1.987,1.61,3.597,3.597,3.597C178.071,471.412,179.682,469.801,179.682,467.814z"/>
	</g>
</g>
<g id="Layer_1">
</g>
</svg>
