<?xml version="1.0" encoding="iso-8859-1"?>
<!-- Generator: Adobe Illustrator 19.2.0, SVG Export Plug-In . SVG Version: 6.00 Build 0)  -->
<svg version="1.1" xmlns="http://www.w3.org/2000/svg" xmlns:xlink="http://www.w3.org/1999/xlink" x="0px" y="0px"
	 viewBox="0 0 285.512 595.993" style="enable-background:new 0 0 285.512 595.993;" xml:space="preserve">
<g id="MaleReporter">
	<g>
		<path style="fill:#1DA7B5;" d="M244.667,382.986L196.04,306.33c-7.165-12.314-4.635-27.178,5.652-33.203
			c10.289-6.027,24.438-0.928,31.604,11.384l0.107-0.062l48.629,76.655L244.667,382.986z"/>
		<g>
			<g>
				<path style="fill:#333333;" d="M186.229,664.64c0,0,0.116-4.561,9.241-3.157c9.123,1.404,14.971,2.923,18.364,2.341
					c3.393-0.586,3.393,9.124,2.81,9.476c-0.587,0.35-14.627,2.34-15.562,1.988C200.148,674.934,186.229,664.64,186.229,664.64z"/>
			</g>
			<g>
				<path style="fill:#D6CCC0;" d="M183.775,680.785c0,0-4.445,3.041-2.927,11.11c0.702,2.926,9.108,2.023,26.416,10.096
					c17.314,8.066,40.489,14.886,66.335,1.086c2.692-1.407,4.799-12.285-4.561-13.102
					C259.684,689.152,183.775,680.785,183.775,680.785z"/>
			</g>
			<g>
				<path style="fill:#996133;" d="M220.891,672.362c0,2.134-1.997,3.859-4.463,3.859h-21.694c-2.468,0-4.47-1.725-4.47-3.859
					v-29.714c0-2.13,2.002-3.859,4.47-3.859h21.694c2.466,0,4.463,1.729,4.463,3.859V672.362z"/>
			</g>
			<g>
				<g>
					<path style="fill:#4A4A4A;" d="M186.229,664.64c0,0-3.858,14.156-3.744,17.433c10.759,3.277,7.47,1.904,18.113,6.935
						c10.643,5.03,53.117,19.211,71.717,3.657c2.34-2.34-2.807-16.045-28.893-22.364c-5.03-1.983-12.626-9.984-15.548-14.198
						c-4.916-1.403-12.167,3.744-20.826,11.696C198.392,675.755,186.581,660.898,186.229,664.64z"/>
				</g>
			</g>
			<g>
				<path style="fill:#D65037;" d="M234.188,675.876c-0.021-0.039-1.428-2.55-0.889-5.721c-1.275,0.321-2.61,0.781-3.915,1.436
					c-0.24,0.119-0.526,0.115-0.76-0.013c-0.236-0.129-0.395-0.365-0.425-0.631c-0.176-1.585-0.099-3.051,0.231-4.432
					c-0.236,0.023-0.47,0.05-0.716,0.073c-1.718,0.175-3.677,0.376-5.929,0.57c-0.325,0.033-0.615-0.129-0.777-0.397
					c-0.159-0.271-0.157-0.61,0.021-0.872c3.91-5.938,11.279-5.63,11.584-5.63c0.324,0.017,0.607,0.222,0.725,0.526
					c0.117,0.303,0.044,0.648-0.187,0.877c-0.954,0.95-1.698,1.929-2.25,2.962c2.592-0.227,4.529-0.303,6.112-0.022
					c0.304,0.054,0.553,0.276,0.643,0.574c0.089,0.298,0.004,0.618-0.223,0.831c-0.702,0.664-1.228,1.338-1.621,2
					c2.9-0.365,5.036-0.127,5.185-0.109c0.448,0.053,0.774,0.46,0.718,0.912c-0.05,0.449-0.445,0.775-0.912,0.718
					c-0.038-0.004-2.531-0.273-5.757,0.262c-0.783,2.827,0.487,5.131,0.565,5.268c0.223,0.393,0.09,0.896-0.305,1.121
					c-0.127,0.072-0.268,0.109-0.409,0.109C234.615,676.287,234.341,676.139,234.188,675.876z M235.155,666.07
					c-1.326-0.029-2.946,0.075-4.962,0.268c-0.317,1.03-0.462,2.114-0.436,3.268c1.38-0.588,2.763-0.992,4.058-1.264
					C234.123,667.595,234.556,666.831,235.155,666.07z M230.642,662.018c-1.896,0.255-4.847,1.025-7.083,3.331
					c1.457-0.138,2.785-0.273,3.99-0.397c0.498-0.051,0.98-0.099,1.442-0.144C229.397,663.839,229.945,662.912,230.642,662.018z"/>
			</g>
		</g>
		<g>
			<g>
				<path style="fill:#3A3A3A;" d="M112.691,664.64c0,0-0.119-4.561-9.243-3.157c-9.125,1.404-14.973,2.923-18.365,2.341
					c-3.393-0.586-3.393,9.124-2.809,9.476c0.587,0.35,14.624,2.34,15.56,1.988C98.769,674.934,112.691,664.64,112.691,664.64z"/>
			</g>
			<g>
				<path style="fill:#D6CCC0;" d="M115.146,680.785c0,0,4.443,3.041,2.926,11.11c-0.701,2.926-9.106,2.023-26.416,10.096
					c-17.314,8.066-40.488,14.886-66.335,1.086c-2.692-1.407-4.799-12.285,4.559-13.102
					C39.236,689.152,115.146,680.785,115.146,680.785z"/>
			</g>
			<g>
				<path style="fill:#A06937;" d="M78.025,672.362c0,2.134,1.999,3.859,4.469,3.859h21.69c2.468,0,4.473-1.725,4.473-3.859v-29.714
					c0-2.13-2.005-3.859-4.473-3.859h-21.69c-2.469,0-4.469,1.729-4.469,3.859V672.362z"/>
			</g>
			<g>
				<g>
					<path style="fill:#565658;" d="M112.691,664.64c0,0,3.857,14.156,3.742,17.433c-10.76,3.277-7.469,1.904-18.113,6.935
						c-10.642,5.03-53.118,19.211-71.718,3.657c-2.339-2.34,2.809-16.045,28.892-22.364c5.033-1.983,12.627-9.984,15.552-14.198
						c4.913-1.403,12.165,3.744,20.822,11.696C100.526,675.755,112.339,660.898,112.691,664.64z"/>
				</g>
			</g>
			<g>
				<path style="fill:#E1593C;" d="M64.019,676.287c-0.142,0-0.28-0.036-0.41-0.109c-0.391-0.225-0.527-0.728-0.303-1.121
					c0.077-0.137,1.347-2.441,0.563-5.268c-3.222-0.535-5.718-0.266-5.758-0.262c-0.462,0.056-0.86-0.27-0.912-0.718
					c-0.052-0.451,0.271-0.859,0.72-0.912c0.15-0.019,2.284-0.256,5.183,0.109c-0.393-0.662-0.917-1.335-1.621-2
					c-0.225-0.213-0.31-0.533-0.219-0.831c0.088-0.298,0.336-0.521,0.642-0.574c1.584-0.281,3.52-0.205,6.112,0.022
					c-0.551-1.033-1.297-2.012-2.251-2.962c-0.228-0.229-0.304-0.574-0.185-0.877c0.118-0.304,0.399-0.509,0.725-0.526
					c0.303,0,7.674-0.308,11.584,5.63c0.176,0.263,0.182,0.601,0.022,0.872c-0.162,0.268-0.455,0.43-0.78,0.397
					c-2.248-0.194-4.209-0.395-5.927-0.57c-0.245-0.023-0.48-0.05-0.717-0.073c0.333,1.381,0.406,2.847,0.231,4.432
					c-0.027,0.267-0.187,0.502-0.422,0.631c-0.236,0.128-0.519,0.132-0.762,0.013c-1.304-0.655-2.64-1.115-3.914-1.436
					c0.538,3.172-0.869,5.683-0.891,5.721C64.575,676.139,64.302,676.287,64.019,676.287z M65.103,668.343
					c1.295,0.271,2.678,0.676,4.061,1.264c0.025-1.155-0.121-2.238-0.437-3.268c-2.016-0.193-3.637-0.297-4.964-0.268
					C64.362,666.831,64.794,667.595,65.103,668.343z M69.928,664.808c0.464,0.045,0.946,0.093,1.444,0.144
					c1.203,0.124,2.53,0.259,3.987,0.397c-2.237-2.306-5.186-3.076-7.08-3.331C68.974,662.912,69.523,663.839,69.928,664.808z"/>
			</g>
		</g>
		<g>
			<polygon style="fill:#996133;" points="170.321,243.94 150.192,243.94 148.002,257.513 150.192,271.318 170.321,271.318 			"/>
			<rect x="130.028" y="243.94" style="fill:#A06937;" width="20.165" height="27.378"/>
		</g>
		<g>
			<g>
				<g>
					<path style="fill:#445E73;" d="M113.28,653.026H73.154V467.087l67.526,6.553c0,0-3.124,1.754-10.904,14.767
						C119.165,506.144,113.28,653.026,113.28,653.026z"/>
				</g>
				<g>
					<path style="fill:#3C5568;" d="M187.105,653.026h40.123V467.087l-67.525,6.553c0,0,3.126,1.754,10.907,14.767
						C181.22,506.144,187.105,653.026,187.105,653.026z"/>
				</g>
				<g>
					<g>
						<path style="fill:#445E73;" d="M73.154,407.771v63.68c0,0,57.772,4.379,77.039,4.379l2.191-27.766l-2.191-40.293H73.154z"/>
					</g>
					<g>
						<g>
							<path style="fill:#3C5568;" d="M150.192,407.771v68.059c19.263,0,77.036-4.379,77.036-4.379v-63.68H150.192z"/>
						</g>
					</g>
				</g>
			</g>
			<g>
				<path style="fill:#3C5568;" d="M119.675,650.836c0,1.211-0.954,2.191-2.13,2.191h-49.68c-1.176,0-2.127-0.979-2.127-2.191
					v-16.427c0-1.211,0.951-2.191,2.127-2.191h49.68c1.175,0,2.13,0.98,2.13,2.191V650.836z"/>
			</g>
			<g>
				<path style="fill:#344B56;" d="M233.683,650.836c0,1.211-0.954,2.191-2.125,2.191h-49.684c-1.176,0-2.131-0.979-2.131-2.191
					v-16.427c0-1.211,0.954-2.191,2.131-2.191h49.684c1.171,0,2.125,0.98,2.125,2.191V650.836z"/>
			</g>
		</g>
		<g>
			<g>
				<path style="fill:#36BFC6;" d="M90.966,270.223c-13.663,0-24.741,10.185-24.741,28.152l0.36,168.712h83.998l2.191-111.659
					l-2.191-85.205H90.966z"/>
			</g>
			<g>
				<path style="fill:#1DA7B5;" d="M234.646,298.375c0-17.967-11.076-28.152-24.744-28.152h-59.71v196.864h83.602L234.646,298.375z"
					/>
			</g>
		</g>
		<g>
			<polygon style="fill:#E5E3DF;" points="150.172,268.033 147.981,288.907 150.172,361.259 150.24,361.431 191.718,270.223 			"/>
			<polygon style="fill:#FFFFFF;" points="109.448,270.223 150.172,361.259 150.172,268.033 			"/>
		</g>
		<g>
			<path style="fill:#E1593C;" d="M147.87,265.17c-4.149,0-7.517,3.367-7.517,7.52v4.599c0,4.148,3.369,7.515,7.517,7.515h2.302
				l2.191-9.817l-2.191-9.818H147.87z"/>
			<path style="fill:#D65037;" d="M152.473,265.17h-2.302v19.635h2.302c4.149,0,7.515-3.367,7.515-7.515v-4.599
				C159.988,268.537,156.622,265.17,152.473,265.17z"/>
		</g>
		<g>
			<path style="fill:#996133;" d="M25.751,487.706l2.169,7.007c0.667,2.157,2.961,3.363,5.115,2.695
				c1.559-0.484,2.614-1.823,2.829-3.337c0,0,0.004,0,0.007,0.006c1.656-1.528,2.546,0.461,2.546,0.461
				c0.667,2.161,2.954,3.367,5.115,2.695c1.962-0.602,3.12-2.553,2.815-4.526h0.009c0.992-1.77,2.06-0.055,2.06-0.055
				s0.012-0.005,0.019-0.009c0.839,1.848,2.921,2.844,4.91,2.224c1.804-0.556,2.927-2.25,2.863-4.046h0.008
				c0.606-2.285,2.514-1.045,2.514-1.045l0.006-0.004c1.031,0.86,2.456,1.201,3.828,0.774c2.152-0.667,3.362-2.955,2.696-5.115
				c-0.62-3.838,2.699-2.961,2.699-2.961s0-0.013-0.003-0.017c0.83,0.325,1.77,0.398,2.687,0.112
				c2.157-0.667,3.364-2.956,2.698-5.108l-2.036-6.592c-5.375-26.591-12.509-20.551-17.494-23.999
				c-4.99-3.447-8.473-15.567-8.473-15.567s-20.011,6.191-25.621,7.931c6.376,18.883,3.197,17.547,0.707,25.628
				C18.599,470.779,23.176,482.081,25.751,487.706z"/>
		</g>
		<g>
			<path style="fill:#36BFC6;" d="M13.161,451.286c-18.502-55.689-17.492-100.805,3.004-134.093
				c22.274-36.178,59.329-44.195,70.157-45.787l6.702,45.503c-5.849,0.86-25.852,5.166-37.692,24.399
				c-12.852,20.87-12.342,53.886,1.476,95.475L13.161,451.286z"/>
		</g>
		<g>
			<g>
				<polygon style="fill:#D65037;" points="177.652,259.866 150.172,274.989 177.652,290.11 				"/>
			</g>
			<g>
				<polygon style="fill:#E1593C;" points="122.691,259.866 150.172,274.989 122.691,290.11 				"/>
			</g>
		</g>
		<g>
			<circle style="fill:#9FA6AA;" cx="182.483" cy="275.565" r="27.984"/>
			<path style="fill:#798184;" d="M210.467,275.565c0-15.455-12.529-27.984-27.983-27.984v55.969
				C197.938,303.55,210.467,291.02,210.467,275.565z"/>
			<rect x="166.452" y="298.16" style="fill:#475059;" width="32.065" height="8.24"/>
			<rect x="182.484" y="298.16" style="fill:#353D44;" width="16.032" height="8.24"/>
			<polygon style="fill:#475059;" points="189.506,381.711 175.459,381.711 167.685,303.55 197.282,303.55 			"/>
			<polygon style="fill:#353D44;" points="189.506,381.711 182.484,381.711 182.484,303.55 197.282,303.55 			"/>
		</g>
		<g>
			<path style="fill:#996133;" d="M169.401,363.344l-7.297-0.752c-2.244-0.232-3.877-2.244-3.646-4.488
				c0.169-1.624,1.275-2.921,2.718-3.427c0,0,0-0.004-0.006-0.007c1.172-1.923-0.953-2.406-0.953-2.406
				c-2.248-0.231-3.88-2.239-3.646-4.489c0.208-2.042,1.894-3.558,3.887-3.647c0,0-0.002-0.004-0.004-0.009
				c1.541-1.32-0.348-2.031-0.348-2.031s0.002-0.012,0.005-0.021c-1.977-0.459-3.364-2.306-3.144-4.379
				c0.191-1.878,1.632-3.311,3.406-3.6l-0.002-0.011c2.122-1.041,0.531-2.669,0.531-2.669l0.003-0.006
				c-1.046-0.843-1.659-2.172-1.509-3.603c0.231-2.24,2.238-3.876,4.486-3.646c3.885-0.144,2.373-3.227,2.373-3.227
				s0.012-0.002,0.018-0.001c-0.482-0.75-0.737-1.656-0.636-2.613c0.231-2.247,2.238-3.879,4.479-3.646l6.865,0.703
				c27.128,0.055,22.604,8.234,26.962,12.447c4.36,4.216,23.284,17.885,23.284,17.885s-3.077,13.09-3.685,18.933
				c-18.804-7.148-23.258-4.578-30.694-0.552C187.402,367.038,175.421,364.766,169.401,363.344z"/>
		</g>
		<g>
			<path style="fill:#36BFC6;" d="M219.37,326.358l50.26,24.049c12.877,6.096,19.204,19.784,14.134,30.573
				c-5.069,10.792-19.62,14.598-32.497,8.503l-0.053,0.114l-50.26-24.051L219.37,326.358z"/>
		</g>
		<g>
			<path style="fill:#996133;" d="M235.727,160.731c-0.199,4.915-2.003,10.897-6.911,10.624l0,0
				c-4.913-0.269-8.671-4.474-8.399-9.384l1.637-29.495c0.276-4.911,4.478-8.672,9.385-8.394l0,0
				c4.912,0.27,9.146,4.521,8.393,9.378C238.783,140.274,236.262,147.393,235.727,160.731z"/>
			<path style="fill:#A06937;" d="M64.622,160.731c0.196,4.915,2.002,10.897,6.91,10.624l0,0c4.908-0.269,8.665-4.474,8.393-9.384
				l-1.638-29.495c-0.273-4.911-4.473-8.672-9.382-8.394l0,0c-4.909,0.27-9.146,4.521-8.396,9.378
				C61.564,140.274,64.08,147.393,64.622,160.731z"/>
			<g>
				<path style="fill:#A06937;" d="M110.24,34.056c-17.04,0-31.567,11.358-37.224,27.314v55.541l4.325,69.457
					c0,23.265,17.799,42.128,39.759,42.128h50.679V34.056H110.24z"/>
				<g>
					<path style="fill:#996133;" d="M227.674,61.397c-5.653-15.971-20.19-27.341-37.234-27.341h-40.257v194.44h33.396
						c21.957,0,39.76-18.863,39.76-42.128l4.335-69.624V61.397z"/>
				</g>
			</g>
			<g>
				<circle style="fill:#353535;" cx="194.892" cy="127.793" r="7.636"/>
				<ellipse style="fill:#F7D8BA;" cx="196.779" cy="126.172" rx="2.591" ry="2.589"/>
			</g>
			<g>
				<linearGradient id="SVGID_1_" gradientUnits="userSpaceOnUse" x1="141.3904" y1="114.3146" x2="142.6644" y2="175.9758">
					<stop  offset="0" style="stop-color:#A06937"/>
					<stop  offset="1" style="stop-color:#996133"/>
				</linearGradient>
				<path style="fill:url(#SVGID_1_);" d="M133.895,176.615c0,3.391,7.646,6.141,16.674,6.223l-0.396-68.548
					C144.074,119.507,133.895,176.615,133.895,176.615z"/>
				<linearGradient id="SVGID_2_" gradientUnits="userSpaceOnUse" x1="157.0629" y1="114.7428" x2="158.5917" y2="175.1295">
					<stop  offset="0.0054" style="stop-color:#996133"/>
					<stop  offset="1" style="stop-color:#915A30"/>
				</linearGradient>
				<path style="fill:url(#SVGID_2_);" d="M159.143,137.703c-3.608-14.677-6.306-21.744-8.97-23.413v68.548
					c0.133,0,0.259,0.006,0.396,0.006c9.21,0,16.674-2.79,16.674-6.229C167.243,176.615,164.085,157.81,159.143,137.703z"/>
				<path style="fill:#996133;" d="M142.231,177.272c0,2.305-2.428,4.172-5.418,4.172c-2.998,0-5.425-1.867-5.425-4.172
					c0-2.3,2.426-4.17,5.425-4.17C139.803,173.102,142.231,174.971,142.231,177.272z"/>
				<ellipse style="fill:#915A30;" cx="164.128" cy="177.272" rx="5.421" ry="4.171"/>
			</g>
			<g>
				<circle style="fill:#3F3F3F;" cx="105.893" cy="127.793" r="7.636"/>
				<circle style="fill:#F7D8BA;" cx="107.779" cy="126.172" r="2.589"/>
			</g>
			<path style="fill:#3F3F3F;" d="M88.703,107.351c-0.713,0-1.427-0.248-2.007-0.753c-1.275-1.109-1.407-3.039-0.296-4.314
				c5.468-6.274,11.829-9.661,18.908-10.063c12.537-0.715,22.63,8.358,23.052,8.745c1.246,1.14,1.332,3.074,0.191,4.318
				c-1.135,1.245-3.067,1.334-4.312,0.198c-0.101-0.089-8.662-7.742-18.626-7.154c-5.355,0.316-10.268,2.999-14.604,7.974
				C90.404,106.996,89.556,107.351,88.703,107.351z"/>
			<path style="fill:#353535;" d="M212.805,107.351c-0.854,0-1.702-0.355-2.305-1.05c-4.347-4.987-9.274-7.671-14.647-7.976
				c-10.016-0.571-18.494,7.075-18.577,7.152c-1.247,1.142-3.182,1.053-4.319-0.193c-1.143-1.244-1.055-3.178,0.191-4.318
				c0.422-0.387,10.501-9.458,23.052-8.745c7.079,0.402,13.44,3.79,18.908,10.063c1.109,1.275,0.977,3.205-0.297,4.314
				C214.233,107.104,213.517,107.351,212.805,107.351z"/>
			<g>
				<path style="fill:#353535;" d="M229.484,145.147V26.047C229.484,12.225,218.279,0,204.457,0h-60.394l-7.135,20.525l7.135,30.434
					h47.427c3.658,0,6.624,2.966,6.624,6.624c0,5.16,4.183,9.342,9.342,9.342c9.662,0,17.496,7.833,17.496,17.496v56.193
					C224.951,143.117,226.979,145.147,229.484,145.147z"/>
				<path style="fill:#3F3F3F;" d="M70.882,145.147V26.048c0-13.823,11.205-26.047,25.027-26.047h54.273v50.959h-41.304
					c-3.659,0-6.625,2.966-6.625,6.625c0,5.16-4.183,9.342-9.342,9.342c-9.664,0-17.497,7.833-17.497,17.496v56.191
					C75.414,143.117,73.385,145.147,70.882,145.147z"/>
			</g>
			<path style="fill:#A06937;" d="M150.173,215.698h-22.422c-7.178,0-12.994,5.817-12.994,12.995
				c0,7.176,5.816,12.994,12.994,12.994h22.422V215.698z"/>
			<path style="fill:#996133;" d="M150.173,241.687h22.423c7.177,0,12.995-5.818,12.995-12.994c0-7.178-5.819-12.995-12.995-12.995
				h-22.423V241.687z"/>
			<g>
				<path style="fill:#3F3F3F;" d="M184.689,199.306c0-0.369-0.093-0.698-0.308-0.972c-0.057-0.089-0.129-0.168-0.2-0.246
					c-1.641-3.684-5.944-7.723-13.142-9.245c-6.913-1.424-14.227-0.983-20.894,1.3c-6.667-2.284-13.975-2.725-20.889-1.3
					c-7.488,1.583-11.85,5.891-13.336,9.687h0.055c-0.78,1.679-1.227,3.546-1.227,5.517v26.833c0,9.33,7.59,16.923,16.922,16.923
					h36.989c9.332,0,16.924-7.593,16.924-16.923v-26.833C185.582,202.375,185.26,200.778,184.689,199.306z M179.466,224.765
					c0,5.959-4.848,10.807-10.808,10.807h-15.373v-11.662c0-1.58-1.281-2.861-2.861-2.861h-0.52c-1.581,0-2.861,1.281-2.861,2.861
					v11.662h-15.374c-5.96,0-10.808-4.848-10.808-10.807v-19.491c5.806,3.962,16.238,7.923,29.382,7.909
					c13.023,0.014,23.382-3.876,29.223-7.801V224.765z"/>
				<path style="fill:#353535;" d="M184.689,199.306c0-0.369-0.093-0.698-0.308-0.972c-0.057-0.089-0.129-0.168-0.2-0.246
					c-1.641-3.684-5.944-7.723-13.142-9.245c-6.908-1.424-14.212-0.983-20.876,1.296v23.043c0.028,0,0.055,0,0.08,0
					c13.023,0.016,23.382-3.876,29.223-7.801v19.385c0,5.961-4.848,10.807-10.809,10.807h-15.374v-11.662
					c0-1.58-1.279-2.862-2.861-2.862h-0.261v26.754h18.495c9.332,0,16.924-7.593,16.924-16.923v-26.833
					C185.582,202.375,185.26,200.778,184.689,199.306z"/>
			</g>
			<g>
				<g>
					<g>
						<path style="fill:#915A30;" d="M178.916,204.79c-0.049-0.071-0.11-0.139-0.17-0.202c-1.387-3.075-5.027-6.443-11.122-7.709
							c-5.85-1.187-12.038-0.82-17.679,1.086c-5.642-1.906-11.83-2.272-17.68-1.086c-6.336,1.319-10.028,4.908-11.285,8.075h0.059
							c-1.733,3.046,10.445,16.669,28.988,16.651C168.902,221.626,181.193,207.66,178.916,204.79z"/>
						<path style="fill:#915A30;" d="M128.449,203.514c0,0,21.842,4.544,42.826-0.236c0.631,0.82,0.689,2.086,0.689,2.086
							s-4.274,5.356-22.392,5.342c-9.705,0.213-19.182-3.565-21.467-5.297C127.985,204.244,128.449,203.514,128.449,203.514z"/>
					</g>
					<g>
						<path style="fill:#915A30;" d="M178.916,204.79c-0.049-0.071-0.11-0.139-0.17-0.202c-1.387-3.075-5.027-6.443-11.122-7.709
							c-5.85-1.187-12.038-0.82-17.679,1.086c-0.006,0-0.009-0.003-0.013-0.003v7.502c6.581,0.014,14.026-0.517,21.37-2.186
							c0.634,0.82,0.691,2.086,0.691,2.086s-4.231,5.281-22.061,5.339v6.464c0.033,0,0.062,4.437,0.095,4.437
							C168.902,221.626,181.193,207.66,178.916,204.79z"/>
						<path style="fill:#915A30;" d="M171.964,205.364c0,0-0.058-1.266-0.689-2.086c-7.334,1.669-14.768,2.199-21.343,2.186v5.24
							C167.739,210.645,171.964,205.364,171.964,205.364z"/>
					</g>
				</g>
				<path style="fill:#D65037;" d="M129.983,205.092c0,0,4.688,11.108,20.083,12.25c8.726,0.043,17.858-6.909,19.775-12.25
					C150.956,205.547,129.983,205.092,129.983,205.092z"/>
				<path style="fill:#FFFFFF;" d="M128.863,200.745c0,0,23.004,5.953,42.271,0c0.749,3.427-1.836,5.411-1.836,5.411
					s-16.339,6.132-38.976-0.493C129.073,203.832,128.863,200.745,128.863,200.745z"/>
			</g>
		</g>
	</g>
</g>
<g id="Layer_1">
</g>
</svg>
