<?xml version="1.0" encoding="iso-8859-1"?>
<!-- Generator: Adobe Illustrator 19.2.0, SVG Export Plug-In . SVG Version: 6.00 Build 0)  -->
<svg version="1.1" xmlns="http://www.w3.org/2000/svg" xmlns:xlink="http://www.w3.org/1999/xlink" x="0px" y="0px"
	 viewBox="0 0 1500 785" style="enable-background:new 0 0 1500 785;" xml:space="preserve">
<g id="Neighborhood">
	<g>
		<linearGradient id="SVGID_1_" gradientUnits="userSpaceOnUse" x1="768.3756" y1="197.8283" x2="768.3756" y2="-602.8839">
			<stop  offset="0" style="stop-color:#FFFFFF"/>
			<stop  offset="1" style="stop-color:#A1CEEE"/>
		</linearGradient>
		<rect x="-9.308" y="-592.297" style="fill:url(#SVGID_1_);" width="1555.367" height="1555.367"/>
		<linearGradient id="SVGID_2_" gradientUnits="userSpaceOnUse" x1="1196.6663" y1="-532.1944" x2="1117.4197" y2="172.2179">
			<stop  offset="0" style="stop-color:#FFFFFF"/>
			<stop  offset="0.746" style="stop-color:#A1CEEE"/>
		</linearGradient>
		<path style="fill:url(#SVGID_2_);" d="M983.254-299.862c7.293-25.446,30.712-44.072,58.51-44.072c3.152,0,6.242,0.229,9.267,0.7
			c10.254-19.153,30.452-32.18,53.702-32.18c7.735,0,15.115,1.449,21.918,4.082c7.994-24.307,30.849-41.869,57.827-41.869
			c13.62,0,26.182,4.46,36.311,12.019c10.868-10.067,25.385-16.212,41.355-16.212c33.482,0,60.656,27.047,60.862,60.48
			c20.542,5.542,35.686,24.257,35.686,46.558c0,3.607-0.431,7.112-1.175,10.495H983.254z"/>
		<linearGradient id="SVGID_3_" gradientUnits="userSpaceOnUse" x1="351.2426" y1="-533.3918" x2="233.7601" y2="510.895">
			<stop  offset="0" style="stop-color:#FFFFFF"/>
			<stop  offset="0.746" style="stop-color:#A1CEEE"/>
		</linearGradient>
		<path style="fill:url(#SVGID_3_);" d="M34.86-188.959c10.812-37.723,45.53-65.337,86.741-65.337c4.672,0,9.254,0.34,13.738,1.037
			c15.202-28.394,45.145-47.707,79.613-47.707c11.467,0,22.408,2.147,32.494,6.052c11.851-36.034,45.734-62.072,85.729-62.072
			c20.192,0,38.813,6.613,53.83,17.818c16.113-14.924,37.634-24.034,61.308-24.034c49.637,0,89.923,40.096,90.229,89.661
			c30.453,8.218,52.905,35.962,52.905,69.023c0,5.346-0.639,10.542-1.741,15.558H34.86z"/>
		<linearGradient id="SVGID_4_" gradientUnits="userSpaceOnUse" x1="633.051" y1="-457.5202" x2="515.5685" y2="586.7666">
			<stop  offset="0" style="stop-color:#FFFFFF"/>
			<stop  offset="0.746" style="stop-color:#A1CEEE"/>
		</linearGradient>
		<path style="fill:url(#SVGID_4_);" d="M316.668-113.087c10.812-37.723,45.53-65.337,86.741-65.337
			c4.672,0,9.254,0.34,13.738,1.037c15.202-28.394,45.145-47.707,79.613-47.707c11.467,0,22.408,2.147,32.494,6.052
			c11.851-36.034,45.734-62.072,85.729-62.072c20.192,0,38.813,6.613,53.83,17.818c16.113-14.924,37.634-24.034,61.308-24.034
			c49.639,0,89.924,40.096,90.229,89.661c30.455,8.218,52.905,35.962,52.905,69.023c0,5.347-0.64,10.542-1.741,15.558H316.668z"/>
		<linearGradient id="SVGID_5_" gradientUnits="userSpaceOnUse" x1="1214.7506" y1="-340.8945" x2="1116.7144" y2="530.5369">
			<stop  offset="0" style="stop-color:#FFFFFF"/>
			<stop  offset="0.746" style="stop-color:#A1CEEE"/>
		</linearGradient>
		<path style="fill:url(#SVGID_5_);" d="M950.738-53.474c9.024-31.479,37.994-54.522,72.381-54.522
			c3.901,0,7.724,0.285,11.466,0.865c12.686-23.694,37.671-39.809,66.435-39.809c9.569,0,18.698,1.792,27.116,5.05
			c9.889-30.07,38.161-51.798,71.537-51.798c16.851,0,32.389,5.519,44.919,14.869c13.445-12.454,31.405-20.056,51.162-20.056
			c41.421,0,75.038,33.459,75.292,74.82c25.414,6.858,44.149,30.009,44.149,57.597c0,4.463-0.535,8.799-1.453,12.984H950.738z"/>
		<linearGradient id="SVGID_6_" gradientUnits="userSpaceOnUse" x1="777.1628" y1="679.2045" x2="752.7762" y2="-239.3369">
			<stop  offset="0" style="stop-color:#FFFFFF"/>
			<stop  offset="1" style="stop-color:#A1CEEE"/>
		</linearGradient>
		<polygon style="fill:url(#SVGID_6_);" points="1512.399,128.728 1512.399,18.725 1512.399,-21.995 1512.399,-44.887 
			1472.212,-44.887 1472.212,-77.498 1340.495,-77.498 1340.495,-44.887 1334.787,-44.887 1334.787,-70.253 1334.612,-70.253 
			1328.772,-153.767 1213.639,-153.767 1207.797,-70.253 1207.624,-70.253 1207.624,128.728 1171.771,128.728 1171.771,126.121 
			1171.771,122.887 1171.771,111.403 1171.771,108.174 1171.771,103.686 1171.771,100.458 1171.771,88.968 1171.771,85.74 
			1171.771,81.257 1171.771,78.029 1171.771,66.544 1171.771,63.311 1171.771,58.828 1171.771,55.6 1171.771,44.11 1171.771,40.882 
			1171.771,36.393 1171.771,33.165 1171.771,21.681 1171.771,18.447 1171.771,13.965 1171.771,10.736 1171.771,-0.748 
			1171.771,-3.982 1171.771,-8.465 1171.771,-11.693 1171.771,-23.177 1171.771,-26.411 1171.771,-30.894 1171.771,-34.127 
			1171.771,-45.612 1171.771,-48.84 1171.771,-53.323 1171.771,-56.556 1171.771,-68.041 1171.771,-71.269 1171.771,-86.696 
			1171.771,-107.945 1171.771,-113.222 1171.771,-128.136 1171.771,-149.38 1121.359,-149.38 1118.451,-149.38 1035.556,-149.38 
			1035.556,-89.724 1035.556,-63.743 1035.556,-54.545 1035.556,-50.714 1035.556,-39.832 1035.556,-35.996 1035.556,-32.116 
			1035.556,-28.285 1035.556,-17.398 1035.556,-13.561 1035.556,-9.687 1035.556,-5.856 1035.556,5.031 1035.556,8.863 
			1035.556,12.742 1035.556,16.579 1035.556,27.46 1035.556,31.292 1035.556,35.171 1035.556,39.008 1035.556,49.889 
			1035.556,53.721 1035.556,57.606 1035.556,61.437 1035.556,72.318 1035.556,76.155 1035.556,80.035 1035.556,83.866 
			1035.556,94.747 1035.556,98.584 1035.556,102.464 1035.556,106.295 1035.556,117.176 1035.556,121.014 1035.556,124.893 
			1035.556,128.728 971.809,128.728 971.809,-168.236 971.809,-208.956 971.809,-231.848 939.399,-231.848 939.399,-264.46 
			833.176,-264.46 833.176,-231.848 802.57,-231.848 802.57,-208.956 802.57,-168.236 802.57,128.728 779.024,128.728 
			779.024,-134.037 778.849,-134.037 773.012,-217.551 657.875,-217.551 652.034,-134.037 651.861,-134.037 651.861,128.728 
			626.372,128.728 626.372,-200.75 626.372,-241.469 626.372,-264.362 586.186,-264.362 586.186,-296.973 454.469,-296.973 
			454.469,-264.362 416.517,-264.362 416.517,-241.469 416.517,-200.75 416.517,128.728 387.794,128.728 387.794,-167.797 
			387.621,-167.797 381.779,-251.311 266.645,-251.311 260.805,-167.797 260.631,-167.797 260.631,128.728 224.78,128.728 
			224.78,125.84 224.78,122.612 224.78,118.129 224.78,114.901 224.78,103.411 224.78,100.183 224.78,95.7 224.78,92.466 
			224.78,80.982 224.78,77.754 224.78,73.43 224.78,70.201 224.78,58.717 224.78,55.488 224.78,51.006 224.78,47.772 224.78,36.288 
			224.78,33.054 224.78,28.577 224.78,25.343 224.78,13.859 224.78,10.63 224.78,6.142 224.78,2.914 224.78,-8.576 224.78,-11.804 
			224.78,-16.287 224.78,-19.515 224.78,-31 224.78,-34.233 224.78,-38.716 224.78,-41.944 224.78,-53.434 224.78,-56.662 
			224.78,-61.15 224.78,-64.379 224.78,-75.863 224.78,-79.097 224.78,-83.579 224.78,-86.808 224.78,-98.292 224.78,-101.526 
			224.78,-106.008 224.78,-109.237 224.78,-120.721 224.78,-123.955 224.78,-128.437 224.78,-131.671 224.78,-143.156 
			224.78,-146.384 224.78,-150.867 224.78,-154.1 224.78,-165.585 224.78,-168.813 224.78,-184.24 224.78,-205.489 224.78,-210.766 
			224.78,-225.68 224.78,-246.923 174.366,-246.923 171.457,-246.923 88.564,-246.923 88.564,-187.268 88.564,-161.287 
			88.564,-152.089 88.564,-148.258 88.564,-137.376 88.564,-133.54 88.564,-129.66 88.564,-125.829 88.564,-114.942 
			88.564,-111.105 88.564,-107.231 88.564,-103.399 88.564,-92.513 88.564,-88.681 88.564,-84.802 88.564,-80.965 88.564,-70.084 
			88.564,-66.252 88.564,-62.373 88.564,-58.536 88.564,-47.655 88.564,-43.823 88.564,-39.938 88.564,-36.107 88.564,-25.226 
			88.564,-21.389 88.564,-17.509 88.564,-13.678 88.564,-2.797 88.564,1.041 88.564,4.92 88.564,8.752 88.564,19.633 88.564,23.47 
			88.564,27.349 88.564,31.186 88.564,42.067 88.564,45.904 88.564,49.778 88.564,53.61 88.564,64.496 88.564,68.328 88.564,72.207 
			88.564,76.044 88.564,86.925 88.564,90.762 88.564,95.298 88.564,99.129 88.564,110.016 88.564,113.847 88.564,117.727 
			88.564,121.564 88.564,128.728 -9.309,128.728 -9.309,567.678 1546.059,567.678 1546.059,128.728 		"/>
		<g>
			<g>
				<g>
					<rect x="575.868" y="18.65" style="fill:#6FACAC;" width="75.953" height="480.162"/>
				</g>
				<g>
					<rect x="856.904" y="18.65" style="fill:#6FACAC;" width="75.956" height="481.315"/>
				</g>
			</g>
			<rect x="640.43" y="54.728" style="fill:#96C4BD;" width="224.069" height="463.337"/>
			<rect x="575.868" y="-4.242" style="fill:#FFFFFF;" width="75.953" height="63.612"/>
			<rect x="856.904" y="-4.242" style="fill:#FFFFFF;" width="75.956" height="63.612"/>
			<rect x="640.43" y="-36.854" style="fill:#FFFFFF;" width="224.069" height="131.46"/>
			<g>
				<rect x="640.43" y="108.723" style="fill:#D8DCDD;" width="224.069" height="22.59"/>
				<rect x="640.43" y="143.158" style="fill:#D8DCDD;" width="224.069" height="22.59"/>
				<rect x="640.43" y="177.59" style="fill:#D8DCDD;" width="224.069" height="22.593"/>
				<rect x="640.43" y="212.023" style="fill:#D8DCDD;" width="224.069" height="22.593"/>
				<rect x="640.43" y="246.46" style="fill:#D8DCDD;" width="224.069" height="22.588"/>
				<rect x="640.43" y="280.892" style="fill:#D8DCDD;" width="224.069" height="22.593"/>
				<rect x="640.43" y="315.324" style="fill:#D8DCDD;" width="224.069" height="22.593"/>
				<rect x="640.43" y="349.757" style="fill:#D8DCDD;" width="224.069" height="22.593"/>
				<rect x="640.43" y="384.194" style="fill:#D8DCDD;" width="224.069" height="22.588"/>
				<rect x="640.43" y="418.626" style="fill:#D8DCDD;" width="224.069" height="22.593"/>
				<rect x="640.43" y="453.059" style="fill:#D8DCDD;" width="224.069" height="22.593"/>
			</g>
			<polygon style="fill:#6B9890;" points="923.395,60.041 863.834,60.041 863.834,453.059 882.162,86.614 			"/>
			<polygon style="fill:#6B9890;" points="580.763,60.041 640.324,60.041 640.324,453.059 621.996,86.614 			"/>
			<g>
				<rect x="879.939" y="76.712" style="fill:#D8DCDD;" width="34.361" height="22.588"/>
				<rect x="879.939" y="111.139" style="fill:#D8DCDD;" width="34.361" height="22.599"/>
				<rect x="879.939" y="145.574" style="fill:#D8DCDD;" width="34.361" height="22.599"/>
				<rect x="879.939" y="180.014" style="fill:#D8DCDD;" width="34.361" height="22.588"/>
				<rect x="879.939" y="214.441" style="fill:#D8DCDD;" width="34.361" height="22.593"/>
				<rect x="879.939" y="248.873" style="fill:#D8DCDD;" width="34.361" height="22.598"/>
				<rect x="879.939" y="283.316" style="fill:#D8DCDD;" width="34.361" height="22.583"/>
				<rect x="879.939" y="317.748" style="fill:#D8DCDD;" width="34.361" height="22.588"/>
				<rect x="879.939" y="352.175" style="fill:#D8DCDD;" width="34.361" height="22.599"/>
				<rect x="879.939" y="386.608" style="fill:#D8DCDD;" width="34.361" height="22.593"/>
				<rect x="879.939" y="421.05" style="fill:#D8DCDD;" width="34.361" height="22.583"/>
			</g>
			<g>
				<rect x="587.072" y="76.712" style="fill:#D8DCDD;" width="34.358" height="22.588"/>
				<rect x="587.072" y="111.139" style="fill:#D8DCDD;" width="34.358" height="22.599"/>
				<rect x="587.072" y="145.574" style="fill:#D8DCDD;" width="34.358" height="22.599"/>
				<rect x="587.072" y="180.014" style="fill:#D8DCDD;" width="34.358" height="22.588"/>
				<rect x="587.072" y="214.441" style="fill:#D8DCDD;" width="34.358" height="22.593"/>
				<rect x="587.072" y="248.873" style="fill:#D8DCDD;" width="34.358" height="22.598"/>
				<rect x="587.072" y="283.316" style="fill:#D8DCDD;" width="34.358" height="22.583"/>
				<rect x="587.072" y="317.748" style="fill:#D8DCDD;" width="34.358" height="22.588"/>
				<rect x="587.072" y="352.175" style="fill:#D8DCDD;" width="34.358" height="22.599"/>
				<rect x="587.072" y="386.608" style="fill:#D8DCDD;" width="34.358" height="22.593"/>
				<rect x="587.072" y="421.05" style="fill:#D8DCDD;" width="34.358" height="22.583"/>
			</g>
		</g>
		<g>
			<g>
				<g>
					<rect x="1234.512" y="143.534" style="fill:#6FACAC;" width="61.254" height="480.162"/>
				</g>
				<g>
					<rect x="1461.156" y="143.534" style="fill:#6FACAC;" width="61.254" height="481.315"/>
				</g>
			</g>
			<rect x="1286.579" y="179.612" style="fill:#96C4BD;" width="180.701" height="463.337"/>
			<rect x="1234.512" y="120.642" style="fill:#FFFFFF;" width="61.254" height="63.612"/>
			<rect x="1461.156" y="120.642" style="fill:#FFFFFF;" width="61.254" height="63.612"/>
			<rect x="1286.579" y="88.03" style="fill:#FFFFFF;" width="180.701" height="131.46"/>
			<g>
				<rect x="1286.579" y="233.607" style="fill:#D8DCDD;" width="180.701" height="22.59"/>
				<rect x="1286.579" y="268.042" style="fill:#D8DCDD;" width="180.701" height="22.59"/>
				<rect x="1286.579" y="302.474" style="fill:#D8DCDD;" width="180.701" height="22.593"/>
				<rect x="1286.579" y="336.907" style="fill:#D8DCDD;" width="180.701" height="22.593"/>
				<rect x="1286.579" y="371.344" style="fill:#D8DCDD;" width="180.701" height="22.588"/>
				<rect x="1286.579" y="405.777" style="fill:#D8DCDD;" width="180.701" height="22.593"/>
				<rect x="1286.579" y="440.209" style="fill:#D8DCDD;" width="180.701" height="22.593"/>
				<rect x="1286.579" y="474.641" style="fill:#D8DCDD;" width="180.701" height="22.593"/>
				<rect x="1286.579" y="509.078" style="fill:#D8DCDD;" width="180.701" height="22.588"/>
				<rect x="1286.579" y="543.511" style="fill:#D8DCDD;" width="180.701" height="22.593"/>
				<rect x="1286.579" y="577.943" style="fill:#D8DCDD;" width="180.701" height="22.593"/>
			</g>
			<polygon style="fill:#6B9890;" points="1514.776,184.926 1466.745,184.926 1466.745,577.943 1481.524,211.498 			"/>
			<polygon style="fill:#6B9890;" points="1238.46,184.926 1286.494,184.926 1286.494,577.943 1271.713,211.498 			"/>
			<g>
				<rect x="1479.732" y="201.596" style="fill:#D8DCDD;" width="27.711" height="22.588"/>
				<rect x="1479.732" y="236.023" style="fill:#D8DCDD;" width="27.711" height="22.598"/>
				<rect x="1479.732" y="270.458" style="fill:#D8DCDD;" width="27.711" height="22.599"/>
				<rect x="1479.732" y="304.899" style="fill:#D8DCDD;" width="27.711" height="22.588"/>
				<rect x="1479.732" y="339.325" style="fill:#D8DCDD;" width="27.711" height="22.593"/>
				<rect x="1479.732" y="373.758" style="fill:#D8DCDD;" width="27.711" height="22.598"/>
				<rect x="1479.732" y="408.2" style="fill:#D8DCDD;" width="27.711" height="22.583"/>
				<rect x="1479.732" y="442.632" style="fill:#D8DCDD;" width="27.711" height="22.588"/>
				<rect x="1479.732" y="477.059" style="fill:#D8DCDD;" width="27.711" height="22.599"/>
				<rect x="1479.732" y="511.492" style="fill:#D8DCDD;" width="27.711" height="22.593"/>
				<rect x="1479.732" y="545.935" style="fill:#D8DCDD;" width="27.711" height="22.583"/>
			</g>
			<g>
				<rect x="1243.549" y="201.596" style="fill:#D8DCDD;" width="27.708" height="22.588"/>
				<rect x="1243.549" y="236.023" style="fill:#D8DCDD;" width="27.708" height="22.598"/>
				<rect x="1243.549" y="270.458" style="fill:#D8DCDD;" width="27.708" height="22.599"/>
				<rect x="1243.549" y="304.899" style="fill:#D8DCDD;" width="27.708" height="22.588"/>
				<rect x="1243.549" y="339.325" style="fill:#D8DCDD;" width="27.708" height="22.593"/>
				<rect x="1243.549" y="373.758" style="fill:#D8DCDD;" width="27.708" height="22.598"/>
				<rect x="1243.549" y="408.2" style="fill:#D8DCDD;" width="27.708" height="22.583"/>
				<rect x="1243.549" y="442.632" style="fill:#D8DCDD;" width="27.708" height="22.588"/>
				<rect x="1243.549" y="477.059" style="fill:#D8DCDD;" width="27.708" height="22.599"/>
				<rect x="1243.549" y="511.492" style="fill:#D8DCDD;" width="27.708" height="22.593"/>
				<rect x="1243.549" y="545.935" style="fill:#D8DCDD;" width="27.708" height="22.583"/>
			</g>
		</g>
		<g>
			<g>
				<g>
					<rect x="199.631" y="98.124" style="fill:#A6916A;" width="90.709" height="473.51"/>
				</g>
			</g>
			<rect x="192.799" y="572.185" style="fill:#92805D;" width="100.479" height="12.882"/>
			<polygon style="fill:#B29B71;" points="199.631,61.966 199.631,83.21 199.631,103.401 199.631,124.649 290.34,124.649 
				290.34,103.401 290.34,83.21 290.34,61.966 			"/>
			<g>
				<g>
					<rect x="204.781" y="143.305" style="fill:#92805D;" width="85.559" height="14.718"/>
					<rect x="204.781" y="165.734" style="fill:#92805D;" width="85.559" height="14.718"/>
					<rect x="204.781" y="188.17" style="fill:#92805D;" width="85.559" height="14.713"/>
					<rect x="204.781" y="210.599" style="fill:#92805D;" width="85.559" height="14.713"/>
					<rect x="204.781" y="233.028" style="fill:#92805D;" width="85.559" height="14.713"/>
					<rect x="204.781" y="255.457" style="fill:#92805D;" width="85.559" height="14.718"/>
					<rect x="204.781" y="277.892" style="fill:#92805D;" width="85.559" height="14.713"/>
					<rect x="204.781" y="300.315" style="fill:#92805D;" width="85.559" height="14.718"/>
					<rect x="204.781" y="322.75" style="fill:#92805D;" width="85.559" height="14.718"/>
					<rect x="204.781" y="345.179" style="fill:#92805D;" width="85.559" height="14.718"/>
					<rect x="204.781" y="367.608" style="fill:#92805D;" width="85.559" height="14.713"/>
				</g>
				<g>
					<g>
						<rect x="204.781" y="389.873" style="fill:#92805D;" width="85.559" height="14.718"/>
						<rect x="204.781" y="412.302" style="fill:#92805D;" width="85.559" height="14.718"/>
						<rect x="204.781" y="434.731" style="fill:#92805D;" width="85.559" height="14.718"/>
						<rect x="204.781" y="457.165" style="fill:#92805D;" width="85.559" height="14.713"/>
						<rect x="204.781" y="479.589" style="fill:#92805D;" width="85.559" height="14.718"/>
						<rect x="204.781" y="502.024" style="fill:#92805D;" width="85.559" height="14.718"/>
						<rect x="204.781" y="524.453" style="fill:#92805D;" width="85.559" height="14.713"/>
						<rect x="204.781" y="546.882" style="fill:#92805D;" width="85.559" height="14.718"/>
					</g>
				</g>
			</g>
			<g>
				<g>
					<rect x="204.781" y="140.077" style="fill:#B3DBD4;" width="85.559" height="14.713"/>
					<rect x="204.781" y="162.506" style="fill:#B3DBD4;" width="85.559" height="14.713"/>
					<rect x="204.781" y="184.935" style="fill:#B3DBD4;" width="85.559" height="14.719"/>
					<rect x="204.781" y="207.365" style="fill:#B3DBD4;" width="85.559" height="14.718"/>
					<rect x="204.781" y="229.794" style="fill:#B3DBD4;" width="85.559" height="14.718"/>
					<rect x="204.781" y="252.229" style="fill:#B3DBD4;" width="85.559" height="14.718"/>
					<rect x="204.781" y="274.658" style="fill:#B3DBD4;" width="85.559" height="14.718"/>
					<rect x="204.781" y="297.087" style="fill:#B3DBD4;" width="85.559" height="14.718"/>
					<rect x="204.781" y="319.521" style="fill:#B3DBD4;" width="85.559" height="14.713"/>
					<rect x="204.781" y="341.945" style="fill:#B3DBD4;" width="85.559" height="14.718"/>
					<rect x="204.781" y="364.379" style="fill:#B3DBD4;" width="85.559" height="14.713"/>
				</g>
				<g>
					<g>
						<rect x="204.781" y="386.644" style="fill:#B3DBD4;" width="85.559" height="14.713"/>
						<rect x="204.781" y="409.074" style="fill:#B3DBD4;" width="85.559" height="14.718"/>
						<rect x="204.781" y="431.503" style="fill:#B3DBD4;" width="85.559" height="14.713"/>
						<rect x="204.781" y="453.932" style="fill:#B3DBD4;" width="85.559" height="14.713"/>
						<rect x="204.781" y="476.361" style="fill:#B3DBD4;" width="85.559" height="14.718"/>
						<rect x="204.781" y="498.79" style="fill:#B3DBD4;" width="85.559" height="14.718"/>
						<rect x="204.781" y="521.225" style="fill:#B3DBD4;" width="85.559" height="14.713"/>
						<rect x="204.781" y="543.654" style="fill:#B3DBD4;" width="85.559" height="14.718"/>
					</g>
				</g>
			</g>
			<rect x="58.619" y="121.622" style="fill:#D3BC91;" width="145.961" height="476.643"/>
			<rect x="58.619" y="61.966" style="fill:#B29B71;" width="145.961" height="85.636"/>
			<g>
				<g>
					<rect x="58.619" y="160.632" style="fill:#B29B71;" width="145.961" height="14.718"/>
					<rect x="58.619" y="183.061" style="fill:#B29B71;" width="145.961" height="14.725"/>
					<rect x="58.619" y="205.492" style="fill:#B29B71;" width="145.961" height="14.718"/>
					<rect x="58.619" y="227.926" style="fill:#B29B71;" width="145.961" height="14.713"/>
					<rect x="58.619" y="250.355" style="fill:#B29B71;" width="145.961" height="14.713"/>
					<rect x="58.619" y="272.784" style="fill:#B29B71;" width="145.961" height="14.718"/>
					<rect x="58.619" y="295.214" style="fill:#B29B71;" width="145.961" height="14.718"/>
					<rect x="58.619" y="317.643" style="fill:#B29B71;" width="145.961" height="14.718"/>
					<rect x="58.619" y="340.077" style="fill:#B29B71;" width="145.961" height="14.718"/>
					<rect x="58.619" y="362.501" style="fill:#B29B71;" width="145.961" height="14.718"/>
					<rect x="58.619" y="384.935" style="fill:#B29B71;" width="145.961" height="14.718"/>
				</g>
				<g>
					<rect x="58.619" y="408.02" style="fill:#B29B71;" width="145.961" height="14.718"/>
					<rect x="58.619" y="430.455" style="fill:#B29B71;" width="145.961" height="14.718"/>
					<rect x="58.619" y="452.884" style="fill:#B29B71;" width="145.961" height="14.718"/>
					<rect x="58.619" y="475.313" style="fill:#B29B71;" width="145.961" height="14.718"/>
					<rect x="58.619" y="497.747" style="fill:#B29B71;" width="145.961" height="14.713"/>
					<rect x="58.619" y="520.176" style="fill:#B29B71;" width="145.961" height="14.713"/>
					<rect x="58.619" y="542.606" style="fill:#B29B71;" width="145.961" height="14.718"/>
					<rect x="58.619" y="565.035" style="fill:#B29B71;" width="145.961" height="14.713"/>
				</g>
			</g>
			<g>
				<g>
					<rect x="58.619" y="156.801" style="fill:#F5E8D5;" width="145.961" height="14.713"/>
					<rect x="58.619" y="179.23" style="fill:#F5E8D5;" width="145.961" height="14.72"/>
					<rect x="58.619" y="201.66" style="fill:#F5E8D5;" width="145.961" height="14.718"/>
					<rect x="58.619" y="224.089" style="fill:#F5E8D5;" width="145.961" height="14.718"/>
					<rect x="58.619" y="246.518" style="fill:#F5E8D5;" width="145.961" height="14.718"/>
					<rect x="58.619" y="268.952" style="fill:#F5E8D5;" width="145.961" height="14.713"/>
					<rect x="58.619" y="291.382" style="fill:#F5E8D5;" width="145.961" height="14.713"/>
					<rect x="58.619" y="313.811" style="fill:#F5E8D5;" width="145.961" height="14.713"/>
					<rect x="58.619" y="336.24" style="fill:#F5E8D5;" width="145.961" height="14.718"/>
					<rect x="58.619" y="358.669" style="fill:#F5E8D5;" width="145.961" height="14.718"/>
					<rect x="58.619" y="381.098" style="fill:#F5E8D5;" width="145.961" height="14.718"/>
				</g>
				<g>
					<rect x="58.619" y="404.189" style="fill:#F5E8D5;" width="145.961" height="14.718"/>
					<rect x="58.619" y="426.618" style="fill:#F5E8D5;" width="145.961" height="14.718"/>
					<rect x="58.619" y="449.047" style="fill:#F5E8D5;" width="145.961" height="14.718"/>
					<rect x="58.619" y="471.481" style="fill:#F5E8D5;" width="145.961" height="14.718"/>
					<rect x="58.619" y="493.911" style="fill:#F5E8D5;" width="145.961" height="14.713"/>
					<rect x="58.619" y="516.339" style="fill:#F5E8D5;" width="145.961" height="14.718"/>
					<rect x="58.619" y="538.769" style="fill:#F5E8D5;" width="145.961" height="14.718"/>
					<rect x="58.619" y="561.203" style="fill:#F5E8D5;" width="145.961" height="14.713"/>
				</g>
			</g>
			<g>
				<rect x="78.645" y="148.523" style="fill:#D3BC91;" width="7.251" height="433.696"/>
				<rect x="112.466" y="148.523" style="fill:#D3BC91;" width="7.248" height="433.696"/>
				<rect x="146.287" y="148.523" style="fill:#D3BC91;" width="7.245" height="433.696"/>
				<rect x="180.105" y="148.523" style="fill:#D3BC91;" width="7.25" height="433.696"/>
			</g>
			<g>
				<rect x="225.117" y="127.925" style="fill:#A6916A;" width="7.248" height="433.696"/>
				<rect x="258.935" y="127.925" style="fill:#A6916A;" width="7.248" height="433.696"/>
			</g>
			<polygon style="fill:#92805D;" points="204.485,512.36 204.485,124.533 290.046,124.533 212.831,133.63 			"/>
			<rect x="52.384" y="592.174" style="fill:#B29B71;" width="155.874" height="12.882"/>
		</g>
		<g>
			<polygon style="fill:#879D5B;" points="307.517,516.792 557.357,516.792 550.117,499.322 315.791,499.322 			"/>
			<g>
				<g>
					<g>
						<rect x="326.942" y="92.322" style="fill:#96C4BD;" width="216.321" height="416.727"/>
						<polygon style="fill:#6B9890;" points="543.263,94.804 326.942,94.804 337.172,8.808 533.033,8.808 						"/>
					</g>
					<g>
						<rect x="347.487" y="121.541" style="fill:#6B9890;" width="24.303" height="55.961"/>
						<rect x="384.227" y="121.541" style="fill:#6B9890;" width="24.303" height="55.961"/>
						<rect x="420.967" y="121.541" style="fill:#6B9890;" width="24.303" height="55.961"/>
						<rect x="457.706" y="121.541" style="fill:#6B9890;" width="24.303" height="55.961"/>
						<rect x="494.446" y="121.541" style="fill:#6B9890;" width="24.303" height="55.961"/>
					</g>
					<g>
						<rect x="347.487" y="192.989" style="fill:#6B9890;" width="24.303" height="55.956"/>
						<rect x="384.227" y="192.989" style="fill:#6B9890;" width="24.303" height="55.956"/>
						<rect x="420.967" y="192.989" style="fill:#6B9890;" width="24.303" height="55.956"/>
						<rect x="457.706" y="192.989" style="fill:#6B9890;" width="24.303" height="55.956"/>
						<rect x="494.446" y="192.989" style="fill:#6B9890;" width="24.303" height="55.956"/>
					</g>
					<g>
						<rect x="347.487" y="264.43" style="fill:#6B9890;" width="24.303" height="55.956"/>
						<rect x="384.227" y="264.43" style="fill:#6B9890;" width="24.303" height="55.956"/>
						<rect x="420.967" y="264.43" style="fill:#6B9890;" width="24.303" height="55.956"/>
						<rect x="457.706" y="264.43" style="fill:#6B9890;" width="24.303" height="55.956"/>
						<rect x="494.446" y="264.43" style="fill:#6B9890;" width="24.303" height="55.956"/>
					</g>
					<g>
						<rect x="347.487" y="335.867" style="fill:#6B9890;" width="24.303" height="55.961"/>
						<rect x="384.227" y="335.867" style="fill:#6B9890;" width="24.303" height="55.961"/>
						<rect x="420.967" y="335.867" style="fill:#6B9890;" width="24.303" height="55.961"/>
						<rect x="457.706" y="335.867" style="fill:#6B9890;" width="24.303" height="55.961"/>
						<rect x="494.446" y="335.867" style="fill:#6B9890;" width="24.303" height="55.961"/>
					</g>
					<g>
						<rect x="347.487" y="407.314" style="fill:#6B9890;" width="24.303" height="55.956"/>
						<rect x="420.967" y="407.314" style="fill:#6B9890;" width="24.303" height="55.956"/>
						<rect x="494.446" y="407.314" style="fill:#6B9890;" width="24.303" height="55.956"/>
					</g>
				</g>
				<g>
					<rect x="381.279" y="399.524" style="fill:#6B9890;" width="105.943" height="109.526"/>
					<rect x="390.514" y="406.287" style="fill:#F5E8D5;" width="86.652" height="102.762"/>
					<polygon style="fill:#E7D3B2;" points="477.167,508.504 469.913,411.072 395.357,406.287 477.167,406.287 					"/>
				</g>
			</g>
		</g>
		<g>
			<polygon style="fill:#879D5B;" points="956.792,550.552 1206.632,550.552 1199.392,533.082 965.067,533.082 			"/>
			<g>
				<g>
					<g>
						<rect x="976.218" y="126.082" style="fill:#96C4BD;" width="216.321" height="416.727"/>
						<polygon style="fill:#6B9890;" points="1192.539,128.564 976.218,128.564 986.448,42.568 1182.308,42.568 						"/>
					</g>
					<g>
						<rect x="996.763" y="155.302" style="fill:#6B9890;" width="24.302" height="55.961"/>
						<rect x="1033.503" y="155.302" style="fill:#6B9890;" width="24.302" height="55.961"/>
						<rect x="1070.242" y="155.302" style="fill:#6B9890;" width="24.303" height="55.961"/>
						<rect x="1106.982" y="155.302" style="fill:#6B9890;" width="24.303" height="55.961"/>
						<rect x="1143.722" y="155.302" style="fill:#6B9890;" width="24.303" height="55.961"/>
					</g>
					<g>
						<rect x="996.763" y="226.748" style="fill:#6B9890;" width="24.302" height="55.956"/>
						<rect x="1033.503" y="226.748" style="fill:#6B9890;" width="24.302" height="55.956"/>
						<rect x="1070.242" y="226.748" style="fill:#6B9890;" width="24.303" height="55.956"/>
						<rect x="1106.982" y="226.748" style="fill:#6B9890;" width="24.303" height="55.956"/>
						<rect x="1143.722" y="226.748" style="fill:#6B9890;" width="24.303" height="55.956"/>
					</g>
					<g>
						<rect x="996.763" y="298.19" style="fill:#6B9890;" width="24.302" height="55.956"/>
						<rect x="1033.503" y="298.19" style="fill:#6B9890;" width="24.302" height="55.956"/>
						<rect x="1070.242" y="298.19" style="fill:#6B9890;" width="24.303" height="55.956"/>
						<rect x="1106.982" y="298.19" style="fill:#6B9890;" width="24.303" height="55.956"/>
						<rect x="1143.722" y="298.19" style="fill:#6B9890;" width="24.303" height="55.956"/>
					</g>
					<g>
						<rect x="996.763" y="369.627" style="fill:#6B9890;" width="24.302" height="55.961"/>
						<rect x="1033.503" y="369.627" style="fill:#6B9890;" width="24.302" height="55.961"/>
						<rect x="1070.242" y="369.627" style="fill:#6B9890;" width="24.303" height="55.961"/>
						<rect x="1106.982" y="369.627" style="fill:#6B9890;" width="24.303" height="55.961"/>
						<rect x="1143.722" y="369.627" style="fill:#6B9890;" width="24.303" height="55.961"/>
					</g>
					<g>
						<rect x="996.763" y="441.074" style="fill:#6B9890;" width="24.302" height="55.956"/>
						<rect x="1070.242" y="441.074" style="fill:#6B9890;" width="24.303" height="55.956"/>
						<rect x="1143.722" y="441.074" style="fill:#6B9890;" width="24.303" height="55.956"/>
					</g>
				</g>
				<g>
					<rect x="1030.555" y="433.284" style="fill:#6B9890;" width="105.943" height="109.526"/>
					<rect x="1039.79" y="440.047" style="fill:#F5E8D5;" width="86.652" height="102.762"/>
					<polygon style="fill:#E7D3B2;" points="1126.442,542.264 1119.189,444.832 1044.633,440.047 1126.442,440.047 					"/>
				</g>
			</g>
		</g>
		<path style="fill:#FFFFFF;" d="M1546.059,544.236l-80.434-42.32c-2.046-1.133-4.342-1.72-6.65-1.72
			c-2.141,0-4.292,0.505-6.266,1.543l-67.52,35.541v-3.072v-5.668v-9.974v-16.137c0-3.593-1.426-7.039-3.966-9.579l-86.988-86.988
			c-0.077-0.079-0.156-0.156-0.235-0.23c-2.63-2.509-6.028-3.763-9.418-3.763c-3.469,0-6.93,1.313-9.558,3.943l-3.546,3.543
			c-2.186-1.429-4.755-2.204-7.407-2.204h-44.39v-42.612c0-3.593-1.426-7.039-3.969-9.582l-91.174-91.164
			c-2.461-2.461-5.801-3.916-9.293-3.998c-0.109-0.003-0.217-0.003-0.323-0.003c-3.588,0-7.057,1.397-9.6,3.937l-5.787,5.787
			c-1.89-0.963-3.996-1.479-6.155-1.479h-50.301c-7.484,0-13.548,6.065-13.548,13.548v57.933l-5.094,5.094l-80.828-80.82
			c-2.461-2.463-5.801-3.916-9.294-3.998c-0.109-0.003-0.217-0.003-0.323-0.003c-3.588,0-7.06,1.397-9.6,3.94l-5.785,5.782
			c-1.85-0.945-3.943-1.477-6.16-1.477h-50.294c-7.483,0-13.548,6.065-13.548,13.548v48.872l-164.965-68.251
			c-1.659-0.685-3.419-1.029-5.18-1.029s-3.522,0.344-5.18,1.029l-195.479,80.883c-5.066,2.096-8.369,7.036-8.369,12.519v12.289
			c0,0.264,0.008,0.526,0.022,0.786H279.419c-6.402,0-11.93,4.48-13.255,10.744l-0.065,0.307l-12.237,48.497
			c-1.046,1.921-1.642,4.126-1.642,6.47v18.531c0,6.287,4.284,11.577,10.093,13.104v19.079l-23.026-21.85
			c-2.516-3.411-6.54-5.507-10.905-5.507h-12.971h-94.236H54.862H44.335c-3.471,0-6.927,1.331-9.444,3.721l-44.198,41.942V648.93
			h1555.367V544.236z"/>
		<linearGradient id="SVGID_7_" gradientUnits="userSpaceOnUse" x1="768.3756" y1="1173.2692" x2="768.3756" y2="860.0774">
			<stop  offset="0" style="stop-color:#FFFFFF"/>
			<stop  offset="1" style="stop-color:#A6A8AB"/>
		</linearGradient>
		<rect x="-9.308" y="645.876" style="fill:url(#SVGID_7_);" width="1555.367" height="317.193"/>
		<rect x="-9.308" y="662.134" style="fill:#D0D2D3;" width="1555.367" height="211.521"/>
		<rect x="-9.308" y="645.876" style="fill:#7DC25D;" width="1555.367" height="211.521"/>
		<g>
			<g>
				<polygon style="fill:#E58A30;" points="280.785,670.739 52.751,670.739 52.751,523.389 105.008,484.651 280.785,532.37 				"/>
				<polygon style="fill:#E58A30;" points="107.367,670.739 -0.95,670.739 -0.95,523.389 51.065,477.395 107.367,523.389 				"/>
				<polygon style="fill:#E8A330;" points="107.367,670.739 -0.95,670.739 -0.95,544.686 51.065,505.345 107.367,544.686 				"/>
				<polygon style="fill:#C47127;" points="108.687,536.183 280.785,536.183 280.785,548.089 108.525,543.569 				"/>
				<polygon style="fill:#9D3B23;" points="44.217,475.289 -9.306,526.08 -9.306,536.183 54.862,475.289 				"/>
				<polygon style="fill:#C24B31;" points="228.581,475.766 228.382,475.289 215.412,475.289 121.176,475.289 44.335,475.289 
					108.006,535.71 108.2,536.183 121.176,536.183 215.412,536.183 292.249,536.183 				"/>
				<g>
					<rect x="130.375" y="632.417" style="fill:#C47127;" width="61.106" height="14.517"/>
					<g>
						<rect x="138.987" y="561.005" style="fill:#F5E8D5;" width="44.219" height="72.622"/>
						<rect x="146.114" y="568.52" style="fill:#96C4BD;" width="29.971" height="61.884"/>
						<polygon style="fill:#6B9890;" points="176.084,630.403 170.341,574.011 146.114,568.52 176.084,568.52 						"/>
						<rect x="130.431" y="629.975" style="fill:#F5E8D5;" width="61.331" height="8.873"/>
					</g>
				</g>
				<g>
					<rect x="21.675" y="632.417" style="fill:#C47127;" width="61.11" height="14.517"/>
					<g>
						<rect x="30.289" y="561.005" style="fill:#F5E8D5;" width="44.222" height="72.622"/>
						<rect x="37.415" y="568.52" style="fill:#96C4BD;" width="29.972" height="61.884"/>
						<polygon style="fill:#6B9890;" points="67.387,630.403 61.645,574.011 37.415,568.52 67.387,568.52 						"/>
						<rect x="21.735" y="629.975" style="fill:#F5E8D5;" width="61.329" height="8.873"/>
					</g>
				</g>
				<g>
					<rect x="206.264" y="632.417" style="fill:#C47127;" width="61.108" height="14.517"/>
					<g>
						<rect x="214.876" y="561.005" style="fill:#F5E8D5;" width="44.22" height="72.622"/>
						<rect x="222.002" y="568.52" style="fill:#96C4BD;" width="29.973" height="61.884"/>
						<polygon style="fill:#6B9890;" points="251.976,630.403 246.228,574.011 222.002,568.52 251.976,568.52 						"/>
						<rect x="206.322" y="629.975" style="fill:#F5E8D5;" width="61.331" height="8.873"/>
					</g>
				</g>
			</g>
			<g>
				<polygon style="fill:#EB5B3C;" points="1024.384,659.469 848.105,659.469 848.105,392.728 935.517,326.341 1024.384,392.728 
									"/>
				<polygon style="fill:#C24B31;" points="1199.191,659.469 1022.907,659.469 1022.907,392.728 1114.468,322.533 1199.191,392.728 
									"/>
				<g>
					<g>
						<g>
							<rect x="863.159" y="426.025" style="fill:#C24B31;" width="25.639" height="62.588"/>
						</g>
						<g>
							<rect x="901.267" y="426.025" style="fill:#C24B31;" width="25.642" height="62.588"/>
						</g>
						<g>
							<rect x="939.375" y="426.025" style="fill:#C24B31;" width="25.639" height="62.588"/>
						</g>
						<g>
							<rect x="977.483" y="426.025" style="fill:#C24B31;" width="25.642" height="62.588"/>
						</g>
					</g>
					<g>
						<g>
							<rect x="863.159" y="501.127" style="fill:#C24B31;" width="25.639" height="62.585"/>
						</g>
						<g>
							<rect x="901.267" y="501.127" style="fill:#C24B31;" width="25.642" height="62.585"/>
						</g>
						<g>
							<rect x="939.375" y="501.127" style="fill:#C24B31;" width="25.639" height="62.585"/>
						</g>
						<g>
							<rect x="977.483" y="501.127" style="fill:#C24B31;" width="25.642" height="62.585"/>
						</g>
					</g>
					<g>
						<g>
							<rect x="863.159" y="577.371" style="fill:#C24B31;" width="25.639" height="62.582"/>
						</g>
						<g>
							<rect x="901.267" y="577.371" style="fill:#C24B31;" width="25.642" height="62.582"/>
						</g>
						<g>
							<rect x="939.375" y="577.371" style="fill:#C24B31;" width="25.639" height="62.582"/>
						</g>
						<g>
							<rect x="977.483" y="577.371" style="fill:#C24B31;" width="25.642" height="62.582"/>
						</g>
					</g>
				</g>
				<g>
					<g>
						<rect x="1042.955" y="426.025" style="fill:#9D3B23;" width="25.639" height="62.588"/>
					</g>
					<g>
						<rect x="1081.062" y="426.025" style="fill:#9D3B23;" width="25.642" height="62.588"/>
					</g>
					<g>
						<rect x="1119.168" y="426.025" style="fill:#9D3B23;" width="25.642" height="62.588"/>
					</g>
					<g>
						<rect x="1157.278" y="426.025" style="fill:#9D3B23;" width="25.642" height="62.588"/>
					</g>
				</g>
				<g>
					<g>
						<rect x="1042.955" y="497.353" style="fill:#9D3B23;" width="25.639" height="36.232"/>
					</g>
					<g>
						<rect x="1081.062" y="497.353" style="fill:#9D3B23;" width="25.642" height="36.232"/>
					</g>
					<g>
						<rect x="1119.168" y="497.353" style="fill:#9D3B23;" width="25.642" height="36.232"/>
					</g>
					<g>
						<rect x="1157.278" y="497.353" style="fill:#9D3B23;" width="25.642" height="36.232"/>
					</g>
				</g>
				<g>
					<g>
						<g>
							<rect x="863.159" y="418.206" style="fill:#F5E8D5;" width="25.639" height="62.59"/>
						</g>
						<g>
							<rect x="901.267" y="418.206" style="fill:#F5E8D5;" width="25.642" height="62.59"/>
						</g>
						<g>
							<rect x="939.375" y="418.206" style="fill:#F5E8D5;" width="25.639" height="62.59"/>
						</g>
						<g>
							<rect x="977.483" y="418.206" style="fill:#F5E8D5;" width="25.642" height="62.59"/>
						</g>
					</g>
					<g>
						<g>
							<rect x="863.159" y="493.312" style="fill:#F5E8D5;" width="25.639" height="62.585"/>
						</g>
						<g>
							<rect x="901.267" y="493.312" style="fill:#F5E8D5;" width="25.642" height="62.585"/>
						</g>
						<g>
							<rect x="939.375" y="493.312" style="fill:#F5E8D5;" width="25.639" height="62.585"/>
						</g>
						<g>
							<rect x="977.483" y="493.312" style="fill:#F5E8D5;" width="25.642" height="62.585"/>
						</g>
					</g>
					<g>
						<g>
							<rect x="863.159" y="569.554" style="fill:#F5E8D5;" width="25.639" height="62.582"/>
						</g>
						<g>
							<rect x="901.267" y="569.554" style="fill:#F5E8D5;" width="25.642" height="62.582"/>
						</g>
						<g>
							<rect x="939.375" y="569.554" style="fill:#F5E8D5;" width="25.639" height="62.582"/>
						</g>
						<g>
							<rect x="977.483" y="569.554" style="fill:#F5E8D5;" width="25.642" height="62.582"/>
						</g>
					</g>
				</g>
				<g>
					<g>
						<rect x="1042.955" y="418.206" style="fill:#F5E8D5;" width="25.639" height="62.59"/>
					</g>
					<g>
						<rect x="1081.062" y="418.206" style="fill:#F5E8D5;" width="25.642" height="62.59"/>
					</g>
					<g>
						<rect x="1119.168" y="418.206" style="fill:#F5E8D5;" width="25.642" height="62.59"/>
					</g>
					<g>
						<rect x="1157.278" y="418.206" style="fill:#F5E8D5;" width="25.642" height="62.59"/>
					</g>
				</g>
				<g>
					<g>
						<rect x="1042.955" y="493.312" style="fill:#F5E8D5;" width="25.639" height="32.347"/>
					</g>
					<g>
						<rect x="1081.062" y="493.312" style="fill:#F5E8D5;" width="25.642" height="32.347"/>
					</g>
					<g>
						<rect x="1119.168" y="493.312" style="fill:#F5E8D5;" width="25.642" height="32.347"/>
					</g>
					<g>
						<rect x="1157.278" y="493.312" style="fill:#F5E8D5;" width="25.642" height="32.347"/>
					</g>
				</g>
				<polygon style="fill:#9D3B23;" points="1111.099,296.978 1111.049,296.923 1072.076,337.261 1053.455,362.757 1041.661,368.746 
					1023.646,387.391 936.297,296.978 936.245,296.923 897.272,337.261 866.856,351.723 866.856,368.746 848.105,388.15 
					848.105,432.257 936.245,341.024 936.297,341.077 1022.907,430.725 1022.907,432.257 1023.648,431.489 1024.384,432.252 
					1024.384,430.727 1111.049,341.024 1111.099,341.077 1199.191,432.252 1199.191,388.15 				"/>
				<polygon style="fill:#C24B31;" points="848.105,398.859 848.105,432.257 936.245,341.024 936.297,341.077 1022.907,430.725 
					1022.907,432.257 1023.648,431.489 1024.384,432.252 1024.384,430.727 1024.384,398.859 934.249,316.187 				"/>
				<g>
					<polygon style="fill:#E8A330;" points="934.022,321.149 934.022,277.05 933.969,276.992 842.739,368.219 842.739,412.329 
						933.969,321.096 					"/>
					<polygon style="fill:#E58A30;" points="934.022,277.05 934.022,321.149 1025.199,412.323 1025.199,368.219 					"/>
				</g>
				<g>
					<polygon style="fill:#E58A30;" points="912.445,285.267 862.151,285.267 862.151,362.741 912.418,312.464 912.442,312.496 
											"/>
					<rect x="867.264" y="289.432" style="fill:#C47127;" width="40.995" height="14.705"/>
				</g>
				<g>
					<polygon style="fill:#E8A330;" points="1114.952,321.149 1114.952,277.05 1114.899,276.992 1023.669,368.219 1023.669,412.329 
						1114.899,321.096 					"/>
					<polygon style="fill:#E58A30;" points="1114.952,277.05 1114.952,321.149 1206.132,412.323 1206.132,368.219 					"/>
				</g>
				<g>
					<polygon style="fill:#E58A30;" points="1093.378,285.267 1043.077,285.267 1043.077,362.741 1093.349,312.464 
						1093.375,312.496 					"/>
					<rect x="1048.197" y="289.432" style="fill:#C47127;" width="40.992" height="14.705"/>
				</g>
				<rect x="884.437" y="650.808" style="fill:#9D3B23;" width="314.754" height="19.931"/>
				<rect x="848.105" y="650.808" style="fill:#9D3B23;" width="314.754" height="19.931"/>
				<g>
					<rect x="1082.216" y="543.966" style="fill:#9D3B23;" width="80.457" height="126.774"/>
					<rect x="1075.265" y="543.966" style="fill:#F5E8D5;" width="80.457" height="126.774"/>
					<rect x="1082.282" y="551.799" style="fill:#7EB2A9;" width="65.803" height="118.941"/>
					<polygon style="fill:#6B9890;" points="1148.085,670.11 1142.579,557.337 1085.958,551.799 1148.085,551.799 					"/>
				</g>
			</g>
			<g>
				<g>
					<polygon style="fill:#EB5B3C;" points="482.979,371.58 869.836,371.58 869.836,357.587 678.458,278.407 482.979,359.291 					
						"/>
					<rect x="508.755" y="540.497" style="fill:#E8A330;" width="339.186" height="130.243"/>
					<rect x="508.755" y="416.819" style="fill:#E8A330;" width="339.186" height="130.24"/>
					<polygon style="fill:#DB942B;" points="847.941,447.057 830.76,436.893 508.755,416.819 847.941,416.819 					"/>
					<polygon style="fill:#DB942B;" points="847.941,574.445 830.76,564.283 508.755,544.207 847.941,544.207 					"/>
					<path style="fill:#E58A30;" d="M563.101,573.606c-16.618,0-30.094,13.448-30.131,30.058h-0.008v67.076h60.271v-67.076h-0.002
						C593.188,587.054,579.718,573.606,563.101,573.606z"/>
					<path style="fill:#CF772A;" d="M593.231,603.664c-0.043-16.61-13.513-30.058-30.13-30.058c-2.146,0-4.234,0.23-6.253,0.659
						c13.616,2.871,23.84,14.93,23.878,29.399h0.005v67.076h12.502v-67.076H593.231z"/>
					<path style="fill:#E58A30;" d="M639.932,573.606c-16.615,0-30.09,13.448-30.131,30.058h-0.005v67.076h60.272v-67.076h-0.004
						C670.019,587.054,656.549,573.606,639.932,573.606z"/>
					<path style="fill:#E58A30;" d="M716.766,573.606c-16.618,0-30.093,13.448-30.135,30.058h-0.005v67.076H746.9v-67.076h-0.004
						C746.854,587.054,733.38,573.606,716.766,573.606z"/>
					<path style="fill:#E58A30;" d="M823.729,603.664c-0.042-16.61-13.517-30.058-30.129-30.058
						c-16.618,0-30.095,13.448-30.135,30.058h-0.003v67.076h60.272v-67.076H823.729z"/>
					<rect x="504.537" y="542.817" style="fill:#E58A30;" width="347.622" height="11.548"/>
					<polygon style="fill:#E8A330;" points="847.724,362.969 678.344,292.89 508.97,362.969 508.755,362.969 508.755,426.192 
						847.941,426.192 847.941,362.969 					"/>
					<polygon style="fill:#E58A30;" points="847.724,362.969 678.344,292.89 508.97,362.969 508.755,362.969 677.58,313.419 
						847.941,386.097 847.941,362.969 					"/>
					<circle style="fill:#E58A30;" cx="678.349" cy="371.555" r="33.679"/>
					<circle style="fill:#9BD9E5;" cx="678.349" cy="365.487" r="33.678"/>
					<circle style="fill:#7EB2A9;" cx="678.349" cy="365.488" r="24.973"/>
					<path style="fill:#6B9890;" d="M678.35,340.513c-8.104,0-15.281,3.874-19.844,9.854c4.197-3.204,9.426-5.128,15.118-5.128
						c13.788,0,24.971,11.18,24.971,24.975c0,5.689-1.925,10.921-5.132,15.12c5.98-4.564,9.86-11.744,9.86-19.846
						C703.322,351.696,692.142,340.513,678.35,340.513z"/>
					<rect x="504.537" y="416.734" style="fill:#E58A30;" width="347.622" height="11.545"/>
					<g>
						<g>
							<rect x="529.93" y="516.755" style="fill:#E58A30;" width="66.366" height="6.687"/>
							<rect x="533.098" y="447.417" style="fill:#F5E8D5;" width="60.03" height="70.542"/>
							<rect x="537.268" y="449.865" style="fill:#96C4BD;" width="51.692" height="65.647"/>
							<g>
								<polygon style="fill:#B3DBD4;" points="539.717,497.946 572.252,450.045 586.351,450.045 								"/>
								<polygon style="fill:#B3DBD4;" points="539.358,510.497 583.096,458.954 567.334,487.067 								"/>
							</g>
							<rect x="559.611" y="449.865" style="fill:#F5E8D5;" width="7.002" height="65.647"/>
							<rect x="535.6" y="460.886" style="fill:#F5E8D5;" width="55.029" height="3.599"/>
							<rect x="529.93" y="446.488" style="fill:#F5E8D5;" width="66.366" height="4.742"/>
							<rect x="529.93" y="514.146" style="fill:#F5E8D5;" width="66.366" height="4.747"/>
						</g>
						<g>
							<rect x="606.695" y="516.755" style="fill:#E58A30;" width="66.362" height="6.687"/>
							<rect x="609.862" y="447.417" style="fill:#F5E8D5;" width="60.029" height="70.542"/>
							<rect x="614.031" y="449.865" style="fill:#96C4BD;" width="51.695" height="65.647"/>
							<g>
								<polygon style="fill:#B3DBD4;" points="616.482,497.946 649.015,450.045 663.117,450.045 								"/>
								<polygon style="fill:#B3DBD4;" points="616.122,510.497 659.859,458.954 644.097,487.067 								"/>
							</g>
							<rect x="636.377" y="449.865" style="fill:#F5E8D5;" width="6.999" height="65.647"/>
							<rect x="612.363" y="460.886" style="fill:#F5E8D5;" width="55.029" height="3.599"/>
							<rect x="606.695" y="446.488" style="fill:#F5E8D5;" width="66.362" height="4.742"/>
							<rect x="606.695" y="514.146" style="fill:#F5E8D5;" width="66.362" height="4.747"/>
						</g>
						<g>
							<rect x="683.457" y="516.755" style="fill:#E58A30;" width="66.364" height="6.687"/>
							<rect x="686.624" y="447.417" style="fill:#F5E8D5;" width="60.033" height="70.542"/>
							<rect x="690.792" y="449.865" style="fill:#96C4BD;" width="51.695" height="65.647"/>
							<g>
								<polygon style="fill:#B3DBD4;" points="693.244,497.946 725.776,450.045 739.879,450.045 								"/>
								<polygon style="fill:#B3DBD4;" points="692.884,510.497 736.625,458.954 720.863,487.067 								"/>
							</g>
							<rect x="713.14" y="449.865" style="fill:#F5E8D5;" width="7.001" height="65.647"/>
							<rect x="689.128" y="460.886" style="fill:#F5E8D5;" width="55.029" height="3.599"/>
							<rect x="683.457" y="446.488" style="fill:#F5E8D5;" width="66.364" height="4.742"/>
							<rect x="683.457" y="514.146" style="fill:#F5E8D5;" width="66.364" height="4.747"/>
						</g>
						<g>
							<rect x="760.221" y="516.755" style="fill:#E58A30;" width="66.365" height="6.687"/>
							<rect x="763.389" y="447.417" style="fill:#F5E8D5;" width="60.03" height="70.542"/>
							<rect x="767.558" y="449.865" style="fill:#96C4BD;" width="51.693" height="65.647"/>
							<g>
								<polygon style="fill:#B3DBD4;" points="770.006,497.946 802.538,450.045 816.642,450.045 								"/>
								<polygon style="fill:#B3DBD4;" points="769.648,510.497 813.387,458.954 797.624,487.067 								"/>
							</g>
							<rect x="789.9" y="449.865" style="fill:#F5E8D5;" width="7.002" height="65.647"/>
							<rect x="765.894" y="460.886" style="fill:#F5E8D5;" width="55.025" height="3.599"/>
							<rect x="760.221" y="446.488" style="fill:#F5E8D5;" width="66.365" height="4.742"/>
							<rect x="760.221" y="514.146" style="fill:#F5E8D5;" width="66.365" height="4.747"/>
						</g>
					</g>
					<path style="fill:#CF772A;" d="M670.065,603.664c-0.044-16.61-13.515-30.058-30.132-30.058c-2.143,0-4.233,0.23-6.25,0.659
						c13.613,2.871,23.839,14.93,23.878,29.399h0.005v67.076h12.503v-67.076H670.065z"/>
					<path style="fill:#CF772A;" d="M746.896,603.664c-0.042-16.61-13.516-30.058-30.131-30.058c-2.146,0-4.234,0.23-6.253,0.659
						c13.613,2.871,23.841,14.93,23.878,29.399h0.004v67.076H746.9v-67.076H746.896z"/>
					<path style="fill:#CF772A;" d="M823.729,603.664c-0.042-16.61-13.511-30.058-30.129-30.058c-2.143,0-4.234,0.23-6.253,0.659
						c13.617,2.871,23.839,14.93,23.877,29.399h0.005v67.076h12.506v-67.076H823.729z"/>
				</g>
			</g>
			<g>
				<g>
					<rect x="275.861" y="430.778" style="fill:#5B7E59;" width="233.51" height="239.962"/>
					<polygon style="fill:#4C6D4C;" points="509.372,478.007 482.665,471.897 275.861,444.522 509.372,444.522 					"/>
					<polygon style="fill:#96C4BD;" points="507.035,386.478 506.915,385.914 279.419,385.914 279.3,386.478 265.769,440.105 
						520.567,440.105 					"/>
					<rect x="265.769" y="438.383" style="fill:#6B9890;" width="254.798" height="18.531"/>
					<g>
						<g>
							<rect x="299.655" y="619.374" style="fill:#92805D;" width="98.129" height="10.849"/>
							<rect x="290.508" y="653.005" style="fill:#92805D;" width="116.424" height="10.852"/>
							<rect x="286.021" y="670.364" style="fill:#92805D;" width="125.399" height="10.855"/>
							<rect x="281.359" y="687.725" style="fill:#92805D;" width="134.723" height="10.849"/>
							<rect x="294.997" y="635.169" style="fill:#92805D;" width="107.447" height="10.849"/>
							<polygon style="fill:#D3BC91;" points="397.573,627.996 397.529,627.919 299.91,627.919 299.868,627.996 295.06,635.233 
								402.377,635.233 							"/>
							<polygon style="fill:#D3BC91;" points="393.105,612.444 304.381,612.367 304.337,612.444 299.53,619.681 397.909,619.681 
															"/>
							<polygon style="fill:#D3BC91;" points="402.4,645.897 402.357,645.82 392.703,645.82 304.737,645.82 295.084,645.82 
								295.041,645.897 290.234,653.137 299.889,653.137 397.55,653.137 407.206,653.137 							"/>
							<polygon style="fill:#D3BC91;" points="406.716,663.616 406.672,663.542 398.044,663.542 397.019,663.542 388.387,663.542 
								309.053,663.542 300.424,663.542 299.395,663.542 290.766,663.542 290.725,663.616 285.919,670.858 294.548,670.858 
								295.573,670.858 304.205,670.858 393.236,670.858 401.866,670.858 402.893,670.858 411.521,670.858 							"/>
							<polygon style="fill:#D3BC91;" points="411.374,681.337 411.332,681.263 402.703,681.263 402.009,681.263 401.676,681.263 
								393.382,681.263 393.047,681.263 392.356,681.263 383.728,681.263 313.713,681.263 305.085,681.263 304.394,681.263 
								304.057,681.263 295.761,681.263 295.427,681.263 294.738,681.263 286.106,681.263 286.065,681.337 281.258,688.583 
								289.888,688.583 290.58,688.583 290.916,688.583 299.209,688.583 299.542,688.583 300.233,688.583 308.863,688.583 
								388.573,688.583 397.204,688.583 397.896,688.583 398.231,688.583 406.526,688.583 406.861,688.583 407.552,688.583 
								416.184,688.583 							"/>
						</g>
						<rect x="304.946" y="487.364" style="fill:#96C4BD;" width="88.429" height="125.382"/>
						<rect x="310.663" y="494.35" style="fill:#6B9890;" width="36.171" height="54.263"/>
						<rect x="351.487" y="494.35" style="fill:#6B9890;" width="36.17" height="54.263"/>
						<polygon style="fill:#6B9890;" points="368.94,554.244 351.487,554.244 310.663,554.244 310.663,608.511 351.487,608.511 
							368.94,608.511 387.657,608.511 387.657,554.244 						"/>
					</g>
					<g>
						<rect x="408.078" y="574.894" style="fill:#4C6D4C;" width="78.134" height="13.009"/>
						<rect x="411.718" y="489.761" style="fill:#F5E8D5;" width="70.778" height="89.111"/>
						<rect x="416.634" y="493.921" style="fill:#96C4BD;" width="60.947" height="80.786"/>
						<rect x="407.983" y="572.394" style="fill:#F5E8D5;" width="78.252" height="8.061"/>
						<g>
							<polygon style="fill:#CCD8D6;" points="421.447,541.206 459.28,493.159 475.675,493.159 							"/>
							<polygon style="fill:#CCD8D6;" points="421.026,553.794 471.894,502.09 453.561,530.29 							"/>
						</g>
						<rect x="407.983" y="488.181" style="fill:#F5E8D5;" width="78.252" height="8.063"/>
						<rect x="442.979" y="493.921" style="fill:#F5E8D5;" width="8.259" height="80.786"/>
						<rect x="414.67" y="512.654" style="fill:#F5E8D5;" width="64.878" height="6.115"/>
					</g>
				</g>
			</g>
			<g>
				<polygon style="fill:#B29B71;" points="1546.059,670.739 1371.979,670.739 1371.979,571.933 1460.82,523.132 1546.059,576.471 
									"/>
				<g>
					<polygon style="fill:#92805D;" points="1459.073,546.104 1459.073,528.176 1459.02,528.123 1371.979,573.939 1371.979,591.875 
						1459.02,546.051 					"/>
					<polygon style="fill:#92805D;" points="1459.073,528.176 1459.073,546.104 1546.059,591.867 1546.059,573.939 					"/>
				</g>
				<polygon style="fill:#B29B71;" points="1371.641,670.739 1197.564,670.739 1197.564,539.02 1283.774,455.04 1371.641,537.888 
									"/>
				<polygon style="fill:#92805D;" points="1284.655,435.252 1284.602,435.199 1197.564,514.053 1197.564,548.356 1284.602,461.315 
					1284.655,461.365 1371.641,548.351 1371.641,522.246 				"/>
				<g>
					<polygon style="fill:#96C4BD;" points="1284.655,445.236 1284.655,419.121 1284.602,419.071 1197.564,506.109 1197.564,532.23 
						1284.602,445.186 					"/>
					<polygon style="fill:#6B9890;" points="1284.655,419.121 1284.655,445.236 1371.641,532.219 1371.641,506.109 					"/>
				</g>
				<g>
					<polygon style="fill:#6B9890;" points="1264.07,424.379 1216.082,424.379 1216.082,498.29 1264.041,450.328 1264.065,450.359 
											"/>
					<rect x="1220.961" y="428.356" style="fill:#557E77;" width="39.108" height="8.973"/>
				</g>
				<g>
					<polygon style="fill:#96C4BD;" points="1459.073,535.387 1459.073,517.459 1459.02,517.409 1371.979,563.225 1371.979,581.158 
						1459.02,535.331 					"/>
					<polygon style="fill:#6B9890;" points="1459.073,517.459 1459.073,535.387 1546.059,581.15 1546.059,563.225 					"/>
				</g>
				<g>
					<rect x="1420.738" y="579.295" style="fill:#F5E8D5;" width="73.249" height="91.444"/>
					<rect x="1427.123" y="584.947" style="fill:#E58A30;" width="59.91" height="85.792"/>
					<polygon style="fill:#C47127;" points="1487.033,670.281 1482.018,588.938 1430.468,584.947 1487.033,584.947 					"/>
				</g>
				<g>
					<rect x="1215.841" y="630.761" style="fill:#92805D;" width="66.689" height="11.482"/>
					<rect x="1218.942" y="555.636" style="fill:#F5E8D5;" width="60.412" height="78.629"/>
					<rect x="1223.139" y="559.308" style="fill:#96C4BD;" width="52.024" height="71.28"/>
					<rect x="1215.754" y="628.551" style="fill:#F5E8D5;" width="66.798" height="7.113"/>
					<g>
						<polygon style="fill:#CCD8D6;" points="1227.249,601.028 1259.54,558.634 1273.533,558.634 						"/>
						<polygon style="fill:#CCD8D6;" points="1226.889,612.14 1270.31,566.517 1254.663,591.404 						"/>
					</g>
					<rect x="1215.754" y="554.244" style="fill:#F5E8D5;" width="66.798" height="7.113"/>
					<rect x="1245.627" y="559.308" style="fill:#F5E8D5;" width="7.052" height="71.28"/>
					<rect x="1221.464" y="575.837" style="fill:#F5E8D5;" width="55.379" height="5.398"/>
				</g>
				<g>
					<rect x="1290.9" y="630.761" style="fill:#92805D;" width="66.694" height="11.482"/>
					<rect x="1294.007" y="555.636" style="fill:#F5E8D5;" width="60.415" height="78.629"/>
					<rect x="1298.201" y="559.308" style="fill:#96C4BD;" width="52.027" height="71.28"/>
					<rect x="1290.815" y="628.551" style="fill:#F5E8D5;" width="66.795" height="7.113"/>
					<g>
						<polygon style="fill:#CCD8D6;" points="1302.313,601.028 1334.605,558.634 1348.6,558.634 						"/>
						<polygon style="fill:#CCD8D6;" points="1301.953,612.14 1345.369,566.517 1329.722,591.404 						"/>
					</g>
					<rect x="1290.815" y="554.244" style="fill:#F5E8D5;" width="66.795" height="7.113"/>
					<rect x="1320.691" y="559.308" style="fill:#F5E8D5;" width="7.05" height="71.28"/>
					<rect x="1296.526" y="575.837" style="fill:#F5E8D5;" width="55.377" height="5.398"/>
				</g>
			</g>
		</g>
		<path style="fill:#71B155;" d="M131.597,694.447c-2.612-9.114-10.998-15.785-20.952-15.785c-1.129,0-2.236,0.082-3.321,0.249
			c-3.67-6.859-10.905-11.524-19.23-11.524c-2.769,0-5.413,0.519-7.851,1.463c-2.861-8.706-11.048-14.996-20.708-14.996
			c-4.877,0-9.376,1.598-13.006,4.305c-3.889-3.604-9.088-5.806-14.807-5.806c-11.993,0-21.723,9.685-21.797,21.659
			c-7.358,1.985-12.781,8.688-12.781,16.674c0,1.294,0.153,2.548,0.422,3.76H131.597z"/>
		<path style="fill:#71B155;" d="M162.058,685.172c2.298-8.018,9.677-13.89,18.436-13.89c0.994,0,1.968,0.074,2.923,0.219
			c3.23-6.036,9.595-10.14,16.92-10.14c2.437,0,4.763,0.458,6.909,1.288c2.517-7.661,9.721-13.196,18.22-13.196
			c4.291,0,8.249,1.408,11.445,3.789c3.422-3.173,7.997-5.11,13.028-5.11c10.552,0,19.113,8.523,19.178,19.058
			c6.474,1.746,11.246,7.645,11.246,14.673c0,1.138-0.135,2.241-0.372,3.308H162.058z"/>
		<path style="fill:#5D9647;" d="M205.657,702.549c-2.545-8.891-10.729-15.401-20.438-15.401c-1.1,0-2.182,0.085-3.24,0.248
			c-3.582-6.692-10.635-11.246-18.758-11.246c-2.702,0-5.283,0.508-7.66,1.432c-2.792-8.497-10.779-14.631-20.202-14.631
			c-4.757,0-9.147,1.561-12.688,4.199c-3.791-3.517-8.865-5.666-14.443-5.666c-11.7,0-21.189,9.447-21.264,21.127
			c-7.178,1.94-12.468,8.476-12.468,16.271c0,1.257,0.15,2.485,0.412,3.665H205.657z"/>
		<path style="fill:#71B155;" d="M801.797,694.447c-2.615-9.114-10.998-15.785-20.953-15.785c-1.13,0-2.239,0.082-3.324,0.249
			c-3.668-6.859-10.902-11.524-19.229-11.524c-2.769,0-5.413,0.519-7.851,1.463c-2.86-8.706-11.048-14.996-20.708-14.996
			c-4.877,0-9.376,1.598-13.006,4.305c-3.889-3.604-9.089-5.806-14.807-5.806c-11.993,0-21.723,9.685-21.797,21.659
			c-7.358,1.985-12.781,8.688-12.781,16.674c0,1.294,0.153,2.548,0.422,3.76H801.797z"/>
		<path style="fill:#71B155;" d="M585.021,685.415c-2.615-9.114-10.998-15.785-20.953-15.785c-1.13,0-2.239,0.082-3.324,0.249
			c-3.668-6.859-10.902-11.524-19.229-11.524c-2.769,0-5.413,0.519-7.851,1.463c-2.86-8.706-11.048-14.996-20.708-14.996
			c-4.877,0-9.376,1.598-13.006,4.305c-3.889-3.604-9.089-5.806-14.807-5.806c-11.993,0-21.723,9.685-21.797,21.659
			c-7.358,1.985-12.781,8.687-12.781,16.674c0,1.294,0.153,2.548,0.422,3.76H585.021z"/>
		<path style="fill:#71B155;" d="M832.257,685.172c2.299-8.018,9.677-13.89,18.436-13.89c0.995,0,1.969,0.074,2.921,0.219
			c3.231-6.036,9.595-10.14,16.92-10.14c2.44,0,4.763,0.458,6.912,1.288c2.514-7.661,9.719-13.196,18.219-13.196
			c4.289,0,8.248,1.408,11.445,3.789c3.422-3.173,7.997-5.11,13.03-5.11c10.55,0,19.111,8.523,19.177,19.058
			c6.475,1.746,11.246,7.645,11.246,14.673c0,1.138-0.135,2.241-0.373,3.308H832.257z"/>
		<path style="fill:#5D9647;" d="M875.856,702.549c-2.545-8.891-10.73-15.401-20.437-15.401c-1.101,0-2.183,0.085-3.241,0.248
			c-3.58-6.692-10.635-11.246-18.759-11.246c-2.699,0-5.282,0.508-7.658,1.432c-2.792-8.497-10.781-14.631-20.201-14.631
			c-4.758,0-9.148,1.561-12.691,4.199c-3.789-3.517-8.865-5.666-14.443-5.666c-11.699,0-21.188,9.447-21.262,21.127
			c-7.178,1.94-12.468,8.476-12.468,16.271c0,1.257,0.15,2.485,0.412,3.665H875.856z"/>
		<path style="fill:#5D9647;" d="M1417.795,686.291c-2.546-8.891-10.73-15.401-20.437-15.401c-1.101,0-2.183,0.085-3.241,0.248
			c-3.58-6.692-10.635-11.246-18.759-11.246c-2.699,0-5.282,0.508-7.658,1.432c-2.792-8.497-10.781-14.631-20.201-14.631
			c-4.758,0-9.148,1.561-12.691,4.199c-3.789-3.517-8.865-5.666-14.443-5.666c-11.699,0-21.188,9.447-21.262,21.127
			c-7.179,1.94-12.466,8.476-12.466,16.271c0,1.257,0.148,2.485,0.41,3.665H1417.795z"/>
		<path style="fill:#71B155;" d="M1142.97,685.172c2.299-8.018,9.677-13.89,18.436-13.89c0.995,0,1.969,0.074,2.921,0.219
			c3.231-6.036,9.595-10.14,16.92-10.14c2.44,0,4.763,0.458,6.912,1.288c2.514-7.661,9.72-13.196,18.219-13.196
			c4.289,0,8.248,1.408,11.445,3.789c3.422-3.173,7.997-5.11,13.03-5.11c10.55,0,19.111,8.523,19.177,19.058
			c6.475,1.746,11.246,7.645,11.246,14.673c0,1.138-0.135,2.241-0.373,3.308H1142.97z"/>
		<path style="fill:#71B155;" d="M1354.575,694.447c-2.615-9.114-10.998-15.785-20.953-15.785c-1.13,0-2.239,0.082-3.324,0.249
			c-3.668-6.859-10.902-11.524-19.227-11.524c-2.771,0-5.414,0.519-7.854,1.463c-2.858-8.706-11.045-14.996-20.706-14.996
			c-4.877,0-9.375,1.598-13.006,4.305c-3.89-3.604-9.087-5.806-14.808-5.806c-11.993,0-21.72,9.685-21.794,21.659
			c-7.359,1.985-12.781,8.688-12.781,16.674c0,1.294,0.154,2.548,0.421,3.76H1354.575z"/>
	</g>
</g>
<g id="Layer_1">
</g>
</svg>
