<?xml version="1.0" encoding="iso-8859-1"?>
<!-- Generator: Adobe Illustrator 19.2.0, SVG Export Plug-In . SVG Version: 6.00 Build 0)  -->
<svg version="1.1" xmlns="http://www.w3.org/2000/svg" xmlns:xlink="http://www.w3.org/1999/xlink" x="0px" y="0px"
	 viewBox="0 0 1500 785" style="enable-background:new 0 0 1500 785;" xml:space="preserve">
<g id="OpenField">
	<g>
		<defs>
			<rect id="SVGID_1_" x="-0.001" width="1500.001" height="785"/>
		</defs>
		<clipPath id="SVGID_2_">
			<use xlink:href="#SVGID_1_"  style="overflow:visible;"/>
		</clipPath>
		<rect x="-9.624" style="clip-path:url(#SVGID_2_);fill:#A5F2F2;" width="1527.894" height="782"/>
		<path style="clip-path:url(#SVGID_2_);fill:#C7F9F6;" d="M542.346,111.186c-3.622-5.285-9.242-8.68-15.553-8.68
			c-2.811,0-5.483,0.678-7.904,1.893c-4.355-7.971-12.069-13.273-20.866-13.273c-1.95,0-3.845,0.27-5.663,0.761
			c-7.55-12.363-20.045-20.452-34.193-20.452c-13.609,0-25.694,7.482-33.316,19.058c-3.189-1.255-6.605-1.946-10.165-1.946
			c-13.372,0-24.782,9.619-29.286,23.157c-0.203,0.607-0.132,1.29,0.189,1.826c0.322,0.536,0.852,0.855,1.417,0.855h153.988
			c0.658,0,1.26-0.433,1.548-1.112C542.828,112.59,542.754,111.779,542.346,111.186z"/>
		<path style="clip-path:url(#SVGID_2_);fill:#C7F9F6;" d="M241.791,111.864c-3.623-5.285-9.242-8.679-15.553-8.679
			c-2.811,0-5.482,0.678-7.904,1.892c-4.355-7.971-12.068-13.273-20.866-13.273c-1.95,0-3.845,0.269-5.662,0.761
			c-7.553-12.363-20.046-20.452-34.194-20.452c-13.61,0-25.695,7.483-33.316,19.058c-3.188-1.254-6.604-1.946-10.166-1.946
			c-13.372,0-24.78,9.619-29.285,23.157c-0.202,0.607-0.131,1.291,0.189,1.826c0.321,0.535,0.852,0.855,1.418,0.855h153.986
			c0.659,0,1.261-0.432,1.549-1.112C242.273,113.27,242.198,112.459,241.791,111.864z"/>
		<path style="clip-path:url(#SVGID_2_);fill:#C7F9F6;" d="M708.555,194.865c-3.622-5.285-9.241-8.68-15.553-8.68
			c-2.811,0-5.483,0.678-7.903,1.891c-4.355-7.97-12.07-13.273-20.867-13.273c-1.949,0-3.844,0.269-5.663,0.761
			c-7.55-12.363-20.045-20.453-34.191-20.453c-13.611,0-25.696,7.484-33.317,19.059c-3.189-1.254-6.605-1.945-10.166-1.945
			c-13.372,0-24.78,9.617-29.285,23.156c-0.203,0.607-0.131,1.291,0.19,1.826c0.321,0.537,0.852,0.855,1.418,0.855h153.985
			c0.659,0,1.26-0.432,1.551-1.112C709.038,196.27,708.963,195.459,708.555,194.865z"/>
		<path style="clip-path:url(#SVGID_2_);fill:#C7F9F6;" d="M258.628,334.264c-3.623-5.285-9.242-8.679-15.553-8.679
			c-2.811,0-5.482,0.677-7.904,1.891c-4.355-7.97-12.069-13.272-20.866-13.272c-1.95,0-3.844,0.269-5.663,0.761
			c-7.55-12.363-20.045-20.453-34.194-20.453c-13.609,0-25.692,7.483-33.315,19.06c-3.189-1.255-6.605-1.947-10.166-1.947
			c-13.372,0-24.78,9.618-29.284,23.157c-0.203,0.607-0.132,1.291,0.188,1.826c0.321,0.536,0.852,0.855,1.418,0.855h153.986
			c0.659,0,1.26-0.433,1.549-1.112C259.11,335.668,259.035,334.858,258.628,334.264z"/>
		<path style="clip-path:url(#SVGID_2_);fill:#C7F9F6;" d="M1389.741,387.693c-3.622-5.285-9.241-8.68-15.553-8.68
			c-2.811,0-5.482,0.678-7.904,1.892c-4.355-7.97-12.069-13.272-20.866-13.272c-1.949,0-3.844,0.269-5.663,0.76
			c-7.55-12.363-20.045-20.452-34.192-20.452c-13.61,0-25.695,7.483-33.317,19.059c-3.189-1.255-6.605-1.946-10.165-1.946
			c-13.371,0-24.781,9.618-29.286,23.157c-0.203,0.607-0.131,1.29,0.189,1.825c0.322,0.537,0.853,0.856,1.419,0.856h153.985
			c0.659,0,1.26-0.433,1.549-1.112C1390.224,389.098,1390.148,388.288,1389.741,387.693z"/>
		<path style="clip-path:url(#SVGID_2_);fill:#C7F9F6;" d="M1517.901,133.341c-3.621-5.285-9.241-8.68-15.553-8.68
			c-2.811,0-5.482,0.677-7.903,1.892c-4.355-7.971-12.068-13.273-20.867-13.273c-1.949,0-3.844,0.27-5.663,0.761
			c-7.55-12.363-20.045-20.452-34.192-20.452c-13.61,0-25.695,7.482-33.316,19.059c-3.189-1.255-6.605-1.947-10.166-1.947
			c-13.372,0-24.78,9.619-29.285,23.158c-0.203,0.607-0.131,1.29,0.188,1.825c0.323,0.536,0.854,0.856,1.419,0.856h153.985
			c0.66,0,1.261-0.433,1.55-1.113C1518.385,134.745,1518.31,133.936,1517.901,133.341z"/>
		<path style="clip-path:url(#SVGID_2_);fill:#C7F9F6;" d="M887.289,102.75c-1.815-2.65-4.632-4.352-7.796-4.352
			c-1.408,0-2.749,0.34-3.963,0.949c-2.184-3.996-6.05-6.654-10.46-6.654c-0.978,0-1.928,0.135-2.839,0.381
			c-3.785-6.197-10.05-10.252-17.142-10.252c-6.822,0-12.88,3.751-16.701,9.553c-1.599-0.629-3.312-0.975-5.096-0.975
			c-6.704,0-12.423,4.821-14.682,11.608c-0.102,0.305-0.066,0.648,0.095,0.915c0.161,0.27,0.428,0.43,0.712,0.43h77.192
			c0.331,0,0.632-0.217,0.776-0.559C887.531,103.453,887.493,103.048,887.289,102.75z"/>
		<path style="clip-path:url(#SVGID_2_);fill:#C7F9F6;" d="M1190.682,214.998c-5.289-7.717-13.496-12.676-22.713-12.676
			c-4.104,0-8.007,0.99-11.543,2.764c-6.359-11.641-17.626-19.384-30.474-19.384c-2.848,0-5.613,0.392-8.269,1.11
			c-11.028-18.055-29.275-29.869-49.936-29.869c-19.877,0-37.526,10.93-48.656,27.833c-4.657-1.832-9.648-2.842-14.847-2.842
			c-19.527,0-36.189,14.046-42.768,33.817c-0.296,0.888-0.191,1.886,0.277,2.668c0.47,0.782,1.244,1.248,2.07,1.248h224.881
			c0.962,0,1.84-0.631,2.261-1.625C1191.387,217.051,1191.277,215.867,1190.682,214.998z"/>
		<rect x="-9.624" y="618.047" style="clip-path:url(#SVGID_2_);fill:#00CB96;" width="1509.624" height="166.953"/>
		<g style="clip-path:url(#SVGID_2_);">
			<circle style="fill:#FFAC27;" cx="1280.437" cy="100.579" r="27.038"/>
			<path style="fill:#FFAC27;" d="M1283.034,65.617c0,1.435-1.163,2.599-2.598,2.599l0,0c-1.435,0-2.598-1.163-2.598-2.599v-15.01
				c0-1.435,1.163-2.598,2.598-2.598l0,0c1.435,0,2.598,1.162,2.598,2.598V65.617z"/>
			<path style="fill:#FFAC27;" d="M1283.034,150.55c0,1.435-1.163,2.598-2.598,2.598l0,0c-1.435,0-2.598-1.163-2.598-2.598v-15.009
				c0-1.436,1.163-2.599,2.598-2.599l0,0c1.435,0,2.598,1.163,2.598,2.599V150.55z"/>
			<path style="fill:#FFAC27;" d="M1245.476,97.981c1.434,0,2.598,1.162,2.598,2.598l0,0c0,1.435-1.164,2.598-2.598,2.598h-15.011
				c-1.435,0-2.599-1.163-2.599-2.598l0,0c0-1.436,1.164-2.598,2.599-2.598H1245.476z"/>
			<path style="fill:#FFAC27;" d="M1330.408,97.981c1.436,0,2.599,1.162,2.599,2.598l0,0c0,1.435-1.163,2.598-2.599,2.598h-15.011
				c-1.435,0-2.598-1.163-2.598-2.598l0,0c0-1.436,1.163-2.598,2.598-2.598H1330.408z"/>
			<path style="fill:#FFAC27;" d="M1257.552,74.021c1.016,1.015,1.016,2.659,0,3.675l0,0c-1.014,1.014-2.659,1.014-3.674,0
				l-10.614-10.614c-1.015-1.015-1.015-2.66,0-3.675l0,0c1.015-1.015,2.66-1.015,3.675,0L1257.552,74.021z"/>
			<path style="fill:#FFAC27;" d="M1317.609,134.078c1.014,1.014,1.014,2.658,0,3.674l0,0c-1.016,1.015-2.66,1.015-3.675,0
				l-10.614-10.615c-1.014-1.014-1.014-2.659,0-3.673l0,0c1.016-1.015,2.66-1.015,3.675,0L1317.609,134.078z"/>
			<path style="fill:#FFAC27;" d="M1253.878,123.464c1.015-1.015,2.66-1.015,3.674,0l0,0c1.015,1.015,1.016,2.659,0,3.673
				l-10.613,10.615c-1.015,1.015-2.66,1.015-3.675,0l0,0c-1.014-1.016-1.015-2.66,0-3.674L1253.878,123.464z"/>
			<path style="fill:#FFAC27;" d="M1313.935,63.406c1.015-1.015,2.659-1.015,3.675,0l0,0c1.014,1.015,1.014,2.66,0,3.675
				l-10.614,10.614c-1.015,1.014-2.659,1.014-3.675,0l0,0c-1.014-1.016-1.014-2.66,0-3.675L1313.935,63.406z"/>
		</g>
	</g>
</g>
<g id="Layer_1">
</g>
</svg>
