<?xml version="1.0" encoding="iso-8859-1"?>
<!-- Generator: Adobe Illustrator 19.2.0, SVG Export Plug-In . SVG Version: 6.00 Build 0)  -->
<svg version="1.1" xmlns="http://www.w3.org/2000/svg" xmlns:xlink="http://www.w3.org/1999/xlink" x="0px" y="0px"
	 viewBox="0 0 410.35 705.875" style="enable-background:new 0 0 410.35 705.875;" xml:space="preserve">
<g id="CameraPerson">
	<g>
		<rect x="67.377" y="54.62" style="fill:#9FA6AA;" width="173.952" height="114.87"/>
		<rect x="46.947" y="104.546" style="fill:#595E60;" width="222.268" height="171.249"/>
		<rect x="106.543" y="54.62" style="fill:#879093;" width="38.963" height="114.87"/>
		<path style="fill:#996133;" d="M18.343,202.947c6.495-2.603,8.835-0.525,7.021,6.233l-12.727,14.34l0.812,9.412
			c1.465,6.444,5.296,16.544,12.367,19.058c8.822-0.872,10.128-7.522,11.31-14.351l0.421-10.397c0.243-6.065,9.621-5.684,9.381,0.38
			l-0.335,8.262l1.301,14.237l0,0c5.505,14.135,13.447,27.031,22.978,38.767c2.754,3.073,4.75,5.416,4.75,5.416l-15.708,14.983
			l-2.441,2.329c-13.791-14.011-50.156-37.944-55.542-56.653l-0.001-0.002c-0.003-0.006-0.003-0.017-0.006-0.027
			c-2.059-7.319-3.623-27.9,1.65-35.047c0.188-0.389,0.408-0.761,0.702-1.089L18.343,202.947z"/>
		<g>
			<g>
				<path style="fill:#8C643E;" d="M296.441,659.869C323.432,637.045,339.731,692.519,296.441,659.869L296.441,659.869z"/>
			</g>
			<g>
				<path style="fill:#D6CCC0;" d="M293.978,676.063c0,0-4.458,3.051-2.935,11.143c0.795,3.307,32.645,13.016,35.657,13.979
					c19.417,6.211,38.792,7.162,57.381-2.763c18.789-9.825-38.587-16.728-39.511-16.828
					C327.704,679.771,310.84,677.92,293.978,676.063z"/>
			</g>
			<g>
				<path style="fill:#996133;" d="M331.212,667.614c0,2.142-2.005,3.87-4.482,3.87h-21.758c-2.475,0-4.485-1.728-4.485-3.87V637.81
					c0-2.136,2.01-3.872,4.485-3.872h21.758c2.477,0,4.482,1.736,4.482,3.872V667.614z"/>
			</g>
			<g>
				<path style="fill:#C95230;" d="M296.441,659.869c0,0-3.871,14.2-3.753,17.486c25.441,7.748,65.094,31.54,90.104,10.625
					c2.346-2.349-2.818-16.095-28.98-22.435c-5.047-1.989-12.667-10.015-15.6-14.241
					C338.906,651.501,295.02,674.963,296.441,659.869z"/>
			</g>
			<g>
				<path style="fill:#D6CCC0;" d="M343.79,670.696c-0.022-0.038-1.438-2.556-0.892-5.739c-4.254,1.068-6.602,3.434-4.883-3.652
					c-1.195,0.118-6.717,1.475-7.446,0.248c-2.463-4.125,11.494-8.287,12.368-5.995c-0.21,1.562-1.024,2.846-2.443,3.852
					c7.815-0.688,7.361-0.717,4.921,3.393c2.784-1.444,4.759-1.176,5.926,0.804c-0.138,1.1-7.519,1.121-6.689,0.983
					c-0.078,0.28,0.947,6.518-0.15,6.518C344.22,671.11,343.941,670.96,343.79,670.696
					C343.769,670.658,343.941,670.96,343.79,670.696z M344.76,660.861c-1.331-0.027-2.957,0.077-4.977,0.27
					c-0.317,1.031-0.464,2.119-0.439,3.278c1.387-0.589,2.773-0.995,4.073-1.268C343.723,662.39,344.16,661.624,344.76,660.861
					C343.429,660.833,344.16,661.624,344.76,660.861z M340.229,656.795c-1.902,0.256-4.857,1.029-7.101,3.341
					c1.815-0.177,3.63-0.358,5.445-0.542C338.98,658.624,339.534,657.694,340.229,656.795
					C338.328,657.052,339.534,657.694,340.229,656.795z"/>
			</g>
		</g>
		<g>
			<g>
				<g>
					<path style="fill:#8C643E;" d="M222.678,659.869C195.684,637.049,179.387,692.514,222.678,659.869L222.678,659.869z"/>
				</g>
				<g>
					<path style="fill:#E1D5C9;" d="M225.14,676.063c0,0,4.458,3.051,2.935,11.143c-0.796,3.307-32.645,13.016-35.658,13.979
						c-19.417,6.211-38.791,7.162-57.381-2.763c-18.79-9.825,38.587-16.728,39.511-16.828
						C191.414,679.771,208.278,677.92,225.14,676.063z"/>
				</g>
				<g>
					<path style="fill:#A06937;" d="M187.905,667.614c0,2.142,2.005,3.87,4.482,3.87h21.758c2.476,0,4.485-1.728,4.485-3.87V637.81
						c0-2.136-2.009-3.872-4.485-3.872h-21.758c-2.477,0-4.482,1.736-4.482,3.872V667.614z"/>
				</g>
				<g>
					<path style="fill:#D45F36;" d="M222.678,659.869c0,0,3.871,14.2,3.751,17.486c-25.442,7.749-65.094,31.539-90.105,10.625
						c-2.345-2.349,2.818-16.095,28.982-22.435c5.048-1.989,12.666-10.015,15.598-14.241
						C180.205,651.502,224.104,674.959,222.678,659.869z"/>
				</g>
			</g>
			<g>
				<path style="fill:#E1D5C9;" d="M174.871,671.11c-1.095,0-0.07-6.238-0.147-6.518c0.847,0.14-6.56,0.114-6.69-0.983
					c1.167-1.979,3.142-2.247,5.923-0.804c-2.445-4.111-2.885-4.081,4.922-3.393c-1.423-1.005-2.237-2.289-2.443-3.852
					c0.875-2.294,14.803,1.86,12.369,5.995c-0.736,1.227-6.245-0.128-7.442-0.248c1.686,7.075-0.6,4.731-4.885,3.652
					C176.414,664.576,176.83,671.11,174.871,671.11z M175.956,663.141c1.304,0.273,2.687,0.679,4.077,1.268
					c0.022-1.159-0.121-2.247-0.436-3.278c-2.027-0.193-3.652-0.298-4.982-0.27C175.215,661.624,175.652,662.39,175.956,663.141
					C177.26,663.414,175.652,662.39,175.956,663.141z M180.801,659.594c1.816,0.184,3.633,0.365,5.45,0.542
					c-2.246-2.312-5.205-3.084-7.105-3.341C179.845,657.694,180.395,658.624,180.801,659.594
					C181.265,659.64,180.395,658.624,180.801,659.594z"/>
			</g>
		</g>
		<g>
			<polygon style="fill:#996133;" points="279.748,239.009 259.556,239.009 257.36,252.626 259.556,266.471 279.748,266.471 			"/>
			<rect x="239.331" y="239.009" style="fill:#A06937;" width="20.225" height="27.462"/>
		</g>
		<g>
			<g>
				<g>
					<path style="fill:#8C643E;" d="M222.532,649.351h-40.246v-186.51l67.729,6.574c-21.512,21.877-19.675,59.856-22.008,88.386
						C225.517,588.267,223.813,618.812,222.532,649.351z"/>
				</g>
				<g>
					<path style="fill:#7F5634;" d="M296.586,649.351h40.243v-186.51l-67.731,6.574c21.519,21.87,19.679,59.859,22.012,88.386
						C293.601,588.267,295.305,618.812,296.586,649.351z"/>
				</g>
				<g>
					<g>
						<path style="fill:#8C643E;" d="M182.286,403.343v63.876c0,0,57.946,4.393,77.273,4.393l2.197-27.853l-2.197-40.416H182.286z"
							/>
					</g>
					<g>
						<path style="fill:#7F5634;" d="M259.559,403.343v68.269c19.324,0,77.27-4.393,77.27-4.393v-63.876H259.559z"/>
					</g>
				</g>
			</g>
			<g>
				<path style="fill:#7F5634;" d="M228.947,647.154c0,1.215-0.956,2.197-2.137,2.197h-49.83c-1.18,0-2.136-0.982-2.136-2.197
					v-16.478c0-1.213,0.956-2.197,2.136-2.197h49.83c1.181,0,2.137,0.983,2.137,2.197V647.154z"/>
			</g>
			<g>
				<path style="fill:#724B2D;" d="M343.306,647.154c0,1.215-0.956,2.197-2.134,2.197h-49.834c-1.178,0-2.137-0.982-2.137-2.197
					v-16.478c0-1.213,0.959-2.197,2.137-2.197h49.834c1.178,0,2.134,0.983,2.134,2.197V647.154z"/>
			</g>
		</g>
		<g>
			<path style="fill:#996133;" d="M386.505,483.437l-2.174,7.027c-3.466,3.96-6.122,3.745-7.969-0.644c0,0-0.004,0-0.009,0.007
				c-1.66-1.534-2.552,0.463-2.552,0.463c-3.977,4.273-6.628,3.661-7.955-1.837c0,0-0.004,0-0.009,0
				c-0.994-1.777-2.068-0.056-2.068-0.056s-0.009-0.004-0.018-0.009c-3.753,3.643-6.352,3.034-7.798-1.827h-0.008
				c-0.61-2.291-2.523-1.046-2.523-1.046l-0.004-0.005c-3.847,2.056-6.029,0.604-6.544-4.356c0.622-3.848-2.706-2.969-2.706-2.969
				s0-0.013,0.002-0.017c-3.306,0.948-5.106-0.722-5.4-5.012l2.042-6.613c4.188-20.718,21.647-20.815,26.046-39.687
				c0,0,20.074,6.208,25.7,7.955C386.609,452.429,394.585,465.787,386.505,483.437z"/>
		</g>
		<g>
			<path style="fill:#E96642;" d="M399.137,446.903c23.106-69.553,15.893-167.291-73.388-180.432l-6.724,45.643
				c58.961,8.701,49.813,79.653,36.327,120.242L399.137,446.903z"/>
		</g>
		<g>
			<path style="fill:#F3764B;" d="M20.776,286.098c53.031,50.592,144.49,85.793,194.493,10.672l-38.404-25.567
				c-33.034,49.608-93.301,11.032-124.242-18.487L20.776,286.098z"/>
		</g>
		<g>
			<g>
				<path style="fill:#F3764B;" d="M194.693,265.373c-13.705,0-24.816,10.217-24.816,28.239l12.409,126.643h77.663l2.197-69.416
					l-2.197-85.466H194.693z"/>
			</g>
			<g>
				<path style="fill:#E96642;" d="M344.271,293.611c0-18.022-11.11-28.239-24.817-28.239h-59.895v154.882h77.267L344.271,293.611z"
					/>
			</g>
		</g>
		<g>
			<path style="fill:#E1593C;" d="M226.085,315.962c8.176-8.759,16.351-17.518,24.526-26.277
				c-13.198-10.052-28.109-28.538-46.427-24.313C211.485,282.236,218.785,299.099,226.085,315.962z"/>
		</g>
		<g>
			<path style="fill:#D65037;" d="M293.618,315.962c-8.162-8.835-16.324-17.669-24.486-26.504
				c13.134-9.832,28.291-28.244,46.387-24.086C308.219,282.236,300.919,299.099,293.618,315.962z"/>
		</g>
		<g>
			<polygon style="fill:#F9F9F9;" points="259.539,263.176 257.342,284.115 259.539,312.709 259.607,312.883 269.132,289.458 
				301.212,265.373 			"/>
			<polygon style="fill:#FFFFFF;" points="218.691,265.373 250.612,289.685 259.539,312.709 259.539,263.176 			"/>
		</g>
		<g>
			<path style="fill:#D6CCC0;" d="M320.696,420.255V266.702c0-1.613-1.309-2.917-2.923-2.917h-8.574
				c-1.613,0-2.921,1.304-2.921,2.917v153.553H320.696z"/>
		</g>
		<g>
			<path style="fill:#C95230;" d="M324.061,428.201c0,3.536-2.868,6.398-6.398,6.398h-8.355c-3.53,0-6.394-2.862-6.394-6.398v-8.355
				c0-3.531,2.864-6.394,6.394-6.394h8.355c3.53,0,6.398,2.863,6.398,6.394V428.201z"/>
		</g>
		<g>
			<path style="fill:#E1D5C9;" d="M211.393,420.255V266.702c0-1.613-1.308-2.917-2.923-2.917h-8.571
				c-1.614,0-2.923,1.304-2.923,2.917v153.553H211.393z"/>
		</g>
		<g>
			<path style="fill:#D45F36;" d="M214.757,428.201c0,3.536-2.866,6.398-6.398,6.398h-8.353c-3.532,0-6.393-2.862-6.393-6.398
				v-8.355c0-3.531,2.861-6.394,6.393-6.394h8.353c3.532,0,6.398,2.863,6.398,6.394V428.201z"/>
		</g>
		<g>
			<path style="fill:#3F3F3F;" d="M360.705,103.672c0,133.855-207.34,133.372-207.34,0
				C153.365-29.732,360.705-30.189,360.705,103.672z"/>
			<path style="fill:#353535;" d="M257.035,0c-0.127,0-0.253,0.004-0.379,0.006v207.331C390.406,207.337,391.031,0,257.035,0z"/>
			<path style="fill:#996133;" d="M337.21,176.597c-0.185,4.629-1.884,10.259-6.504,10.003l0,0
				c-4.627-0.253-8.164-4.214-7.907-8.834l1.541-27.772c0.258-4.623,4.214-8.162,8.835-7.904l0,0
				C346.886,142.846,337.5,169.383,337.21,176.597C337.025,181.226,337.714,164.039,337.21,176.597z"/>
			<path style="fill:#A06937;" d="M176.115,176.597c0.186,4.629,1.886,10.259,6.507,10.003l0,0c4.621-0.253,8.159-4.214,7.903-8.834
				l-1.54-27.772c-0.259-4.623-4.214-8.162-8.834-7.904l0,0C166.435,142.847,175.823,169.381,176.115,176.597
				C176.301,181.226,175.606,164.039,176.115,176.597z"/>
			<g>
				<path style="fill:#A06937;" d="M219.064,57.331c-16.572,0-30.618,11.415-35.543,27.226v42.776l4.568,73.399
					c0,21.908,16.76,39.665,37.437,39.665h47.713V57.331H219.064z"/>
				<g>
					<path style="fill:#996133;" d="M329.853,83.717c-5.155-15.374-19.002-26.387-35.278-26.387h-37.903v183.066h31.441
						c20.674,0,37.436-17.757,37.436-39.665l4.304-69.1V83.717z"/>
				</g>
			</g>
			<path style="fill:#3F3F3F;" d="M225.526,238.477c-19.585,0-35.518-16.931-35.518-37.745l-4.569-73.46V84.852
				c4.895-15.325,18.376-25.602,33.625-25.602h37.971v-3.838h-37.971c-17.031,0-32.053,11.483-37.377,28.574l-0.086,0.278v43.067
				l4.569,73.461c0.029,22.903,17.672,41.522,39.356,41.522h31.509v-3.839H225.526z"/>
			<path style="fill:#353535;" d="M331.672,83.107c-5.555-16.566-20.462-27.695-37.097-27.695h-37.54v3.838h37.54
				c14.884,0,28.253,9.947,33.359,24.784v47.538l-4.301,69.043l-0.003,0.117c0,20.814-15.932,37.745-35.517,37.745h-31.078v3.839
				h31.078c21.684,0,39.324-18.619,39.355-41.523l4.3-69.043l0.004-48.345L331.672,83.107z"/>
			<g>
				<linearGradient id="SVGID_1_" gradientUnits="userSpaceOnUse" x1="248.3932" y1="132.896" x2="249.5926" y2="190.9488">
					<stop  offset="0" style="stop-color:#A06937"/>
					<stop  offset="1" style="stop-color:#996133"/>
				</linearGradient>
				<path style="fill:url(#SVGID_1_);" d="M241.335,191.551c0,3.193,7.203,5.783,15.7,5.858l-0.372-64.536
					C250.92,137.783,241.335,191.551,241.335,191.551z"/>
				<linearGradient id="SVGID_2_" gradientUnits="userSpaceOnUse" x1="263.1293" y1="133.2995" x2="264.5682" y2="190.1384">
					<stop  offset="0.0054" style="stop-color:#996133"/>
					<stop  offset="1" style="stop-color:#915A30"/>
				</linearGradient>
				<path style="fill:url(#SVGID_2_);" d="M265.11,154.915c-3.397-13.817-5.94-20.469-8.447-22.042v64.536
					C283.281,197.409,269.244,171.744,265.11,154.915C261.713,141.098,269.761,173.846,265.11,154.915z"/>
				<path style="fill:#996133;" d="M249.185,192.172c0,9.151-10.07,0-10.208,0C239.116,192.172,249.185,183.02,249.185,192.172z"/>
				<path style="fill:#915A30;" d="M274.904,192.172c0,9.151-10.067,0-10.206,0C264.837,192.172,274.904,183.02,274.904,192.172z"/>
			</g>
			<path style="fill:#3F3F3F;" d="M201.19,126.045c-9.395,0,10.958-13.329,14.992-13.66c1.321-0.108,27.143,5.059,20.984,11.795
				c-2.917,3.195-12.567-6.198-16.539-5.571C215.007,119.496,205.267,126.045,201.19,126.045z"/>
			<path style="fill:#353535;" d="M313.228,126.045c-4.082,0-13.849-6.548-19.479-7.433c-3.97-0.625-13.576,8.758-16.499,5.568
				c-6.158-6.739,19.671-11.903,20.987-11.795C302.271,112.717,322.627,126.045,313.228,126.045z"/>
			<g>
				<path style="fill:#353535;" d="M298.439,73.246c4.755,0,28.628,26.686,28.628,31.506l0.637,30.521h3.63V59.386
					c0-13.014-10.55-23.564-23.563-23.564h-56.862l-6.717,19.326l6.717,18.097H298.439z"/>
				<path style="fill:#3F3F3F;" d="M185.935,135.272l0.342-30.521c0-5.129,22.482-31.506,27.666-31.506h42.729V35.822h-51.098
					c-13.014,0-23.565,10.55-23.565,23.564v75.886H185.935z"/>
			</g>
			<path style="fill:#996133;" d="M256.663,252.816h19.913c15.031,0,15.03-24.468,0-24.468h-19.913l-10.556,16.072L256.663,252.816z
				"/>
			<path style="fill:#A06937;" d="M256.663,228.348h-19.911c-15.033,0-15.034,24.468,0,24.468h19.911V228.348z"/>
			<g>
				<path style="fill:#353535;" d="M289.161,212.914c0-0.344-0.089-0.655-0.29-0.914c-0.054-0.083-0.121-0.155-0.189-0.23
					c-5.04-11.325-22.469-10.757-32.026-7.484v9.03h22.22c4.393,0,7.956,3.565,7.956,7.957v16.054
					c0,6.965-5.648,12.615-12.614,12.615h-17.562v3.837h17.412c8.783,0,15.933-7.147,15.933-15.933v-20.463
					C290.001,215.807,289.699,214.301,289.161,212.914C289.161,212.57,289.699,214.301,289.161,212.914z"/>
				<g>
					<path style="fill:#3F3F3F;" d="M289.161,212.914c0-0.344-0.089-0.655-0.29-0.914c-0.054-0.083-0.121-0.155-0.189-0.23
						c-5.043-11.331-22.485-10.758-32.044-7.48c-9.541-3.27-27.612-3.889-32.225,7.893h0.053c-0.736,1.584-1.158,3.34-1.158,5.198
						v20.463c0,8.786,7.148,15.933,15.933,15.933h34.827c8.783,0,15.933-7.147,15.933-15.933v-20.463
						C290.001,215.807,289.699,214.301,289.161,212.914C289.161,212.57,289.699,214.301,289.161,212.914z M286.832,237.326
						c0,6.965-5.648,12.615-12.614,12.615h-34.903c-6.968,0-12.613-5.65-12.613-12.615v-16.054c0-4.392,3.56-7.957,7.956-7.957
						h44.218c4.393,0,7.956,3.565,7.956,7.957V237.326z"/>
				</g>
			</g>
			<g>
				<g>
					<path style="fill:#915A30;" d="M286.563,217.249c-0.05-0.082-0.113-0.154-0.175-0.23c-4.534-10.973-20.548-10.87-29.728-7.479
						c-9.192-3.394-25.759-3.508-29.897,7.893h0.059C216.929,236.493,297.029,231.679,286.563,217.249
						C286.512,217.167,288.913,220.49,286.563,217.249z"/>
					<path style="fill:#F9E4D2;" d="M234.473,215.808c0,0,22.542,5.132,44.202-0.271c5.094,7.247-22.899,8.393-22.4,8.393
						c-10.019,0.243-19.799-4.028-22.157-5.983C233.995,216.633,234.473,215.808,234.473,215.808z"/>
				</g>
				<g>
					<path style="fill:#84502C;" d="M286.563,217.249c-0.05-0.082-0.113-0.154-0.175-0.23c-4.534-10.973-20.548-10.87-29.728-7.479
						c0,0-0.008-0.003-0.013-0.004v8.472c6.791,0.017,14.476-0.581,22.054-2.47c0.655,0.929,0.714,2.358,0.714,2.358
						s-4.365,5.966-22.769,6.031v7.301C259.607,231.227,292.128,224.922,286.563,217.249
						C286.512,217.167,288.913,220.49,286.563,217.249z"/>
					<path style="fill:#F7D8BA;" d="M279.386,217.895c0,0-0.059-1.429-0.711-2.358c-7.569,1.889-15.242,2.487-22.028,2.47v5.919
						C275.029,223.861,279.386,217.895,279.386,217.895z"/>
				</g>
			</g>
			<path style="fill:none;" d="M288.113,238.477c19.584,0,35.517-16.931,35.517-37.745l0.003-0.117l4.301-69.043V84.035
				c-5.106-14.837-18.475-24.784-33.359-24.784h-37.54v179.226H288.113z"/>
			<path style="fill:none;" d="M185.439,84.852v42.419l4.569,73.46c0,20.814,15.933,37.745,35.518,37.745h31.509V59.25h-37.971
				C203.814,59.25,190.334,69.527,185.439,84.852z"/>
			<g>
				<path style="fill:#3F3F3F;" d="M209.673,144.069c-6.661-0.37,3.619-7.418,4.158-7.722c5.075-2.859,18.336,4.161,13.518,7.091
					C229.86,141.905,208.37,143.997,209.673,144.069C209.447,144.056,210.509,144.115,209.673,144.069z"/>
			</g>
			<g>
				<path style="fill:#353535;" d="M287.985,144.08c-6.639-0.39,4.093-7.454,4.78-7.792c5.454-2.685,17.829,4.895,12.693,7.267
					c-2.532,1.167-5.437-5.652-8.801-4.738C294.052,139.524,290.004,144.191,287.985,144.08
					C287.688,144.063,288.741,144.122,287.985,144.08z"/>
			</g>
		</g>
		<rect x="106.442" y="104.546" style="fill:#4D5254;" width="59.188" height="171.249"/>
		<g>
			<path style="fill:#595E60;" d="M250.613,137.751c0,40.943-63.871,40.943-63.871,0C186.741,97.037,250.613,96.394,250.613,137.751
				z"/>
			<path style="fill:#4D5254;" d="M250.613,137.751c0-17.638-14.298-31.935-31.936-31.935v63.87
				C236.315,169.686,250.613,155.388,250.613,137.751z"/>
			<path style="fill:#B2B8BB;" d="M236.479,137.751c0,22.627-35.602,22.628-35.603,0
				C200.877,115.386,236.479,114.444,236.479,137.751z"/>
			<rect x="168.934" y="160.512" style="fill:#B2B8BB;" width="49.743" height="29.296"/>
			<rect x="200.877" y="137.751" style="fill:#B2B8BB;" width="35.603" height="34.254"/>
			<path style="fill:#9FA6AA;" d="M236.479,137.751c0-9.832-7.969-17.802-17.802-17.802v35.604
				C228.51,155.553,236.479,147.583,236.479,137.751z"/>
			<path style="fill:#B2B8BB;" d="M236.479,172.006c0,22.628-35.603,22.628-35.603,0
				C200.877,149.641,236.479,148.699,236.479,172.006z"/>
			<path style="fill:#9FA6AA;" d="M236.479,172.006c0-9.831-7.969-17.801-17.802-17.801v35.604
				C228.51,189.808,236.479,181.837,236.479,172.006z"/>
			<rect x="218.677" y="137.751" style="fill:#9FA6AA;" width="17.802" height="34.254"/>
		</g>
		<g>
			<rect x="20.776" y="132.722" style="fill:#879093;" width="171.025" height="119.993"/>
			<rect x="27.672" y="139.617" style="fill:#9FA6AA;" width="157.233" height="106.202"/>
			<rect x="27.672" y="139.617" style="fill:#9FA6AA;" width="157.233" height="106.202"/>
			<polygon style="fill:#B2B8BB;" points="184.905,245.819 27.672,245.819 184.905,139.617 			"/>
			<polygon style="fill:#B2B8BB;" points="27.672,139.617 27.672,245.82 106.289,192.718 			"/>
			<polygon style="fill:#9FA6AA;" points="27.672,245.82 184.905,245.82 106.289,192.718 			"/>
			<rect x="49.438" y="153.873" style="fill:#595E60;" width="114.007" height="77.69"/>
			<g>
				<path style="fill:#798184;" d="M142.835,192.718c0,47.056-73.092,46.934-73.092,0
					C69.743,145.838,142.835,145.37,142.835,192.718z"/>
				<path style="fill:#475059;" d="M139.672,192.718c0,42.985-66.767,42.873-66.766,0
					C72.906,149.895,139.672,149.467,139.672,192.718z"/>
				<path style="fill:#353D44;" d="M116.525,160.94c18.309,25.434-7.552,60.842-37.34,51.258
					C113.267,259.537,172.65,179.006,116.525,160.94C120.472,166.423,129.953,165.262,116.525,160.94z"/>
				<path style="fill:#9FA6AA;" d="M104.18,178.662c0,15.514-13.697,0-13.586,0C90.482,178.662,104.18,163.147,104.18,178.662z"/>
			</g>
		</g>
	</g>
</g>
<g id="Layer_1">
</g>
</svg>
