<?xml version="1.0" encoding="iso-8859-1"?>
<!-- Generator: Adobe Illustrator 19.2.0, SVG Export Plug-In . SVG Version: 6.00 Build 0)  -->
<svg version="1.1" xmlns="http://www.w3.org/2000/svg" xmlns:xlink="http://www.w3.org/1999/xlink" x="0px" y="0px"
	 viewBox="0 0 915.756 761.59" style="enable-background:new 0 0 915.756 761.59;" xml:space="preserve">
<g id="Drone">
	<g>
		<g>
			<g>
				<g>
					<g>
						<path style="fill:#636E75;" d="M585.843,207.892c0,4.121,3.372,7.493,7.492,7.493h42.574l8.828-17.381l-8.828-59.605h-42.574
							c-4.12,0-7.492,3.372-7.492,7.493V207.892z"/>
					</g>
					<g>
						<path style="fill:#535F66;" d="M685.955,145.891c0-4.121-3.372-7.493-7.492-7.493h-42.574v76.986h42.574
							c4.12,0,7.492-3.371,7.492-7.493V145.891z"/>
					</g>
				</g>
				<g>
					<path style="fill:#D3D3D3;" d="M660.199,205.871c0,31.345-48.6,31.345-48.6,0C611.599,174.526,660.199,174.526,660.199,205.871
						z"/>
					<path style="fill:#636E75;" d="M655.338,205.871c0,25.076-38.879,25.076-38.879,0
						C616.459,180.795,655.338,180.795,655.338,205.871z"/>
					<path style="fill:#3F3F3F;" d="M653.657,205.871c0,22.572-35.516,22.572-35.516,0
						C618.141,183.562,653.657,182.622,653.657,205.871z"/>
					<path style="fill:#333333;" d="M641.344,188.967c9.724,13.508-4.447,32.228-19.862,27.265
						C639.676,241.503,670.69,198.412,641.344,188.967C643.444,191.884,648.487,191.266,641.344,188.967z"/>
					<path style="fill:#D3D3D3;" d="M634.778,198.394c0,10.251-13.865-3.614-3.614-3.614
						C632.368,195.985,633.573,197.19,634.778,198.394z"/>
				</g>
			</g>
			<g>
				<path style="fill:#636E75;" d="M424.087,208.77v57.246c0,4.61-2.641,8.813-6.794,10.813l-7.319,3.525
					c-0.779,0.375-1.274,1.163-1.274,2.028v1.623c0,1.561,1.266,2.826,2.826,2.826h15.841c3.511,0,6.658-2.164,7.915-5.442
					l30.889-80.57L424.087,208.77z"/>
				<path style="fill:#636E75;" d="M449.212,69.795v57.246c0,4.61-2.641,8.813-6.795,10.814l-7.318,3.525
					c-0.779,0.376-1.275,1.163-1.275,2.029v1.622c0,1.562,1.266,2.827,2.827,2.827h15.84c3.511,0,6.658-2.165,7.915-5.443
					l23.669-61.737L449.212,69.795z"/>
				<path style="fill:#535F66;" d="M635.899,97.228L450.11,58.417c-4.358-0.331-6.814,1.671-7.368,6.006v2.148
					c0,1.892,1.078,3.618,2.778,4.449l75.653,44.667c15.149,7.404,15.299,30.132,0,37.608l-100.778,49.252
					c-1.699,0.831-2.777,2.557-2.777,4.45v2.147c0.553,4.335,3.009,6.337,7.367,6.006l210.914-43.395l13.996-20.723L635.899,97.228z
					"/>
				<path style="fill:#636E75;" d="M635.899,71.887h-24.69c-19.081,0-37.646,9.421-48.919,24.816
					c-5.727,7.821-23.09,46.57-0.922,46.57h74.531l13.996-35.693L635.899,71.887z"/>
				<g>
					<path style="fill:#636E75;" d="M437.701,185.526h-0.534c-5.804,0-10.508,4.704-10.508,10.508v6.929
						c0,4.294,21.551,4.294,21.551,0v-6.929C448.21,190.23,443.505,185.526,437.701,185.526z"/>
					<g>
						<path style="fill:#E0E0E0;" d="M488.667,155.653c-33.096-6.73-69.369-6.73-102.465,0l51.232,18.375L488.667,155.653z"/>
						<path style="fill:#EFEFEF;" d="M386.202,155.653c-40.28,8.194-40.175,28.579,0,36.75l51.232-18.375L386.202,155.653z"/>
						<path style="fill:#E0E0E0;" d="M386.202,192.403c33.094,6.731,69.37,6.731,102.465,0l-51.232-18.375L386.202,192.403z"/>
						<path style="fill:#EFEFEF;" d="M522.642,174.028c0-7.51-13.342-14.178-33.976-18.375l-51.232,18.375l51.232,18.375
							C509.3,188.206,522.642,181.538,522.642,174.028z"/>
					</g>
					<path style="fill:#636E75;" d="M437.701,156.546h-0.534c-5.804,0-10.508,4.705-10.508,10.509v6.929
						c0,4.294,21.551,4.294,21.551,0v-6.929C448.21,161.251,443.505,156.546,437.701,156.546z"/>
				</g>
				<g>
					<path style="fill:#636E75;" d="M459.19,50.93h-0.482c-5.221,0-9.452,4.231-9.452,9.452v6.232c0,3.862,19.385,3.863,19.385,0
						v-6.232C468.641,55.161,464.41,50.93,459.19,50.93z"/>
					<g>
						<path style="fill:#E0E0E0;" d="M505.032,24.06c-29.77-6.054-62.395-6.054-92.165,0l46.082,16.527L505.032,24.06z"/>
						<path style="fill:#EFEFEF;" d="M412.867,24.06c-36.152,7.352-36.152,25.703,0,33.055l46.082-16.527L412.867,24.06z"/>
						<path style="fill:#E0E0E0;" d="M412.867,57.115c29.769,6.055,62.397,6.055,92.165,0l-46.083-16.527L412.867,57.115z"/>
						<path style="fill:#EFEFEF;" d="M535.591,40.588c0-6.755-12.001-12.753-30.56-16.527l-46.083,16.527l46.083,16.527
							C523.591,53.341,535.591,47.343,535.591,40.588z"/>
					</g>
					<path style="fill:#636E75;" d="M459.19,24.863h-0.482c-5.221,0-9.452,4.231-9.452,9.452v6.232c0,3.862,19.385,3.863,19.385,0
						v-6.232C468.641,29.095,464.41,24.863,459.19,24.863z"/>
				</g>
			</g>
			<g>
				<path style="fill:#535F66;" d="M861.814,280.354l-7.319-3.525c-4.154-2-6.795-6.203-6.795-10.813V208.77l-42.082-7.951
					l30.889,80.57c1.257,3.278,4.404,5.442,7.915,5.442h15.841c1.561,0,2.826-1.266,2.826-2.826v-1.623
					C863.088,281.518,862.592,280.729,861.814,280.354z"/>
				<path style="fill:#535F66;" d="M836.689,141.379l-7.319-3.525c-4.154-2.001-6.795-6.204-6.795-10.814V69.795l-34.862,10.883
					l23.669,61.737c1.256,3.278,4.404,5.443,7.914,5.443h15.841c1.562,0,2.827-1.266,2.827-2.827v-1.622
					C837.963,142.543,837.468,141.755,836.689,141.379z"/>
				<path style="fill:#4A5356;" d="M851.392,202.548l-100.779-49.252c-15.149-7.404-15.297-30.131,0-37.608l75.654-44.667
					c1.699-0.831,2.777-2.558,2.777-4.449v-2.148c-0.554-4.334-3.01-6.336-7.367-6.006l-185.789,38.81v74.528l210.914,43.395
					c4.357,0.331,6.813-1.671,7.367-6.006v-2.147C854.169,205.105,853.091,203.379,851.392,202.548z"/>
				<path style="fill:#535F66;" d="M660.579,71.887h-24.69v71.386h74.531c22.024,0,5.451-37.866-0.922-46.57
					C698.205,81.282,679.691,71.887,660.579,71.887z"/>
				<g>
					<path style="fill:#535F66;" d="M834.086,185.526h0.535c5.804,0,10.508,4.704,10.508,10.508v6.929
						c0,4.294-21.552,4.294-21.552,0v-6.929C823.577,190.23,828.282,185.526,834.086,185.526z"/>
					<g>
						<path style="fill:#E0E0E0;" d="M783.121,155.653c33.096-6.73,69.369-6.73,102.465,0l-51.232,18.375L783.121,155.653z"/>
						<path style="fill:#EFEFEF;" d="M885.586,155.653c40.28,8.194,40.175,28.579,0,36.75l-51.232-18.375L885.586,155.653z"/>
						<path style="fill:#E0E0E0;" d="M885.586,192.403c-33.094,6.731-69.37,6.731-102.465,0l51.232-18.375L885.586,192.403z"/>
						<path style="fill:#EFEFEF;" d="M749.145,174.028c0-7.51,13.342-14.178,33.976-18.375l51.232,18.375l-51.232,18.375
							C762.487,188.206,749.145,181.538,749.145,174.028z"/>
					</g>
					<path style="fill:#535F66;" d="M834.086,156.546h0.535c5.804,0,10.508,4.705,10.508,10.509v6.929
						c0,4.294-21.552,4.293-21.552,0v-6.929C823.577,161.251,828.282,156.546,834.086,156.546z"/>
				</g>
				<g>
					<path style="fill:#535F66;" d="M812.597,50.93h0.481c5.22,0,9.451,4.231,9.451,9.452v6.232c0,3.863-19.385,3.862-19.385,0
						v-6.232C803.145,55.161,807.378,50.93,812.597,50.93z"/>
					<g>
						<path style="fill:#E0E0E0;" d="M766.755,24.06c29.769-6.054,62.396-6.054,92.165,0l-46.083,16.527L766.755,24.06z"/>
						<path style="fill:#EFEFEF;" d="M858.92,24.06c36.153,7.352,36.153,25.702,0,33.055l-46.083-16.527L858.92,24.06z"/>
						<path style="fill:#E0E0E0;" d="M858.92,57.115c-29.768,6.055-62.397,6.055-92.165,0l46.082-16.527L858.92,57.115z"/>
						<path style="fill:#EFEFEF;" d="M736.196,40.588c0-6.755,12-12.753,30.56-16.527l46.082,16.527l-46.082,16.527
							C748.196,53.341,736.196,47.343,736.196,40.588z"/>
					</g>
					<path style="fill:#535F66;" d="M812.597,24.863h0.481c5.22,0,9.451,4.231,9.451,9.452v6.232c0,3.863-19.385,3.862-19.385,0
						v-6.232C803.145,29.095,807.378,24.863,812.597,24.863z"/>
				</g>
			</g>
		</g>
		<g>
			<defs>
				<rect id="SVGID_1_" x="0" y="0" width="483.392" height="761.638"/>
			</defs>
			<clipPath id="SVGID_2_">
				<use xlink:href="#SVGID_1_"  style="overflow:visible;"/>
			</clipPath>
			<g style="clip-path:url(#SVGID_2_);">
				<path style="fill:#0A7070;" d="M106.139,415.336c-37.762,8.234-0.406,81.06,14.237,95.798
					c20.51,20.645,48.878,16.618,72.753,3.689l3.762-153.808C196.891,361.016,148.46,406.111,106.139,415.336
					C95.627,417.628,148.46,406.111,106.139,415.336z"/>
				<g>
					<g>
						<path style="fill:#0A7070;" d="M176.941,446.73c-25.188-60.828-122.395-35.3-124.826,26.97L30.27,668.445
							c-4.802,42.017,60.377,48.291,65.179,6.529l17.628-122.205C120.749,506.062,197.983,497.606,176.941,446.73
							C164.42,416.492,186.75,470.446,176.941,446.73z"/>
						<path style="fill:#0A7070;" d="M132.162,465.272c8.236,19.814-23.002,32.733-31.198,12.907
							C92.862,458.584,123.699,444.861,132.162,465.272C135.739,473.879,128.593,456.664,132.162,465.272z"/>
					</g>
				</g>
				<path style="fill:#0C6666;" d="M334.834,415.336c-42.331-9.225-90.757-54.32-90.757-54.32l3.763,153.81
					c23.983,13.049,52.036,16.796,72.751-3.689C335.542,496.352,372.621,423.574,334.834,415.336
					C292.503,406.111,345.348,417.628,334.834,415.336z"/>
				<g>
					<path style="fill:#0C6666;" d="M408.539,669.381L388.85,474.409c-1.67-58.373-86.679-87.15-119.971-36.853
						c-36.293,54.83,50.637,66.574,58.119,115.245L343.278,675.2C347.569,716.492,412.909,712.046,408.539,669.381z"/>
					<path style="fill:#0C6666;" d="M308.888,465.1c-8.438,19.724,22.626,32.993,31.045,13.252
						C348.251,458.846,317.596,444.796,308.888,465.1C305.221,473.671,312.562,456.533,308.888,465.1z"/>
				</g>
				<g>
					<path style="fill:#EFEFEF;" d="M296.509,591.7l55.398-31.754l-10.843-17.089c-1.002-1.983-3.433-2.77-5.412-1.769
						l-46.695,26.34c-2.078,1.316-2.666,3.119-1.762,5.41L296.509,591.7z"/>
					<g>
						<path style="fill:#0C6666;" d="M346.791,686.944c7.354,15.426,27.064,22.447,42.6,15.032l0.311-0.175
							c16.001-7.667,23.26-28.766,15.098-44.68l-49.248-100.046c-1.046-1.872-3.382-2.596-5.309-1.656l-56.503,31.706
							c-1.967,0.958-2.797,3.298-1.899,5.286L346.791,686.944z"/>
						<path style="fill:#0C6666;" d="M389.941,666.862c-8.201-17.099-35.114-4.186-26.908,12.905
							C371.139,696.651,398.401,684.463,389.941,666.862C386.376,659.43,393.506,674.278,389.941,666.862z"/>
					</g>
				</g>
				<g>
					<path style="fill:#EFEFEF;" d="M139.297,592.443l-50.489-25.547l9.969-18.538c1.07-1.948,3.537-2.651,5.498-1.581l43.37,21.653
						c2.046,1.381,2.58,3.205,1.604,5.472L139.297,592.443z"/>
					<g>
						<path style="fill:#0A7070;" d="M91.972,687.924c-7.912,15.247-27.982,21.471-43.297,13.555l-0.309-0.186
							c-15.769-8.18-22.533-29.5-13.792-45.204l50.657-92.19c1.11-1.836,3.481-2.479,5.389-1.472l51.601,25.537
							c1.947,1.026,2.709,3.395,1.746,5.351L91.972,687.924z"/>
						<path style="fill:#0A7070;" d="M49.213,666.345c8.776-16.812,35.426-3.012,26.653,13.838
							C67.213,696.801,40.148,683.673,49.213,666.345C53.028,659.037,45.398,673.638,49.213,666.345z"/>
					</g>
				</g>
				<g>
					<path style="fill:#FFC08D;" d="M182.185,343.891v42.106c0,21.35-60.399,9.668-51.082,44.006
						c7.662,28.24,65.825,37.029,89.14,37.029l18.399-64.35h0.029l-18.4-58.791H182.185z"/>
					<path style="fill:#FFB680;" d="M305.27,436.673c27.985-37.013-46.902-30.022-46.902-50.633v-42.149h-38.097v123.141
						C244.241,467.032,290.829,455.798,305.27,436.673C310.816,429.337,290.829,455.798,305.27,436.673z"/>
				</g>
				<g>
					<path style="fill:#F9F9F9;" d="M220.326,425.847l-22.363-10.884l-16.371-26.067l-53.003,18.995v477.248l75.473,13.506
						c1.301,0.099,2.109-0.484,2.424-1.748l13.991-91.453l15.989-1.926l7.612-297.961L220.326,425.847z"/>
					<path style="fill:#EFEFEF;" d="M259.154,388.896l-16.76,27.313l-21.973,9.638v379.568l13.836,91.515
						c0.311,1.245,1.106,1.822,2.386,1.732l80.652-13.51v-475.92L259.154,388.896z"/>
					<g>
						<path style="fill:#E2E2E2;" d="M277.67,571.331c-21.571,9.006-64.56,14.61-19.292,30.121
							C289.235,612.025,290.882,593.462,277.67,571.331z"/>
						<path style="fill:#E2E2E2;" d="M280.055,536.124c-3.26-6.506-18.321-32.146,5.416-19.554
							C295.905,522.106,290.539,529.422,280.055,536.124z"/>
					</g>
					<path style="fill:#E2E2E2;" d="M275.574,394.206c-0.591,0.651-16.461-14.649-17.062-15.638v0.014
						c-6.909,19.705-20.415,36.402-38.241,47.265l22.066,31.367c0.472,0.525,0.976,0.56,1.511,0.103L275.574,394.206z"/>
					<path style="fill:#EFEFEF;" d="M165.12,394.206c0.547,0.624,16.463-14.648,17.065-15.638v0.014
						c6.904,19.705,20.41,36.402,38.236,47.265l-22.054,31.367c-0.477,0.526-0.985,0.56-1.525,0.103L165.12,394.206z"/>
					<g>
						<path style="fill:#EFEFEF;" d="M163.303,571.331c21.573,9.008,64.557,14.611,19.287,30.121
							C151.731,612.024,150.09,593.461,163.303,571.331z"/>
						<path style="fill:#EFEFEF;" d="M160.922,536.124c3.256-6.506,18.309-32.146-5.418-19.554
							C145.072,522.107,150.437,529.422,160.922,536.124z"/>
					</g>
				</g>
				<g>
					<polygon style="fill:#FFC08D;" points="154.748,1493.643 194.964,1493.643 194.327,1553.811 154.748,1553.811 					"/>
					<polygon style="fill:#FFC08D;" points="286.01,1493.643 245.794,1493.643 246.429,1553.811 286.01,1553.811 					"/>
					<path style="fill:#FC4129;" d="M345.395,812.77c-0.428-2.483-1.1-5.007-1.866-7.532c-0.263-1.933-0.558-3.909-0.802-5.823
						l-12.902-78.645h-2.172h-2.91H220.257l-14.125,36.298l-0.128,141.548l0.016,0.008l14.074,22.889
						c9.329,0,11.997,7.054,12.593,16.526c-0.374,43.576-0.774,87.165-0.475,130.742c0.288,42.073,8.75,85.853,6.227,127.747
						l-1.846,30.419c-0.868,14.165-1.116,28.367-0.827,42.553c-0.478,19.933,0.179,39.885,1.975,59.744l0.28,7.656l1.391,151.528
						c1.416,1.425,2.851,2.831,4.304,4.219l0.738,20.241c0.013,0.435,0.364,0.77,0.793,0.77h41.099c0.414,0,0.755-0.315,0.792-0.728
						l1.7-19.224c1.823-1.656,3.637-3.321,5.443-4.995l24.8-315.259c-0.38-17.014,1.143-34.009,4.547-50.618
						C340.127,1020.677,362.785,916.246,345.395,812.77C344.967,810.287,354.145,864.833,345.395,812.77z"/>
					<rect x="220.188" y="692.127" style="fill:#D31E00;" width="109.275" height="35.412"/>
					<path style="fill:#FF573B;" d="M220.341,898.616l-0.17-177.846H115.692h-2.923h-2.172l-12.89,78.645
						c-0.247,1.914-0.549,3.89-0.81,5.823c-29.874,98.396,3.928,218.706,19.899,317.596c3.412,16.609,4.939,33.604,4.55,50.618
						l24.801,315.259c1.807,1.672,3.619,3.337,5.438,4.995l1.701,19.224c0.039,0.413,0.387,0.728,0.799,0.728h41.091
						c0.428,0,0.78-0.335,0.794-0.77l0.741-20.241c1.457-1.385,2.894-2.792,4.31-4.219l1.387-151.528l0.274-7.656
						c1.799-19.859,2.453-39.811,1.986-59.744c0.279-14.185,0.04-28.388-0.824-42.553l-1.848-30.419
						c-2.555-41.921,5.934-85.641,6.221-127.747c0.296-43.577-0.102-87.167-0.478-130.742c0.606-9.473,3.27-16.526,12.602-16.526
						l-0.024-22.889C220.317,898.623,220.333,898.616,220.341,898.616z"/>
					<rect x="110.9" y="692.127" style="fill:#EF2200;" width="109.267" height="35.412"/>
					<g>
						<path style="fill:#EF2200;" d="M163.579,1493.643h-3.426c-0.674,0-1.224,0.455-1.224,1.025v15.266
							c0,0.565,0.55,1.026,1.224,1.026h3.426c0.673,0,1.224-0.462,1.224-1.026v-15.266
							C164.802,1494.098,164.251,1493.643,163.579,1493.643z"/>
						<path style="fill:#EF2200;" d="M176.568,1493.643h-3.428c-0.67,0-1.222,0.455-1.222,1.025v15.266
							c0,0.565,0.551,1.026,1.222,1.026h3.428c0.675,0,1.223-0.462,1.223-1.026v-15.266
							C177.79,1494.098,177.243,1493.643,176.568,1493.643z"/>
						<path style="fill:#EF2200;" d="M190.782,1494.668c0-0.57-0.548-1.025-1.226-1.025h-3.424c-0.677,0-1.226,0.455-1.226,1.025
							v15.266c0,0.565,0.549,1.026,1.226,1.026h3.424c0.678,0,1.226-0.462,1.226-1.026V1494.668z"/>
					</g>
					<g>
						<g>
							<g>
								<path style="fill:#D31E00;" d="M254.631,1493.643h-3.427c-0.675,0-1.226,0.455-1.226,1.025v15.266
									c0,0.565,0.551,1.026,1.226,1.026h3.427c0.675,0,1.224-0.462,1.224-1.026v-15.266
									C255.855,1494.098,255.306,1493.643,254.631,1493.643z"/>
							</g>
							<g>
								<path style="fill:#D31E00;" d="M267.622,1493.643h-3.427c-0.675,0-1.224,0.455-1.224,1.025v15.266
									c0,0.565,0.549,1.026,1.224,1.026h3.427c0.669,0,1.222-0.462,1.222-1.026v-15.266
									C268.844,1494.098,268.292,1493.643,267.622,1493.643z"/>
							</g>
							<g>
								<path style="fill:#D31E00;" d="M281.838,1494.668c0-0.57-0.551-1.025-1.228-1.025h-3.427c-0.673,0-1.225,0.455-1.225,1.025
									v15.266c0,0.565,0.552,1.026,1.225,1.026h3.427c0.677,0,1.228-0.462,1.228-1.026V1494.668z"/>
							</g>
						</g>
					</g>
				</g>
				<path style="fill:#0C6666;" d="M362.65,894.012c2.549-1.575,3.844-4.583,3.233-7.513l-19.567-93.495
					c-10.456-49.972-14.715-101.049-12.671-152.066l5.943-148.455l-14.337-80.209l-49.586-19.93l14.304,138.451l-22.061,80.27
					c-0.908,3.294-1.365,6.702-1.374,10.116l-0.543,280.985c0.419,4.516,2.885,6.989,7.399,7.419h27.468
					C320.283,909.583,346.097,904.188,362.65,894.012C365.199,892.437,346.097,904.188,362.65,894.012z"/>
				<path style="fill:#095959;" d="M340.374,482.439c0.811-1.437,0.411-3.267-0.926-4.239l-24.785-18.026
					c-1.614-1.476-1.773-3.096-0.476-4.858l11.706-12.673c1.213-1.597,1.146-3.139-0.201-4.625l-50.035-45.676
					c0,0,12.784,121.772-9.112,227.122C302.659,549.636,333.489,494.636,340.374,482.439
					C341.184,481.001,333.489,494.636,340.374,482.439z"/>
				<path style="fill:#0A7070;" d="M174.431,620.565c0-3.007-0.406-5.999-1.207-8.903l-22.208-80.865l14.292-138.449l-49.582,19.933
					l-14.344,80.211l5.941,148.46c2.053,51.01-2.208,102.081-12.663,152.053l-19.563,93.495
					c-3.749,17.787,56.047,23.084,65.019,23.084h27.466c4.516-0.429,6.982-2.901,7.399-7.419L174.431,620.565z"/>
				<path style="fill:#0C6666;" d="M165.309,392.343l-50.028,45.676c-1.346,1.487-1.411,3.029-0.196,4.625l11.71,12.68
					c1.295,1.761,1.134,3.378-0.484,4.851L101.532,478.2c-6.225,4.512,67.378,130.592,72.899,141.265
					C152.538,514.114,165.309,392.343,165.309,392.343z"/>
				<g>
					<path style="fill:#FFAC27;" d="M177.203,414.729c0.434-2.552,1.902-3.502,4.404-2.848l10.236,4.624
						c6.493-0.086,11.82,2.067,15.979,6.459c1.875-1.83,4.429-2.964,7.253-2.964h5.358l6.734,6.929l2.063,14.634l-8.798,6.486
						h-5.358c-2.824,0-5.379-1.141-7.253-2.971c-4.153,4.402-9.48,6.558-15.979,6.468l-10.236,4.614
						c-2.499,0.654-3.967-0.293-4.404-2.84V414.729z"/>
					<path style="fill:#F99F00;" d="M263.549,414.729c-0.435-2.552-1.904-3.501-4.405-2.848l-10.237,4.624
						c-6.491-0.083-11.816,2.07-15.976,6.459c-1.873-1.83-4.428-2.964-7.266-2.964h-5.352v28.049h5.352
						c2.838,0,5.394-1.141,7.266-2.971c4.154,4.399,9.48,6.555,15.976,6.468l10.237,4.614c2.499,0.654,3.967-0.293,4.405-2.84
						V414.729z"/>
				</g>
				<g>
					<path style="fill:#EF9900;" d="M311.291,1530.049c-5.419-9.743-17.803-20.36-25.617-6.591
						C275.593,1541.224,303.657,1542.497,311.291,1530.049z"/>
					<path style="fill:#F9F9F9;" d="M378.286,1589.87c5.808,38.269-69.376,9.895-84.213,6.552
						c-12.801-2.885-50.086,2.345-58.639-12.043c-8.856-14.899,5.193-19.138,15.381-20.375
						c18.652-2.263,43.322,10.385,61.767,14.924C334.68,1584.365,355.641,1588.773,378.286,1589.87z"/>
					<path style="fill:#F99F00;" d="M375.607,1580.17c-12.564-8.297-26.911-8.346-38.747-17.667
						c-10.016-7.888-17.123-21.834-25.012-31.939c-16.942-1.726-27.282,14.533-41.845,14.901
						c-19.674,0.497-16.258-22.859-24.222-25.589c-6.299-2.146-9.262,46.142-9.284,47.964
						c12.519,13.247,48.312,17.294,65.763,24.294c21.863,8.77,49.629,16.416,73.244,10.974
						C383.267,1598.197,394.728,1592.788,375.607,1580.17C356.499,1567.551,394.728,1592.788,375.607,1580.17z"/>
					<path style="fill:#3F3F3F;" d="M385.23,1591.887c-0.164-0.464-21.621,14.346-25.088,15.451
						c-16.73,5.335-35.846-3.073-51.366-7.688c-16.416-4.882-32.689-5.024-49.443-8.384c-6.788-1.361-12.964-2.702-19.305-5.576
						c-4.392-1.991-5.418-11.376-5.751-11.52c-0.668-0.292-3.217,6.275-1.856,7.297c5.174,3.886,7.476,7.339,14.934,10.419
						c16.291,6.727,37.609,3.606,54.877,8.824C308.822,1602.703,400.314,1619.475,385.23,1591.887
						C384.545,1589.954,389.527,1599.745,385.23,1591.887z"/>
					<path style="fill:#F9F9F9;" d="M329.487,1565.721c2.972-2.94,6.092-3.277,9.359-1.01c6.457-7.987-21.404-0.208-14.09,4.424
						C326.496,1570.343,329.18,1565.988,329.487,1565.721C330.554,1564.248,328.264,1566.787,329.487,1565.721z"/>
					<path style="fill:#F9F9F9;" d="M329.487,1557.093c1.306,0,2.364,0.378,3.179,0.997c8.167-4.555-24.033-0.35-15.679,6.38
						c1.832,1.473,8.23-5.692,8.995-6.089C326.81,1557.587,327.986,1557.093,329.487,1557.093z"/>
					<path style="fill:#F9F9F9;" d="M323.943,1549.688c1.76,0,3.055,0.683,3.922,1.708c8.318-6.452-29.892-0.465-18.875,7.443
						c2.185,1.653,9.874-8.676,13.422-8.95C322.886,1549.773,323.398,1549.688,323.943,1549.688z"/>
					<path style="fill:#F9F9F9;" d="M317.586,1542.569c1.87,0,3.383,0.606,4.491,1.554c9.189-5.703-33.18,0.686-21.43,9.062
						c1.375,1.042,12.706-9.407,13.063-9.536C314.739,1542.969,316.02,1542.569,317.586,1542.569z"/>
					<path style="fill:#F9F9F9;" d="M312.025,1536.906c2.218,0,4.089,0.476,5.691,1.26c8.479-5.901-35.981,1.794-25.244,10.045
						c1.574,1.221,12.745-9.361,12.524-9.247C306.843,1537.69,309.191,1536.906,312.025,1536.906z"/>
					<path style="fill:#F9F9F9;" d="M306.769,1530.892c2.337,0.145,4.53,0.77,6.556,1.784c10.086-6.267-43.884-0.607-28.889,10.292
						C285.573,1543.828,301.894,1530.239,306.769,1530.892C309.106,1531.037,296.351,1529.496,306.769,1530.892z"/>
				</g>
				<g>
					<path style="fill:#F99F00;" d="M129.4,1530.049c5.413-9.744,17.8-20.36,25.61-6.591
						C165.08,1541.212,137.016,1542.521,129.4,1530.049z"/>
					<path style="fill:#F9F9F9;" d="M62.4,1589.87c-5.836,38.266,69.386,9.891,84.209,6.552c12.802-2.884,50.08,2.346,58.635-12.043
						c8.857-14.898-5.19-19.139-15.38-20.375c-18.652-2.263-43.321,10.385-61.767,14.924
						C106.003,1584.364,85.043,1588.772,62.4,1589.87z"/>
					<path style="fill:#FFAC27;" d="M195.577,1520.098c4.726,6.905-13.979,23.816-21.231,24.916
						c-15.411,2.338-27.835-16.781-45.52-14.45c-12.739,16.318-21.994,31.195-40.334,40.623
						c-13.476,6.928-49.726,15.236-23.303,31.924c23.5,5.429,51.475-2.254,73.235-10.974c17.709-7.097,53.221-10.985,65.764-24.296
						C203.801,1535.806,198.202,1523.925,195.577,1520.098C195.429,1519.882,198.202,1523.925,195.577,1520.098z"/>
					<path style="fill:#3F3F3F;" d="M206.901,1574.348c9.196,16.991-65.016,22.093-73.044,24.405
						c-16.188,4.662-30.577,12.184-48.652,8.924c-4.159-0.75-30.759-12.992-29.763-15.785
						c-14.087,25.747,71.578,12.876,78.198,10.876C146.534,1598.873,218.241,1595.337,206.901,1574.348
						C206.806,1574.174,209.913,1579.924,206.901,1574.348z"/>
					<path style="fill:#F9F9F9;" d="M111.19,1565.721c-2.97-2.94-6.086-3.277-9.35-1.01c-6.549-7.874,21.439-0.279,14.097,4.424
						C114.161,1570.318,111.568,1566.05,111.19,1565.721C110.132,1564.248,112.414,1566.787,111.19,1565.721z"/>
					<path style="fill:#F9F9F9;" d="M111.202,1557.093c-1.31,0-2.365,0.378-3.189,0.997c-8.19-4.617,24.066-0.28,15.686,6.38
						c-1.838,1.478-8.228-5.69-8.997-6.089C113.875,1557.587,112.69,1557.093,111.202,1557.093z"/>
					<path style="fill:#F9F9F9;" d="M118.265,1549.889c-1.961-0.525-3.777-0.023-5.448,1.507c-8.406-6.12,30.027-0.668,18.879,7.443
						C129.539,1560.5,121.786,1550.161,118.265,1549.889C117.799,1549.773,122.557,1550.221,118.265,1549.889z"/>
					<path style="fill:#F9F9F9;" d="M123.1,1542.569c-1.876,0-3.383,0.606-4.49,1.554c-9.151-5.616,33.138,0.576,21.43,9.062
						c-1.431,1.052-12.646-9.384-13.065-9.536C125.943,1542.969,124.663,1542.569,123.1,1542.569z"/>
					<path style="fill:#F9F9F9;" d="M128.655,1536.906c-2.21,0-4.088,0.476-5.7,1.26c-8.41-6.196,35.869,1.889,25.255,10.045
						c-1.622,1.207-12.679-9.328-12.522-9.247C133.843,1537.69,131.496,1536.906,128.655,1536.906z"/>
					<path style="fill:#F9F9F9;" d="M133.908,1530.892c-2.332,0.145-4.531,0.77-6.549,1.784
						c-10.046-6.165,43.863-0.719,28.889,10.292C155.005,1543.886,138.894,1530.225,133.908,1530.892
						C131.577,1531.037,144.335,1529.496,133.908,1530.892z"/>
				</g>
				<g>
					<g>
						<g>
							<path style="fill:#3F3F3F;" d="M166.572,468.169c-6.258,0.018-12.037,3.342-15.201,8.741l-18.762,32.019
								c-9.181,15.672-14.043,17.274-13.989,35.436l0.055,18.894c0.047,15.716,20.43,22.888,30.309,10.665l11.876-14.694
								c9.153-11.325,22.92-17.926,37.483-17.968l23.167-0.069l8.009-31.71l-8.226-41.475L166.572,468.169z"/>
							<path style="fill:#333333;" d="M276.012,467.845c6.258-0.018,12.058,3.272,15.253,8.652l18.95,31.907
								c9.274,15.617,14.146,17.19,14.2,35.352l0.056,18.895c0.045,15.715-20.294,23.008-30.244,10.845l-11.963-14.624
								c-9.221-11.271-23.028-17.789-37.589-17.746l-23.168,0.068l-0.217-73.185L276.012,467.845z"/>
						</g>
					</g>
					<path style="fill:#FFCB99;" d="M178.265,504.151c-1.27-5.619-51.282,7.337-59.209,8.911c-3.619,0.813-5.82,4.725-4.917,8.733
						l0.683,3.023c0.673,3.033,0.427,6.858-3.497,7.752l-3.705,0.845c-3.62,0.814-5.821,4.725-4.917,8.733l0.682,3.023
						c0.343,1.522,4.324,6.493,0.254,7.406c-3.62,0.814-5.821,4.726-4.917,8.733l0.68,3.023c0.902,4.007,4.567,6.597,8.186,5.782
						l23.394-5.222c16.626-2.931,12.049-16.566,12.049-16.566c-0.468-2.167,0.861-4.764,3.135-5.286l8.614-1.969
						c16.626-2.932,12.049-16.568,12.049-16.568c-0.01-0.045-2.232-3.416-0.612-3.789
						C182.842,517.786,178.265,504.151,178.265,504.151z"/>
					<path style="fill:#FFC08D;" d="M266.083,505.193c1.11-5.033,47.152,6.499,53.669,7.753c3.282,0.718,5.295,4.248,4.499,7.883
						l-0.602,2.742c-0.595,2.751-0.349,6.21,3.208,7.002l3.36,0.745c3.282,0.717,5.296,4.249,4.5,7.883l-0.603,2.742
						c-0.301,1.38-3.88,5.905-0.19,6.709c3.282,0.718,5.298,4.248,4.502,7.883l-0.602,2.741c-0.793,3.635-4.1,5.999-7.381,5.28
						l-21.214-4.603c-15.074-2.565-11.002-14.938-11.002-14.938c0.426-1.959-0.821-4.316-2.867-4.77l-7.813-1.738
						c-15.073-2.565-11.002-14.939-11.002-14.939c0.009-0.039,2.005-3.106,0.535-3.434
						C262.012,517.567,266.083,505.193,266.083,505.193z"/>
					<path style="fill:#FFC08D;" d="M294.59,484.793c-0.616-0.543-1.319-0.978-2.08-1.285l-19.25-7.749
						c-22.665-9.126,16.468,23.133,14.324,20.225l6.811,13.969l28.761,5.581L294.59,484.793z"/>
					<path style="fill:#FFCB99;" d="M175.99,472.043c-1.792-0.997-3.947-1.123-5.842-0.346l-21.204,8.683
						c-0.839,0.343-1.614,0.828-2.29,1.432l-31.342,34.13l31.722-6.35l7.428-15.469C156.591,491.202,189.665,479.653,175.99,472.043
						C174.198,471.047,178.499,473.439,175.99,472.043z"/>
				</g>
				<g>
					<g>
						<path style="fill:#D44700;" d="M124.902,279.435c14.069-14.933-12.083-32.989,7.987-49.511
							c17.351-11.954-4.511-28.171,2.678-38.985c-2.483,3.735-1.961,12.692-2.11,17.117c0,0,5.675,12.922-2.87,19.6
							c0,0.016,0,0.029-0.012,0.04c-17.136,14.07-4.587,23.327-4.773,39.664c-0.112,9.899-12.828,25.601,1.649,32.36
							C122.562,294.361,119.552,285.098,124.902,279.435C131.017,272.944,119.552,285.098,124.902,279.435z"/>
						<path style="fill:#C43C00;" d="M313.849,198.343c-25.843,10.595,8.027,33.85,1.435,48.858
							c7.366-11.448-7.136-23.112-7.177-34.828C308.077,203.857,316.184,203.407,313.849,198.343z"/>
						<path style="fill:#C43C00;" d="M290.164,292.556c-5.306,18.64,16.557,34.311,11.645,47.956
							c6.035-16.906-14.551-27.614-4.526-47.956C294.911,292.556,292.537,292.556,290.164,292.556z"/>
						<path style="fill:#D44700;" d="M165.032,314.576c-5.352,18.69,16.556,34.264,11.647,47.957
							c6.003-16.927-14.557-27.6-4.538-47.957C169.771,314.576,167.402,314.576,165.032,314.576z"/>
						<path style="fill:#D44700;" d="M160.317,299.705c-8.676,17.381,9.973,36.729,2.635,49.283
							c9.021-15.535-9.236-29.808,4.356-47.97C164.977,300.58,162.647,300.142,160.317,299.705z"/>
						<path style="fill:#D44700;" d="M134.628,222.705c-6.97,18.124-33.843,17.424-38.15,31.305
							c5.293-16.814,28.495-13.904,32.473-35.582C130.843,219.853,132.736,221.279,134.628,222.705z"/>
						<path style="fill:#C43C00;" d="M281.037,344.1c-3.859-14.607,6.039-31.687-1.466-45.531
							c-3.638-9.698-12.762-10.827-13.099-22.686c1.153-6.214-15.454-11.04-14.415-15.504c-0.509,2.324,11.272,21.517,12.953,24.365
							c-0.015,0-0.015,0-0.03-0.006l0.03,0.011c4.809,8.347,13.733,13.368,13.733,24.018c-0.865,20.3-2.667,35.835,9.887,52.353
							C284.991,355.941,282.46,350.268,281.037,344.1C277.35,330.143,282.634,350.125,281.037,344.1z"/>
						<g>
							<path style="fill:#D44700;" d="M115.934,157.54c-3.552,31.644,18.718,84.676,18.718,84.676s42.788,2.37,85.466,3.079V118.091
								C181.439,120.503,118.625,133.719,115.934,157.54C112.382,189.184,118.625,133.719,115.934,157.54z"/>
							<path style="fill:#C43C00;" d="M247.414,119.213c-4.521-1.54-14.617-1.913-27.296-1.122v127.203
								c19.685,0.324,64.116,7.733,81.623-4.059c15.531-10.462,19.193-43.967,20.623-60.646
								C326.151,136.445,281.165,130.749,247.414,119.213C242.893,117.674,265.675,125.454,247.414,119.213z"/>
						</g>
						<path style="fill:#FFB680;" d="M299.399,236.781l8.512-5.795c13.173-8.984,11.607,25.013,10.262,29.347l-1.993,6.426
							c-0.972,8.542-1.932,12.016-6.445,16.015l-1.285,0.576c-1.794,0.812-3.894,0.518-5.419-0.74l-6.204-5.202L299.399,236.781z"/>
						<path style="fill:#FFC08D;" d="M140.568,236.781l-8.509-5.795c-13.144-9.041-11.593,25.052-10.264,29.347l1.988,6.426
							c0.98,8.542,1.939,12.016,6.452,16.015l1.272,0.576c1.812,0.812,3.921,0.518,5.431-0.74l6.209-5.202L140.568,236.781z"/>
						<path style="fill:#E25314;" d="M158.254,352.009c-10.217-12.499,11.053-26.675-3.621-40.609
							c-13.528-10.664,5.239-22.677,0.08-31.764c1.798,3.167,0.864,10.411,0.726,14.004c0,0-5.345,10.15,1.186,16.057
							c0.005,0.021,0.005,0.029,0.012,0.036c7.937,7.515,8.295,54.702-1.63,58.576C159.292,364.246,162.259,356.911,158.254,352.009
							C153.665,346.395,162.259,356.911,158.254,352.009z"/>
						<path style="fill:#D44700;" d="M299.699,329.213c-13.351,1.362-12.361-19.273-28.74-15.46
							c-12.6,4.081-12.62-10.798-20.94-13.969c3.18,1.212,6.606,3.66,9.41,5.607c0,0,4.437,8.051,11.257,6.28
							c0.015,0,0.021,0,0.037,0c7.151-1.675,40.807,15.899,38.451,26.887C308.344,333.899,304.737,328.694,299.699,329.213
							C293.919,329.803,304.737,328.694,299.699,329.213z"/>
						<g>
							<path style="fill:#FFCB99;" d="M220.937,97.707l12.252,140.778l9.314,60.443c-8.284,25.731-10.191,83.283-47.271,61.073
								c-36.677-21.969-57.482-68.414-59.942-108.27c-1.562-25.311-2.42-50.68-3.463-76.017c-0.389-9.435-4.619-27.937,0.219-35.234
								c6.114-9.221,37.329-17.962,47.03-22.63C193.029,111.136,206.983,104.421,220.937,97.707z"/>
							<path style="fill:#FFC08D;" d="M219.784,97.707c0.097,47.183,0.193,94.366,0.29,141.55
								c0.063,30.936,0.127,61.872,0.19,92.808c0.039,18.88-6.833,31.841,10.957,33.09c20.744,1.456,53.406-43.87,62.316-60.11
								c18.354-33.451,12.317-81.527,14.232-118.713c1.473-28.605,11.004-40.998-14.332-53.188
								C268.887,121.331,244.335,109.519,219.784,97.707z"/>
							<path style="fill:#FFC08D;" d="M204.316,292.556c-1.024,2.117-0.386,3.432,1.914,3.945h16.141v-10.399
								C216.376,286.374,208.387,287.378,204.316,292.556C203.738,293.293,206.38,289.93,204.316,292.556z"/>
						</g>
						<path style="fill:#C43C00;" d="M306.683,117.875c-14.16-17.672-39.029-29.945-60.45-35.623
							c7.589-2.226,9.063-5.208,8.695-7.71c46.406-25.472-6.693-56.84-34.701-57.779c-0.025,0-0.083-0.008-0.109-0.008l-14.2,10.511
							c-0.022,0-0.05-0.006-0.065-0.006l1.185,12.354l0.789,87.248l12.229,14.137c27.808,2.727,82.645,38.905,86.288,69.242
							C337.546,165.672,320.363,134.958,306.683,117.875C292.523,100.203,320.363,134.958,306.683,117.875z"/>
						<path style="fill:#D44700;" d="M220.118,16.755c-14.175-0.568-31.82-3.604-44.871,3.534
							c-20.755,11.352-16.212,38.436,2.487,50.83c-1.067,3.747,0.487,6.706,4.663,8.878c-54.849,10.962-88.938,83.474-49.524,127.9
							c14.799-41.484,38.182-71.735,87.181-66.898V85.725c0.017-0.007,0.041,0,0.063-0.007V16.755z"/>
						<g>
							<g>
								<g>
									<path style="fill:#D44700;" d="M196.745,194.264c-11.018-15.738-59.326-3.105-56.193,1.714
										C137.991,192.216,194.107,190.585,196.745,194.264C194.24,190.685,197.272,194.999,196.745,194.264z"/>
								</g>
							</g>
							<g>
								<g>
									<path style="fill:#C43C00;" d="M241.076,194.264c11.009-15.741,59.331-3.116,56.195,1.714
										C299.149,193.537,244.267,189.881,241.076,194.264C243.579,190.685,240.541,194.999,241.076,194.264z"/>
								</g>
							</g>
						</g>
						<path style="fill:#D44700;" d="M302.464,213.642c-3.221-20.017-33.514-10.785-34.38-36.521
							c0.602-11.386-35.349-34.489-35.825-33.185c-0.534,1.462,5.011,6.553,5.94,7.56c0,0,26.46,11.804,26.697,26.066
							c0,0.007,0.015,0.022,0.015,0.036c0.673,21.32,15.756,18.315,28.319,28.224c7.577,5.976,12.871,25.323,26.872,18.166
							C312.867,224.598,303.694,221.324,302.464,213.642C301.047,204.837,303.694,221.324,302.464,213.642z"/>
						<path style="fill:#E25314;" d="M107.37,227.724c9.965-11.34,29.69-12.664,36.974-26.616
							c7.834-10.998,12.061-38.828,26.945-44.13c-14.849,5.433-13.75,3.936-23.605,24.335c0-0.005,0-0.013,0-0.018l-0.012,0.018
							c-4.35,9.131-3.281,18.118-12.259,24.8c-17.105,10.46-30.911,17.497-37.936,37.405
							C99.746,237.609,103.044,232.345,107.37,227.724C116.902,216.876,103.259,232.411,107.37,227.724z"/>
						<path style="fill:#D44700;" d="M308.04,259.258c-3.852-14.546,6.113-31.79-1.481-45.53
							c-3.593-9.721-12.763-10.811-13.096-22.686c1.122-6.108-15.495-11.191-14.415-15.503
							c-0.514,2.101,11.348,21.639,12.948,24.373l-0.015-0.01l0.015,0.014c4.862,8.315,13.735,13.37,13.735,24.009
							c-0.857,20.329-2.64,35.8,9.893,52.346C311.985,271.096,309.457,265.424,308.04,259.258
							C304.342,245.295,309.632,265.283,308.04,259.258z"/>
						<path style="fill:#E25314;" d="M213.078,135.929C171.323,114.395,146.845,155.827,137,187.9
							c5.707-5.317,3.938-17.35,7.977-23.964c3.466-5.677,15.755-18.769,21.122-22.343c10.327-6.876,20.556-6.115,32.235-5.525
							C205.713,136.44,215.657,144.522,213.078,135.929z"/>
						<path style="fill:#D44700;" d="M222.371,136.255c18.852-8.37,27.374,1.539,40.39,11.691
							c2.043,1.593,33.265,20.72,27.667,26.062c1.77-1.631-33.18-27.901-35.183-29.072
							C243.588,138.122,236.417,137.3,222.371,136.255z"/>
						<g>
							<path style="fill:#D44700;" d="M281.84,170.574c-18.096-15.613-38.084-31.963-62.056-37.058l-2.596,3.39l-0.875,6.414
								l3.471,3.197c28.058,3.135,91.525,42.791,86.604,76.557C315.331,202.53,300.939,187.077,281.84,170.574
								C273.064,163.003,300.939,187.077,281.84,170.574z"/>
							<path style="fill:#E25314;" d="M145.257,168.251c-6.252,10.198-19.546,48.643-11.217,58.302
								c0.523-42.386,39.843-86.223,85.744-80.036v-13.001C195.971,128.419,157.788,147.89,145.257,168.251
								C139.004,178.449,151.162,158.656,145.257,168.251z"/>
						</g>
						<path style="fill:#E25314;" d="M171.618,150.946c-0.895,0-1.656-0.185-2.507-0.248c-1.509,2.987-3.164,6.578-4.079,9.485
							c-0.008-0.016,0-0.022-0.008-0.028l0.008,0.028c-2.992,9.474-0.365,18.747-8.582,26.296
							c-15.366,12.799-28.175,21.753-32.157,42.481c4.75-25.467,32.979-27.382,40.266-48.713
							c5.187-9.843-1.058-17.759,11.623-23.337c-1.962,1.234-1.705-8.141-1.703-6.241
							C173.504,150.738,172.632,150.946,171.618,150.946z"/>
						<g>
							<path style="fill:none;" d="M191.575,218.623l-43.694,0.075c-6.961,1.027-9.9,5.016-8.817,11.966l7.708,22.393
								c2.714,8.779,10.715,14.665,19.905,14.665h24.551c4.038,0,7.651-2.558,8.984-6.37l8.708-22.403
								C212.719,228.092,201.824,218.623,191.575,218.623z"/>
							<path style="fill:none;" d="M291.695,218.698l-43.698-0.075c-10.223,0-21.171,9.478-17.336,20.327l8.694,22.403
								c1.332,3.812,4.955,6.37,8.986,6.37h24.552c9.187,0,17.188-5.886,19.906-14.665l7.702-22.393
								C301.594,223.713,298.659,219.724,291.695,218.698z"/>
							<path style="fill:#EF2200;" d="M218.682,228.516c-2,0-3.908-0.797-5.326-2.218l-2.219-2.239
								c-4.451-6.373-11.757-10.179-19.519-10.179l-43.749,0.069c-3.746,0.007-7.34,1.553-9.936,4.187l0.005-0.02l-0.832,0.63
								c-1.122,0.868-2.507,1.325-3.923,1.311l-1.292-0.021c-0.968,0.085-1.499,0.611-1.594,1.58v4.668
								c0,0.929,0.749,1.684,1.681,1.684h0.205c0.706,0,1.316,0.47,1.513,1.144l0.651,2.254v-0.029
								c0.062,0.245,0.107,0.494,0.179,0.736l7.71,20.938c3.341,10.774,13.157,18.006,24.441,18.006h24.551
								c6.054,0,11.462-3.828,13.467-9.547l8.298-19.884l0.423-0.749c1.288-2.321,3.72-3.772,6.368-3.839
								c0.09,0,0.173,0.032,0.271,0.04l7.098-4.159l-7.098-4.362H218.682z M208.92,238.95l-8.708,22.403
								c-1.333,3.812-4.946,6.37-8.984,6.37h-24.551c-9.19,0-17.191-5.886-19.905-14.665l-7.708-22.393
								c-1.083-6.95,1.856-10.939,8.817-11.966l43.694-0.075C201.824,218.623,212.719,228.092,208.92,238.95z"/>
							<path style="fill:#D31E00;" d="M308.801,220.493c-0.307-0.297-0.707-0.457-1.123-0.457l-1.29,0.021
								c-1.42,0.014-2.808-0.443-3.938-1.311l-0.835-0.637l0.017,0.022c-2.607-2.635-6.18-4.176-9.924-4.182l-43.747-0.069
								c-7.778,0-15.081,3.806-19.531,10.179l-2.221,2.239c-1.396,1.421-3.327,2.218-5.326,2.218h-0.829v8.52
								c2.536,0.16,4.852,1.553,6.098,3.799l0.411,0.749l8.312,19.884c1.999,5.72,7.413,9.547,13.464,9.547h24.552
								c11.28,0,21.098-7.232,24.436-18.006l7.71-20.938c0.072-0.238,0.115-0.487,0.165-0.722l0.014,0.022l0.641-2.254
								c0.193-0.68,0.817-1.15,1.525-1.15h0.194c0.946,0,1.693-0.755,1.693-1.684v-4.668
								C309.272,221.193,309.092,220.793,308.801,220.493C308.494,220.196,309.092,220.793,308.801,220.493z M300.502,230.664
								l-7.702,22.393c-2.719,8.779-10.719,14.665-19.906,14.665h-24.552c-4.031,0-7.654-2.558-8.986-6.37l-8.694-22.403
								c-3.836-10.849,7.112-20.327,17.336-20.327l43.698,0.075C298.659,219.724,301.594,223.713,300.502,230.664z"/>
						</g>
						<g>
							<g>
								<path style="fill:#D65037;" d="M248.713,310.199c0,0.23-15.262,1.305-20.097-0.033c-3.432-0.721-35.388,2.859-35.388,0.033
									c8.563,13.273,7.869,29.086,27.42,29.22C241.047,339.559,239.866,323.241,248.713,310.199
									C248.713,310.429,247.554,311.907,248.713,310.199z"/>
							</g>
							<path style="fill:#FFFFFF;" d="M197.248,313.336c4.88,14.917,43.893,9.022,49.009-2.32
								C233.268,313.27,204.431,310.713,197.248,313.336z"/>
							<g>
								<path style="fill:#F49267;" d="M193.228,310.199c8.563,13.273,7.869,29.086,27.42,29.22
									c20.399,0.14,19.217-16.179,28.064-29.22c-9.327,11.942-10.476,21.429-28.476,21.058
									C201.708,330.875,203.547,321.486,193.228,310.199C194.249,311.781,203.334,321.253,193.228,310.199z"/>
								<path style="fill:#EA805C;" d="M228.616,310.166c-3.432-0.721-35.388,2.859-35.388,0.033
									c2.246,1.098,4.532,2.126,6.868,3.097c13.099,5.538,28.663,5.538,41.748,0c2.332-0.971,4.62-1.999,6.869-3.097
									C248.713,310.429,233.45,311.504,228.616,310.166C226.382,309.696,233.45,311.504,228.616,310.166z"/>
							</g>
						</g>
						<g>
							<g>
								<defs>
									<path id="SVGID_3_" d="M149.8,228.154c0,0,6.874,28.782,46.934,11.37C196.733,239.524,181.748,214.916,149.8,228.154z"/>
								</defs>
								<clipPath id="SVGID_4_">
									<use xlink:href="#SVGID_3_"  style="overflow:visible;"/>
								</clipPath>
								<path style="clip-path:url(#SVGID_4_);fill:#F9F9F9;" d="M149.8,228.154c0,0,6.874,28.782,46.934,11.37
									C196.733,239.524,181.748,214.916,149.8,228.154z"/>
								<g style="clip-path:url(#SVGID_4_);">
									<g>
										<path style="fill:#282828;" d="M165.199,232.863c0.465,13.472,21.316,12.748,20.841-0.734
											C185.564,218.651,164.728,219.38,165.199,232.863C165.397,238.621,164.998,227.109,165.199,232.863z"/>
										<path style="fill:#F9F9F9;" d="M169.73,230.47c2.232,4.091,4.318,4.017,6.257-0.224
											C173.761,226.147,171.675,226.222,169.73,230.47C169.802,232.193,169.675,228.735,169.73,230.47z"/>
									</g>
								</g>
							</g>
							<g>
								<defs>
									<path id="SVGID_5_" d="M289.789,228.154c0,0-6.884,28.782-46.944,11.37C242.845,239.524,257.836,214.916,289.789,228.154z"
										/>
								</defs>
								<clipPath id="SVGID_6_">
									<use xlink:href="#SVGID_5_"  style="overflow:visible;"/>
								</clipPath>
								<path style="clip-path:url(#SVGID_6_);fill:#F9F9F9;" d="M289.789,228.154c0,0-6.884,28.782-46.944,11.37
									C242.845,239.524,257.836,214.916,289.789,228.154z"/>
								<g style="clip-path:url(#SVGID_6_);">
									<path style="fill:#282828;" d="M259.657,232.129c-0.478,13.479,20.378,14.207,20.848,0.727
										C280.974,219.374,260.147,218.655,259.657,232.129C259.453,237.89,259.866,226.378,259.657,232.129z"/>
									<path style="fill:#F9F9F9;" d="M264.355,230.052c1.93,4.242,4.016,4.316,6.257,0.222
										C268.667,226.028,266.581,225.954,264.355,230.052C264.285,231.774,264.411,228.329,264.355,230.052z"/>
								</g>
							</g>
							<path style="fill:#282828;" d="M148.708,228.82c11.664-13.94,45.804,13.271,48.505,11.004
								c1.282-0.977-10.942-12.014-11.288-12.202C173.16,220.654,161.651,220.519,148.708,228.82
								C148.684,228.849,178.255,209.868,148.708,228.82z"/>
							<path style="fill:#282828;" d="M290.858,228.816c-12.892-8.271-24.167-7.908-37.199-1.197
								c-1.035,0.533-12.508,11.304-11.277,12.205c-5.39-4.776,49.374-21.73,48.503-10.885
								C290.904,228.899,290.896,228.842,290.858,228.816C261.324,209.868,290.896,228.842,290.858,228.816z"/>
						</g>
					</g>
				</g>
			</g>
		</g>
	</g>
</g>
<g id="Layer_1">
</g>
</svg>
