<?xml version="1.0" encoding="iso-8859-1"?>
<!-- Generator: Adobe Illustrator 19.2.0, SVG Export Plug-In . SVG Version: 6.00 Build 0)  -->
<svg version="1.1" xmlns="http://www.w3.org/2000/svg" xmlns:xlink="http://www.w3.org/1999/xlink" x="0px" y="0px"
	 viewBox="0 0 347.407 736.791" style="enable-background:new 0 0 347.407 736.791;" xml:space="preserve">
<g id="FemaleReporter">
	<g>
		<polygon style="fill-rule:evenodd;clip-rule:evenodd;fill:#F7F3D4;" points="42.085,647.375 41.909,656.2 42.438,662.201 
			45.263,655.67 46.498,647.551 49.499,634.666 52.146,624.076 51.793,616.133 48.616,602.013 8.964,606.708 5.783,626.146 
			7.196,640.989 9.67,650.884 13.844,652.847 14.551,656.377 18.963,658.848 21.434,662.907 28.141,668.555 33.613,671.38 
			36.613,670.674 42.085,674.733 45.263,675.263 45.439,670.85 42.438,664.495 41.379,656.377 41.379,648.257 41.732,637.49 
			45.263,624.782 42.438,637.667 		"/>
		<path style="fill-rule:evenodd;clip-rule:evenodd;fill:#333333;" d="M161.17,634.207l6.97,110h80.601
			c9.713-73.442,36.295-145.935,7.684-218.391l-114.617,7.744l-82.661,1.549c-8.508,67.241,3.729,141.623,8.377,209.872h77.395
			L161.17,634.207z"/>
		<path style="fill-rule:evenodd;clip-rule:evenodd;fill:#FFFEE6;" d="M122.213,274.019c15.864,18.702,22.325,88.151,47.094,93.894
			c25.487,5.909,34.737-38.945,34.434-53.733c-0.322-15.667-18.914-66.32-10.403-79.24v-38.263h-51.16v37.374
			C143.395,235.985,120.817,272.374,122.213,274.019C128.261,281.15,120.817,272.374,122.213,274.019z"/>
		<path style="fill-rule:evenodd;clip-rule:evenodd;fill:#F7F3D4;" d="M193.339,196.676h-25.802v163.605
			c0.023,16.171-2.991,57.847,20.096,40.282c12.755-9.704,23.899-40.028,28.97-54.852c5.367-15.692,2.408-21.063-3.765-38.906
			c-4.453-12.872-28.244-58.593-19.499-71.869V196.676z"/>
		<path style="fill-rule:evenodd;clip-rule:evenodd;fill:#61C2C2;" d="M71.974,345.381l-3.629-17.246l-40.824-25.458L9.379,462.818
			C2.666,512.05,3.7,561.585,2.016,611.124l54.431-4.928c-6.351-32.288-6.245-50.549,1.5-82.737l5.493-28.233
			c-4.66-27.841-0.489-41.311,8.535-68.542V345.381z"/>
		<path style="fill-rule:evenodd;clip-rule:evenodd;fill:#4CA6A6;" d="M71.974,426.684v-81.302l-3.629-17.245l-40.823-25.459
			l-0.531,4.686l23.432,15.713c31.378,21.048,22.241,71.556,21.144,104.833L71.974,426.684z"/>
		<path style="fill-rule:evenodd;clip-rule:evenodd;fill:#4CA6A6;" d="M47.611,570.116c0.699,0.19,1.399,0.376,2.102,0.559
			c-0.302-3.31-0.295-6.337,0.05-9.725L47.611,570.116z"/>
		<path style="fill-rule:evenodd;clip-rule:evenodd;fill:#4CA6A6;" d="M3.184,555.032c-0.344,17.87-0.517,35.75-1.086,53.609
			l53.867-4.876c-3.169-15.907-8.301-32.089-5.398-48.422L3.184,555.032z"/>
		<path style="fill-rule:evenodd;clip-rule:evenodd;fill:#62CCCC;" d="M1.134,559.266C0.822,577.172,0.608,595.084,0,612.975
			l58.462-5.292c-3.018-15.345-5.231-32.184-3.663-48.064L1.134,559.266z"/>
		<path style="fill-rule:evenodd;clip-rule:evenodd;fill:#FF99CC;" d="M167.518,263.582c-9.011,0-17.239-3.361-23.502-8.893v73.568
			h46.297v-72.96C184.144,260.466,176.195,263.582,167.518,263.582z"/>
		<path style="fill-rule:evenodd;clip-rule:evenodd;fill:#DE71A8;" d="M190.314,255.296c-13.18,11.044-33.385,10.8-46.297-0.607
			v14.194c14.251,8.04,32.183,7.885,46.297-0.407V255.296z"/>
		<path style="fill-rule:evenodd;clip-rule:evenodd;fill:#FC6E3A;" d="M155.402,526.993c7.982,24.478,12.266,47.278,40.143,53.702
			c25.465,5.868,53.862-6.692,78.383-12.16c-7.092-47.191-31.584-97.2-27.436-144.693c4.322-49.486,24.718-84.281,64.688-113.699
			l-6.133-21.366c-10.078-35.11-7.359-36.452-42.281-48.342l-51.486-17.53l-27.092,95.547l-23.705,67.298l16.933,45.697
			l-10.159,63.144L155.402,526.993z"/>
		<path style="fill-rule:evenodd;clip-rule:evenodd;fill:#BD491E;" d="M188.288,494.436l2.305-37.444
			c0.292-4.73-3.676-8.857-8.817-9.175l-6.926-0.426l-7.594,47.199l-2.57,7.025l13.728,0.844
			C183.553,502.776,187.997,499.166,188.288,494.436z"/>
		<path style="fill-rule:evenodd;clip-rule:evenodd;fill:#CF5629;" d="M155.402,526.993c2.797,8.579,5.077,15.93,7.306,22.193
			c23.736-38.181,31.475-83.574,37.168-127.381l-24.344-78.784l-15.05,42.727l16.933,45.697l-10.159,63.144L155.402,526.993z"/>
		<path style="fill-rule:evenodd;clip-rule:evenodd;fill:#AD411A;" d="M184.239,500.82c1.685-5.24,3.177-10.43,4.516-15.609
			l1.763-28.657c0.293-4.766-3.704-8.924-8.883-9.243l-6.707-0.413l-7.673,47.692l-2.539,6.941l13.53,0.834
			C180.464,502.5,182.552,501.912,184.239,500.82C185.924,495.58,182.552,501.912,184.239,500.82z"/>
		<path style="fill-rule:evenodd;clip-rule:evenodd;fill:#FC6E3A;" d="M56.435,528.636l-8.824,37.592
			c35.46,9.629,80.27,23.429,105.85-10.325c27.991-36.936,35.33-88.899,41.113-133.391l-36.287-117.437l-14.996-59.841
			l-44.878-12.428c-29.917,5.416-51.478,5.119-68.408,32.269l-17.775,28.503l38.193,25.611
			c29.823,20.005,21.765,61.244,21.366,92.943C71.293,451.493,65.422,490.349,56.435,528.636z"/>
		<path style="fill-rule:evenodd;clip-rule:evenodd;fill:#BD491E;" d="M178.246,502.364c0.139,0.008,0.278,0.013,0.415,0.015
			c5.18-15.926,8.758-32.294,11.473-48.803c-1.112-3.408-4.443-6.015-8.5-6.266l-28.956-1.783c-5.179-0.319-9.657,3.318-9.95,8.085
			l-2.321,37.725c-0.293,4.766,3.704,8.924,8.883,9.243L178.246,502.364z"/>
		<path style="fill-rule:evenodd;clip-rule:evenodd;fill:#FF9670;" d="M194.604,422.568l-0.012-0.041l-26.756-86.005l-27.402-84.492
			l-2.105-6.083l-40.823-8.212l-6.35,24.637l22.679,6.57l-29.937,1.643C115.927,326.452,152.897,372.218,194.604,422.568z"/>
		<path style="fill-rule:evenodd;clip-rule:evenodd;fill:#FD7D4E;" d="M122.237,535.343l12.464-64.378l-65.606-12.842
			c-2.746,23.689-7.213,47.307-12.66,70.513l-5.229,22.275C76.475,554.979,115.26,571.377,122.237,535.343z"/>
		<polygon style="fill-rule:evenodd;clip-rule:evenodd;fill:#61C2C2;" points="251.691,235.27 194.539,204.063 193.318,214.955 
			193.306,234.937 167.574,307.257 166.905,324.235 172.954,352.312 209.054,249.231 		"/>
		<polygon style="fill-rule:evenodd;clip-rule:evenodd;fill:#62CCCC;" points="175.619,321.572 169.141,302.854 167.574,307.256 
			166.922,323.83 174.633,347.518 176.357,342.596 		"/>
		<polygon style="fill-rule:evenodd;clip-rule:evenodd;fill:#61C2C2;" points="160.023,312.551 172.959,352.285 173.749,350 
			172.796,322.808 142.2,234.41 142.191,214.737 139.937,204.063 82.785,235.27 140.425,252.055 		"/>
		<path style="fill-rule:evenodd;clip-rule:evenodd;fill:#191919;" d="M259.883,209.974l0.553-120.088
			c0.228-49.199-41.016-89.653-91.653-89.886h-0.001c-50.635-0.233-92.25,39.833-92.476,89.037l-0.553,120.088
			C137.082,219.858,198.454,220.922,259.883,209.974z"/>
		<path style="fill-rule:evenodd;clip-rule:evenodd;fill:#F2F1D9;" d="M193.372,220.154v-19.64H142.21v19.658
			c7.005,3.801,15.143,6.029,24.562,6.029h1.765C178.143,226.201,186.357,223.97,193.372,220.154z"/>
		<path style="fill-rule:evenodd;clip-rule:evenodd;fill:#E8E4C7;" d="M193.372,200.514h-25.801v25.688h0.966
			c9.606,0,17.821-2.231,24.835-6.048V200.514z"/>
		<path style="fill-rule:evenodd;clip-rule:evenodd;fill:#FFFFEC;" d="M166.573,218.17l1.765,0.008
			c51.52,0.237,63.329-62.691,66.386-102.664c3.474-45.423-18.064-67.825-64.937-68.195c-44.344-0.349-70.354,17.876-68.781,62.838
			C102.436,151.035,113.712,217.926,166.573,218.17z"/>
		<path style="fill-rule:evenodd;clip-rule:evenodd;fill:#F7F3D4;" d="M230.219,146.991c9.077-55.097,5.642-99.911-62.059-99.665
			l-0.788,170.846l0.967,0.005C209.146,218.366,225.076,178.206,230.219,146.991C238.64,95.873,225.076,178.206,230.219,146.991z"/>
		<path style="fill-rule:evenodd;clip-rule:evenodd;fill:#F7F3D4;" d="M240.506,128.796c2.829-23.593-9.715-41.349-16.582-9.81
			C218.878,142.164,236.53,161.926,240.506,128.796C242.444,112.631,238.269,147.433,240.506,128.796z"/>
		<path style="fill-rule:evenodd;clip-rule:evenodd;fill:#FFFFEC;" d="M110.127,144.247c4.23-9.743,4.494-53.039-13.487-41.927
			C84.651,109.729,103.679,159.098,110.127,144.247C117.587,127.067,106.381,152.876,110.127,144.247z"/>
		<path style="fill-rule:evenodd;clip-rule:evenodd;fill:#191919;" d="M183.728,25.188c-63.177-8.234-96.233,23.702-98.534,80.861
			l92.701-2.513c-13.146-3.633-24.23-16.106-31.341-30.027C163.964,48.639,173.55,28.037,183.728,25.188
			C120.551,16.954,173.55,28.037,183.728,25.188z"/>
		<path style="fill-rule:evenodd;clip-rule:evenodd;fill:#191919;" d="M247.504,103.118c4.712-60.511-69.065-79.996-115.231-50.766
			C152.278,94.754,203.108,114.526,247.504,103.118C250.167,68.91,239.063,105.287,247.504,103.118z"/>
		<path style="fill-rule:evenodd;clip-rule:evenodd;fill:#F7F3D4;" d="M240.639,104.831c-23.75-0.926-47.361-9.41-65.831-19.999
			c12.224,8.038,24.357,18.207,45.42,24.394l1.866,6.177C225.251,113.376,234.212,110.276,240.639,104.831
			C216.888,103.905,234.212,110.276,240.639,104.831z"/>
		<path style="fill-rule:evenodd;clip-rule:evenodd;fill:#F7F3D4;" d="M138.128,62.818c-1.237-1.41-2.395-2.852-3.464-4.333
			c10.626,18.434,20.955,33.07,36.637,48.317l8.106-2.006c-0.444-0.301,5.623-2.294,9.28-3.65
			C167.439,94.109,149.614,80.426,138.128,62.818C136.892,61.408,149.614,80.426,138.128,62.818z"/>
		<path style="fill-rule:evenodd;clip-rule:evenodd;fill:#141515;" d="M186.162,116.314c11.428-4.772,24.578-4.338,36.489-1.91
			c0.347-0.751,0.855-1.602,0.894-2.316c-13.995-2.913-30.447-3.172-43.157,4.38l-0.007,0.003l1.251,2.105l0.006-0.004
			C183.006,117.76,184.514,117.002,186.162,116.314C187.806,115.628,184.514,117.002,186.162,116.314z"/>
		<path style="fill-rule:evenodd;clip-rule:evenodd;fill:#F7F3D4;" d="M157.619,170.943l17.489,0.081l-5.804-78.121
			C166.899,118.922,163.838,144.938,157.619,170.943z"/>
		<polygon style="fill-rule:evenodd;clip-rule:evenodd;fill:#FFFFFF;" points="156.541,194.274 171.874,194.928 185.471,187.901 
			189.565,184.424 184.157,184.496 159.334,184.479 144.176,184.021 145.764,185.776 150.358,189.196 		"/>
		<path style="fill-rule:evenodd;clip-rule:evenodd;fill:#EA7D8E;" d="M154.653,195.693c16.505,10.858,25.3-3.243,36.562-11.542
			l0.001-0.223c-19.495,11.209-28.528,11.239-48.482-0.147c-0.122-0.064-0.246-0.021-0.368-0.083l-0.001,0.032
			C147.323,187.243,150.002,192.633,154.653,195.693C156.837,197.13,150.002,192.633,154.653,195.693z"/>
		<path style="fill-rule:evenodd;clip-rule:evenodd;fill:#FFFFFF;" d="M216.083,120.764c-4.126-3.44-17.796-6.925-28.819,1.308
			C194.027,139.287,214.978,131.279,216.083,120.764z"/>
		<path style="fill-rule:evenodd;clip-rule:evenodd;" d="M208.324,124.045c0.064-16.246-13.928-0.065-13.78-0.064
			C194.393,123.98,208.261,140.289,208.324,124.045C208.34,120.106,208.309,127.982,208.324,124.045z"/>
		<path style="fill-rule:evenodd;clip-rule:evenodd;fill:#FFFFFF;" d="M203.114,123.675c-1.152-2.411-2.314-2.416-3.487-0.016
			C200.779,126.07,201.941,126.075,203.114,123.675C203.118,122.678,203.109,124.671,203.114,123.675z"/>
		<path style="fill-rule:evenodd;clip-rule:evenodd;fill:#141515;" d="M186.805,121.252l0.778,0.944l0.007-0.005l0.005-0.005
			c6.941-5.854,22.466-7.531,29.021-0.354l0.905-0.825c-6.756-7.395-23.485-5.844-30.709,0.241v0L186.805,121.252z"/>
		<path style="fill-rule:evenodd;clip-rule:evenodd;fill:#141515;" d="M146.472,114.303c3.445,0.947,6.702,2.331,9.772,4.152
			l0.007,0.003l1.269-2.093l-0.006-0.003c-12.548-7.609-29.218-7.536-43.115-4.777c0.033,0.714,0.533,1.569,0.872,2.323
			C127.9,111.456,138.338,112.014,146.472,114.303C148.346,114.83,138.338,112.014,146.472,114.303z"/>
		<path style="fill-rule:evenodd;clip-rule:evenodd;fill:#FFFFFF;" d="M150.588,121.903c-10.947-8.334-24.649-4.976-28.807-1.573
			C122.791,130.854,143.665,139.054,150.588,121.903z"/>
		<path style="fill-rule:evenodd;clip-rule:evenodd;" d="M143.29,123.744c0.084-16.245-13.93-0.064-13.78-0.063
			C129.362,123.68,143.202,139.99,143.29,123.744C143.31,119.806,143.268,127.682,143.29,123.744z"/>
		<path style="fill-rule:evenodd;clip-rule:evenodd;fill:#FFFFFF;" d="M138.21,123.375c-1.15-2.411-2.312-2.416-3.487-0.016
			C135.874,125.77,137.036,125.776,138.21,123.375C138.215,122.379,138.205,124.372,138.21,123.375z"/>
		<path style="fill-rule:evenodd;clip-rule:evenodd;fill:#141515;" d="M141.468,117.833c3.277,0.664,6.206,2.058,8.788,4.18
			l0.005,0.005l0.006,0.005l0.786-0.937l-0.006-0.005h-0.001c-6.901-5.922-23.869-7.871-30.705-0.524l0.898,0.834
			C124.066,118.354,133.185,116.026,141.468,117.833C143.077,118.184,133.185,116.026,141.468,117.833z"/>
		<path style="fill-rule:evenodd;clip-rule:evenodd;fill:#F2FDFD;" d="M187.041,140.404c15.032,3.047,65.727-6.19,34.679-22.156
			c-5.562-2.86-34.514-3.483-39.834-0.236C171.736,124.207,171.97,137.346,187.041,140.404
			C194.981,142.013,181.741,139.328,187.041,140.404z"/>
		<path style="fill-rule:evenodd;clip-rule:evenodd;fill:#F2FDFD;" d="M117.806,140.722c10.404,2.302,35.472,4.549,42.287-6.521
			c9.466-15.375-3.58-16.171-16.486-17.122c-6.297-0.464-30.033-3.052-34.139,1.893C103.181,126.541,108.936,138.76,117.806,140.722
			C120.532,141.325,113.537,139.777,117.806,140.722z"/>
		<path style="fill-rule:evenodd;clip-rule:evenodd;fill:#FFFFFF;" d="M216.083,120.764c-1.399-1.167-3.898-2.338-7.019-3.056
			c-3.742-0.177-7.487-0.26-11.234-0.248c-3.536,0.658-7.176,2.079-10.566,4.612C194.027,139.287,214.978,131.279,216.083,120.764
			C214.684,119.597,214.978,131.279,216.083,120.764z"/>
		<path style="fill-rule:evenodd;clip-rule:evenodd;" d="M208.324,124.045c0.012-2.885-1.636-5.379-4.014-6.512
			c-1.861-0.051-3.723-0.08-5.59-0.077C184.486,123.773,208.265,140.088,208.324,124.045
			C208.336,121.159,208.31,127.982,208.324,124.045z"/>
		<path style="fill-rule:evenodd;clip-rule:evenodd;fill:#FFFFFF;" d="M203.114,123.675c-1.153-2.411-2.315-2.416-3.487-0.016
			C200.779,126.07,201.941,126.075,203.114,123.675C203.118,122.679,203.11,124.672,203.114,123.675z"/>
		<path style="fill-rule:evenodd;clip-rule:evenodd;fill:#141515;" d="M186.805,121.252l0.778,0.944l0.007-0.005l0.005-0.005
			c6.942-5.852,22.465-7.532,29.021-0.354l0.905-0.825c-1.098-1.202-3.074-2.314-5.564-3.157c-6.042-0.315-12.081-0.389-18.13-0.355
			c-2.571,0.783-4.909,2.034-7.015,3.753v0L186.805,121.252z"/>
		<path style="fill-rule:evenodd;clip-rule:evenodd;fill:#FFFFFF;" d="M150.416,121.902c-3.367-2.564-6.993-4.018-10.523-4.708
			c-3.747-0.046-7.492,0.002-11.235,0.144c-3.128,0.689-5.638,1.837-7.047,2.991C122.619,130.854,143.494,139.054,150.416,121.902
			C147.049,119.339,143.494,139.054,150.416,121.902z"/>
		<path style="fill-rule:evenodd;clip-rule:evenodd;" d="M143.118,123.744c0.016-2.93-1.68-5.455-4.115-6.564
			c-1.868-0.02-3.729-0.009-5.591,0.025C119.411,123.723,143.032,139.635,143.118,123.744
			C143.134,120.814,143.097,127.681,143.118,123.744z"/>
		<path style="fill-rule:evenodd;clip-rule:evenodd;fill:#FFFFFF;" d="M138.038,123.375c-1.149-2.411-2.311-2.416-3.486-0.016
			C135.702,125.769,136.864,125.775,138.038,123.375C138.044,122.379,138.034,124.371,138.038,123.375z"/>
		<path style="fill-rule:evenodd;clip-rule:evenodd;fill:#141515;" d="M141.297,117.832c3.276,0.665,6.206,2.058,8.789,4.18
			l0.005,0.005l0.006,0.005l0.785-0.936l-0.006-0.005v0c-2.09-1.738-4.417-3.01-6.98-3.818c-6.048-0.091-12.089-0.07-18.133,0.188
			c-2.496,0.82-4.483,1.914-5.592,3.106l0.898,0.834C123.894,118.353,133.014,116.025,141.297,117.832
			C142.907,118.183,133.014,116.025,141.297,117.832z"/>
		<g>
			<path style="fill-rule:evenodd;clip-rule:evenodd;fill:#A067AB;" d="M104.612,119.639c-7.52,13.822,7.92,23.659,19.53,24.425
				l0.041,0.003c14.29,0.932,42.638-0.102,40.618-20.735c2.046-0.29,4.147-0.271,6.189,0.039
				c-2.179,20.654,26.155,21.901,40.429,21.098l0.041-0.002c9.111-0.519,33.064-16.897,17.558-26.608l0.002-0.004
				c-2.779-1.745-7.312-1.714-10.457-1.9h-0.008c-10.979-0.645-35.583-4.663-44.627,2.491l-0.532,0.066
				c-3.676,0.469-7.35,0.452-11.021-0.051l-0.45-0.06c-8.94-7.257-33.651-3.455-44.614-2.914h-0.009
				c-3.147,0.158-7.678,0.085-10.474,1.803l0.003,0.004C105.832,117.907,105.116,118.711,104.612,119.639
				C104.145,120.497,105.116,118.711,104.612,119.639z M175.18,123.407c0.134-0.503,0.503-1.008,1.239-1.646l0.001,0.001
				l0.096-0.079v0v0c7.934-6.182,32.253-2.154,41.8-1.592v0c2.311,0.137,6.446-0.015,8.496,1.274h0.008
				c11.597,7.225-10.47,18.672-15.585,18.962l-0.041,0.002C201.172,140.889,170.615,140.682,175.18,123.407
				C175.314,122.904,175.028,123.982,175.18,123.407z M107.827,123.029c0.056-0.927,0.446-1.662,1.168-2.206h0.008
				c2.072-1.268,6.187-1.08,8.508-1.196v-0.001c9.555-0.474,33.902-4.275,41.783,1.977l0.096,0.081l0.001-0.001
				c14.857,13.078-30.003,18.572-34.945,18.248l-0.041-0.002C113.652,139.215,106.064,134.775,107.827,123.029
				C107.906,122.499,107.699,123.88,107.827,123.029z"/>
		</g>
		<path style="fill-rule:evenodd;clip-rule:evenodd;fill:#FF9265;" d="M240.345,239.057L197.279,252.3l-29.353,84.537l11.633,37.203
			l0.402-0.534c26.613-32.696,51.09-65.43,73.358-102.924l-29.903-1.642l22.815-6.57L240.345,239.057z"/>
		<polygon style="fill-rule:evenodd;clip-rule:evenodd;fill:#E2754D;" points="240.345,239.057 197.279,252.3 197.222,252.463 
			241.425,243.265 		"/>
		<path style="fill-rule:evenodd;clip-rule:evenodd;fill:#DE6539;" d="M183.622,368.992l-10.702-34.399l-2.04-6.264l-2.954,8.508
			l11.633,37.203l0.402-0.534C181.187,372.002,182.406,370.498,183.622,368.992z"/>
		<polygon style="fill-rule:evenodd;clip-rule:evenodd;fill:#CF5629;" points="231.382,269.378 248.352,264.492 241.847,238.654 
			240.373,239.104 246.231,262.371 223.416,268.941 		"/>
		<path style="fill-rule:evenodd;clip-rule:evenodd;fill:#CF5629;" d="M181.679,376.16l0.403-0.533
			c26.613-32.696,51.09-65.43,73.358-102.923l-3.278-0.18c-21.778,36.385-45.654,68.326-71.559,100.195L181.679,376.16z"/>
		<path style="fill-rule:evenodd;clip-rule:evenodd;fill:#CF5629;" d="M83.545,273.411
			c32.029,55.869,68.999,101.635,110.705,151.983l-0.012-0.04l-1.607-5.169c-40.224-48.598-76.006-93.118-107.163-146.88
			L83.545,273.411z"/>
		<polygon style="fill-rule:evenodd;clip-rule:evenodd;fill:#CF5629;" points="91.505,262.473 90.802,265.198 105.332,269.408 
			113.836,268.941 		"/>
		
			<rect x="81.748" y="479.468" transform="matrix(0.1728 -0.9849 0.9849 0.1728 -405.1992 478.4233)" style="fill-rule:evenodd;clip-rule:evenodd;fill:#FFB17D;" width="0.992" height="1.984"/>
		
			<rect x="84.678" y="479.983" transform="matrix(0.1727 -0.985 0.985 0.1727 -403.283 481.7958)" style="fill-rule:evenodd;clip-rule:evenodd;fill:#FFB17D;" width="0.992" height="1.983"/>
		
			<rect x="87.607" y="480.498" transform="matrix(0.1729 -0.9849 0.9849 0.1729 -401.3681 485.0191)" style="fill-rule:evenodd;clip-rule:evenodd;fill:#FFB17D;" width="0.991" height="1.983"/>
		
			<rect x="90.538" y="481.013" transform="matrix(0.1729 -0.9849 0.9849 0.1729 -399.4522 488.3189)" style="fill-rule:evenodd;clip-rule:evenodd;fill:#FFB17D;" width="0.991" height="1.983"/>
		
			<rect x="75.89" y="478.437" transform="matrix(0.1728 -0.985 0.985 0.1728 -409.0306 471.8085)" style="fill-rule:evenodd;clip-rule:evenodd;fill:#FFB17D;" width="0.991" height="1.983"/>
		
			<rect x="70.03" y="477.407" transform="matrix(0.173 -0.9849 0.9849 0.173 -412.8607 465.106)" style="fill-rule:evenodd;clip-rule:evenodd;fill:#FFB17D;" width="0.991" height="1.983"/>
		
			<rect x="67.101" y="476.893" transform="matrix(0.1728 -0.985 0.985 0.1728 -414.7794 461.8756)" style="fill-rule:evenodd;clip-rule:evenodd;fill:#FFB17D;" width="0.991" height="1.983"/>
		
			<rect x="72.96" y="477.922" transform="matrix(0.1728 -0.985 0.985 0.1728 -410.9464 468.4891)" style="fill-rule:evenodd;clip-rule:evenodd;fill:#FFB17D;" width="0.991" height="1.983"/>
		
			<rect x="78.819" y="478.953" transform="matrix(0.1732 -0.9849 0.9849 0.1732 -407.113 474.9208)" style="fill-rule:evenodd;clip-rule:evenodd;fill:#FFB17D;" width="0.992" height="1.983"/>
		
			<rect x="96.397" y="482.044" transform="matrix(0.1739 -0.9848 0.9848 0.1739 -395.6325 494.4689)" style="fill-rule:evenodd;clip-rule:evenodd;fill:#FFB17D;" width="0.991" height="1.984"/>
		
			<rect x="93.467" y="481.529" transform="matrix(0.1729 -0.9849 0.9849 0.1729 -397.5367 491.6422)" style="fill-rule:evenodd;clip-rule:evenodd;fill:#FFB17D;" width="0.991" height="1.983"/>
		
			<rect x="116.907" y="485.65" transform="matrix(0.1727 -0.985 0.985 0.1727 -382.2029 518.2256)" style="fill-rule:evenodd;clip-rule:evenodd;fill:#FFB17D;" width="0.991" height="1.983"/>
		
			<rect x="122.767" y="486.68" transform="matrix(0.1728 -0.985 0.985 0.1728 -378.3731 524.8043)" style="fill-rule:evenodd;clip-rule:evenodd;fill:#FFB17D;" width="0.991" height="1.983"/>
		
			<rect x="119.837" y="486.165" transform="matrix(0.1727 -0.985 0.985 0.1727 -380.2866 521.5328)" style="fill-rule:evenodd;clip-rule:evenodd;fill:#FFB17D;" width="0.991" height="1.983"/>
		
			<rect x="99.327" y="482.559" transform="matrix(0.173 -0.9849 0.9849 0.173 -393.7065 498.2092)" style="fill-rule:evenodd;clip-rule:evenodd;fill:#FFB17D;" width="0.991" height="1.983"/>
		
			<rect x="125.697" y="487.196" transform="matrix(0.1728 -0.985 0.985 0.1728 -376.4575 528.1074)" style="fill-rule:evenodd;clip-rule:evenodd;fill:#FFB17D;" width="0.991" height="1.983"/>
		
			<rect x="128.628" y="487.711" transform="matrix(0.1728 -0.985 0.985 0.1728 -374.5377 531.4609)" style="fill-rule:evenodd;clip-rule:evenodd;fill:#FFB17D;" width="0.991" height="1.983"/>
		
			<rect x="113.977" y="485.135" transform="matrix(0.1728 -0.985 0.985 0.1728 -384.1223 514.8638)" style="fill-rule:evenodd;clip-rule:evenodd;fill:#FFB17D;" width="0.992" height="1.983"/>
		
			<rect x="102.257" y="483.074" transform="matrix(0.1733 -0.9849 0.9849 0.1733 -391.7966 501.3533)" style="fill-rule:evenodd;clip-rule:evenodd;fill:#FFB17D;" width="0.991" height="1.983"/>
		
			<rect x="105.187" y="483.589" transform="matrix(0.1729 -0.9849 0.9849 0.1729 -389.8726 504.8904)" style="fill-rule:evenodd;clip-rule:evenodd;fill:#FFB17D;" width="0.991" height="1.983"/>
		
			<rect x="111.047" y="484.62" transform="matrix(0.173 -0.9849 0.9849 0.173 -386.0429 511.4661)" style="fill-rule:evenodd;clip-rule:evenodd;fill:#FFB17D;" width="0.991" height="1.983"/>
		
			<rect x="108.117" y="484.104" transform="matrix(0.173 -0.9849 0.9849 0.173 -387.9587 508.1535)" style="fill-rule:evenodd;clip-rule:evenodd;fill:#FFB17D;" width="0.991" height="1.983"/>
		<path style="fill-rule:evenodd;clip-rule:evenodd;fill:#CF5629;" d="M123.297,538.171l12.95-66.817l-1.548-0.303l-12.462,64.292
			c-6.853,35.394-44.244,20.168-69.371,15.844l-0.599,2.551C77.536,557.806,116.32,574.205,123.297,538.171z"/>
		<path style="fill-rule:evenodd;clip-rule:evenodd;fill:#CF5629;" d="M63.196,330.038c3.942,4.383,5.759,7.867,6.652,12.306
			c-1.194-32.627,7.508-58.187,11.262-87.28C75.138,280.055,65.633,302.219,63.196,330.038
			C67.138,334.42,65.633,302.219,63.196,330.038z"/>
		<path style="fill-rule:evenodd;clip-rule:evenodd;fill:#CF5629;" d="M263.202,360.24c3.168-5.399,6.797-10.663,10.674-15.562
			c3.855-24.575,1.501-46.593,2.671-70.06C272.055,303.173,273.173,329.771,263.202,360.24
			C263.431,359.849,273.173,329.771,263.202,360.24z"/>
		<path style="fill-rule:evenodd;clip-rule:evenodd;fill:#FFFFFF;" d="M175.982,499.597c5.141,0.317,9.584-3.294,9.876-8.023
			l2.305-37.444c0.29-4.73-3.677-8.858-8.817-9.175l-28.739-1.769c-5.142-0.316-9.585,3.294-9.877,8.024l-2.304,37.444
			c-0.291,4.73,3.676,8.858,8.817,9.175L175.982,499.597z"/>
		<path style="fill-rule:evenodd;clip-rule:evenodd;fill:#CCCCCC;" d="M168.258,450.473l0.457-4.482l0.006-0.075
			c0.088-0.526,0.175-1.061,0.263-1.6l-2.958-0.181c-0.068,0.968-0.138,1.863-0.201,2.64l-0.348,3.417
			C166.217,452.14,167.144,452.233,168.258,450.473z"/>
		
			<rect x="154.305" y="444.458" transform="matrix(0.0614 -0.9981 0.9981 0.0614 -313.8858 602.6459)" style="fill-rule:evenodd;clip-rule:evenodd;fill:#F00000;" width="18.369" height="47.522"/>
		<path style="fill-rule:evenodd;clip-rule:evenodd;" d="M171.291,454.924c3.459-1.472,3.562-3.15,0.31-5.033l-13.914-0.856
			c-3.459,1.471-3.562,3.148-0.31,5.032L171.291,454.924z"/>
		<path style="fill-rule:evenodd;clip-rule:evenodd;fill:#FFFFFF;" d="M146.526,465.332l34.151,2.101
			c1.924-0.818,1.982-1.751,0.172-2.799l-34.151-2.102C144.775,463.351,144.717,464.284,146.526,465.332z"/>
		<path style="fill-rule:evenodd;clip-rule:evenodd;fill:#FFFFFF;" d="M146.129,471.804l34.151,2.101
			c1.924-0.818,1.982-1.751,0.172-2.799l-34.151-2.102C144.377,469.822,144.319,470.755,146.129,471.804z"/>
		<path style="fill-rule:evenodd;clip-rule:evenodd;fill:#4C4C4C;" d="M145.524,481.622l34.151,2.101
			c0.961-0.409,0.99-0.875,0.086-1.399l-34.152-2.102C144.648,480.632,144.619,481.099,145.524,481.622z"/>
		<path style="fill-rule:evenodd;clip-rule:evenodd;fill:#4C4C4C;" d="M145.316,484.99l34.152,2.101
			c0.962-0.409,0.99-0.875,0.086-1.399l-34.152-2.102C144.441,483.999,144.412,484.465,145.316,484.99z"/>
		<path style="fill-rule:evenodd;clip-rule:evenodd;fill:#4C4C4C;" d="M144.906,491.663l34.152,2.102
			c0.962-0.41,0.99-0.876,0.086-1.4l-34.152-2.102C144.03,490.673,144.002,491.14,144.906,491.663z"/>
		<path style="fill-rule:evenodd;clip-rule:evenodd;fill:#4C4C4C;" d="M145.113,488.296l34.152,2.102
			c0.962-0.409,0.99-0.876,0.086-1.4l-34.152-2.101C144.238,487.306,144.209,487.772,145.113,488.296z"/>
		<path style="fill-rule:evenodd;clip-rule:evenodd;fill:#61C2C2;" d="M184.159,418.271l25.717,7.222
			c26.138,10.937,109.668,60.864,132.141,26.281c21.499-33.084-27.719-105.449-35.775-138.449
			c-18.556,13.871-35.93,31.766-46.17,52.749l7.751,11.222l5.592,19.893c-25.982-7.249-44.801-17.468-68.073-29.3L184.159,418.271z"
			/>
		<path style="fill-rule:evenodd;clip-rule:evenodd;fill:#44B3B3;" d="M250.954,411.143c1.219-7.665,2.459-14.215,3.868-20.026
			c-17.231-6.468-32.116-14.4-49.48-23.228l-21.183,50.383l25.717,7.222c11.646,4.872,24.32,10.812,37.625,16.502
			C247.581,433.335,248.939,424.071,250.954,411.143C252.173,403.477,248.939,424.071,250.954,411.143z"/>
		<path style="fill-rule:evenodd;clip-rule:evenodd;fill:#44B3B3;" d="M307.565,318.341c-0.48-1.698-0.923-3.373-1.324-5.016
			c-18.556,13.871-35.93,31.766-46.17,52.749l2.355,3.408C272.623,348.937,289.592,332.16,307.565,318.341
			C307.085,316.642,291.004,331.075,307.565,318.341z"/>
		<path style="fill-rule:evenodd;clip-rule:evenodd;fill:#99FFFF;" d="M252.966,390.411c-15.814-6.091-29.763-13.419-45.685-21.535
			l-21.016,49.986l23.612,6.631c8.173,3.42,16.854,7.365,25.904,11.381L252.966,390.411z"/>
		<path style="fill-rule:evenodd;clip-rule:evenodd;fill:#46B8B8;" d="M67.064,441.959C53.545,408,45.431,365.361,37.994,321.505
			c5.411,50.548,11.531,100.267,22.618,144.191l1.621-2.548C63.112,456.278,64.771,449.563,67.064,441.959
			C53.545,408,64.771,449.563,67.064,441.959z"/>
		<polygon style="fill-rule:evenodd;clip-rule:evenodd;fill:#E2754D;" points="140.437,252.059 97.071,239.418 95.99,243.624 
			140.474,252.221 		"/>
		<polygon style="fill-rule:evenodd;clip-rule:evenodd;fill:#F7F3D4;" points="167.553,171.192 165.127,182.422 167.822,185.297 
			170.427,182.512 		"/>
		<path style="fill-rule:evenodd;clip-rule:evenodd;fill:#EA7D8E;" d="M191.216,183.948l-20.761-1.474
			c-1.808,0.92-3.61,1.025-5.405-0.061l-22.687,1.273v0.047c18.788,7.629,28.847,7.823,48.853,0.433L191.216,183.948z"/>
		<path style="fill-rule:evenodd;clip-rule:evenodd;fill:#FFE300;" d="M162.092,416.252l-0.005-0.006
			c-21.896-60.629-49.472-109.563-56.716-174.898l-2.783,0.307c7.268,65.528,34.936,114.805,56.866,175.526l-0.003,0.002
			l0.003,0.007l0.005,0.005c1.474,4.085,2.661,8.387,3.469,12.686l0.002,0.013c0.769,4.089,0.732,11.825,0.641,16.056l-0.137,3.433
			c0.858,1.899,1.789,1.935,2.794,0.109l0.18-4.503l0.002-0.075c0.53-5.053,0.712-10.207,1.509-15.23l0.001,0.001l0.006-0.036
			v-0.006c4.135-25.412,16.38-49.166,23.853-73.661l0.006-0.006l0.002-0.008l-0.003-0.001l2.345-7.698
			c5.226-17.162,10.459-34.348,16.106-51.321l0.002,0.001l0.003-0.008l0.005-0.022c6.219-18.689,12.89-38.11,23.717-54.711
			l-2.345-1.523c-10.95,16.79-17.732,36.453-24.016,55.336l-0.002,0l-0.002,0.008l-0.006,0.022
			c-5.675,17.058-10.909,34.245-16.135,51.408l-2.348,7.705l-0.005,0.006l-0.002,0.008l0.003,0.001
			c-7.395,24.229-19.337,47.635-23.717,72.708l-0.024-0.112c-0.816-3.908-1.906-7.746-3.27-11.514l0.003-0.001L162.092,416.252z"/>
		<path style="fill-rule:evenodd;clip-rule:evenodd;fill:#999999;" d="M132.981,415.805c5.487,0.514,9.914-6.077,11.41-14.334
			l14.438-79.662c1.496-8.258-3.061-15.689-8.55-16.204l-16.158-1.513c-5.489-0.515-11.329,5.939-11.41,14.334l-0.778,80.941
			c-0.08,8.395,3.063,15.69,8.55,16.204L132.981,415.805z"/>
		<path style="fill-rule:evenodd;clip-rule:evenodd;fill:#4C4C4C;" d="M154.428,346.097l4.402-24.287
			c1.496-8.258-3.061-15.689-8.55-16.204l-16.158-1.513c-5.488-0.515-11.33,5.939-11.409,14.333l-0.239,24.827
			C132.245,346.901,144.196,347.975,154.428,346.097z"/>
		<path style="fill-rule:evenodd;clip-rule:evenodd;fill:#7F7F7F;" d="M154.897,343.505l3.932-21.695
			c1.496-8.258-3.061-15.689-8.55-16.204l-16.158-1.513c-5.488-0.515-11.33,5.939-11.409,14.333l-0.217,22.563
			C132.417,344.594,144.58,345.581,154.897,343.505z"/>
		<path style="fill-rule:evenodd;clip-rule:evenodd;fill:#4C4C4C;" d="M156.643,334.294l2.186-12.485
			c1.447-8.266-3.061-15.689-8.55-16.204l-16.158-1.513c-5.488-0.515-11.283,5.939-11.409,14.333l-0.201,13.3
			C132.727,335.977,145.893,337.025,156.643,334.294z"/>
		<path style="fill-rule:evenodd;clip-rule:evenodd;fill:#666666;" d="M157.048,331.638l1.782-9.829
			c1.496-8.258-3.061-15.689-8.55-16.204l-16.158-1.513c-5.488-0.515-11.33,5.939-11.409,14.333l-0.103,10.621
			C132.98,333.404,146.189,334.435,157.048,331.638z"/>
		<polygon style="fill-rule:evenodd;clip-rule:evenodd;fill:#1E7850;" points="143.048,274.757 109.356,277.76 142.415,288.082 
			177.347,284.041 		"/>
		<path style="fill-rule:evenodd;clip-rule:evenodd;fill:#333333;" d="M171.486,272.167c9.864-33.887-42.663-49.153-52.846-15.384
			C108.511,290.376,161.523,306.387,171.486,272.167C175.734,257.575,167.237,286.761,171.486,272.167z"/>
		<path style="fill-rule:evenodd;clip-rule:evenodd;fill:#484848;" d="M172.148,269.353c3.529-19.463-15.631-36.758-34.596-31.354
			C139.56,255.174,154.876,269.04,172.148,269.353C174.63,255.661,169.074,269.297,172.148,269.353z"/>
		<polygon style="fill-rule:evenodd;clip-rule:evenodd;fill:#A6E153;" points="109.348,277.638 105.755,315.982 139.306,325.688 
			142.898,287.345 		"/>
		<polygon style="fill-rule:evenodd;clip-rule:evenodd;fill:#4AB80B;" points="142.55,287.313 138.958,325.656 173.728,322.349 
			177.319,284.006 		"/>
		<path style="fill-rule:evenodd;clip-rule:evenodd;fill:#666666;" d="M161.476,250.298c-0.816-4.478-2.771-5.047-5.863-1.707
			C156.43,253.069,158.384,253.638,161.476,250.298C161.947,248.679,161.005,251.917,161.476,250.298z"/>
		<path style="fill-rule:evenodd;clip-rule:evenodd;fill:#7F7F7F;" d="M121.994,392.931c1.717-5.578,7.02-6.615,11.187-4.355
			l7.092,3.846l5.373,2.135l8.661-47.792c-10.136-3.956-25.316-0.127-29.591,9.749l-2.425,5.599l-0.082,8.586
			c0.129,0.194,0.266,0.399,0.412,0.615l-0.428,0.989L121.994,392.931z"/>
		<path style="fill-rule:evenodd;clip-rule:evenodd;fill:#666666;" d="M140.714,346.939c4.266,0.218,8.425,0.002,12.314-0.604
			C149.571,345.371,146.395,346.07,140.714,346.939z"/>
		<path style="fill-rule:evenodd;clip-rule:evenodd;fill:#F7F3D4;" d="M115.072,380.852c-6.629,8.327-4.724,7.885,0.588,17.129
			l4.583,7.976c0.818-0.418,1.51-0.916,2.074-1.49l-0.151-0.976l-0.167-1.865l-0.055-2.031l0.055-3.283l-0.028-3.867l0.025-0.005
			c-2.879-6.429,5.755-9.738,10.473-7.18l7.092,3.845l15.154,6.024c12.237,4.865,24.56,7.021,37.61,7.795l12.406,20.399
			l14.635-29.277l-9.294-10.231l-15.473-10.293l-28.048-21.27l-6.143-4.657c-10.37-7.865-30.85-7.229-36.403,5.602l-2.542,5.87
			c-2.077,4.8-2.473,4.621,0.447,8.93l-4.05,9.356L115.072,380.852z"/>
		<path style="fill-rule:evenodd;clip-rule:evenodd;fill:#62CCCC;" d="M249.793,386.606c-15.321-6.387-29.423-13.839-45.446-21.984
			l-23.273,55.353l28.255,7.934c6.919,2.895,14.168,6.132,21.68,9.485L249.793,386.606z"/>
		<path style="fill-rule:evenodd;clip-rule:evenodd;fill:#4CA6A6;" d="M252.966,390.411c-1.345-0.518-2.675-1.046-3.995-1.58
			l-17.122,46.293c1.302,0.581,2.613,1.164,3.932,1.75L252.966,390.411z"/>
		<path style="fill-rule:evenodd;clip-rule:evenodd;fill:#FFFFFF;" d="M168.75,439.353v-3.602c-1.126-1.126-2.253-2.253-3.379-3.379
			c-1.126,1.126-2.252,2.253-3.378,3.379v3.602C164.244,443.858,166.497,443.858,168.75,439.353z"/>
	</g>
</g>
<g id="Layer_1">
</g>
</svg>
