<?xml version="1.0" encoding="iso-8859-1"?>
<!-- Generator: Adobe Illustrator 19.2.0, SVG Export Plug-In . SVG Version: 6.00 Build 0)  -->
<svg version="1.1" xmlns="http://www.w3.org/2000/svg" xmlns:xlink="http://www.w3.org/1999/xlink" x="0px" y="0px"
	 viewBox="0 0 282.559 712.24" style="enable-background:new 0 0 282.559 712.24;" xml:space="preserve">
<g id="MaleReporter">
	<g>
		<path style="fill:#1DA7B5;" d="M242.686,384.721l-48.627-76.655c-16.356-28.107,20.852-50.001,37.256-21.819l0.107-0.062
			l48.629,76.655L242.686,384.721z"/>
		<g>
			<g>
				<path style="fill:#333333;" d="M184.248,666.376C211.151,643.614,227.406,698.934,184.248,666.376L184.248,666.376z"/>
			</g>
			<g>
				<path style="fill:#D6CCC0;" d="M181.793,682.521c0,0-4.445,3.041-2.927,11.11c0.791,3.295,32.546,12.975,35.547,13.935
					c19.356,6.191,38.673,7.141,57.204-2.754c18.732-9.794-38.465-16.676-39.387-16.776
					C215.416,686.217,198.604,684.372,181.793,682.521z"/>
			</g>
			<g>
				<path style="fill:#996133;" d="M218.91,674.097c0,2.134-1.997,3.859-4.463,3.859h-21.694c-2.468,0-4.47-1.725-4.47-3.859
					v-29.714c0-2.13,2.002-3.859,4.47-3.859h21.694c2.466,0,4.463,1.729,4.463,3.859V674.097z"/>
			</g>
			<g>
				<g>
					<path style="fill:#4A4A4A;" d="M184.248,666.376c0,0-3.858,14.156-3.744,17.433c25.505,7.768,64.843,31.487,89.83,10.591
						c2.34-2.34-2.807-16.045-28.893-22.364c-5.03-1.983-12.626-9.984-15.548-14.198
						C226.578,658.033,182.835,681.426,184.248,666.376z"/>
				</g>
			</g>
			<g>
				<path style="fill:#D65037;" d="M232.206,677.611c-0.021-0.039-1.428-2.55-0.889-5.721c-4.263,1.074-6.557,3.414-4.868-3.64
					c-1.201,0.119-6.68,1.474-7.421,0.246c-2.392-4.073,11.427-8.294,12.33-5.976c-0.202,1.559-1.014,2.839-2.437,3.839
					c7.776-0.68,7.351-0.72,4.911,3.383c2.773-1.438,4.741-1.171,5.903,0.803c-0.122,1.09-7.531,1.123-6.669,0.98
					c-0.081,0.291,0.949,6.497-0.149,6.497C232.634,678.023,232.36,677.875,232.206,677.611
					C232.185,677.573,232.36,677.875,232.206,677.611z M233.173,667.806c-1.326-0.029-2.946,0.075-4.962,0.268
					c-0.317,1.03-0.462,2.114-0.436,3.268c1.38-0.588,2.763-0.992,4.058-1.263C232.142,669.331,232.574,668.567,233.173,667.806
					C231.847,667.777,232.574,668.567,233.173,667.806z M228.66,663.754c-1.896,0.255-4.847,1.025-7.083,3.331
					c1.811-0.18,3.621-0.36,5.432-0.541C227.415,665.574,227.963,664.648,228.66,663.754
					C226.764,664.008,227.963,664.648,228.66,663.754z"/>
			</g>
		</g>
		<g>
			<g>
				<path style="fill:#3A3A3A;" d="M110.71,666.376C83.803,643.619,67.547,698.927,110.71,666.376L110.71,666.376z"/>
			</g>
			<g>
				<path style="fill:#D6CCC0;" d="M113.164,682.521c0,0,4.443,3.041,2.926,11.11c-0.789,3.293-32.548,12.976-35.547,13.935
					c-19.357,6.191-38.672,7.141-57.204-2.754c-18.733-9.792,38.466-16.676,39.388-16.776
					C79.541,686.217,96.353,684.372,113.164,682.521z"/>
			</g>
			<g>
				<path style="fill:#A06937;" d="M76.044,674.097c0,2.134,1.999,3.859,4.469,3.859h21.69c2.468,0,4.473-1.725,4.473-3.859v-29.714
					c0-2.13-2.005-3.859-4.473-3.859h-21.69c-2.469,0-4.469,1.729-4.469,3.859V674.097z"/>
			</g>
			<g>
				<g>
					<path style="fill:#565658;" d="M110.71,666.376c0,0,3.857,14.156,3.742,17.433c-25.506,7.767-64.843,31.488-89.831,10.591
						c-2.339-2.34,2.809-16.045,28.892-22.364c5.033-1.983,12.627-9.984,15.552-14.198
						C68.372,658.035,112.128,681.423,110.71,666.376z"/>
				</g>
			</g>
			<g>
				<path style="fill:#E1593C;" d="M62.038,678.023c-1.097,0-0.069-6.207-0.15-6.497c0.852,0.142-6.543,0.11-6.67-0.98
					c1.164-1.972,3.132-2.239,5.903-0.803c-2.436-4.103-2.864-4.063,4.913-3.383c-1.426-0.999-2.238-2.279-2.437-3.839
					c0.895-2.31,14.739,1.895,12.331,5.976c-0.742,1.23-6.222-0.128-7.424-0.246c1.704,7.058-0.618,4.712-4.867,3.64
					C63.573,671.504,63.987,678.023,62.038,678.023z M63.121,670.079c1.295,0.271,2.678,0.676,4.061,1.263
					c0.025-1.155-0.121-2.238-0.437-3.268c-2.016-0.193-3.637-0.297-4.964-0.268C62.38,668.567,62.813,669.331,63.121,670.079
					C64.416,670.35,62.813,669.331,63.121,670.079z M67.947,666.543c1.81,0.181,3.62,0.361,5.431,0.541
					c-2.237-2.306-5.186-3.076-7.08-3.331C66.992,664.648,67.542,665.574,67.947,666.543
					C68.411,666.589,67.542,665.574,67.947,666.543z"/>
			</g>
		</g>
		<g>
			<polygon style="fill:#996133;" points="168.34,245.676 148.211,245.676 146.02,259.249 148.211,273.053 168.34,273.053 			"/>
			<rect x="128.046" y="245.676" style="fill:#A06937;" width="20.165" height="27.378"/>
		</g>
		<g>
			<g>
				<g>
					<path style="fill:#445E73;" d="M111.299,654.762H71.172V468.823l67.526,6.553c-21.447,21.811-19.616,59.672-21.941,88.116
						C114.274,593.865,112.575,624.316,111.299,654.762z"/>
				</g>
				<g>
					<path style="fill:#3C5568;" d="M185.124,654.762h40.123V468.823l-67.525,6.553c21.451,21.807,19.618,59.673,21.944,88.116
						C182.148,593.865,183.847,624.316,185.124,654.762z"/>
				</g>
				<g>
					<g>
						<path style="fill:#445E73;" d="M71.172,409.507v63.68c0,0,57.772,4.379,77.039,4.379l2.191-27.766l-2.191-40.293H71.172z"/>
					</g>
					<g>
						<g>
							<path style="fill:#3C5568;" d="M148.211,409.507v68.059c19.263,0,77.036-4.379,77.036-4.379v-63.68H148.211z"/>
						</g>
					</g>
				</g>
			</g>
			<g>
				<path style="fill:#3C5568;" d="M117.693,652.571c0,1.211-0.954,2.191-2.13,2.191h-49.68c-1.176,0-2.127-0.979-2.127-2.191
					v-16.427c0-1.211,0.951-2.191,2.127-2.191h49.68c1.175,0,2.13,0.98,2.13,2.191V652.571z"/>
			</g>
			<g>
				<path style="fill:#344B56;" d="M231.701,652.571c0,1.211-0.954,2.191-2.125,2.191h-49.684c-1.176,0-2.131-0.979-2.131-2.191
					v-16.427c0-1.211,0.954-2.191,2.131-2.191h49.684c1.171,0,2.125,0.98,2.125,2.191V652.571z"/>
			</g>
		</g>
		<g>
			<g>
				<path style="fill:#36BFC6;" d="M88.984,271.959c-13.663,0-24.741,10.185-24.741,28.152l0.36,168.712h83.998l2.191-111.659
					l-2.191-85.205H88.984z"/>
			</g>
			<g>
				<path style="fill:#1DA7B5;" d="M232.665,300.111c0-17.967-11.076-28.152-24.744-28.152h-59.71v196.864h83.602L232.665,300.111z"
					/>
			</g>
		</g>
		<g>
			<polygon style="fill:#E5E3DF;" points="148.19,269.768 145.999,290.643 148.19,362.994 148.258,363.167 189.736,271.959 			"/>
			<polygon style="fill:#FFFFFF;" points="107.467,271.959 148.19,362.994 148.19,269.768 			"/>
		</g>
		<g>
			<path style="fill:#E1593C;" d="M145.888,266.906c-4.149,0-7.517,3.367-7.517,7.52v4.599c0,4.149,3.369,7.515,7.517,7.515h2.302
				l2.191-9.817l-2.191-9.818H145.888z"/>
			<path style="fill:#D65037;" d="M150.492,266.906h-2.302v19.635h2.302c4.149,0,7.515-3.367,7.515-7.515v-4.599
				C158.006,270.273,154.64,266.906,150.492,266.906z"/>
		</g>
		<g>
			<path style="fill:#996133;" d="M23.769,489.441l2.169,7.007c3.454,3.947,6.102,3.733,7.944-0.642c0,0,0.004,0,0.007,0.006
				c1.656-1.528,2.546,0.461,2.546,0.461c3.964,4.261,6.607,3.651,7.929-1.831h0.009c0.992-1.77,2.06-0.055,2.06-0.055
				s0.012-0.005,0.019-0.009c3.741,3.631,6.332,3.024,7.773-1.822h0.008c0.606-2.285,2.514-1.045,2.514-1.045l0.006-0.004
				c3.834,2.05,6.009,0.603,6.524-4.341c-0.62-3.838,2.699-2.961,2.699-2.961s0-0.013-0.003-0.017
				c3.297,0.947,5.092-0.719,5.385-4.997l-2.036-6.592c-4.175-20.656-21.582-20.751-25.966-39.566c0,0-20.011,6.191-25.621,7.931
				C23.667,458.53,15.714,471.847,23.769,489.441z"/>
		</g>
		<g>
			<path style="fill:#36BFC6;" d="M11.179,453.021c-23.034-69.331-15.85-166.791,73.162-179.88l6.702,45.503
				c-58.783,8.648-49.653,79.432-36.216,119.874L11.179,453.021z"/>
		</g>
		<g>
			<g>
				<polygon style="fill:#D65037;" points="175.67,261.602 148.19,276.724 175.67,291.846 				"/>
			</g>
			<g>
				<polygon style="fill:#E1593C;" points="120.71,261.602 148.19,276.724 120.71,291.846 				"/>
			</g>
		</g>
		<g>
			<path style="fill:#9FA6AA;" d="M208.485,277.301c0,35.89-55.625,35.863-55.969,0
				C152.175,241.624,208.485,241.059,208.485,277.301z"/>
			<path style="fill:#798184;" d="M208.485,277.301c0-15.455-12.529-27.984-27.983-27.984v55.969
				C195.957,305.285,208.485,292.756,208.485,277.301z"/>
			<rect x="164.47" y="299.896" style="fill:#475059;" width="32.065" height="8.24"/>
			<rect x="180.502" y="299.896" style="fill:#353D44;" width="16.032" height="8.24"/>
			<polygon style="fill:#475059;" points="187.525,383.447 173.477,383.447 165.703,305.285 195.3,305.285 			"/>
			<polygon style="fill:#353D44;" points="187.525,383.447 180.502,383.447 180.502,305.285 195.3,305.285 			"/>
		</g>
		<g>
			<path style="fill:#996133;" d="M167.419,365.08l-7.297-0.752c-3.833-0.396-5.193-6.421-0.928-7.915c0,0,0-0.004-0.006-0.007
				c1.172-1.923-0.953-2.406-0.953-2.406c-3.994-0.411-5.631-7.874,0.241-8.136c0,0-0.002-0.004-0.004-0.009
				c1.541-1.32-0.348-2.031-0.348-2.031s0.002-0.012,0.005-0.021c-4.295-2.956-4.208-5.615,0.262-7.979l-0.002-0.011
				c2.122-1.041,0.531-2.669,0.531-2.669l0.003-0.006c-3.137-2.529-0.734-7.629,2.978-7.249c3.885-0.144,2.373-3.227,2.373-3.227
				s0.012-0.002,0.018-0.001c-1.709-2.661,0.609-6.595,3.843-6.258l6.865,0.703c22.378,0.045,32.783,17.748,50.246,30.332
				c0,0-3.077,13.09-3.685,18.933C201.404,358.709,187.622,369.852,167.419,365.08z"/>
		</g>
		<g>
			<path style="fill:#36BFC6;" d="M217.388,328.093l50.26,24.049c29.391,13.914,11.112,53.027-18.364,39.076l-0.053,0.114
				l-50.259-24.051L217.388,328.093z"/>
		</g>
		<g>
			<path style="fill:#996133;" d="M233.745,162.467c-0.199,4.915-2.003,10.897-6.911,10.624l0,0
				c-4.913-0.269-8.671-4.474-8.399-9.384l1.637-29.495c0.276-4.911,4.478-8.672,9.385-8.394l0,0
				C244.019,126.619,234.053,154.805,233.745,162.467C233.547,167.382,234.28,149.128,233.745,162.467z"/>
			<path style="fill:#A06937;" d="M62.641,162.467c0.196,4.915,2.002,10.897,6.91,10.624l0,0c4.908-0.269,8.665-4.474,8.393-9.384
				l-1.638-29.495c-0.273-4.911-4.473-8.672-9.382-8.394l0,0C52.359,126.619,62.329,154.805,62.641,162.467
				C62.837,167.382,62.098,149.128,62.641,162.467z"/>
			<g>
				<path style="fill:#A06937;" d="M108.258,35.791c-17.04,0-31.567,11.358-37.224,27.314v55.541l4.325,69.457
					c0,23.265,17.799,42.128,39.759,42.128h50.679V35.791H108.258z"/>
				<g>
					<path style="fill:#996133;" d="M225.693,63.132c-5.653-15.971-20.19-27.341-37.234-27.341h-40.257v194.44h33.396
						c21.957,0,39.76-18.863,39.76-42.128l4.335-69.624V63.132z"/>
				</g>
			</g>
			<g>
				<path style="fill:#353535;" d="M200.545,129.529c0,17.437-15.395,0-15.27,0C185.15,129.529,200.545,112.09,200.545,129.529z"/>
				<path style="fill:#F7D8BA;" d="M197.387,127.909c-1.725,3.449-3.452,3.449-5.182,0
					C193.934,124.455,195.662,124.455,197.387,127.909z"/>
			</g>
			<g>
				<linearGradient id="SVGID_1_" gradientUnits="userSpaceOnUse" x1="139.4088" y1="116.0502" x2="140.6828" y2="177.7114">
					<stop  offset="0" style="stop-color:#A06937"/>
					<stop  offset="1" style="stop-color:#996133"/>
				</linearGradient>
				<path style="fill:url(#SVGID_1_);" d="M131.913,178.35c0,3.391,7.646,6.141,16.674,6.223l-0.396-68.548
					C142.093,121.243,131.913,178.35,131.913,178.35z"/>
				<linearGradient id="SVGID_2_" gradientUnits="userSpaceOnUse" x1="154.9573" y1="116.4814" x2="156.4856" y2="176.8527">
					<stop  offset="0.0054" style="stop-color:#996133"/>
					<stop  offset="1" style="stop-color:#915A30"/>
				</linearGradient>
				<path style="fill:url(#SVGID_2_);" d="M157.161,139.439c-3.608-14.677-6.306-21.744-8.97-23.413v68.548
					C176.023,184.573,161.459,156.927,157.161,139.439C153.554,124.762,162.103,159.545,157.161,139.439z"/>
				<path style="fill:#996133;" d="M140.25,179.007c0,9.724-10.697,0-10.843,0C129.555,179.007,140.25,169.289,140.25,179.007z"/>
				<path style="fill:#915A30;" d="M167.566,179.007c0,9.725-10.694,0-10.842,0C156.874,179.007,167.566,169.287,167.566,179.007z"
					/>
			</g>
			<g>
				<path style="fill:#3F3F3F;" d="M111.547,129.529c0,17.437-15.396,0-15.271,0C96.151,129.529,111.547,112.089,111.547,129.529z"
					/>
				<path style="fill:#F7D8BA;" d="M108.386,127.909c-1.724,3.449-3.451,3.449-5.179,0
					C104.935,124.455,106.661,124.455,108.386,127.909z"/>
			</g>
			<path style="fill:#3F3F3F;" d="M86.721,109.087c-7.691,0,12.918-15.131,21.02-14.626c2.167,0.135,24.446,6.432,18.827,12.558
				c-2.865,3.142-14.511-6.164-18.32-6.169C99.542,100.839,93.233,109.087,86.721,109.087z"/>
			<path style="fill:#353535;" d="M210.823,109.087c-6.536,0-12.836-8.259-21.577-8.235c-3.793,0.011-15.415,9.299-18.271,6.167
				c-5.742-6.253,17.872-12.498,18.824-12.557C198.248,93.932,218.254,109.087,210.823,109.087z"/>
			<g>
				<path style="fill:#353535;" d="M227.503,146.882c0-37.633,6.376-80.645,0-117.626c-5.175-30.015-27.01-27.52-51.485-27.52
					c-27.3,0-32.108-5.26-41.072,20.525c3.681,15.701,2.095,25.499,14.723,30.434c15.523,6.065,32.609-0.366,46.462,6.624
					c0.089,0.045,8.585,8.578,9.342,9.342c7.255,7.326,11.445,2.436,16.301,13.08c2.577,5.648,0.996,13.011,1.194,18.984
					C223.174,106.886,218.42,146.882,227.503,146.882z"/>
				<path style="fill:#3F3F3F;" d="M68.901,146.882c0-36.58-2.106-73.774,0-110.277c1.202-20.831,7.615-31.8,29.757-34.869
					c8.15-1.13,45.54-3.81,49.543,1.187c2.417,3.017,2.896,46.335,0,49.772c-5.409,6.419-34.437-3.069-43.647,0.97
					c-5.478,2.403-2.981,9.24-7.019,12.261c-6.003,4.491-13.496,2.467-18.575,8.263c-6.769,7.725-5.015,14.443-5.527,23.643
					C73.077,104.209,78.242,146.882,68.901,146.882z"/>
			</g>
			<path style="fill:#A06937;" d="M148.192,217.434H125.77c-16.261,0-17.001,25.989,0,25.989h22.422V217.434z"/>
			<path style="fill:#996133;" d="M148.192,243.423h22.423c16.262,0,17.003-25.989,0-25.989h-22.423V243.423z"/>
			<g>
				<path style="fill:#3F3F3F;" d="M182.708,201.042c0-0.369-0.093-0.698-0.308-0.972c-0.057-0.089-0.129-0.168-0.2-0.246
					c-5.361-12.037-23.878-11.425-34.036-7.945c-10.137-3.472-29.324-4.13-34.226,8.386h0.055c-0.78,1.679-1.227,3.546-1.227,5.517
					v26.833c0,9.33,7.59,16.923,16.922,16.923h36.989c9.332,0,16.924-7.593,16.924-16.923v-26.833
					C183.6,204.11,183.278,202.514,182.708,201.042C182.708,200.673,183.278,202.514,182.708,201.042z M177.485,226.501
					c0,5.959-4.848,10.807-10.808,10.807h-15.373c3.108-16.203-9.121-17.429-6.243,0h-15.374c-5.96,0-10.808-4.848-10.808-10.807
					V207.01c15.955,10.888,42.646,10.831,58.605,0.108V226.501z"/>
				<path style="fill:#353535;" d="M182.708,201.042c0-0.369-0.093-0.698-0.308-0.972c-0.057-0.089-0.129-0.168-0.2-0.246
					c-5.359-12.033-23.862-11.423-34.018-7.949v23.043c9.983,0,20.872-2.136,29.304-7.801v19.385
					c0,5.961-4.848,10.807-10.809,10.807h-15.374v-11.662c0-1.58-1.279-2.862-2.861-2.862h-0.261v26.754h18.495
					c9.332,0,16.924-7.593,16.924-16.923v-26.833C183.6,204.11,183.278,202.514,182.708,201.042
					C182.708,200.673,183.278,202.514,182.708,201.042z"/>
			</g>
			<g>
				<g>
					<g>
						<path style="fill:#915A30;" d="M176.935,206.526c-0.049-0.071-0.11-0.139-0.17-0.202c-4.557-10.101-20.264-9.508-28.801-6.624
							c-8.512-2.875-24.796-3.515-28.966,6.989h0.059C106.329,229.067,190.417,223.521,176.935,206.526
							C176.886,206.455,179.211,209.396,176.935,206.526z"/>
						<path style="fill:#915A30;" d="M126.467,205.249c0,0,21.842,4.544,42.826-0.236c4.928,6.402-22.841,7.428-21.703,7.428
							c-9.705,0.213-19.182-3.565-21.467-5.297C126.004,205.979,126.467,205.249,126.467,205.249z"/>
					</g>
					<g>
						<path style="fill:#915A30;" d="M176.935,206.526c-0.049-0.071-0.11-0.139-0.17-0.202c-4.557-10.101-20.264-9.508-28.801-6.624
							c-0.006,0-0.009-0.003-0.013-0.003v7.502c6.581,0.014,14.026-0.517,21.37-2.186c0.634,0.82,0.691,2.086,0.691,2.086
							s-4.231,5.281-22.061,5.339v6.464c-1.466,0,7.719,3.991,14.82,1.163C165.375,219.029,180.635,211.191,176.935,206.526
							C176.886,206.455,179.211,209.396,176.935,206.526z"/>
						<path style="fill:#915A30;" d="M169.982,207.1c0,0-0.058-1.266-0.689-2.086c-7.334,1.669-14.768,2.199-21.343,2.186v5.24
							C165.758,212.38,169.982,207.1,169.982,207.1z"/>
					</g>
				</g>
				<path style="fill:#D65037;" d="M128.002,206.828c0,0,4.688,11.108,20.083,12.25c8.726,0.043,17.858-6.909,19.775-12.25
					C148.974,207.282,128.002,206.828,128.002,206.828z"/>
				<path style="fill:#FFFFFF;" d="M126.881,202.481c0,0,23.004,5.953,42.271,0c3.052,13.964-37.407,5.914-40.812,4.918
					C127.092,205.568,126.881,202.481,126.881,202.481z"/>
			</g>
		</g>
	</g>
</g>
<g id="Layer_1">
</g>
</svg>
