<?xml version="1.0" encoding="utf-8"?>
<!-- Generator: Adobe Illustrator 19.2.0, SVG Export Plug-In . SVG Version: 6.00 Build 0)  -->
<svg version="1.1" id="Layer_1" xmlns="http://www.w3.org/2000/svg" xmlns:xlink="http://www.w3.org/1999/xlink" x="0px" y="0px"
	 viewBox="0 0 525.5 632.1" style="enable-background:new 0 0 525.5 632.1;" xml:space="preserve">
<style type="text/css">
	.st0{fill:#CE967C;}
	.st1{fill:#A53495;}
	.st2{fill:#BA3AA2;}
	.st3{fill:#C6907B;}
	.st4{fill:#FDDAB5;}
	.st5{fill:#FDDFC0;}
	.st6{fill:#DEDFE0;}
	.st7{fill:#AEDDD8;}
	.st8{fill:#FFFFFF;}
	.st9{fill:#EC8558;}
	.st10{fill:#94D5D7;}
	.st11{fill:#54C2CE;}
	.st12{fill:#5CC7D5;}
</style>
<g id="Arm">
	<g>
		<path class="st0" d="M493.9,352l7.2-13.7l14.5-45.2c0.6-2.2,0.5-4.4-0.1-6.5c-0.3-1-0.7-1.9-1.2-2.8l-31.8-55
			c-13.2,7.6-16.6,19.3-9.3,31.9l2.7,4.8l0,0l15.1,26.2l-17.6,65.8L493.9,352L493.9,352z"/>
		<path class="st1" d="M493.4,247.4l-9.3-16c-3.7,4.1-4,9.4-0.9,14.9l3,5.3L493.4,247.4L493.4,247.4z"/>
		<path class="st2" d="M493.4,247.4l-9.3-16c0,0-0.1,0.1-0.1,0.1c-1,3.7-0.3,7.8,2.2,12.1l3.5,6L493.4,247.4L493.4,247.4z"/>
		<path class="st3" d="M491.2,291.6l-18.5,69.1l8.5,2.3l17.5-65.5l0,0l1.4-5.1l-23.9-41.5c-4.1-8.5,0.2-16.6,6.4-22
			c-13.1,7.6-16.4,19.3-9.2,31.8l2.7,4.8l0,0L491.2,291.6L491.2,291.6z"/>
		<path class="st0" d="M492.3,340l10.1-8.4l-4.3-54.1c0-2.3-0.6-4.4-1.8-6.2c-0.5-0.9-1.1-1.7-1.9-2.4L449.5,224
			c-10.8,10.8-11,23-0.8,33.2l3.9,3.9l0,0l21.4,21.4v68.1L492.3,340L492.3,340z"/>
		<path class="st1" d="M464.7,239.1L451.6,226c-2.5,4.9-1.5,10.1,3,14.6l4.3,4.3L464.7,239.1L464.7,239.1z"/>
		<path class="st2" d="M464.7,239.1L451.6,226c0,0,0,0.1-0.1,0.1c0,3.8,1.7,7.6,5.2,11.1l4.9,4.9L464.7,239.1L464.7,239.1z"/>
		<path class="st3" d="M474,282.4v71.5l24.2-25.7l-15.4-47.4L448.9,247c-6.2-7.1-4.1-16,0.5-22.9c-10.7,10.7-10.9,22.9-0.7,33.1
			l3.9,3.9l0,0L474,282.4L474,282.4z"/>
		<path class="st0" d="M550.7,470.2l-62.3-86.8l13.3-47.1c1.1-3.2,0.8-6.7-1-9.8L466,267.5c-1.1-2-2.8-3.5-4.6-4.5
			c-0.9-0.5-1.8-0.9-2.8-1.1l-61.3-16.4c-4,14.7,2,25.4,15.9,29.1l5.3,1.4v0l29.2,7.8l15.8,27.4l-36,46.3c-6.5,8.3-3.7,31.5,2,43.8
			l60.2,104.2L550.7,470.2L550.7,470.2z"/>
		<path class="st4" d="M417.9,251l-17.9-4.8c0.3,5.5,3.8,9.5,9.9,11.1l5.9,1.6L417.9,251L417.9,251z"/>
		<path class="st5" d="M417.9,251l-17.9-4.8c0,0.1,0,0.1,0,0.2c1.9,3.3,5.3,5.7,10.1,7l6.7,1.8L417.9,251L417.9,251z"/>
		<path class="st3" d="M447.6,283.8l15.8,27.4l-33.6,43.3l8.6,3.7l31.6-53.2l-12.9-22.3v0l-2.6-4.6l-46.2-12.4
			c-8.9-3.1-11.5-11.9-11.1-20.1c-3.9,14.7,2,25.3,16,29l5.3,1.4v0L447.6,283.8L447.6,283.8z"/>
		<g>
			<g>
				<path class="st6" d="M443.8,13.6h-417c-1.9,0-3.5,2.5-3.5,5.5v12H7.8v386c0,11.1,7,20.1,15.5,20.1l0,0h408.5l0,0l0,0
					c8.6,0,15.5-9,15.5-20.1v-398C447.3,16.1,445.7,13.6,443.8,13.6z"/>
			</g>
			<g>
				<g>
					<g>
						<path class="st7" d="M0,17.6v386c0,11.1,7,20.1,15.5,20.1l0,0H424V17.6H0z"/>
					</g>
					<g>
						<path class="st8" d="M429.2,423.7c5.7,0,10.3-6,10.3-13.3V5.5c0-3-1.6-5.5-3.5-5.5H19c-1.9,0-3.5,2.5-3.5,5.5v418.2H429.2z"/>
					</g>
					<g>
						<rect x="27.6" y="18" class="st9" width="397.2" height="114.6"/>
					</g>
					<g>
						<g>
							<rect x="27.6" y="195.3" class="st10" width="227.6" height="81.7"/>
						</g>
						<g>
							<rect x="269.7" y="355.5" class="st9" width="142.4" height="44.4"/>
						</g>
					</g>
				</g>
				<g>
					<g>
						<g>
							<rect x="82.5" y="353.4" class="st11" width="72.2" height="4.2"/>
						</g>
					</g>
					<g>
						<g>
							<rect x="82.5" y="373.2" class="st11" width="58.8" height="4.2"/>
						</g>
					</g>
					<g>
						<g>
							<rect x="82.5" y="392.6" class="st11" width="72.2" height="4.2"/>
						</g>
					</g>
					<g>
						<g>
							<rect x="35.6" y="353.4" class="st11" width="30.4" height="4.2"/>
						</g>
					</g>
					<g>
						<g>
							<rect x="35.6" y="373.2" class="st11" width="24.8" height="4.2"/>
						</g>
					</g>
					<g>
						<g>
							<rect x="35.6" y="392.6" class="st11" width="30.4" height="4.2"/>
						</g>
					</g>
					<g>
						<g>
							<rect x="175.9" y="353.4" class="st11" width="72.2" height="4.2"/>
						</g>
					</g>
					<g>
						<g>
							<rect x="154.7" y="373.2" class="st11" width="80" height="4.2"/>
						</g>
					</g>
					<g>
						<g>
							<rect x="175.9" y="392.6" class="st11" width="72.2" height="4.2"/>
						</g>
					</g>
					<g>
						<g>
							<rect x="275.4" y="208.9" class="st9" width="81" height="13"/>
						</g>
					</g>
					<g>
						<g>
							<g>
								<rect x="275.4" y="236.1" class="st11" width="60.3" height="3.8"/>
							</g>
						</g>
						<g>
							<g>
								<rect x="275.4" y="254" class="st11" width="49.1" height="3.8"/>
							</g>
						</g>
						<g>
							<g>
								<rect x="275.4" y="271.4" class="st11" width="60.3" height="3.8"/>
							</g>
						</g>
						<g>
							<g>
								<rect x="353.4" y="236.1" class="st11" width="60.3" height="3.8"/>
							</g>
						</g>
						<g>
							<g>
								<rect x="335.7" y="254" class="st11" width="66.7" height="3.8"/>
							</g>
						</g>
						<g>
							<g>
								<rect x="353.4" y="271.4" class="st11" width="60.3" height="3.8"/>
							</g>
						</g>
					</g>
					<g>
						<g>
							<g>
								<rect x="275.4" y="293.5" class="st11" width="60.3" height="3.8"/>
							</g>
						</g>
						<g>
							<g>
								<rect x="275.4" y="311.4" class="st11" width="78.2" height="3.8"/>
							</g>
						</g>
						<g>
							<g>
								<rect x="275.4" y="328.8" class="st11" width="33.5" height="3.8"/>
							</g>
						</g>
						<g>
							<g>
								<rect x="353.4" y="293.5" class="st11" width="60.3" height="3.8"/>
							</g>
						</g>
						<g>
							<g>
								<rect x="364.5" y="311.4" class="st11" width="47.6" height="3.8"/>
							</g>
						</g>
						<g>
							<g>
								<rect x="320.2" y="328.7" class="st11" width="93.5" height="3.7"/>
							</g>
						</g>
					</g>
				</g>
				<g>
					<g>
						<rect x="33.8" y="151.6" class="st11" width="96.5" height="3.7"/>
					</g>
					<g>
						<rect x="33.8" y="168.7" class="st11" width="78.6" height="3.7"/>
					</g>
					<g>
						<rect x="63.1" y="304.5" class="st9" width="68.2" height="17.1"/>
					</g>
					<g>
						<rect x="158.6" y="151.6" class="st11" width="96.5" height="3.7"/>
					</g>
					<g>
						<rect x="130.4" y="168.7" class="st11" width="106.9" height="3.7"/>
					</g>
					<g>
						<rect x="151.3" y="304.5" class="st9" width="68.2" height="17.1"/>
					</g>
				</g>
				<g>
					<rect x="27.4" y="150.5" class="st10" width="395" height="251.9"/>
				</g>
				<g>
					<rect x="40.3" y="168.1" class="st12" width="370.7" height="216.6"/>
				</g>
			</g>
		</g>
		<path class="st0" d="M390.5,288.7l35.4,66.8l17.8,9.7l3.2,0.3l6.3-25.8l-2.9-5l-34.9-60.4c-4-6.8-12.8-9.2-19.7-5.3l0,0
			C388.9,273,386.5,281.8,390.5,288.7L390.5,288.7z"/>
		<path class="st3" d="M497.2,501.1l-61.6-106.7c-5.7-9.9-3.9-25.7-3.5-39c0.1-5-1.3-9-5.1-15.6L390,275.5c-2.8,4.6-3,10.5-0.2,15.5
			l27.5,52.4c9.2,16.2-2,36.5,11.8,57.3l60.5,104.8L497.2,501.1L497.2,501.1z"/>
		<path class="st1" d="M397.2,271.6L397.2,271.6c5.3-3.1,12.9-1.6,15.2,4.1l2.6,6.3c5.7,13.6-8.9,22-17.8,10.3l-4.1-5.4
			C389.4,281.9,391.9,274.7,397.2,271.6L397.2,271.6z"/>
		<path class="st2" d="M397.8,271.3c5.3-2.6,12.3-1,14.6,4.4l2.6,6.3c1.4,3.3,1.6,6.3,0.9,8.8c-3.9,1.4-9,0.2-12.9-5l-4.1-5.4
			C397,277.6,396.8,274.3,397.8,271.3L397.8,271.3z"/>
		<path class="st0" d="M502.3,410.9l-13.5-30.9l13.3-47.1c1.1-3.2,0.8-6.7-1-9.8l-34.8-58.9c-1.1-2-2.8-3.5-4.6-4.5
			c-0.9-0.5-1.8-0.9-2.8-1.1l0,0c-4,14.7,23.2,34.3-11.3,25l0.5-3.1l0,0l0,0l15.8,27.4l-36,46.3c-6.5,8.3-3.7,31.5,2,43.8l23.6,44.9
			L502.3,410.9L502.3,410.9z"/>
	</g>
</g>
<g id="Layer_1_1_">
</g>
</svg>
