<?xml version="1.0" encoding="iso-8859-1"?>
<!-- Generator: Adobe Illustrator 19.2.0, SVG Export Plug-In . SVG Version: 6.00 Build 0)  -->
<svg version="1.1" xmlns="http://www.w3.org/2000/svg" xmlns:xlink="http://www.w3.org/1999/xlink" x="0px" y="0px"
	 viewBox="0 0 612 792" style="enable-background:new 0 0 612 792;" xml:space="preserve">
<g id="BlueBackground">
	<rect x="-616" y="-136" style="fill:#326664;" width="1818" height="1064"/>
	<g>
		<g>
			<g>
				<rect x="-620.108" y="-136" style="fill:#54C2CE;" width="1822.108" height="1064"/>
			</g>
		</g>
	</g>
	<g>
		<g>
			<rect x="137.52" y="86.249" style="fill:#4CAEB9;" width="134.829" height="4.773"/>
		</g>
		<g>
			<rect x="310.614" y="86.249" style="fill:#4CAEB9;" width="28.699" height="4.773"/>
		</g>
		<g>
			<rect x="137.52" y="105.712" style="fill:#4CAEB9;" width="81.72" height="4.773"/>
		</g>
		<g>
			<rect x="-290.89" y="22.085" style="fill:#4CAEB9;" width="84.68" height="4.773"/>
		</g>
		<g>
			<rect x="-309.769" y="41.547" style="fill:#4CAEB9;" width="31.57" height="4.773"/>
		</g>
		<g>
			<rect x="364.863" y="122.495" style="fill:#4CAEB9;" width="28.699" height="4.773"/>
		</g>
		<g>
			<rect x="379.213" y="142.618" style="fill:#4CAEB9;" width="14.35" height="4.773"/>
		</g>
		<g>
			<rect x="708.647" y="436.271" style="fill:#4CAEB9;" width="134.829" height="4.773"/>
		</g>
		<g>
			<rect x="790.367" y="544.785" style="fill:#4CAEB9;" width="28.699" height="4.773"/>
		</g>
		<g>
			<rect x="708.647" y="455.734" style="fill:#4CAEB9;" width="81.72" height="4.773"/>
		</g>
		<g>
			<rect x="844.617" y="581.031" style="fill:#4CAEB9;" width="28.699" height="4.773"/>
		</g>
		<g>
			<rect x="858.966" y="601.154" style="fill:#4CAEB9;" width="14.35" height="4.773"/>
		</g>
		<g>
			<rect x="742.336" y="-22.166" style="fill:#4CAEB9;" width="106.005" height="4.773"/>
		</g>
		<g>
			<rect x="824.089" y="14.08" style="fill:#4CAEB9;" width="69.333" height="4.773"/>
		</g>
		<g>
			<rect x="879.072" y="34.202" style="fill:#4CAEB9;" width="14.35" height="4.773"/>
		</g>
		<g>
			<rect x="222.502" y="767.015" style="fill:#4CAEB9;" width="107.285" height="4.773"/>
		</g>
		<g>
			<rect x="360.236" y="767.015" style="fill:#4CAEB9;" width="22.836" height="4.773"/>
		</g>
	</g>
</g>
<g id="Layer_1">
</g>
</svg>
