<svg xmlns="http://www.w3.org/2000/svg" viewBox="0 0 371.082 205.978"><path d="M158.565 83.686c-.915-.971-2.213-1.619-3.8-1.966-12.101-2.677-41.485 11.339-53.572 21.502-2.099 1.752-3.67 3.401-4.549 4.825-6.619 10.703-7.392 14.033-13.582 16.525-2.954 1.196-10.038 3.496-16.95 5.815-7.556 2.542-14.921 5.113-16.488 6.296-2.949 2.233-5.906 4.523-3.527 11.288.033.093.057.187.09.281.176.476.38.922.611 1.348l.009-.001c2.644 4.878 8.983 6.84 17.198 5.843 8.943-1.081 19.034-.356 26.667-5.88 7.633-5.542 18.193-12.061 25.786-14.434 2.903-.908 7.55-2.114 12.622-3.741 3.21-1.038 6.601-2.247 9.811-3.655 4.968-2.192 9.521-4.877 12.398-8.171a42.704 42.704 0 0 0 1.63-1.985c4.876-6.258 9.63-15.479 9.533-23.577-.014-1.217-.132-2.419-.39-3.566-.522-2.475-1.647-4.777-3.497-6.747z" fill="#aa7143"/><path d="M215.376 79.603l.003-.018-6.137-23.343s-2.746.906-6.913 2.315c-.946.327-1.975.668-3.054 1.046l-.009-.001c-9.35 3.189-23.071 7.952-31.204 11.142-13.204 5.175-45.202 16.014-56.137 21.391-10.936 5.385-39.531 14.49-53.705 27.266-9.58 8.631-13.861 15.886-14.639 22.943l-.001.009c-.37 3.29.02 6.538.985 9.875 1.613 5.559 8.869 16.268 14.764 10.142 3.065-3.183-2.097-12.563 3.639-21.686 2.404-3.823 9.117-9.222 18.748-9.673 10.1-.476 15.623-2.489 20.992-1.732.052.008 4.013 7.509 4.065 7.517 10.308 1.517 23.679 2.965 41.219-2.17a39.518 39.518 0 0 0 6.905-2.782c4.19-2.131 8.01-4.874 11.521-7.818 5.006-4.206 9.378-8.77 13.287-12.43.009.001.009.001.019-.006a44.908 44.908 0 0 1 1.711-1.559c.281-.252.562-.503.839-.729.548-.47 1.091-.913 1.62-1.323.812-.616 1.587-1.167 2.357-1.629 1.571-.946 3.574-1.967 5.794-3 .365-.158.712-.319 1.07-.487.269-.119.538-.238.816-.356.423-.185.855-.377 1.297-.568a219.298 219.298 0 0 1 6.065-2.501c8.897-3.501 17.619-6.394 17.619-6.394l-.382-1.456-3.154-11.985z" fill="#bf824b"/><path d="M199.266 59.602c-9.35 3.189-23.071 7.952-31.204 11.142-13.204 5.175-45.202 16.014-56.137 21.391-10.936 5.385-39.531 14.49-53.705 27.266-9.58 8.631-13.861 15.886-14.639 22.943.23-.501 9.19-19.684 29.965-28.522 21.044-8.957 66.928-28.661 82.032-33.163 15.097-4.513 45.378-16.569 45.378-16.569l-1.682-4.487-.008-.001z" opacity=".1" fill="#fff"/><path d="M182.101 91.603a34.53 34.53 0 0 0-6.543 5.278c-.389.391-.777.8-1.146 1.219-5.34 5.921-9.119 13.74-12.44 23.088-1.456 4.107-4.11 7.675-7.069 10.65a46.709 46.709 0 0 1-2.516 2.344c4.968-2.192 9.521-4.877 12.398-8.171a43.354 43.354 0 0 0 1.63-1.985c5.009-4.201 9.38-8.779 13.295-12.431.009-.01.009-.01.008-.019a71.777 71.777 0 0 1 1.719-1.552c.282-.252.565-.495.838-.727a39.416 39.416 0 0 1 1.626-1.319 26.187 26.187 0 0 1 2.352-1.632c1.578-.946 3.572-1.969 5.802-2.995.353-.161.697-.321 1.059-.491.27-.118.54-.237.819-.355.428-.193.856-.376 1.293-.57a224.778 224.778 0 0 1 6.075-2.496 361.347 361.347 0 0 1 11.351-4.238l-5.058-13.459c-7.749 2.265-19.343 6.03-25.493 9.861z" opacity=".49" fill="#aa7143"/><path fill="#eef4f8" d="M198.559 57.706l9.037 24.034 5.058 13.46 3.244 8.633 37.183-10.826-15.527-46.79z"/><path d="M81.719 131.01l18.342-1.895c9.682-1.704 18.825-3.886 21.483-17.145 2.657-13.269-33.101 10.888-39.825 19.04z" opacity=".49" fill="#aa7143"/><path fill="#cecccc" d="M3.338 145.476l18.034 60.502 82.731-27.162-19.924-57.483z"/><path fill="#f7931e" d="M.005 143.531l83.373-24.902 17.395 58.24-83.372 24.902z"/><path fill="#5a6a82" d="M255.762 104.123l115.32-32.158V0l-138.69 37.226z"/><path fill="#dce7ee" d="M211.559 92.291l4.34 11.543 36.09-10.511-4.22-12.081z"/><path fill="#5a6a82" d="M255.762 104.123l115.32-32.158V53.564L250.091 87.891z"/><path d="M172.055 90.137c-.915-.971-2.213-1.619-3.8-1.966-12.101-2.677-41.485 11.339-53.573 21.502-2.099 1.752-3.67 3.401-4.549 4.825-6.619 10.703-7.392 14.033-13.582 16.526-2.955 1.196-10.038 3.496-16.95 5.815-7.556 2.542-14.921 5.113-16.488 6.296-2.949 2.233-5.906 4.523-3.527 11.288.033.093.057.187.09.281.176.476.38.922.611 1.348h.009c2.644 4.878 8.983 6.84 17.198 5.843 8.943-1.081 19.034-.356 26.667-5.88 7.633-5.542 18.193-12.061 25.786-14.434 2.903-.908 7.55-2.114 12.622-3.741 3.21-1.038 6.601-2.247 9.811-3.655 4.968-2.192 9.521-4.877 12.398-8.171a43.354 43.354 0 0 0 1.63-1.985c4.876-6.258 9.63-15.478 9.534-23.577-.014-1.217-.132-2.419-.39-3.566-.522-2.477-1.647-4.778-3.497-6.749z" fill="#bf824b"/><path d="M67.973 141.967c-4.554.727-7.334 3.658-6.607 8.212.727 4.554 4.172 8.171 8.726 7.444a8.35 8.35 0 0 0 6.929-9.564c-.726-4.554-4.493-6.82-9.048-6.092z" opacity=".24" fill="#fff"/></svg>