<svg xmlns="http://www.w3.org/2000/svg" viewBox="0 0 167.436 306.597">
  <path d="M104.236 178.855l-1.322 1.7-46.5 59.835s-.273.886-.68 2.35l-.003.014c-1.29 4.65-3.93 15.127-3.548 21.87.41 7.225 2.215 11.628 5.566 13.105.77.342 1.622.527 2.555.56.392.013.76-.056 1.102-.19.448-.177.86-.472 1.23-.872 2.185-2.343 3.137-8.173 4.098-13.485.4-2.218.807-4.346 1.296-6.09 2.036-7.186 8.09-8.837 12.127-18.958 4.036-10.12 16.12-22.7 20.485-34.503 4.297-11.62 3.62-24.914 3.595-25.33v-.007z" fill="#FFBE69"/>
  <path d="M104.236 178.855l-1.322 1.7-46.5 59.835s-.273.886-.68 2.35l-.003.014c-1.29 4.65-3.93 15.127-3.548 21.87.41 7.225 2.215 11.628 5.566 13.105.77.342 1.622.527 2.555.56.392.013.76-.056 1.102-.19.448-.177.86-.472 1.23-.872 2.185-2.343 3.137-8.173 4.098-13.485.4-2.218.807-4.346 1.296-6.09 2.036-7.186 8.09-8.837 12.127-18.958 4.036-10.12 16.12-22.7 20.485-34.503 4.297-11.62 3.62-24.914 3.595-25.33v-.007z" fill="#FFBE69"/>
  <path d="M55.73 242.753c-1.29 4.65-3.932 15.127-3.55 21.87.412 7.225 2.216 11.628 5.567 13.105-.723-1.16-3.41-9.114-1.49-16.788 2.14-8.54 7.072-14.74 7.072-14.74l16.274-26.634-23.87 23.175-.004.013z" fill="#FFB45A"/>
  <path d="M104.236 178.855l-1.322 1.7-46.5 59.835s-.273.886-.68 2.35l-.003.014c-1.29 4.65-3.93 15.127-3.548 21.87.41 7.225 2.215 11.628 5.566 13.105.77.342 1.622.527 2.555.56.392.013.76-.056 1.102-.19.448-.177.86-.472 1.23-.872 2.185-2.343 3.137-8.173 4.098-13.485.4-2.218.807-4.346 1.296-6.09 2.036-7.186 8.09-8.837 12.127-18.958 4.036-10.12 16.12-22.7 20.485-34.503 4.297-11.62 3.62-24.914 3.595-25.33v-.007z" fill="#FFBE69"/>
  <path d="M55.73 242.753c-1.29 4.65-3.932 15.127-3.55 21.87.412 7.225 2.216 11.628 5.567 13.105-.723-1.16-3.41-9.114-1.49-16.788 2.14-8.54 7.072-14.74 7.072-14.74l16.274-26.634-23.87 23.175-.004.013z" fill="#FFB45A"/>
  <path d="M67.024 80.746L49.11 125.128s-8.404 3.885-14.408 8.17c-6.018 4.297-22.518 29.36-29.127 39.65-1.923 2.997-3.286 5.857-4.185 8.552v.013c-2.206 6.554-1.598 12.107.51 16.05 2.986 5.554 4.974 9.846 4.974 9.846s-2.092 10.584 3.384 15.206c1.546 1.296 2.882 2.206 4.006 2.854 2.84 1.626 4.285 1.53 4.285 1.53s-.867 3.48.356 6.853c.334.933.834 1.86 1.546 2.688 1.784 2.09 4.537 4.075 6.712 5.46.007-.007.013 0 .02.007 0 0 .005.007.018.008 1.828 1.152 6.174.387 6.174.387s-6.987 11.686-11.025 19.79c-.592 1.19-6.483 10.294-11.802 18.86l-.007.005c0 .013-.007.02-.007.02-4.105 6.608-7.88 12.884-8.604 14.936-.75 2.124-2.194 6.568 2.268 9.794 1.52 1.096 4.06 1.155 6.95-.49l.034-.03c1.697-.964 3.512-2.537 5.29-4.828 2.245-2.893 9.723-13.263 16.505-23.825 5.85-9.108 12.183-18.358 14.898-21.136 1.774-1.81 3.53-3.664 5.263-5.535.03-.038.058-.062.086-.086 5.447-5.866 10.723-11.93 15.92-17.726v-.013c1.765-1.96 3.406-3.85 4.84-5.638 7.676-9.58 26.486-36.186 29.957-46.686 3.472-10.5-11.436-43.087-11.436-43.087l19.934-44.64-45.414-11.344z" fill="#FFBE69"/>
  <path d="M104.236 178.855l-1.322 1.7-46.5 59.835s-.273.886-.68 2.35l-.003.014c-1.29 4.65-3.93 15.127-3.548 21.87.41 7.225 2.215 11.628 5.566 13.105.77.342 1.622.527 2.555.56.392.013.76-.056 1.102-.19.448-.177.86-.472 1.23-.872 2.185-2.343 3.137-8.173 4.098-13.485.4-2.218.807-4.346 1.296-6.09 2.036-7.186 8.09-8.837 12.127-18.958 4.036-10.12 16.12-22.7 20.485-34.503 4.297-11.62 3.62-24.914 3.595-25.33v-.007z" fill="#FFBE69"/>
  <path d="M55.73 242.753c-1.29 4.65-3.932 15.127-3.55 21.87.412 7.225 2.216 11.628 5.567 13.105-.723-1.16-3.41-9.114-1.49-16.788 2.14-8.54 7.072-14.74 7.072-14.74l16.274-26.634-23.87 23.175-.004.013z" fill="#FFB45A"/>
  <path d="M67.024 80.746L49.11 125.128s-8.404 3.885-14.408 8.17c-6.018 4.297-22.518 29.36-29.127 39.65-1.923 2.997-3.286 5.857-4.185 8.552v.013c-2.206 6.554-1.598 12.107.51 16.05 2.986 5.554 4.974 9.846 4.974 9.846s-2.092 10.584 3.384 15.206c1.546 1.296 2.882 2.206 4.006 2.854 2.84 1.626 4.285 1.53 4.285 1.53s-.867 3.48.356 6.853c.334.933.834 1.86 1.546 2.688 1.784 2.09 4.537 4.075 6.712 5.46.007-.007.013 0 .02.007 0 0 .005.007.018.008 1.828 1.152 6.174.387 6.174.387s-6.987 11.686-11.025 19.79c-.592 1.19-6.483 10.294-11.802 18.86l-.007.005c0 .013-.007.02-.007.02-4.105 6.608-7.88 12.884-8.604 14.936-.75 2.124-2.194 6.568 2.268 9.794 1.52 1.096 4.06 1.155 6.95-.49l.034-.03c1.697-.964 3.512-2.537 5.29-4.828 2.245-2.893 9.723-13.263 16.505-23.825 5.85-9.108 12.183-18.358 14.898-21.136 1.774-1.81 3.53-3.664 5.263-5.535.03-.038.058-.062.086-.086 5.447-5.866 10.723-11.93 15.92-17.726v-.013c1.765-1.96 3.406-3.85 4.84-5.638 7.676-9.58 26.486-36.186 29.957-46.686 3.472-10.5-11.436-43.087-11.436-43.087l19.934-44.64-45.414-11.344z" fill="#FFBE69"/>
  <path d="M14.264 225.47c2.84 1.634 4.286 1.526 4.286 1.526s-.866 3.487.358 6.862c-.137-.412.683-4.778.978-6.717.3-1.935 1.07-4.27 1.07-4.27s-2.344 2.23-3.384 2.248c-1.036.02-3.308.353-3.308.353z" fill="#FFB45A"/>
  <path d="M104.236 178.855l-1.322 1.7-46.5 59.835s-.273.886-.68 2.35l-.003.014c-1.29 4.65-3.93 15.127-3.548 21.87.41 7.225 2.215 11.628 5.566 13.105.77.342 1.622.527 2.555.56.392.013.76-.056 1.102-.19.448-.177.86-.472 1.23-.872 2.185-2.343 3.137-8.173 4.098-13.485.4-2.218.807-4.346 1.296-6.09 2.036-7.186 8.09-8.837 12.127-18.958 4.036-10.12 16.12-22.7 20.485-34.503 4.297-11.62 3.62-24.914 3.595-25.33v-.007z" fill="#FFBE69"/>
  <path d="M55.73 242.753c-1.29 4.65-3.932 15.127-3.55 21.87.412 7.225 2.216 11.628 5.567 13.105-.723-1.16-3.41-9.114-1.49-16.788 2.14-8.54 7.072-14.74 7.072-14.74l16.274-26.634-23.87 23.175-.004.013z" fill="#FFB45A"/>
  <path d="M67.024 80.746L49.11 125.128s-8.404 3.885-14.408 8.17c-6.018 4.297-22.518 29.36-29.127 39.65-1.923 2.997-3.286 5.857-4.185 8.552v.013c-2.206 6.554-1.598 12.107.51 16.05 2.986 5.554 4.974 9.846 4.974 9.846s-2.092 10.584 3.384 15.206c1.546 1.296 2.882 2.206 4.006 2.854 2.84 1.626 4.285 1.53 4.285 1.53s-.867 3.48.356 6.853c.334.933.834 1.86 1.546 2.688 1.784 2.09 4.537 4.075 6.712 5.46.007-.007.013 0 .02.007 0 0 .005.007.018.008 1.828 1.152 6.174.387 6.174.387s-6.987 11.686-11.025 19.79c-.592 1.19-6.483 10.294-11.802 18.86l-.007.005c0 .013-.007.02-.007.02-4.105 6.608-7.88 12.884-8.604 14.936-.75 2.124-2.194 6.568 2.268 9.794 1.52 1.096 4.06 1.155 6.95-.49l.034-.03c1.697-.964 3.512-2.537 5.29-4.828 2.245-2.893 9.723-13.263 16.505-23.825 5.85-9.108 12.183-18.358 14.898-21.136 1.774-1.81 3.53-3.664 5.263-5.535.03-.038.058-.062.086-.086 5.447-5.866 10.723-11.93 15.92-17.726v-.013c1.765-1.96 3.406-3.85 4.84-5.638 7.676-9.58 26.486-36.186 29.957-46.686 3.472-10.5-11.436-43.087-11.436-43.087l19.934-44.64-45.414-11.344z" fill="#FFBE69"/>
  <path d="M14.264 225.47c2.84 1.634 4.286 1.526 4.286 1.526s-.866 3.487.358 6.862c-.137-.412.683-4.778.978-6.717.3-1.935 1.07-4.27 1.07-4.27s-2.344 2.23-3.384 2.248c-1.036.02-3.308.353-3.308.353z" fill="#FFB45A"/>
  <path d="M57.646 129.172l9.38-48.426-17.91 44.386s-8.405 3.884-14.414 8.172c-6.012 4.294-22.51 29.353-29.127 39.645-1.923 2.994-3.29 5.854-4.19 8.55v.01c-.046.338-1.536 11.25 2.55 15.033 4.15 3.842 4.488 10.113 8.936 14.872 4.452 4.755 6.84 2.79 8.218 4.066 1.377 1.277-1.09 5.682 3.615 9.894s9.67 3.256 12.462 5.48c2.793 2.222-.007 7.116 5.066 9.437 5.073 2.322 8.876 6.593 17.52-3.98 8.648-10.58 22.562-33.685 17.29-62.49-5.273-28.803-19.394-44.648-19.394-44.648z" opacity=".33" fill="#FFCE94"/>
  <path d="M104.236 178.855l-1.322 1.7-46.5 59.835s-.273.886-.68 2.35l-.003.014c-1.29 4.65-3.93 15.127-3.548 21.87.41 7.225 2.215 11.628 5.566 13.105.77.342 1.622.527 2.555.56.392.013.76-.056 1.102-.19.448-.177.86-.472 1.23-.872 2.185-2.343 3.137-8.173 4.098-13.485.4-2.218.807-4.346 1.296-6.09 2.036-7.186 8.09-8.837 12.127-18.958 4.036-10.12 16.12-22.7 20.485-34.503 4.297-11.62 3.62-24.914 3.595-25.33v-.007z" fill="#FFBE69"/>
  <path d="M55.73 242.753c-1.29 4.65-3.932 15.127-3.55 21.87.412 7.225 2.216 11.628 5.567 13.105-.723-1.16-3.41-9.114-1.49-16.788 2.14-8.54 7.072-14.74 7.072-14.74l16.274-26.634-23.87 23.175-.004.013z" fill="#FFB45A"/>
  <path d="M67.024 80.746L49.11 125.128s-8.404 3.885-14.408 8.17c-6.018 4.297-22.518 29.36-29.127 39.65-1.923 2.997-3.286 5.857-4.185 8.552v.013c-2.206 6.554-1.598 12.107.51 16.05 2.986 5.554 4.974 9.846 4.974 9.846s-2.092 10.584 3.384 15.206c1.546 1.296 2.882 2.206 4.006 2.854 2.84 1.626 4.285 1.53 4.285 1.53s-.867 3.48.356 6.853c.334.933.834 1.86 1.546 2.688 1.784 2.09 4.537 4.075 6.712 5.46.007-.007.013 0 .02.007 0 0 .005.007.018.008 1.828 1.152 6.174.387 6.174.387s-6.987 11.686-11.025 19.79c-.592 1.19-6.483 10.294-11.802 18.86l-.007.005c0 .013-.007.02-.007.02-4.105 6.608-7.88 12.884-8.604 14.936-.75 2.124-2.194 6.568 2.268 9.794 1.52 1.096 4.06 1.155 6.95-.49l.034-.03c1.697-.964 3.512-2.537 5.29-4.828 2.245-2.893 9.723-13.263 16.505-23.825 5.85-9.108 12.183-18.358 14.898-21.136 1.774-1.81 3.53-3.664 5.263-5.535.03-.038.058-.062.086-.086 5.447-5.866 10.723-11.93 15.92-17.726v-.013c1.765-1.96 3.406-3.85 4.84-5.638 7.676-9.58 26.486-36.186 29.957-46.686 3.472-10.5-11.436-43.087-11.436-43.087l19.934-44.64-45.414-11.344z" fill="#FFBE69"/>
  <path d="M14.264 225.47c2.84 1.634 4.286 1.526 4.286 1.526s-.866 3.487.358 6.862c-.137-.412.683-4.778.978-6.717.3-1.935 1.07-4.27 1.07-4.27s-2.344 2.23-3.384 2.248c-1.036.02-3.308.353-3.308.353z" fill="#FFB45A"/>
  <path d="M57.646 129.172l9.38-48.426-17.91 44.386s-8.405 3.884-14.414 8.172c-6.012 4.294-22.51 29.353-29.127 39.645-1.923 2.994-3.29 5.854-4.19 8.55v.01c-.046.338-1.536 11.25 2.55 15.033 4.15 3.842 4.488 10.113 8.936 14.872 4.452 4.755 6.84 2.79 8.218 4.066 1.377 1.277-1.09 5.682 3.615 9.894s9.67 3.256 12.462 5.48c2.793 2.222-.007 7.116 5.066 9.437 5.073 2.322 8.876 6.593 17.52-3.98 8.648-10.58 22.562-33.685 17.29-62.49-5.273-28.803-19.394-44.648-19.394-44.648z" opacity=".33" fill="#FFCE94"/>
  <path d="M37.164 230.853l3.67 11.48s13.59-30.568 12.83-28.94c-.76 1.628-16.5 17.46-16.5 17.46z" fill="#FFBE69"/>
  <g>
    <path d="M104.236 178.855l-1.322 1.7-46.5 59.835s-.273.886-.68 2.35l-.003.014c-1.29 4.65-3.93 15.127-3.548 21.87.41 7.225 2.215 11.628 5.566 13.105.77.342 1.622.527 2.555.56.392.013.76-.056 1.102-.19.448-.177.86-.472 1.23-.872 2.185-2.343 3.137-8.173 4.098-13.485.4-2.218.807-4.346 1.296-6.09 2.036-7.186 8.09-8.837 12.127-18.958 4.036-10.12 16.12-22.7 20.485-34.503 4.297-11.62 3.62-24.914 3.595-25.33v-.007z" fill="#FFBE69"/>
    <path d="M55.73 242.753c-1.29 4.65-3.932 15.127-3.55 21.87.412 7.225 2.216 11.628 5.567 13.105-.723-1.16-3.41-9.114-1.49-16.788 2.14-8.54 7.072-14.74 7.072-14.74l16.274-26.634-23.87 23.175-.004.013z" fill="#FFB45A"/>
    <path d="M67.024 80.746L49.11 125.128s-8.404 3.885-14.408 8.17c-6.018 4.297-22.518 29.36-29.127 39.65-1.923 2.997-3.286 5.857-4.185 8.552v.013c-2.206 6.554-1.598 12.107.51 16.05 2.986 5.554 4.974 9.846 4.974 9.846s-2.092 10.584 3.384 15.206c1.546 1.296 2.882 2.206 4.006 2.854 2.84 1.626 4.285 1.53 4.285 1.53s-.867 3.48.356 6.853c.334.933.834 1.86 1.546 2.688 1.784 2.09 4.537 4.075 6.712 5.46.007-.007.013 0 .02.007 0 0 .005.007.018.008 1.828 1.152 6.174.387 6.174.387s-6.987 11.686-11.025 19.79c-.592 1.19-6.483 10.294-11.802 18.86l-.007.005c0 .013-.007.02-.007.02-4.105 6.608-7.88 12.884-8.604 14.936-.75 2.124-2.194 6.568 2.268 9.794 1.52 1.096 4.06 1.155 6.95-.49l.034-.03c1.697-.964 3.512-2.537 5.29-4.828 2.245-2.893 9.723-13.263 16.505-23.825 5.85-9.108 12.183-18.358 14.898-21.136 1.774-1.81 3.53-3.664 5.263-5.535.03-.038.058-.062.086-.086 5.447-5.866 10.723-11.93 15.92-17.726v-.013c1.765-1.96 3.406-3.85 4.84-5.638 7.676-9.58 26.486-36.186 29.957-46.686 3.472-10.5-11.436-43.087-11.436-43.087l19.934-44.64-45.414-11.344z" fill="#FFBE69"/>
    <path d="M14.264 225.47c2.84 1.634 4.286 1.526 4.286 1.526s-.866 3.487.358 6.862c-.137-.412.683-4.778.978-6.717.3-1.935 1.07-4.27 1.07-4.27s-2.344 2.23-3.384 2.248c-1.036.02-3.308.353-3.308.353z" fill="#FFB45A"/>
    <path d="M57.646 129.172l9.38-48.426-17.91 44.386s-8.405 3.884-14.414 8.172c-6.012 4.294-22.51 29.353-29.127 39.645-1.923 2.994-3.29 5.854-4.19 8.55v.01c-.046.338-1.536 11.25 2.55 15.033 4.15 3.842 4.488 10.113 8.936 14.872 4.452 4.755 6.84 2.79 8.218 4.066 1.377 1.277-1.09 5.682 3.615 9.894s9.67 3.256 12.462 5.48c2.793 2.222-.007 7.116 5.066 9.437 5.073 2.322 8.876 6.593 17.52-3.98 8.648-10.58 22.562-33.685 17.29-62.49-5.273-28.803-19.394-44.648-19.394-44.648z" opacity=".33" fill="#FFCE94"/>
    <path d="M37.164 230.853l3.67 11.48s13.59-30.568 12.83-28.94c-.76 1.628-16.5 17.46-16.5 17.46zM20.955 222.87c.814-2.572 11.36-23.827 11.36-23.827l-13.1 16.61 1.74 7.218z" fill="#FFBE69"/>
  </g>
  <g>
    <path d="M104.236 178.855l-1.322 1.7-46.5 59.835s-.273.886-.68 2.35l-.003.014c-1.29 4.65-3.93 15.127-3.548 21.87.41 7.225 2.215 11.628 5.566 13.105.77.342 1.622.527 2.555.56.392.013.76-.056 1.102-.19.448-.177.86-.472 1.23-.872 2.185-2.343 3.137-8.173 4.098-13.485.4-2.218.807-4.346 1.296-6.09 2.036-7.186 8.09-8.837 12.127-18.958 4.036-10.12 16.12-22.7 20.485-34.503 4.297-11.62 3.62-24.914 3.595-25.33v-.007z" fill="#FFBE69"/>
    <path d="M55.73 242.753c-1.29 4.65-3.932 15.127-3.55 21.87.412 7.225 2.216 11.628 5.567 13.105-.723-1.16-3.41-9.114-1.49-16.788 2.14-8.54 7.072-14.74 7.072-14.74l16.274-26.634-23.87 23.175-.004.013z" fill="#FFB45A"/>
    <path d="M67.024 80.746L49.11 125.128s-8.404 3.885-14.408 8.17c-6.018 4.297-22.518 29.36-29.127 39.65-1.923 2.997-3.286 5.857-4.185 8.552v.013c-2.206 6.554-1.598 12.107.51 16.05 2.986 5.554 4.974 9.846 4.974 9.846s-2.092 10.584 3.384 15.206c1.546 1.296 2.882 2.206 4.006 2.854 2.84 1.626 4.285 1.53 4.285 1.53s-.867 3.48.356 6.853c.334.933.834 1.86 1.546 2.688 1.784 2.09 4.537 4.075 6.712 5.46.007-.007.013 0 .02.007 0 0 .005.007.018.008 1.828 1.152 6.174.387 6.174.387s-6.987 11.686-11.025 19.79c-.592 1.19-6.483 10.294-11.802 18.86l-.007.005c0 .013-.007.02-.007.02-4.105 6.608-7.88 12.884-8.604 14.936-.75 2.124-2.194 6.568 2.268 9.794 1.52 1.096 4.06 1.155 6.95-.49l.034-.03c1.697-.964 3.512-2.537 5.29-4.828 2.245-2.893 9.723-13.263 16.505-23.825 5.85-9.108 12.183-18.358 14.898-21.136 1.774-1.81 3.53-3.664 5.263-5.535.03-.038.058-.062.086-.086 5.447-5.866 10.723-11.93 15.92-17.726v-.013c1.765-1.96 3.406-3.85 4.84-5.638 7.676-9.58 26.486-36.186 29.957-46.686 3.472-10.5-11.436-43.087-11.436-43.087l19.934-44.64-45.414-11.344z" fill="#FFBE69"/>
    <path d="M14.264 225.47c2.84 1.634 4.286 1.526 4.286 1.526s-.866 3.487.358 6.862c-.137-.412.683-4.778.978-6.717.3-1.935 1.07-4.27 1.07-4.27s-2.344 2.23-3.384 2.248c-1.036.02-3.308.353-3.308.353z" fill="#FFB45A"/>
    <path d="M57.646 129.172l9.38-48.426-17.91 44.386s-8.405 3.884-14.414 8.172c-6.012 4.294-22.51 29.353-29.127 39.645-1.923 2.994-3.29 5.854-4.19 8.55v.01c-.046.338-1.536 11.25 2.55 15.033 4.15 3.842 4.488 10.113 8.936 14.872 4.452 4.755 6.84 2.79 8.218 4.066 1.377 1.277-1.09 5.682 3.615 9.894s9.67 3.256 12.462 5.48c2.793 2.222-.007 7.116 5.066 9.437 5.073 2.322 8.876 6.593 17.52-3.98 8.648-10.58 22.562-33.685 17.29-62.49-5.273-28.803-19.394-44.648-19.394-44.648z" opacity=".33" fill="#FFCE94"/>
    <path d="M37.164 230.853l3.67 11.48s13.59-30.568 12.83-28.94c-.76 1.628-16.5 17.46-16.5 17.46zM20.955 222.87c.814-2.572 11.36-23.827 11.36-23.827l-13.1 16.61 1.74 7.218zM4.835 197.483l2.96 5.032s11.87-17.028 10.823-15.847c-1.048 1.182-13.783 10.815-13.783 10.815z" fill="#FFBE69"/>
  </g>
  <g>
    <path d="M104.236 178.855l-1.322 1.7-46.5 59.835s-.273.886-.68 2.35l-.003.014c-1.29 4.65-3.93 15.127-3.548 21.87.41 7.225 2.215 11.628 5.566 13.105.77.342 1.622.527 2.555.56.392.013.76-.056 1.102-.19.448-.177.86-.472 1.23-.872 2.185-2.343 3.137-8.173 4.098-13.485.4-2.218.807-4.346 1.296-6.09 2.036-7.186 8.09-8.837 12.127-18.958 4.036-10.12 16.12-22.7 20.485-34.503 4.297-11.62 3.62-24.914 3.595-25.33v-.007z" fill="#FFBE69"/>
    <path d="M55.73 242.753c-1.29 4.65-3.932 15.127-3.55 21.87.412 7.225 2.216 11.628 5.567 13.105-.723-1.16-3.41-9.114-1.49-16.788 2.14-8.54 7.072-14.74 7.072-14.74l16.274-26.634-23.87 23.175-.004.013z" fill="#FFB45A"/>
    <path d="M67.024 80.746L49.11 125.128s-8.404 3.885-14.408 8.17c-6.018 4.297-22.518 29.36-29.127 39.65-1.923 2.997-3.286 5.857-4.185 8.552v.013c-2.206 6.554-1.598 12.107.51 16.05 2.986 5.554 4.974 9.846 4.974 9.846s-2.092 10.584 3.384 15.206c1.546 1.296 2.882 2.206 4.006 2.854 2.84 1.626 4.285 1.53 4.285 1.53s-.867 3.48.356 6.853c.334.933.834 1.86 1.546 2.688 1.784 2.09 4.537 4.075 6.712 5.46.007-.007.013 0 .02.007 0 0 .005.007.018.008 1.828 1.152 6.174.387 6.174.387s-6.987 11.686-11.025 19.79c-.592 1.19-6.483 10.294-11.802 18.86l-.007.005c0 .013-.007.02-.007.02-4.105 6.608-7.88 12.884-8.604 14.936-.75 2.124-2.194 6.568 2.268 9.794 1.52 1.096 4.06 1.155 6.95-.49l.034-.03c1.697-.964 3.512-2.537 5.29-4.828 2.245-2.893 9.723-13.263 16.505-23.825 5.85-9.108 12.183-18.358 14.898-21.136 1.774-1.81 3.53-3.664 5.263-5.535.03-.038.058-.062.086-.086 5.447-5.866 10.723-11.93 15.92-17.726v-.013c1.765-1.96 3.406-3.85 4.84-5.638 7.676-9.58 26.486-36.186 29.957-46.686 3.472-10.5-11.436-43.087-11.436-43.087l19.934-44.64-45.414-11.344z" fill="#FFBE69"/>
    <path d="M14.264 225.47c2.84 1.634 4.286 1.526 4.286 1.526s-.866 3.487.358 6.862c-.137-.412.683-4.778.978-6.717.3-1.935 1.07-4.27 1.07-4.27s-2.344 2.23-3.384 2.248c-1.036.02-3.308.353-3.308.353z" fill="#FFB45A"/>
    <path d="M57.646 129.172l9.38-48.426-17.91 44.386s-8.405 3.884-14.414 8.172c-6.012 4.294-22.51 29.353-29.127 39.645-1.923 2.994-3.29 5.854-4.19 8.55v.01c-.046.338-1.536 11.25 2.55 15.033 4.15 3.842 4.488 10.113 8.936 14.872 4.452 4.755 6.84 2.79 8.218 4.066 1.377 1.277-1.09 5.682 3.615 9.894s9.67 3.256 12.462 5.48c2.793 2.222-.007 7.116 5.066 9.437 5.073 2.322 8.876 6.593 17.52-3.98 8.648-10.58 22.562-33.685 17.29-62.49-5.273-28.803-19.394-44.648-19.394-44.648z" opacity=".33" fill="#FFCE94"/>
    <path d="M37.164 230.853l3.67 11.48s13.59-30.568 12.83-28.94c-.76 1.628-16.5 17.46-16.5 17.46zM20.955 222.87c.814-2.572 11.36-23.827 11.36-23.827l-13.1 16.61 1.74 7.218zM4.835 197.483l2.96 5.032s11.87-17.028 10.823-15.847c-1.048 1.182-13.783 10.815-13.783 10.815z" fill="#FFBE69"/>
    <path d="M98.603 201.64c-3.317 8.942-8.796 16.91-12.994 23.363-4.203 6.45-6.904 10.108-8.675 15.1-1.763 4.988-5.22 8.852-6.95 10.78-1.733 1.933-5.112.145-5.112.145l3.303 2.207c.49.328-1.738 3.952-2.99 10.06-.182.888-.343 1.827-.475 2.822-.693 5.326-2.126 9.247-2.858 10.986-.272.65-.447.997-.447.997.448-.178.86-.473 1.23-.873 2.185-2.343 3.137-8.173 4.098-13.485.4-2.218.807-4.346 1.296-6.09 2.036-7.186 8.09-8.837 12.127-18.958 4.036-10.12 16.12-22.7 20.485-34.503 4.297-11.62 3.62-24.913 3.595-25.328-.066.376-2.368 13.964-5.634 22.777z" opacity=".61" fill="#FFCE94"/>
  </g>
  <g>
    <path d="M104.236 178.855l-1.322 1.7-46.5 59.835s-.273.886-.68 2.35l-.003.014c-1.29 4.65-3.93 15.127-3.548 21.87.41 7.225 2.215 11.628 5.566 13.105.77.342 1.622.527 2.555.56.392.013.76-.056 1.102-.19.448-.177.86-.472 1.23-.872 2.185-2.343 3.137-8.173 4.098-13.485.4-2.218.807-4.346 1.296-6.09 2.036-7.186 8.09-8.837 12.127-18.958 4.036-10.12 16.12-22.7 20.485-34.503 4.297-11.62 3.62-24.914 3.595-25.33v-.007z" fill="#FFBE69"/>
    <path d="M55.73 242.753c-1.29 4.65-3.932 15.127-3.55 21.87.412 7.225 2.216 11.628 5.567 13.105-.723-1.16-3.41-9.114-1.49-16.788 2.14-8.54 7.072-14.74 7.072-14.74l16.274-26.634-23.87 23.175-.004.013z" fill="#FFB45A"/>
    <path d="M67.024 80.746L49.11 125.128s-8.404 3.885-14.408 8.17c-6.018 4.297-22.518 29.36-29.127 39.65-1.923 2.997-3.286 5.857-4.185 8.552v.013c-2.206 6.554-1.598 12.107.51 16.05 2.986 5.554 4.974 9.846 4.974 9.846s-2.092 10.584 3.384 15.206c1.546 1.296 2.882 2.206 4.006 2.854 2.84 1.626 4.285 1.53 4.285 1.53s-.867 3.48.356 6.853c.334.933.834 1.86 1.546 2.688 1.784 2.09 4.537 4.075 6.712 5.46.007-.007.013 0 .02.007 0 0 .005.007.018.008 1.828 1.152 6.174.387 6.174.387s-6.987 11.686-11.025 19.79c-.592 1.19-6.483 10.294-11.802 18.86l-.007.005c0 .013-.007.02-.007.02-4.105 6.608-7.88 12.884-8.604 14.936-.75 2.124-2.194 6.568 2.268 9.794 1.52 1.096 4.06 1.155 6.95-.49l.034-.03c1.697-.964 3.512-2.537 5.29-4.828 2.245-2.893 9.723-13.263 16.505-23.825 5.85-9.108 12.183-18.358 14.898-21.136 1.774-1.81 3.53-3.664 5.263-5.535.03-.038.058-.062.086-.086 5.447-5.866 10.723-11.93 15.92-17.726v-.013c1.765-1.96 3.406-3.85 4.84-5.638 7.676-9.58 26.486-36.186 29.957-46.686 3.472-10.5-11.436-43.087-11.436-43.087l19.934-44.64-45.414-11.344z" fill="#FFBE69"/>
    <path d="M14.264 225.47c2.84 1.634 4.286 1.526 4.286 1.526s-.866 3.487.358 6.862c-.137-.412.683-4.778.978-6.717.3-1.935 1.07-4.27 1.07-4.27s-2.344 2.23-3.384 2.248c-1.036.02-3.308.353-3.308.353z" fill="#FFB45A"/>
    <path d="M57.646 129.172l9.38-48.426-17.91 44.386s-8.405 3.884-14.414 8.172c-6.012 4.294-22.51 29.353-29.127 39.645-1.923 2.994-3.29 5.854-4.19 8.55v.01c-.046.338-1.536 11.25 2.55 15.033 4.15 3.842 4.488 10.113 8.936 14.872 4.452 4.755 6.84 2.79 8.218 4.066 1.377 1.277-1.09 5.682 3.615 9.894s9.67 3.256 12.462 5.48c2.793 2.222-.007 7.116 5.066 9.437 5.073 2.322 8.876 6.593 17.52-3.98 8.648-10.58 22.562-33.685 17.29-62.49-5.273-28.803-19.394-44.648-19.394-44.648z" opacity=".33" fill="#FFCE94"/>
    <path d="M37.164 230.853l3.67 11.48s13.59-30.568 12.83-28.94c-.76 1.628-16.5 17.46-16.5 17.46zM20.955 222.87c.814-2.572 11.36-23.827 11.36-23.827l-13.1 16.61 1.74 7.218zM4.835 197.483l2.96 5.032s11.87-17.028 10.823-15.847c-1.048 1.182-13.783 10.815-13.783 10.815z" fill="#FFBE69"/>
    <path d="M98.603 201.64c-3.317 8.942-8.796 16.91-12.994 23.363-4.203 6.45-6.904 10.108-8.675 15.1-1.763 4.988-5.22 8.852-6.95 10.78-1.733 1.933-5.112.145-5.112.145l3.303 2.207c.49.328-1.738 3.952-2.99 10.06-.182.888-.343 1.827-.475 2.822-.693 5.326-2.126 9.247-2.858 10.986-.272.65-.447.997-.447.997.448-.178.86-.473 1.23-.873 2.185-2.343 3.137-8.173 4.098-13.485.4-2.218.807-4.346 1.296-6.09 2.036-7.186 8.09-8.837 12.127-18.958 4.036-10.12 16.12-22.7 20.485-34.503 4.297-11.62 3.62-24.913 3.595-25.328-.066.376-2.368 13.964-5.634 22.777z" opacity=".61" fill="#FFCE94"/>
    <path d="M64.773 263.267c-2.48-.056-4.726 1.4-5.425 5.833-.626 3.983.474 7.33 2.503 8.004.232.076.472.122.722.126h.062c2.185-2.344 3.137-8.174 4.098-13.486-.455-.254-.98-.398-1.547-.45-.137-.015-.27-.026-.412-.027z" opacity=".24" fill="#FFF"/>
  </g>
  <g>
    <path d="M104.236 178.855l-1.322 1.7-46.5 59.835s-.273.886-.68 2.35l-.003.014c-1.29 4.65-3.93 15.127-3.548 21.87.41 7.225 2.215 11.628 5.566 13.105.77.342 1.622.527 2.555.56.392.013.76-.056 1.102-.19.448-.177.86-.472 1.23-.872 2.185-2.343 3.137-8.173 4.098-13.485.4-2.218.807-4.346 1.296-6.09 2.036-7.186 8.09-8.837 12.127-18.958 4.036-10.12 16.12-22.7 20.485-34.503 4.297-11.62 3.62-24.914 3.595-25.33v-.007z" fill="#FFBE69"/>
    <path d="M55.73 242.753c-1.29 4.65-3.932 15.127-3.55 21.87.412 7.225 2.216 11.628 5.567 13.105-.723-1.16-3.41-9.114-1.49-16.788 2.14-8.54 7.072-14.74 7.072-14.74l16.274-26.634-23.87 23.175-.004.013z" fill="#FFB45A"/>
    <path d="M67.024 80.746L49.11 125.128s-8.404 3.885-14.408 8.17c-6.018 4.297-22.518 29.36-29.127 39.65-1.923 2.997-3.286 5.857-4.185 8.552v.013c-2.206 6.554-1.598 12.107.51 16.05 2.986 5.554 4.974 9.846 4.974 9.846s-2.092 10.584 3.384 15.206c1.546 1.296 2.882 2.206 4.006 2.854 2.84 1.626 4.285 1.53 4.285 1.53s-.867 3.48.356 6.853c.334.933.834 1.86 1.546 2.688 1.784 2.09 4.537 4.075 6.712 5.46.007-.007.013 0 .02.007 0 0 .005.007.018.008 1.828 1.152 6.174.387 6.174.387s-6.987 11.686-11.025 19.79c-.592 1.19-6.483 10.294-11.802 18.86l-.007.005c0 .013-.007.02-.007.02-4.105 6.608-7.88 12.884-8.604 14.936-.75 2.124-2.194 6.568 2.268 9.794 1.52 1.096 4.06 1.155 6.95-.49l.034-.03c1.697-.964 3.512-2.537 5.29-4.828 2.245-2.893 9.723-13.263 16.505-23.825 5.85-9.108 12.183-18.358 14.898-21.136 1.774-1.81 3.53-3.664 5.263-5.535.03-.038.058-.062.086-.086 5.447-5.866 10.723-11.93 15.92-17.726v-.013c1.765-1.96 3.406-3.85 4.84-5.638 7.676-9.58 26.486-36.186 29.957-46.686 3.472-10.5-11.436-43.087-11.436-43.087l19.934-44.64-45.414-11.344z" fill="#FFBE69"/>
    <path d="M14.264 225.47c2.84 1.634 4.286 1.526 4.286 1.526s-.866 3.487.358 6.862c-.137-.412.683-4.778.978-6.717.3-1.935 1.07-4.27 1.07-4.27s-2.344 2.23-3.384 2.248c-1.036.02-3.308.353-3.308.353z" fill="#FFB45A"/>
    <path d="M57.646 129.172l9.38-48.426-17.91 44.386s-8.405 3.884-14.414 8.172c-6.012 4.294-22.51 29.353-29.127 39.645-1.923 2.994-3.29 5.854-4.19 8.55v.01c-.046.338-1.536 11.25 2.55 15.033 4.15 3.842 4.488 10.113 8.936 14.872 4.452 4.755 6.84 2.79 8.218 4.066 1.377 1.277-1.09 5.682 3.615 9.894s9.67 3.256 12.462 5.48c2.793 2.222-.007 7.116 5.066 9.437 5.073 2.322 8.876 6.593 17.52-3.98 8.648-10.58 22.562-33.685 17.29-62.49-5.273-28.803-19.394-44.648-19.394-44.648z" opacity=".33" fill="#FFCE94"/>
    <path d="M37.164 230.853l3.67 11.48s13.59-30.568 12.83-28.94c-.76 1.628-16.5 17.46-16.5 17.46zM20.955 222.87c.814-2.572 11.36-23.827 11.36-23.827l-13.1 16.61 1.74 7.218zM4.835 197.483l2.96 5.032s11.87-17.028 10.823-15.847c-1.048 1.182-13.783 10.815-13.783 10.815z" fill="#FFBE69"/>
    <path d="M98.603 201.64c-3.317 8.942-8.796 16.91-12.994 23.363-4.203 6.45-6.904 10.108-8.675 15.1-1.763 4.988-5.22 8.852-6.95 10.78-1.733 1.933-5.112.145-5.112.145l3.303 2.207c.49.328-1.738 3.952-2.99 10.06-.182.888-.343 1.827-.475 2.822-.693 5.326-2.126 9.247-2.858 10.986-.272.65-.447.997-.447.997.448-.178.86-.473 1.23-.873 2.185-2.343 3.137-8.173 4.098-13.485.4-2.218.807-4.346 1.296-6.09 2.036-7.186 8.09-8.837 12.127-18.958 4.036-10.12 16.12-22.7 20.485-34.503 4.297-11.62 3.62-24.913 3.595-25.328-.066.376-2.368 13.964-5.634 22.777z" opacity=".61" fill="#FFCE94"/>
    <path d="M64.773 263.267c-2.48-.056-4.726 1.4-5.425 5.833-.626 3.983.474 7.33 2.503 8.004.232.076.472.122.722.126h.062c2.185-2.344 3.137-8.174 4.098-13.486-.455-.254-.98-.398-1.547-.45-.137-.015-.27-.026-.412-.027z" opacity=".24" fill="#FFF"/>
    <path fill="#EFF6FE" d="M76.696 40.835L60.332 92.14l2.178.68 2.13.66 45.68 15.346 17.17-42.487L155.52 0h-59.06L77.585 38.037"/>
  </g>
  <g>
    <path d="M104.236 178.855l-1.322 1.7-46.5 59.835s-.273.886-.68 2.35l-.003.014c-1.29 4.65-3.93 15.127-3.548 21.87.41 7.225 2.215 11.628 5.566 13.105.77.342 1.622.527 2.555.56.392.013.76-.056 1.102-.19.448-.177.86-.472 1.23-.872 2.185-2.343 3.137-8.173 4.098-13.485.4-2.218.807-4.346 1.296-6.09 2.036-7.186 8.09-8.837 12.127-18.958 4.036-10.12 16.12-22.7 20.485-34.503 4.297-11.62 3.62-24.914 3.595-25.33v-.007z" fill="#FFBE69"/>
    <path d="M55.73 242.753c-1.29 4.65-3.932 15.127-3.55 21.87.412 7.225 2.216 11.628 5.567 13.105-.723-1.16-3.41-9.114-1.49-16.788 2.14-8.54 7.072-14.74 7.072-14.74l16.274-26.634-23.87 23.175-.004.013z" fill="#FFB45A"/>
    <path d="M67.024 80.746L49.11 125.128s-8.404 3.885-14.408 8.17c-6.018 4.297-22.518 29.36-29.127 39.65-1.923 2.997-3.286 5.857-4.185 8.552v.013c-2.206 6.554-1.598 12.107.51 16.05 2.986 5.554 4.974 9.846 4.974 9.846s-2.092 10.584 3.384 15.206c1.546 1.296 2.882 2.206 4.006 2.854 2.84 1.626 4.285 1.53 4.285 1.53s-.867 3.48.356 6.853c.334.933.834 1.86 1.546 2.688 1.784 2.09 4.537 4.075 6.712 5.46.007-.007.013 0 .02.007 0 0 .005.007.018.008 1.828 1.152 6.174.387 6.174.387s-6.987 11.686-11.025 19.79c-.592 1.19-6.483 10.294-11.802 18.86l-.007.005c0 .013-.007.02-.007.02-4.105 6.608-7.88 12.884-8.604 14.936-.75 2.124-2.194 6.568 2.268 9.794 1.52 1.096 4.06 1.155 6.95-.49l.034-.03c1.697-.964 3.512-2.537 5.29-4.828 2.245-2.893 9.723-13.263 16.505-23.825 5.85-9.108 12.183-18.358 14.898-21.136 1.774-1.81 3.53-3.664 5.263-5.535.03-.038.058-.062.086-.086 5.447-5.866 10.723-11.93 15.92-17.726v-.013c1.765-1.96 3.406-3.85 4.84-5.638 7.676-9.58 26.486-36.186 29.957-46.686 3.472-10.5-11.436-43.087-11.436-43.087l19.934-44.64-45.414-11.344z" fill="#FFBE69"/>
    <path d="M14.264 225.47c2.84 1.634 4.286 1.526 4.286 1.526s-.866 3.487.358 6.862c-.137-.412.683-4.778.978-6.717.3-1.935 1.07-4.27 1.07-4.27s-2.344 2.23-3.384 2.248c-1.036.02-3.308.353-3.308.353z" fill="#FFB45A"/>
    <path d="M57.646 129.172l9.38-48.426-17.91 44.386s-8.405 3.884-14.414 8.172c-6.012 4.294-22.51 29.353-29.127 39.645-1.923 2.994-3.29 5.854-4.19 8.55v.01c-.046.338-1.536 11.25 2.55 15.033 4.15 3.842 4.488 10.113 8.936 14.872 4.452 4.755 6.84 2.79 8.218 4.066 1.377 1.277-1.09 5.682 3.615 9.894s9.67 3.256 12.462 5.48c2.793 2.222-.007 7.116 5.066 9.437 5.073 2.322 8.876 6.593 17.52-3.98 8.648-10.58 22.562-33.685 17.29-62.49-5.273-28.803-19.394-44.648-19.394-44.648z" opacity=".33" fill="#FFCE94"/>
    <path d="M37.164 230.853l3.67 11.48s13.59-30.568 12.83-28.94c-.76 1.628-16.5 17.46-16.5 17.46zM20.955 222.87c.814-2.572 11.36-23.827 11.36-23.827l-13.1 16.61 1.74 7.218zM4.835 197.483l2.96 5.032s11.87-17.028 10.823-15.847c-1.048 1.182-13.783 10.815-13.783 10.815z" fill="#FFBE69"/>
    <path d="M98.603 201.64c-3.317 8.942-8.796 16.91-12.994 23.363-4.203 6.45-6.904 10.108-8.675 15.1-1.763 4.988-5.22 8.852-6.95 10.78-1.733 1.933-5.112.145-5.112.145l3.303 2.207c.49.328-1.738 3.952-2.99 10.06-.182.888-.343 1.827-.475 2.822-.693 5.326-2.126 9.247-2.858 10.986-.272.65-.447.997-.447.997.448-.178.86-.473 1.23-.873 2.185-2.343 3.137-8.173 4.098-13.485.4-2.218.807-4.346 1.296-6.09 2.036-7.186 8.09-8.837 12.127-18.958 4.036-10.12 16.12-22.7 20.485-34.503 4.297-11.62 3.62-24.913 3.595-25.328-.066.376-2.368 13.964-5.634 22.777z" opacity=".61" fill="#FFCE94"/>
    <path d="M64.773 263.267c-2.48-.056-4.726 1.4-5.425 5.833-.626 3.983.474 7.33 2.503 8.004.232.076.472.122.722.126h.062c2.185-2.344 3.137-8.174 4.098-13.486-.455-.254-.98-.398-1.547-.45-.137-.015-.27-.026-.412-.027z" opacity=".24" fill="#FFF"/>
    <path fill="#EFF6FE" d="M76.696 40.835L60.332 92.14l2.178.68 2.13.66 45.68 15.346 17.17-42.487L155.52 0h-59.06L77.585 38.037"/>
    <path fill="#DFE9F4" d="M94.65 103.562l15.67 5.26 19.014-45.83-15.587-8.003"/>
  </g>
  <g>
    <path d="M104.236 178.855l-1.322 1.7-46.5 59.835s-.273.886-.68 2.35l-.003.014c-1.29 4.65-3.93 15.127-3.548 21.87.41 7.225 2.215 11.628 5.566 13.105.77.342 1.622.527 2.555.56.392.013.76-.056 1.102-.19.448-.177.86-.472 1.23-.872 2.185-2.343 3.137-8.173 4.098-13.485.4-2.218.807-4.346 1.296-6.09 2.036-7.186 8.09-8.837 12.127-18.958 4.036-10.12 16.12-22.7 20.485-34.503 4.297-11.62 3.62-24.914 3.595-25.33v-.007z" fill="#FFBE69"/>
    <path d="M55.73 242.753c-1.29 4.65-3.932 15.127-3.55 21.87.412 7.225 2.216 11.628 5.567 13.105-.723-1.16-3.41-9.114-1.49-16.788 2.14-8.54 7.072-14.74 7.072-14.74l16.274-26.634-23.87 23.175-.004.013z" fill="#FFB45A"/>
    <path d="M67.024 80.746L49.11 125.128s-8.404 3.885-14.408 8.17c-6.018 4.297-22.518 29.36-29.127 39.65-1.923 2.997-3.286 5.857-4.185 8.552v.013c-2.206 6.554-1.598 12.107.51 16.05 2.986 5.554 4.974 9.846 4.974 9.846s-2.092 10.584 3.384 15.206c1.546 1.296 2.882 2.206 4.006 2.854 2.84 1.626 4.285 1.53 4.285 1.53s-.867 3.48.356 6.853c.334.933.834 1.86 1.546 2.688 1.784 2.09 4.537 4.075 6.712 5.46.007-.007.013 0 .02.007 0 0 .005.007.018.008 1.828 1.152 6.174.387 6.174.387s-6.987 11.686-11.025 19.79c-.592 1.19-6.483 10.294-11.802 18.86l-.007.005c0 .013-.007.02-.007.02-4.105 6.608-7.88 12.884-8.604 14.936-.75 2.124-2.194 6.568 2.268 9.794 1.52 1.096 4.06 1.155 6.95-.49l.034-.03c1.697-.964 3.512-2.537 5.29-4.828 2.245-2.893 9.723-13.263 16.505-23.825 5.85-9.108 12.183-18.358 14.898-21.136 1.774-1.81 3.53-3.664 5.263-5.535.03-.038.058-.062.086-.086 5.447-5.866 10.723-11.93 15.92-17.726v-.013c1.765-1.96 3.406-3.85 4.84-5.638 7.676-9.58 26.486-36.186 29.957-46.686 3.472-10.5-11.436-43.087-11.436-43.087l19.934-44.64-45.414-11.344z" fill="#FFBE69"/>
    <path d="M14.264 225.47c2.84 1.634 4.286 1.526 4.286 1.526s-.866 3.487.358 6.862c-.137-.412.683-4.778.978-6.717.3-1.935 1.07-4.27 1.07-4.27s-2.344 2.23-3.384 2.248c-1.036.02-3.308.353-3.308.353z" fill="#FFB45A"/>
    <path d="M57.646 129.172l9.38-48.426-17.91 44.386s-8.405 3.884-14.414 8.172c-6.012 4.294-22.51 29.353-29.127 39.645-1.923 2.994-3.29 5.854-4.19 8.55v.01c-.046.338-1.536 11.25 2.55 15.033 4.15 3.842 4.488 10.113 8.936 14.872 4.452 4.755 6.84 2.79 8.218 4.066 1.377 1.277-1.09 5.682 3.615 9.894s9.67 3.256 12.462 5.48c2.793 2.222-.007 7.116 5.066 9.437 5.073 2.322 8.876 6.593 17.52-3.98 8.648-10.58 22.562-33.685 17.29-62.49-5.273-28.803-19.394-44.648-19.394-44.648z" opacity=".33" fill="#FFCE94"/>
    <path d="M37.164 230.853l3.67 11.48s13.59-30.568 12.83-28.94c-.76 1.628-16.5 17.46-16.5 17.46zM20.955 222.87c.814-2.572 11.36-23.827 11.36-23.827l-13.1 16.61 1.74 7.218zM4.835 197.483l2.96 5.032s11.87-17.028 10.823-15.847c-1.048 1.182-13.783 10.815-13.783 10.815z" fill="#FFBE69"/>
    <path d="M98.603 201.64c-3.317 8.942-8.796 16.91-12.994 23.363-4.203 6.45-6.904 10.108-8.675 15.1-1.763 4.988-5.22 8.852-6.95 10.78-1.733 1.933-5.112.145-5.112.145l3.303 2.207c.49.328-1.738 3.952-2.99 10.06-.182.888-.343 1.827-.475 2.822-.693 5.326-2.126 9.247-2.858 10.986-.272.65-.447.997-.447.997.448-.178.86-.473 1.23-.873 2.185-2.343 3.137-8.173 4.098-13.485.4-2.218.807-4.346 1.296-6.09 2.036-7.186 8.09-8.837 12.127-18.958 4.036-10.12 16.12-22.7 20.485-34.503 4.297-11.62 3.62-24.913 3.595-25.328-.066.376-2.368 13.964-5.634 22.777z" opacity=".61" fill="#FFCE94"/>
    <path d="M64.773 263.267c-2.48-.056-4.726 1.4-5.425 5.833-.626 3.983.474 7.33 2.503 8.004.232.076.472.122.722.126h.062c2.185-2.344 3.137-8.174 4.098-13.486-.455-.254-.98-.398-1.547-.45-.137-.015-.27-.026-.412-.027z" opacity=".24" fill="#FFF"/>
    <path fill="#EFF6FE" d="M76.696 40.835L60.332 92.14l2.178.68 2.13.66 45.68 15.346 17.17-42.487L155.52 0h-59.06L77.585 38.037"/>
    <path fill="#DFE9F4" d="M94.65 103.562l15.67 5.26 19.014-45.83-15.587-8.003"/>
    <path d="M70.28 54.793c1.818.817 3.893 1.75 6.158 2.766 15.224 6.832 38.915 17.47 49.67 22.33 3.365 1.513 5.464 2.468 5.646 2.57 0 0 20.892-45.93 35.682-82.46H85.804L62.55 51.325s2.99 1.337 7.73 3.47z" fill="#387F78"/>
  </g>
  <g>
    <path d="M104.236 178.855l-1.322 1.7-46.5 59.835s-.273.886-.68 2.35l-.003.014c-1.29 4.65-3.93 15.127-3.548 21.87.41 7.225 2.215 11.628 5.566 13.105.77.342 1.622.527 2.555.56.392.013.76-.056 1.102-.19.448-.177.86-.472 1.23-.872 2.185-2.343 3.137-8.173 4.098-13.485.4-2.218.807-4.346 1.296-6.09 2.036-7.186 8.09-8.837 12.127-18.958 4.036-10.12 16.12-22.7 20.485-34.503 4.297-11.62 3.62-24.914 3.595-25.33v-.007z" fill="#FFBE69"/>
    <path d="M55.73 242.753c-1.29 4.65-3.932 15.127-3.55 21.87.412 7.225 2.216 11.628 5.567 13.105-.723-1.16-3.41-9.114-1.49-16.788 2.14-8.54 7.072-14.74 7.072-14.74l16.274-26.634-23.87 23.175-.004.013z" fill="#FFB45A"/>
    <path d="M67.024 80.746L49.11 125.128s-8.404 3.885-14.408 8.17c-6.018 4.297-22.518 29.36-29.127 39.65-1.923 2.997-3.286 5.857-4.185 8.552v.013c-2.206 6.554-1.598 12.107.51 16.05 2.986 5.554 4.974 9.846 4.974 9.846s-2.092 10.584 3.384 15.206c1.546 1.296 2.882 2.206 4.006 2.854 2.84 1.626 4.285 1.53 4.285 1.53s-.867 3.48.356 6.853c.334.933.834 1.86 1.546 2.688 1.784 2.09 4.537 4.075 6.712 5.46.007-.007.013 0 .02.007 0 0 .005.007.018.008 1.828 1.152 6.174.387 6.174.387s-6.987 11.686-11.025 19.79c-.592 1.19-6.483 10.294-11.802 18.86l-.007.005c0 .013-.007.02-.007.02-4.105 6.608-7.88 12.884-8.604 14.936-.75 2.124-2.194 6.568 2.268 9.794 1.52 1.096 4.06 1.155 6.95-.49l.034-.03c1.697-.964 3.512-2.537 5.29-4.828 2.245-2.893 9.723-13.263 16.505-23.825 5.85-9.108 12.183-18.358 14.898-21.136 1.774-1.81 3.53-3.664 5.263-5.535.03-.038.058-.062.086-.086 5.447-5.866 10.723-11.93 15.92-17.726v-.013c1.765-1.96 3.406-3.85 4.84-5.638 7.676-9.58 26.486-36.186 29.957-46.686 3.472-10.5-11.436-43.087-11.436-43.087l19.934-44.64-45.414-11.344z" fill="#FFBE69"/>
    <path d="M14.264 225.47c2.84 1.634 4.286 1.526 4.286 1.526s-.866 3.487.358 6.862c-.137-.412.683-4.778.978-6.717.3-1.935 1.07-4.27 1.07-4.27s-2.344 2.23-3.384 2.248c-1.036.02-3.308.353-3.308.353z" fill="#FFB45A"/>
    <path d="M57.646 129.172l9.38-48.426-17.91 44.386s-8.405 3.884-14.414 8.172c-6.012 4.294-22.51 29.353-29.127 39.645-1.923 2.994-3.29 5.854-4.19 8.55v.01c-.046.338-1.536 11.25 2.55 15.033 4.15 3.842 4.488 10.113 8.936 14.872 4.452 4.755 6.84 2.79 8.218 4.066 1.377 1.277-1.09 5.682 3.615 9.894s9.67 3.256 12.462 5.48c2.793 2.222-.007 7.116 5.066 9.437 5.073 2.322 8.876 6.593 17.52-3.98 8.648-10.58 22.562-33.685 17.29-62.49-5.273-28.803-19.394-44.648-19.394-44.648z" opacity=".33" fill="#FFCE94"/>
    <path d="M37.164 230.853l3.67 11.48s13.59-30.568 12.83-28.94c-.76 1.628-16.5 17.46-16.5 17.46zM20.955 222.87c.814-2.572 11.36-23.827 11.36-23.827l-13.1 16.61 1.74 7.218zM4.835 197.483l2.96 5.032s11.87-17.028 10.823-15.847c-1.048 1.182-13.783 10.815-13.783 10.815z" fill="#FFBE69"/>
    <path d="M98.603 201.64c-3.317 8.942-8.796 16.91-12.994 23.363-4.203 6.45-6.904 10.108-8.675 15.1-1.763 4.988-5.22 8.852-6.95 10.78-1.733 1.933-5.112.145-5.112.145l3.303 2.207c.49.328-1.738 3.952-2.99 10.06-.182.888-.343 1.827-.475 2.822-.693 5.326-2.126 9.247-2.858 10.986-.272.65-.447.997-.447.997.448-.178.86-.473 1.23-.873 2.185-2.343 3.137-8.173 4.098-13.485.4-2.218.807-4.346 1.296-6.09 2.036-7.186 8.09-8.837 12.127-18.958 4.036-10.12 16.12-22.7 20.485-34.503 4.297-11.62 3.62-24.913 3.595-25.328-.066.376-2.368 13.964-5.634 22.777z" opacity=".61" fill="#FFCE94"/>
    <path d="M64.773 263.267c-2.48-.056-4.726 1.4-5.425 5.833-.626 3.983.474 7.33 2.503 8.004.232.076.472.122.722.126h.062c2.185-2.344 3.137-8.174 4.098-13.486-.455-.254-.98-.398-1.547-.45-.137-.015-.27-.026-.412-.027z" opacity=".24" fill="#FFF"/>
    <path fill="#EFF6FE" d="M76.696 40.835L60.332 92.14l2.178.68 2.13.66 45.68 15.346 17.17-42.487L155.52 0h-59.06L77.585 38.037"/>
    <path fill="#DFE9F4" d="M94.65 103.562l15.67 5.26 19.014-45.83-15.587-8.003"/>
    <path d="M70.28 54.793c1.818.817 3.893 1.75 6.158 2.766 15.224 6.832 38.915 17.47 49.67 22.33 3.365 1.513 5.464 2.468 5.646 2.57 0 0 20.892-45.93 35.682-82.46H85.804L62.55 51.325s2.99 1.337 7.73 3.47z" fill="#387F78"/>
    <path d="M131.753 82.457L166.7 0h-32.51c-13.036 31.796-30.797 69.664-30.797 69.664l28.36 12.793z" fill="#2F776E"/>
  </g>
  <g>
    <path d="M104.236 178.855l-1.322 1.7-46.5 59.835s-.273.886-.68 2.35l-.003.014c-1.29 4.65-3.93 15.127-3.548 21.87.41 7.225 2.215 11.628 5.566 13.105.77.342 1.622.527 2.555.56.392.013.76-.056 1.102-.19.448-.177.86-.472 1.23-.872 2.185-2.343 3.137-8.173 4.098-13.485.4-2.218.807-4.346 1.296-6.09 2.036-7.186 8.09-8.837 12.127-18.958 4.036-10.12 16.12-22.7 20.485-34.503 4.297-11.62 3.62-24.914 3.595-25.33v-.007z" fill="#FFBE69"/>
    <path d="M55.73 242.753c-1.29 4.65-3.932 15.127-3.55 21.87.412 7.225 2.216 11.628 5.567 13.105-.723-1.16-3.41-9.114-1.49-16.788 2.14-8.54 7.072-14.74 7.072-14.74l16.274-26.634-23.87 23.175-.004.013z" fill="#FFB45A"/>
    <path d="M67.024 80.746L49.11 125.128s-8.404 3.885-14.408 8.17c-6.018 4.297-22.518 29.36-29.127 39.65-1.923 2.997-3.286 5.857-4.185 8.552v.013c-2.206 6.554-1.598 12.107.51 16.05 2.986 5.554 4.974 9.846 4.974 9.846s-2.092 10.584 3.384 15.206c1.546 1.296 2.882 2.206 4.006 2.854 2.84 1.626 4.285 1.53 4.285 1.53s-.867 3.48.356 6.853c.334.933.834 1.86 1.546 2.688 1.784 2.09 4.537 4.075 6.712 5.46.007-.007.013 0 .02.007 0 0 .005.007.018.008 1.828 1.152 6.174.387 6.174.387s-6.987 11.686-11.025 19.79c-.592 1.19-6.483 10.294-11.802 18.86l-.007.005c0 .013-.007.02-.007.02-4.105 6.608-7.88 12.884-8.604 14.936-.75 2.124-2.194 6.568 2.268 9.794 1.52 1.096 4.06 1.155 6.95-.49l.034-.03c1.697-.964 3.512-2.537 5.29-4.828 2.245-2.893 9.723-13.263 16.505-23.825 5.85-9.108 12.183-18.358 14.898-21.136 1.774-1.81 3.53-3.664 5.263-5.535.03-.038.058-.062.086-.086 5.447-5.866 10.723-11.93 15.92-17.726v-.013c1.765-1.96 3.406-3.85 4.84-5.638 7.676-9.58 26.486-36.186 29.957-46.686 3.472-10.5-11.436-43.087-11.436-43.087l19.934-44.64-45.414-11.344z" fill="#FFBE69"/>
    <path d="M14.264 225.47c2.84 1.634 4.286 1.526 4.286 1.526s-.866 3.487.358 6.862c-.137-.412.683-4.778.978-6.717.3-1.935 1.07-4.27 1.07-4.27s-2.344 2.23-3.384 2.248c-1.036.02-3.308.353-3.308.353z" fill="#FFB45A"/>
    <path d="M57.646 129.172l9.38-48.426-17.91 44.386s-8.405 3.884-14.414 8.172c-6.012 4.294-22.51 29.353-29.127 39.645-1.923 2.994-3.29 5.854-4.19 8.55v.01c-.046.338-1.536 11.25 2.55 15.033 4.15 3.842 4.488 10.113 8.936 14.872 4.452 4.755 6.84 2.79 8.218 4.066 1.377 1.277-1.09 5.682 3.615 9.894s9.67 3.256 12.462 5.48c2.793 2.222-.007 7.116 5.066 9.437 5.073 2.322 8.876 6.593 17.52-3.98 8.648-10.58 22.562-33.685 17.29-62.49-5.273-28.803-19.394-44.648-19.394-44.648z" opacity=".33" fill="#FFCE94"/>
    <path d="M37.164 230.853l3.67 11.48s13.59-30.568 12.83-28.94c-.76 1.628-16.5 17.46-16.5 17.46zM20.955 222.87c.814-2.572 11.36-23.827 11.36-23.827l-13.1 16.61 1.74 7.218zM4.835 197.483l2.96 5.032s11.87-17.028 10.823-15.847c-1.048 1.182-13.783 10.815-13.783 10.815z" fill="#FFBE69"/>
    <path d="M98.603 201.64c-3.317 8.942-8.796 16.91-12.994 23.363-4.203 6.45-6.904 10.108-8.675 15.1-1.763 4.988-5.22 8.852-6.95 10.78-1.733 1.933-5.112.145-5.112.145l3.303 2.207c.49.328-1.738 3.952-2.99 10.06-.182.888-.343 1.827-.475 2.822-.693 5.326-2.126 9.247-2.858 10.986-.272.65-.447.997-.447.997.448-.178.86-.473 1.23-.873 2.185-2.343 3.137-8.173 4.098-13.485.4-2.218.807-4.346 1.296-6.09 2.036-7.186 8.09-8.837 12.127-18.958 4.036-10.12 16.12-22.7 20.485-34.503 4.297-11.62 3.62-24.913 3.595-25.328-.066.376-2.368 13.964-5.634 22.777z" opacity=".61" fill="#FFCE94"/>
    <path d="M64.773 263.267c-2.48-.056-4.726 1.4-5.425 5.833-.626 3.983.474 7.33 2.503 8.004.232.076.472.122.722.126h.062c2.185-2.344 3.137-8.174 4.098-13.486-.455-.254-.98-.398-1.547-.45-.137-.015-.27-.026-.412-.027z" opacity=".24" fill="#FFF"/>
    <path fill="#EFF6FE" d="M76.696 40.835L60.332 92.14l2.178.68 2.13.66 45.68 15.346 17.17-42.487L155.52 0h-59.06L77.585 38.037"/>
    <path fill="#DFE9F4" d="M94.65 103.562l15.67 5.26 19.014-45.83-15.587-8.003"/>
    <path d="M70.28 54.793c1.818.817 3.893 1.75 6.158 2.766 15.224 6.832 38.915 17.47 49.67 22.33 3.365 1.513 5.464 2.468 5.646 2.57 0 0 20.892-45.93 35.682-82.46H85.804L62.55 51.325s2.99 1.337 7.73 3.47z" fill="#387F78"/>
    <path d="M131.753 82.457L166.7 0h-32.51c-13.036 31.796-30.797 69.664-30.797 69.664l28.36 12.793z" fill="#2F776E"/>
    <path d="M11.1 294.686c-2.477-1.733-4.965-2.454-7.098.595-2.132 3.05-1.852 6.926.626 8.66 2.478 1.733 6.216.667 8.348-2.382 2.132-3.048.603-5.138-1.875-6.872z" opacity=".24" fill="#FFF"/>
  </g>
  <g>
    <path d="M104.236 178.855l-1.322 1.7-46.5 59.835s-.273.886-.68 2.35l-.003.014c-1.29 4.65-3.93 15.127-3.548 21.87.41 7.225 2.215 11.628 5.566 13.105.77.342 1.622.527 2.555.56.392.013.76-.056 1.102-.19.448-.177.86-.472 1.23-.872 2.185-2.343 3.137-8.173 4.098-13.485.4-2.218.807-4.346 1.296-6.09 2.036-7.186 8.09-8.837 12.127-18.958 4.036-10.12 16.12-22.7 20.485-34.503 4.297-11.62 3.62-24.914 3.595-25.33v-.007z" fill="#FFBE69"/>
    <path d="M55.73 242.753c-1.29 4.65-3.932 15.127-3.55 21.87.412 7.225 2.216 11.628 5.567 13.105-.723-1.16-3.41-9.114-1.49-16.788 2.14-8.54 7.072-14.74 7.072-14.74l16.274-26.634-23.87 23.175-.004.013z" fill="#FFB45A"/>
    <path d="M67.024 80.746L49.11 125.128s-8.404 3.885-14.408 8.17c-6.018 4.297-22.518 29.36-29.127 39.65-1.923 2.997-3.286 5.857-4.185 8.552v.013c-2.206 6.554-1.598 12.107.51 16.05 2.986 5.554 4.974 9.846 4.974 9.846s-2.092 10.584 3.384 15.206c1.546 1.296 2.882 2.206 4.006 2.854 2.84 1.626 4.285 1.53 4.285 1.53s-.867 3.48.356 6.853c.334.933.834 1.86 1.546 2.688 1.784 2.09 4.537 4.075 6.712 5.46.007-.007.013 0 .02.007 0 0 .005.007.018.008 1.828 1.152 6.174.387 6.174.387s-6.987 11.686-11.025 19.79c-.592 1.19-6.483 10.294-11.802 18.86l-.007.005c0 .013-.007.02-.007.02-4.105 6.608-7.88 12.884-8.604 14.936-.75 2.124-2.194 6.568 2.268 9.794 1.52 1.096 4.06 1.155 6.95-.49l.034-.03c1.697-.964 3.512-2.537 5.29-4.828 2.245-2.893 9.723-13.263 16.505-23.825 5.85-9.108 12.183-18.358 14.898-21.136 1.774-1.81 3.53-3.664 5.263-5.535.03-.038.058-.062.086-.086 5.447-5.866 10.723-11.93 15.92-17.726v-.013c1.765-1.96 3.406-3.85 4.84-5.638 7.676-9.58 26.486-36.186 29.957-46.686 3.472-10.5-11.436-43.087-11.436-43.087l19.934-44.64-45.414-11.344z" fill="#FFBE69"/>
    <path d="M14.264 225.47c2.84 1.634 4.286 1.526 4.286 1.526s-.866 3.487.358 6.862c-.137-.412.683-4.778.978-6.717.3-1.935 1.07-4.27 1.07-4.27s-2.344 2.23-3.384 2.248c-1.036.02-3.308.353-3.308.353z" fill="#FFB45A"/>
    <path d="M57.646 129.172l9.38-48.426-17.91 44.386s-8.405 3.884-14.414 8.172c-6.012 4.294-22.51 29.353-29.127 39.645-1.923 2.994-3.29 5.854-4.19 8.55v.01c-.046.338-1.536 11.25 2.55 15.033 4.15 3.842 4.488 10.113 8.936 14.872 4.452 4.755 6.84 2.79 8.218 4.066 1.377 1.277-1.09 5.682 3.615 9.894s9.67 3.256 12.462 5.48c2.793 2.222-.007 7.116 5.066 9.437 5.073 2.322 8.876 6.593 17.52-3.98 8.648-10.58 22.562-33.685 17.29-62.49-5.273-28.803-19.394-44.648-19.394-44.648z" opacity=".33" fill="#FFCE94"/>
    <path d="M37.164 230.853l3.67 11.48s13.59-30.568 12.83-28.94c-.76 1.628-16.5 17.46-16.5 17.46zM20.955 222.87c.814-2.572 11.36-23.827 11.36-23.827l-13.1 16.61 1.74 7.218zM4.835 197.483l2.96 5.032s11.87-17.028 10.823-15.847c-1.048 1.182-13.783 10.815-13.783 10.815z" fill="#FFBE69"/>
    <path d="M98.603 201.64c-3.317 8.942-8.796 16.91-12.994 23.363-4.203 6.45-6.904 10.108-8.675 15.1-1.763 4.988-5.22 8.852-6.95 10.78-1.733 1.933-5.112.145-5.112.145l3.303 2.207c.49.328-1.738 3.952-2.99 10.06-.182.888-.343 1.827-.475 2.822-.693 5.326-2.126 9.247-2.858 10.986-.272.65-.447.997-.447.997.448-.178.86-.473 1.23-.873 2.185-2.343 3.137-8.173 4.098-13.485.4-2.218.807-4.346 1.296-6.09 2.036-7.186 8.09-8.837 12.127-18.958 4.036-10.12 16.12-22.7 20.485-34.503 4.297-11.62 3.62-24.913 3.595-25.328-.066.376-2.368 13.964-5.634 22.777z" opacity=".61" fill="#FFCE94"/>
    <path d="M64.773 263.267c-2.48-.056-4.726 1.4-5.425 5.833-.626 3.983.474 7.33 2.503 8.004.232.076.472.122.722.126h.062c2.185-2.344 3.137-8.174 4.098-13.486-.455-.254-.98-.398-1.547-.45-.137-.015-.27-.026-.412-.027z" opacity=".24" fill="#FFF"/>
    <path fill="#EFF6FE" d="M76.696 40.835L60.332 92.14l2.178.68 2.13.66 45.68 15.346 17.17-42.487L155.52 0h-59.06L77.585 38.037"/>
    <path fill="#DFE9F4" d="M94.65 103.562l15.67 5.26 19.014-45.83-15.587-8.003"/>
    <path d="M70.28 54.793c1.818.817 3.893 1.75 6.158 2.766 15.224 6.832 38.915 17.47 49.67 22.33 3.365 1.513 5.464 2.468 5.646 2.57 0 0 20.892-45.93 35.682-82.46H85.804L62.55 51.325s2.99 1.337 7.73 3.47z" fill="#387F78"/>
    <path d="M131.753 82.457L166.7 0h-32.51c-13.036 31.796-30.797 69.664-30.797 69.664l28.36 12.793z" fill="#2F776E"/>
    <path d="M11.1 294.686c-2.477-1.733-4.965-2.454-7.098.595-2.132 3.05-1.852 6.926.626 8.66 2.478 1.733 6.216.667 8.348-2.382 2.132-3.048.603-5.138-1.875-6.872z" opacity=".24" fill="#FFF"/>
    <path d="M34.093 270.477c-2.97 4.574-3.326 3.414-3.368 3.006-.023.747-.495 5.23-7.638 16.09-7.652 11.63-10.826 14.963-11.904 15.716 1.697-.966 3.512-2.54 5.29-4.83 2.245-2.892 9.723-13.262 16.505-23.824 5.85-9.108 12.183-18.358 14.898-21.136 1.774-1.808 3.53-3.663 5.263-5.534-1.74 1.704-15.82 15.532-19.047 20.51z" fill="#FFCE94"/>
  </g>
  <g>
    <path d="M104.236 178.855l-1.322 1.7-46.5 59.835s-.273.886-.68 2.35l-.003.014c-1.29 4.65-3.93 15.127-3.548 21.87.41 7.225 2.215 11.628 5.566 13.105.77.342 1.622.527 2.555.56.392.013.76-.056 1.102-.19.448-.177.86-.472 1.23-.872 2.185-2.343 3.137-8.173 4.098-13.485.4-2.218.807-4.346 1.296-6.09 2.036-7.186 8.09-8.837 12.127-18.958 4.036-10.12 16.12-22.7 20.485-34.503 4.297-11.62 3.62-24.914 3.595-25.33v-.007z" fill="#FFBE69"/>
    <path d="M55.73 242.753c-1.29 4.65-3.932 15.127-3.55 21.87.412 7.225 2.216 11.628 5.567 13.105-.723-1.16-3.41-9.114-1.49-16.788 2.14-8.54 7.072-14.74 7.072-14.74l16.274-26.634-23.87 23.175-.004.013z" fill="#FFB45A"/>
    <path d="M67.024 80.746L49.11 125.128s-8.404 3.885-14.408 8.17c-6.018 4.297-22.518 29.36-29.127 39.65-1.923 2.997-3.286 5.857-4.185 8.552v.013c-2.206 6.554-1.598 12.107.51 16.05 2.986 5.554 4.974 9.846 4.974 9.846s-2.092 10.584 3.384 15.206c1.546 1.296 2.882 2.206 4.006 2.854 2.84 1.626 4.285 1.53 4.285 1.53s-.867 3.48.356 6.853c.334.933.834 1.86 1.546 2.688 1.784 2.09 4.537 4.075 6.712 5.46.007-.007.013 0 .02.007 0 0 .005.007.018.008 1.828 1.152 6.174.387 6.174.387s-6.987 11.686-11.025 19.79c-.592 1.19-6.483 10.294-11.802 18.86l-.007.005c0 .013-.007.02-.007.02-4.105 6.608-7.88 12.884-8.604 14.936-.75 2.124-2.194 6.568 2.268 9.794 1.52 1.096 4.06 1.155 6.95-.49l.034-.03c1.697-.964 3.512-2.537 5.29-4.828 2.245-2.893 9.723-13.263 16.505-23.825 5.85-9.108 12.183-18.358 14.898-21.136 1.774-1.81 3.53-3.664 5.263-5.535.03-.038.058-.062.086-.086 5.447-5.866 10.723-11.93 15.92-17.726v-.013c1.765-1.96 3.406-3.85 4.84-5.638 7.676-9.58 26.486-36.186 29.957-46.686 3.472-10.5-11.436-43.087-11.436-43.087l19.934-44.64-45.414-11.344z" fill="#FFBE69"/>
    <path d="M14.264 225.47c2.84 1.634 4.286 1.526 4.286 1.526s-.866 3.487.358 6.862c-.137-.412.683-4.778.978-6.717.3-1.935 1.07-4.27 1.07-4.27s-2.344 2.23-3.384 2.248c-1.036.02-3.308.353-3.308.353z" fill="#FFB45A"/>
    <path d="M57.646 129.172l9.38-48.426-17.91 44.386s-8.405 3.884-14.414 8.172c-6.012 4.294-22.51 29.353-29.127 39.645-1.923 2.994-3.29 5.854-4.19 8.55v.01c-.046.338-1.536 11.25 2.55 15.033 4.15 3.842 4.488 10.113 8.936 14.872 4.452 4.755 6.84 2.79 8.218 4.066 1.377 1.277-1.09 5.682 3.615 9.894s9.67 3.256 12.462 5.48c2.793 2.222-.007 7.116 5.066 9.437 5.073 2.322 8.876 6.593 17.52-3.98 8.648-10.58 22.562-33.685 17.29-62.49-5.273-28.803-19.394-44.648-19.394-44.648z" fill="#FCC17A"/>
    <path d="M37.164 230.853l3.67 11.48s13.59-30.568 12.83-28.94c-.76 1.628-16.5 17.46-16.5 17.46zM20.955 222.87c.814-2.572 11.36-23.827 11.36-23.827l-13.1 16.61 1.74 7.218zM4.835 197.483l2.96 5.032s11.87-17.028 10.823-15.847c-1.048 1.182-13.783 10.815-13.783 10.815z" fill="#FFBE69"/>
    <path d="M98.603 201.64c-3.317 8.942-8.796 16.91-12.994 23.363-4.203 6.45-6.904 10.108-8.675 15.1-1.763 4.988-5.22 8.852-6.95 10.78-1.733 1.933-5.112.145-5.112.145l3.303 2.207c.49.328-1.738 3.952-2.99 10.06-.182.888-.343 1.827-.475 2.822-.693 5.326-2.126 9.247-2.858 10.986-.272.65-.447.997-.447.997.448-.178.86-.473 1.23-.873 2.185-2.343 3.137-8.173 4.098-13.485.4-2.218.807-4.346 1.296-6.09 2.036-7.186 8.09-8.837 12.127-18.958 4.036-10.12 16.12-22.7 20.485-34.503 4.297-11.62 3.62-24.913 3.595-25.328-.066.376-2.368 13.964-5.634 22.777z" opacity=".61" fill="#FFCE94"/>
    <path d="M64.773 263.267c-2.48-.056-4.726 1.4-5.425 5.833-.626 3.983.474 7.33 2.503 8.004.232.076.472.122.722.126h.062c2.185-2.344 3.137-8.174 4.098-13.486-.455-.254-.98-.398-1.547-.45-.137-.015-.27-.026-.412-.027z" fill="#F7D7B0"/>
    <path fill="#EFF6FE" d="M76.696 40.835L60.332 92.14l2.178.68 2.13.66 45.68 15.346 17.17-42.487L155.52 0h-59.06L77.585 38.037"/>
    <path fill="#DFE9F4" d="M94.65 103.562l15.67 5.26 19.014-45.83-15.587-8.003"/>
    <path d="M70.28 54.793c1.818.817 3.893 1.75 6.158 2.766 15.224 6.832 38.915 17.47 49.67 22.33 3.365 1.513 5.464 2.468 5.646 2.57 0 0 20.892-45.93 35.682-82.46H85.804L62.55 51.325s2.99 1.337 7.73 3.47z" fill="#387F78"/>
    <path d="M131.753 82.457L166.7 0h-32.51c-13.036 31.796-30.797 69.664-30.797 69.664l28.36 12.793z" fill="#2F776E"/>
    <path d="M11.1 294.686c-2.477-1.733-4.965-2.454-7.098.595-2.132 3.05-1.852 6.926.626 8.66 2.478 1.733 6.216.667 8.348-2.382 2.132-3.048.603-5.138-1.875-6.872z" fill="#F7D7B0"/>
    <path d="M34.093 270.477c-2.97 4.574-3.326 3.414-3.368 3.006-.023.747-.495 5.23-7.638 16.09-7.652 11.63-10.826 14.963-11.904 15.716 1.697-.966 3.512-2.54 5.29-4.83 2.245-2.892 9.723-13.262 16.505-23.824 5.85-9.108 12.183-18.358 14.898-21.136 1.774-1.808 3.53-3.663 5.263-5.534-1.74 1.704-15.82 15.532-19.047 20.51z" fill="#FFBE69"/>
    <path d="M31.274 241.56c-2.375.91-3.89.51-4.07.456 1.828 1.152 6.174.387 6.174.387s-6.987 11.686-11.025 19.79c-.593 1.19-6.484 10.294-11.803 18.86.287-.384 4.387-5.793 6.55-7.764 2.25-2.045 3.545-3.047 3.545-3.047s4.826-11.59 9.132-18.41c4.16-6.57 7.092-14.66 7.287-15.222-.256.305-3.354 4.028-5.79 4.95z" fill="#FFB45A"/>
  </g>
</svg>
