<svg xmlns="http://www.w3.org/2000/svg" viewBox="0 0 200.483 146.56"><path d="M199.398 127.839l-4.365-2.749a2.334 2.334 0 0 0-3.209.729l-.443.703-67.478-42.498-4.1 6.51 4.1-6.51.443-.703a2.332 2.332 0 0 0-.729-3.208l-4.365-2.749a2.333 2.333 0 0 0-3.208.729l-1.797 2.853-8.519-5.365C117.562 51.933 109.74 22.712 86.9 8.328 62.59-6.984 30.465.308 15.15 24.625-.162 48.937 7.136 81.065 31.448 96.377c22.841 14.385 52.577 8.812 68.79-12.075l8.518 5.365 2.746-4.361-4.543 7.214a2.333 2.333 0 0 0 .729 3.208l4.365 2.749a2.332 2.332 0 0 0 3.208-.729l.443-.703 67.478 42.498-.443.703a2.334 2.334 0 0 0 .729 3.209l4.365 2.749a2.334 2.334 0 0 0 3.209-.729l9.086-14.427a2.335 2.335 0 0 0-.73-3.209zM95.461 75.205c-12.621 20.04-39.097 26.049-59.137 13.428-20.04-12.621-26.058-39.095-13.436-59.135 12.621-20.04 39.1-26.054 59.14-13.433s26.054 39.1 13.433 59.14zM119.804 90.535l4.1-6.511z" opacity=".26"/><path fill="#3f4654" d="M108.563 96.722l8.2-13.022 67.759 42.672-8.2 13.021z"/><path d="M116.478 79.796l-4.365-2.749a2.334 2.334 0 0 0-3.209.729l-9.086 14.427a2.334 2.334 0 0 0 .729 3.209l4.365 2.749a2.332 2.332 0 0 0 3.208-.729l9.086-14.427a2.332 2.332 0 0 0-.728-3.209zM192.258 127.522l-4.365-2.749a2.332 2.332 0 0 0-3.208.729l-9.087 14.427a2.334 2.334 0 0 0 .729 3.209l4.365 2.749a2.334 2.334 0 0 0 3.209-.729l9.086-14.427a2.335 2.335 0 0 0-.729-3.209z" fill="#525963"/><path fill="#3f4654" d="M91.302 82.85l5.493-8.721 10.315 6.496-5.493 8.721z"/><path d="M79.761 8.01C55.449-7.301 23.324-.008 8.009 24.308-7.302 48.62-.005 80.748 24.307 96.06c24.312 15.312 56.44 8.014 71.752-16.298 15.315-24.317 8.014-56.44-16.298-71.752zm8.56 66.879C75.7 94.929 49.224 100.938 29.184 88.317 9.144 75.695 3.126 49.222 15.748 29.182c12.621-20.04 39.1-26.055 59.14-13.433 20.04 12.621 26.054 39.1 13.433 59.14z" fill="#3f4654"/><ellipse transform="rotate(-57.798 52.033 52.032)" cx="52.035" cy="52.034" rx="42.881" ry="42.883" opacity=".4" fill="#fff"/></svg>