<svg id="Layer_1" data-name="Layer 1" xmlns="http://www.w3.org/2000/svg" viewBox="0 0 742.86 909.07"><defs><style>.cls-1{fill:#845935;}.cls-2{fill:#6d4b31;}.cls-3{fill:#eef4f8;}.cls-4{fill:#41495d;}.cls-5{fill:#dce7ee;}.cls-6{fill:#38404e;}.cls-7{fill:#b5835d;}.cls-8{fill:#e8b170;}.cls-9{fill:#ffbe69;}.cls-10{fill:#cecccc;}.cls-11{fill:#387f78;}.cls-12{fill:#7c2608;}.cls-13{fill:#f9ce9b;}.cls-14{fill:#ffb45a;}.cls-15{fill:#fcc077;}.cls-16,.cls-21{fill:#ffce94;}.cls-16{opacity:0.61;}.cls-16,.cls-23,.cls-24{isolation:isolate;}.cls-17{fill:#f9d2a2;}.cls-18{fill:#eff6fe;}.cls-19{fill:#dfe9f4;}.cls-20{fill:#2f776e;}.cls-22{fill:#d3935f;}.cls-23{fill:#b7855f;opacity:0.58;}.cls-24{fill:#fff;opacity:0.21;}.cls-25{fill:#d3c5ef;}.cls-26{fill:#6b437a;}.cls-27{fill:#4f3e59;}.cls-28{fill:#c00094;}</style></defs><title>newhands</title><g id="BlueGrayArm"><path class="cls-1" d="M580.59,671.63c-3.42-14.62-7.46-28-8.94-33.21s-1.13-18.17-3.4-21.88-3.81-3.23-5.12-8.68-3.71-15-7.17-14.92-6.29.58-5.22,5.85,1.28,11.57,3.91,15,2.93,18.36,2.94,19.2a0,0,0,0,0,0,0,8.36,8.36,0,0,1-2-1.69,17.09,17.09,0,0,1-2.83-4.06,26.15,26.15,0,0,1-1.68-4.06c-2.51-7.74-6.31-19.6-11.66-28.46-3.93-6.47-6.85-13.69-10.53-16.39h0a4.75,4.75,0,0,0-4.45-.88c-6.07,1.9-4.09,6.34-.64,12.35a161.58,161.58,0,0,1,10,22.48c0.23,0.68.43,1.31,0.57,1.86,1.45,5.17,2,19.8,2.05,21.1v0.1l0,0c-0.29-.6-5-10.43-9.83-21.7-5-11.66-15.26-34.67-16.42-36.75-0.82-1.49-1.7-3-3.55-3.25a6.17,6.17,0,0,0-1.57,0,7.8,7.8,0,0,0-2.17.55c-4,2.16-4.45,3.94-1.91,11.91,1.65,5.14,8,21.55,12.68,34,0.16,0.44.33,0.88,0.49,1.31l0.41,1.11c0.21,0.58.43,1.15,0.62,1.7,0.43,1.18.83,2.29,1.19,3.33,0.16,0.42.3,0.83,0.43,1.23s0.27,0.79.4,1.15,0.18,0.52.26,0.77l0.19,0.58q0.19,0.56.34,1.06c0.11,0.33.19,0.63,0.27,0.91,0.17,0.56.28,1,.35,1.36a20.37,20.37,0,0,1,.49,4.44c-0.05,1.57-.48,1.91-0.48,1.91s-4.21.69-8.21-8.62-18.4-34.39-20.26-37-4.13-3.85-6.53-2.1l-0.17.13c-2.25,1.9-2.74,7.73,4.05,21,4.22,8.23,19.18,35.35,21,42.54a91.65,91.65,0,0,1,1.65,9.4h0c0.79,6,1,9,1.27,12.22,0.47,5.13-.23,14.49-5.29,13.73s-12.95-5.15-12.95-5.15-2.33-3.89-11.3-12.15c-4.68-4.33-7.2-4.46-9.76-5.24a7.81,7.81,0,0,0-6.21,1,3.08,3.08,0,0,0-1.25,3.5A8.1,8.1,0,0,0,467,677.6a29.49,29.49,0,0,1,4.73,6.26,35,35,0,0,1,3.17,6.72,12.07,12.07,0,0,0,2.4,4.72h0a46.17,46.17,0,0,0,5.58,5.06c5.7,4.73,14.05,16.73,18.46,18.51s24.46,13.66,29.12,14.49,19.24-3.16,19.24-3.16l30.81,36.35,2.16,5.38,27.82-15.27h0l4.43-2.43-28.44-49.1S584,686.26,580.59,671.63Z" transform="translate(0 2.31)"/><path class="cls-1" d="M580.6,671.63c-3.43-14.62-7.48-28-8.95-33.21s-1.14-18.18-3.39-21.89-3.82-3.22-5.13-8.68-3.7-15-7.18-14.92-6.28.59-5.21,5.85,1.29,11.57,3.91,15,2.93,18.36,3,19.2c0-.7.58-12.11,2-16.4s4.65-2.13,6.64-1.09,3.31,20.15,3.31,20.15,8.34,43,10.37,53.42c3.7,19.13,2.67,27.7,5,29.8,16.31,14.53,25.53,37.81,25.53,37.81l-0.82.46,5.29-2.91-28.45-49.1S584,686.26,580.6,671.63Z" transform="translate(0 2.31)"/><path class="cls-1" d="M539.39,594.76c-5.37-8.86-8.91-19.17-15-17.26s-4.1,6.34-.65,12.34a160.79,160.79,0,0,1,10,22.48s0.93-4.42,4.9-4.61,5.09,1.49,7.09,7.21c1.21,3.46,4.53,8.72,7,12.36a26,26,0,0,1-1.68-4C548.54,615.47,544.75,603.62,539.39,594.76Z" transform="translate(0 2.31)"/><path class="cls-2" d="M500,633.58c-3.85-8.36-1.59-9.66-1.59-9.66s-5.1-1.64-10.47-13.25c-5-10.77-4.47-16.53-4.38-17.31l-0.15,0c-2.24,1.89-2.74,7.72,4.05,21,4.22,8.23,19.18,35.36,21,42.55a88.68,88.68,0,0,1,1.65,9.4h0a21.24,21.24,0,0,0,0-9C509.05,652.25,503.87,641.94,500,633.58Z" transform="translate(0 2.31)"/><path class="cls-2" d="M514,616.2c-2.62-5.66.9-6.45-1.44-8.8s-7.13-13.43-10.41-22.07c-2.79-7.32.55-10.45,2.87-11.67a7.8,7.8,0,0,0-2.17.55c-4,2.16-4.45,3.94-1.91,11.91,1.65,5.14,8,21.55,12.68,34,0.16,0.44.33,0.88,0.49,1.31l0.41,1.11c0.21,0.58.43,1.15,0.62,1.7,0.43,1.18.83,2.29,1.19,3.33,0.16,0.42.3,0.83,0.43,1.23s0.27,0.79.4,1.15,0.18,0.52.26,0.77,0.13,0.4.19,0.58q0.19,0.56.34,1.06c0.11,0.33.19,0.63,0.27,0.91,0.17,0.56.28,1,.35,1.36a20.37,20.37,0,0,1,.49,4.44s1.42-2.07,1-6.42S516.6,621.87,514,616.2Z" transform="translate(0 2.31)"/><path class="cls-2" d="M533.66,607.54c-1.22-2.34-8.62-19.91-10.64-23.92s5.58-5.21,5.83-5.26a4.72,4.72,0,0,0-4.44-.87c-6.07,1.9-4.1,6.34-.65,12.34a160.79,160.79,0,0,1,10,22.48c0.23,0.69.43,1.31,0.57,1.86,1.45,5.17,2,19.8,2.05,21.11,0-1.26.54-14.78,0.4-18.9C536.64,612.07,534.87,609.87,533.66,607.54Z" transform="translate(0 2.31)"/><path class="cls-2" d="M538.86,728.26c-7.85,1.9-13.48.57-23.4-4.22-8-3.87-14.38-8.15-18.3-13.4s-19.39-15.09-19.84-15.32a47.47,47.47,0,0,0,5.58,5.06c5.71,4.72,14.05,16.73,18.46,18.5s24.46,13.66,29.11,14.48,19.23-3.16,19.23-3.16l31.37,37-28.51-41.1A76.29,76.29,0,0,0,538.86,728.26Z" transform="translate(0 2.31)"/><polygon class="cls-3" points="596.2 738.11 583.83 745.55 561.75 758.85 585.29 792.18 626.66 765.01 604.13 733.33 596.2 738.11"/><polygon class="cls-4" points="575.63 796.04 656.97 909.07 742.86 909.07 635.7 757.93 575.63 796.04"/><polygon class="cls-5" points="593.52 739.71 615.15 770.96 626 764.08 604.13 733.33 593.52 739.71"/><polygon class="cls-6" points="621.12 767.18 721.26 909.07 742.86 909.07 635.7 757.93 621.12 767.18"/><path class="cls-7" d="M467.7,672.72a5.7,5.7,0,0,0-3.05,1.54A8,8,0,0,0,467,677.6a29.56,29.56,0,0,1,4.73,6.27,6.06,6.06,0,0,0,2.69-6.12A5.94,5.94,0,0,0,467.7,672.72Z" transform="translate(0 2.31)"/><path class="cls-7" d="M485.55,594a3,3,0,0,0-1.5,4c0.69,1.52,2.31,1.82,3.83,1.13s2.36-2.11,1.67-3.63A3,3,0,0,0,485.55,594Z" transform="translate(0 2.31)"/><path class="cls-7" d="M504.58,575.12a4.13,4.13,0,0,0-2.05,5.47c0.94,2.08,3.17,2.49,5.24,1.55s3.22-2.89,2.28-5A4.14,4.14,0,0,0,504.58,575.12Z" transform="translate(0 2.31)"/><path class="cls-7" d="M524.54,579.71a3.65,3.65,0,0,0-1.81,4.84c0.83,1.84,2.8,2.2,4.63,1.37s2.85-2.55,2-4.39A3.65,3.65,0,0,0,524.54,579.71Z" transform="translate(0 2.31)"/><path class="cls-7" d="M554.63,595.56a3.14,3.14,0,0,0-1.56,4.16c0.72,1.58,2.41,1.89,4,1.17s2.45-2.2,1.73-3.78A3.14,3.14,0,0,0,554.63,595.56Z" transform="translate(0 2.31)"/></g><g id="CheyenneTurquoise"><path class="cls-8" d="M366.28,524a10.39,10.39,0,0,0-1.1-1l-0.24-.17c-5.72-4.32-8.8-2.2-11.83-.07-1.6,1.13-6.29,7.37-11,13.8-4.31,5.88-8.65,11.93-10.69,14.38-4.25,5.14-7.66,4.86-19.87,7.92a21.91,21.91,0,0,0-6,2.87c-13.35,8.43-35.63,32.17-36.76,44.51a7.21,7.21,0,0,0,.72,4.22,13.93,13.93,0,0,0,5.36,5.38,17.23,17.23,0,0,0,3.28,1.46c7.69,2.55,17.91.82,25.36-1.92,0.84-.3,1.64-0.62,2.39-1,4-1.74,8-5.26,11.55-9.33,2.32-2.63,4.5-5.49,6.46-8.24,3.09-4.34,5.65-8.4,7.4-10.89,4.57-6.51,14-14.6,21.58-20.18s10-15.43,13.7-23.62c3.45-7.52,3.5-14.16-.34-18.16h0Z" transform="translate(0 2.31)"/><path class="cls-9" d="M369.46,522.7a25,25,0,0,0-9.11-3.94h0c-7-1.4-15.17.47-26.31,7-16.48,9.62-33.84,34.1-42.29,42.89s-28.49,36-37.43,47C248.81,622.4,240.1,634,234.22,642h0c-0.69.91-1.33,1.79-1.92,2.59-2.61,3.54-4.31,5.88-4.31,5.88l20.38,12.94h0L258.85,670l1.27,0.81s5.41-7.43,11.44-14.84c1.4-1.71,2.82-3.41,4.22-5l0.93-1.06,0.59-.67,0.79-.87a63.86,63.86,0,0,1,4.62-4.61A26.28,26.28,0,0,1,285,642c0.55-.38,1.14-0.76,1.75-1.14,0.3-.2.62-0.39,0.95-0.58,0.63-.39,1.31-0.77,2-1.16v0c4.67-2.61,10.35-5.39,15.88-8.88a61.51,61.51,0,0,0,10.95-8.6,39.55,39.55,0,0,0,4.75-5.73c10.22-15.15,12.9-28.33,14.59-38.61,0-.05-5.93-6.1-5.93-6.16,0.91-5.34,4.51-10,8-19.47,3.35-9,10.54-13.79,14.91-14.92,10.43-2.69,17.8,5.07,21.77,3.12C382.27,536.09,374.27,525.93,369.46,522.7Z" transform="translate(0 2.31)"/><path class="cls-8" d="M307.72,583.81c13.44,1.49,18.3-6.55,22.86-15.26l7.38-16.9C328.15,555.59,294.28,582.32,307.72,583.81Z" transform="translate(0 2.31)"/><path class="cls-8" d="M334,525.74c-16.48,9.62-33.84,34.1-42.29,42.89s-28.49,36-37.43,47C248.81,622.4,240.1,634,234.22,642h0l3.76,3s20.68-25.19,29.57-38.2,41.59-50.76,56.51-68.09c14.73-17.11,35.73-19.82,36.28-19.89C353.38,517.36,345.17,519.23,334,525.74Z" transform="translate(0 2.31)"/><polygon class="cls-10" points="343.81 573.79 424.4 578.69 424.79 519.51 344.55 519.51 343.81 573.79"/><rect class="cls-11" x="342.15" y="517.74" width="80.24" height="56.05"/><path class="cls-8" d="M304.23,625.13c-9.91.33-18.51,1.55-25.78,4.84-0.51.22-1,.47-1.51,0.72a34.5,34.5,0,0,0-7,4.63c-5.52,4.7-12.63,14.6-17.14,21.29l11.29,8.91c2-2.69,4.7-6.12,7.48-9.53,1.39-1.71,2.83-3.41,4.22-5l0.93-1.06,0.59-.67,0.79-.86a62,62,0,0,1,4.62-4.62A26.08,26.08,0,0,1,285,642c0.55-.38,1.13-0.76,1.75-1.15l0.95-.58c0.64-.39,1.31-0.78,2-1.17h0c4.67-2.62,10.36-5.4,15.88-8.89,0.84-.3,1.64-0.62,2.39-1,4-1.74,8-5.26,11.55-9.33-1,.58-2,1.15-3,1.68A29.38,29.38,0,0,1,304.23,625.13Z" transform="translate(0 2.31)"/><polygon class="cls-3" points="252.79 658.93 232.63 643.02 209.84 676.68 249.71 705.69 271.32 673.55 264.07 667.84 252.79 658.93"/><polygon class="cls-12" points="202.84 669.03 71.89 909.07 150.97 909.07 259.49 711.62 202.84 669.03"/><polygon class="cls-5" points="240.11 697.05 250.34 704.74 271.32 673.55 261.64 665.91 240.11 697.05"/><polygon class="cls-12" points="245.74 701.28 130.05 909.07 150.97 909.07 259.49 711.62 245.74 701.28"/><path class="cls-9" d="M368.33,538.84a10.39,10.39,0,0,0-1.1-1l-0.24-.17c-5.72-4.32-8.8-2.2-11.83-.07-1.6,1.13-6.29,7.37-11,13.8-4.31,5.88-8.65,11.93-10.69,14.38-4.25,5.14-7.66,4.86-19.87,7.92a21.91,21.91,0,0,0-6,2.87C294.27,585,272,608.75,270.86,621.09a7.21,7.21,0,0,0,.72,4.22,13.93,13.93,0,0,0,5.36,5.38,17.23,17.23,0,0,0,3.28,1.46c7.69,2.55,17.91.82,25.36-1.92,0.84-.3,1.64-0.62,2.39-1,4-1.74,8-5.26,11.55-9.33,2.32-2.63,4.5-5.49,6.46-8.24,3.09-4.34,5.65-8.4,7.4-10.89,4.57-6.51,14-14.6,21.58-20.18s10-15.43,13.7-23.62c3.45-7.52,3.5-14.16-.34-18.16h0Z" transform="translate(0 2.31)"/><path class="cls-13" d="M362.4,538.09c-4.12-2.08-7.75-.32-9.83,3.8s-1.06,8.4,3.06,10.47a8.35,8.35,0,0,0,11.22-3.7C368.92,544.54,366.52,540.16,362.4,538.09Z" transform="translate(0 2.31)"/></g><g id="GreenArm"><path class="cls-9" d="M655,178.86l-1.32,1.7-46.5,59.83s-0.27.89-.68,2.35h0c-1.29,4.65-3.93,15.13-3.55,21.87,0.41,7.22,2.21,11.63,5.57,13.1a6.81,6.81,0,0,0,2.56.56,2.77,2.77,0,0,0,1.1-.19,3.4,3.4,0,0,0,1.23-.87c2.19-2.34,3.14-8.17,4.1-13.48,0.4-2.22.81-4.35,1.3-6.09,2-7.18,8.09-8.84,12.13-19s16.12-22.7,20.48-34.5c4.3-11.62,3.62-24.91,3.59-25.33h0Z" transform="translate(0 2.31)"/><path class="cls-14" d="M606.51,242.75c-1.29,4.65-3.93,15.13-3.55,21.87,0.41,7.22,2.21,11.63,5.57,13.1-0.72-1.16-3.41-9.11-1.49-16.79a43,43,0,0,1,7.07-14.74l16.28-26.63-23.87,23.18h0Z" transform="translate(0 2.31)"/><path class="cls-9" d="M617.81,80.75L599.9,125.13a106.39,106.39,0,0,0-14.41,8.17c-6,4.3-22.52,29.36-29.13,39.65a38.4,38.4,0,0,0-4.19,8.55h0c-2.2,6.55-1.6,12.11.51,16,3,5.55,5,9.85,5,9.85S555.57,218,561,222.62a28.22,28.22,0,0,0,4,2.85c2.84,1.63,4.29,1.53,4.29,1.53a13.16,13.16,0,0,0,.36,6.85,8.5,8.5,0,0,0,1.55,2.69A31.55,31.55,0,0,0,578,242h0c1.83,1.15,6.17.39,6.17,0.39s-7,11.69-11,19.79c-0.59,1.19-6.48,10.29-11.8,18.86h0a0,0,0,0,1,0,0c-4.1,6.61-7.88,12.89-8.6,14.94s-2.19,6.57,2.27,9.79c1.52,1.1,4.06,1.16,6.95-.49l0,0a18.47,18.47,0,0,0,5.29-4.83c2.25-2.89,9.72-13.26,16.51-23.82,5.85-9.11,12.18-18.36,14.9-21.14,1.77-1.81,3.53-3.66,5.26-5.53l0.09-.09c5.45-5.86,10.72-11.93,15.92-17.73h0c1.77-2,3.41-3.85,4.84-5.64,7.68-9.58,26.49-36.19,30-46.69s-11.44-43.09-11.44-43.09l19.93-44.64Z" transform="translate(0 2.31)"/><path class="cls-14" d="M565,225.47c2.84,1.63,4.29,1.52,4.29,1.52a13.19,13.19,0,0,0,.36,6.86c-0.14-.41.68-4.78,1-6.72a32.15,32.15,0,0,1,1.07-4.27s-2.34,2.23-3.38,2.25S565,225.47,565,225.47Z" transform="translate(0 2.31)"/><path class="cls-15" d="M608.43,129.17l9.38-48.43L599.9,125.13a106.37,106.37,0,0,0-14.41,8.17c-6,4.29-22.51,29.35-29.13,39.64a38.37,38.37,0,0,0-4.19,8.55h0c0,0.34-1.54,11.25,2.55,15s4.49,10.11,8.94,14.87,6.84,2.79,8.22,4.07-1.09,5.68,3.61,9.89,9.67,3.26,12.46,5.48,0,7.12,5.07,9.44,8.88,6.59,17.52-4,22.56-33.68,17.29-62.49S608.43,129.17,608.43,129.17Z" transform="translate(0 2.31)"/><path class="cls-9" d="M587.95,230.85l3.67,11.48s13.59-30.57,12.83-28.94S587.95,230.85,587.95,230.85Z" transform="translate(0 2.31)"/><path class="cls-9" d="M571.74,222.87C572.55,220.3,583.1,199,583.1,199L570,215.65Z" transform="translate(0 2.31)"/><path class="cls-9" d="M555.62,197.48l3,5s11.87-17,10.82-15.85S555.62,197.48,555.62,197.48Z" transform="translate(0 2.31)"/><path class="cls-16" d="M649.39,201.64c-3.32,8.94-8.8,16.91-13,23.36s-6.9,10.11-8.67,15.1-5.22,8.85-6.95,10.78-5.11.15-5.11,0.15l3.3,2.21c0.49,0.33-1.74,4-3,10.06-0.18.89-.34,1.83-0.47,2.82a43.49,43.49,0,0,1-2.86,11c-0.27.65-.45,1-0.45,1a3.4,3.4,0,0,0,1.23-.87c2.19-2.34,3.14-8.17,4.1-13.48,0.4-2.22.81-4.35,1.3-6.09,2-7.18,8.09-8.84,12.13-19s16.12-22.7,20.48-34.5c4.3-11.62,3.62-24.91,3.59-25.33C655,179.24,652.65,192.83,649.39,201.64Z" transform="translate(0 2.31)"/><path class="cls-17" d="M615.56,263.27c-2.48-.06-4.73,1.4-5.43,5.83-0.63,4,.47,7.33,2.5,8a2.42,2.42,0,0,0,.72.13h0.06c2.19-2.34,3.14-8.17,4.1-13.48a3.86,3.86,0,0,0-1.55-.45Z" transform="translate(0 2.31)"/><polygon class="cls-18" points="627.48 43.14 611.12 94.45 613.29 95.13 615.42 95.79 661.11 111.13 678.27 68.64 706.31 2.31 647.25 2.31 628.37 40.34 627.48 43.14"/><polygon class="cls-19" points="645.43 105.87 661.11 111.13 680.12 65.3 664.53 57.3 645.43 105.87"/><path class="cls-11" d="M621.06,54.79l6.16,2.77c15.22,6.83,38.92,17.47,49.67,22.33,3.36,1.51,5.46,2.47,5.65,2.57,0,0,20.89-45.93,35.68-82.46H636.59L613.34,51.32Z" transform="translate(0 2.31)"/><path class="cls-20" d="M682.54,82.46L717.49,0H685c-13,31.8-30.8,69.66-30.8,69.66Z" transform="translate(0 2.31)"/><path class="cls-17" d="M561.88,294.69c-2.48-1.73-5-2.45-7.1.59s-1.85,6.92.63,8.66,6.22,0.67,8.35-2.38S564.36,296.42,561.88,294.69Z" transform="translate(0 2.31)"/><path class="cls-21" d="M584.88,270.48c-3,4.57-3.33,3.41-3.37,3,0,0.75-.49,5.23-7.64,16.09-7.65,11.63-10.83,15-11.9,15.72a18.47,18.47,0,0,0,5.29-4.83c2.25-2.89,9.72-13.26,16.51-23.82,5.85-9.11,12.18-18.36,14.9-21.14,1.77-1.81,3.53-3.66,5.26-5.53C602.18,251.67,588.1,265.5,584.88,270.48Z" transform="translate(0 2.31)"/><path class="cls-14" d="M582.06,241.56A6.67,6.67,0,0,1,578,242c1.83,1.15,6.17.39,6.17,0.39s-7,11.69-11,19.79c-0.59,1.19-6.48,10.29-11.8,18.86a81.2,81.2,0,0,1,6.55-7.76c2.25-2,3.54-3,3.54-3s4.83-11.59,9.13-18.41a87.16,87.16,0,0,0,7.29-15.22C587.59,236.92,584.5,240.64,582.06,241.56Z" transform="translate(0 2.31)"/></g><g id="PurpleArm"><path class="cls-22" d="M365.79,289a29.55,29.55,0,0,1-5.63-5.48,34.73,34.73,0,0,1-4.15-6.16,12.15,12.15,0,0,0-3.09-4.31h0a46.1,46.1,0,0,0-6.28-4.16c-6.36-3.81-16.42-14.41-21-15.49s-26.25-9.8-31-9.91-18.53,6-18.53,6l-36-31.26-2.95-5L212,232.57l0,0-4,3.08,35.56,44.22s5.32,18.27,10.93,32.21,11.63,26.55,13.87,31.47,3.88,17.79,6.68,21.12,4.27,2.61,6.38,7.8,5.94,14.31,9.35,13.66,6.12-1.53,4.27-6.57-3-11.24-6.14-14.23-5.68-17.7-5.82-18.53v0a8.42,8.42,0,0,1,2.28,1.36,17.29,17.29,0,0,1,3.41,3.59,26.11,26.11,0,0,1,2.27,3.75c3.65,7.27,9.2,18.42,15.84,26.36,4.87,5.8,8.85,12.5,12.89,14.61h0a4.75,4.75,0,0,0,4.53.19c5.71-2.8,3.09-6.89-1.24-12.3a161.47,161.47,0,0,1-13.29-20.7c-0.33-.65-0.61-1.23-0.85-1.75-2.22-4.9-5-19.27-5.23-20.55a0.63,0.63,0,0,1,0-.1l0,0c0.39,0.55,6.51,9.55,13,20,6.71,10.76,20.34,32,21.81,33.83,1,1.34,2.27,3.19,3.81,3.43h0a2.14,2.14,0,0,0,1-.08h0a3.41,3.41,0,0,0,.95-0.52c3.63-2.74,5.57-5.83,1.85-13.32s-22.88-40.06-24.8-45.32a20.73,20.73,0,0,1-1.16-4.31c-0.18-1.57.19-2,.19-2s4.05-1.32,9.41,7.28,23.4,31.2,25.65,33.53,4.66,3.18,6.76,1.09a2,2,0,0,0,.14-0.16c1.94-2.22,1.54-8.06-7.18-20.13-5.42-7.5-24.32-32-27.2-38.87a90.27,90.27,0,0,1-3.06-9h0c-1.68-5.79-2.33-8.71-3.11-11.89-1.24-5-2-14.36,3.15-14.38s13.58,3.13,13.58,3.13,2.89,3.49,13,10.3c5.28,3.56,7.79,3.31,10.44,3.7a7.83,7.83,0,0,0,6-1.93,3.08,3.08,0,0,0,.7-3.65A8,8,0,0,0,365.79,289Z" transform="translate(0 2.31)"/><path class="cls-23" d="M288.85,365.34c-3-2.9-5.68-17.7-5.83-18.53,0.07,0.7,1.26,12.06.48,16.52s-4.27,2.81-6.4,2.08S270.78,346,270.78,346,256,304.81,252.43,294.77c-6.56-18.34-6.84-27-9.48-28.69-18.32-11.89-31-33.51-31-33.51l0.74-.58-4.79,3.67,35.57,44.22s5.31,18.27,10.92,32.21,11.64,26.55,13.88,31.47,3.88,17.8,6.67,21.12,4.26,2.61,6.39,7.8,5.94,14.3,9.35,13.66,6.12-1.53,4.27-6.57S292,368.33,288.85,365.34Z" transform="translate(0 2.31)"/><path class="cls-23" d="M309.71,363.63s-0.25,4.51-4.15,5.3-5.26-.7-8.1-6c-1.72-3.23-5.8-7.93-8.76-11.16a26.24,26.24,0,0,1,2.27,3.75c3.65,7.28,9.2,18.42,15.84,26.37s11.72,17.6,17.42,14.79,3.09-6.88-1.23-12.3A160.48,160.48,0,0,1,309.71,363.63Z" transform="translate(0 2.31)"/><path class="cls-24" d="M327.95,315.7a88.48,88.48,0,0,1-3.06-9h0a21.25,21.25,0,0,0,1.38,8.89c1.82,4.87,8.5,14.27,13.57,22s3,9.31,3,9.31,5.29,0.84,12.36,11.51c6.55,9.89,6.93,15.66,7,16.45l0.15-.07c1.93-2.21,1.54-8-7.19-20.12C349.72,347.07,330.82,322.53,327.95,315.7Z" transform="translate(0 2.31)"/><path class="cls-24" d="M321.33,339.23a20.13,20.13,0,0,1-1.16-4.31s-1.09,2.27,0,6.5,5.07,10.17,8.51,15.38,0.08,6.51,2.76,8.47,9,12.26,13.63,20.23-2.81,13-2.81,13h0l1-.08h0a3.25,3.25,0,0,0,1-.52c3.62-2.74,5.57-5.82,1.85-13.31S323.25,344.49,321.33,339.23Z" transform="translate(0 2.31)"/><path class="cls-24" d="M309.71,363.63c-0.33-.65-0.62-1.23-0.85-1.75-2.22-4.9-5-19.27-5.23-20.55,0.15,1.26,1.71,14.69,2.47,18.74,0.8,4.25,2.89,6.14,4.44,8.27s11.54,18.37,14.14,22-4.73,6-5,6.08a4.73,4.73,0,0,0,4.53.18c5.71-2.8,3.09-6.88-1.23-12.3A160.57,160.57,0,0,1,309.71,363.63Z" transform="translate(0 2.31)"/><path class="cls-24" d="M325.58,253.38c-4.62-1.08-26.25-9.79-31-9.9s-18.53,6-18.53,6l-36.62-31.83L273.87,254a76.38,76.38,0,0,0,13.23-4.19c7.47-3.07,13.24-2.61,23.77.62,8.51,2.61,15.45,5.88,20.12,10.47s21.45,12,21.93,12.13a47.53,47.53,0,0,0-6.28-4.16C340.28,265.06,330.21,254.47,325.58,253.38Z" transform="translate(0 2.31)"/><polygon class="cls-25" points="195.09 231.37 223.9 257.82 229.28 253.35 240.37 244.11 257.34 235.53 227.43 202.24 195.09 231.37"/><polygon class="cls-26" points="227.43 202.24 33.38 0 0 0 0 65.56 195.88 232.19 227.43 202.24"/><polygon class="cls-25" points="195.88 232.19 223.9 257.82 231.68 251.35 205.56 223.74 195.88 232.19"/><polygon class="cls-27" points="200.24 228.39 0 38.25 0 65.56 195.88 232.19 200.24 228.39"/><path class="cls-28" d="M365.79,289a30.31,30.31,0,0,1-5.68-5.55,6.05,6.05,0,0,0-1.73,6.46,5.94,5.94,0,0,0,7.41,3.94,5.69,5.69,0,0,0,2.78-2A7.65,7.65,0,0,0,365.79,289Z" transform="translate(0 2.31)"/><path class="cls-28" d="M357.81,370.2c-1.4.91-2,2.45-1.1,3.84a3,3,0,1,0,5.06-3.31C360.86,369.34,359.21,369.29,357.81,370.2Z" transform="translate(0 2.31)"/><path class="cls-28" d="M339.91,388.67c-1.91,1.25-2.75,3.35-1.5,5.26a4.13,4.13,0,1,0,6.92-4.52C344.08,387.49,341.82,387.42,339.91,388.67Z" transform="translate(0 2.31)"/><path class="cls-28" d="M318.6,388.57c-1.69,1.1-2.43,3-1.33,4.65a3.65,3.65,0,0,0,6.11-4C322.28,387.53,320.29,387.46,318.6,388.57Z" transform="translate(0 2.31)"/><path class="cls-28" d="M289.67,380c-1.45,1-2.09,2.54-1.14,4a3.14,3.14,0,1,0,5.26-3.44C292.84,379.12,291.12,379.07,289.67,380Z" transform="translate(0 2.31)"/></g></svg>