<svg xmlns="http://www.w3.org/2000/svg" viewBox="0 0 143.876 144.544"><path d="M-1109.179 632.171a3.29 3.29 0 0 0-4.66.042l-90.578 91.917a3.283 3.283 0 0 0 .034 4.653l46.008 45.338a3.292 3.292 0 0 0 4.661-.026l90.578-91.917a3.3 3.3 0 0 0-.034-4.668l-46.009-45.339z" fill="#333"/><path d="M-1108.93 631.924a3.652 3.652 0 0 0-5.158.037l-90.579 91.918a3.65 3.65 0 0 0 .039 5.158l46.006 45.335a3.65 3.65 0 0 0 5.157-.037l90.579-91.918a3.653 3.653 0 0 0-.038-5.158l-46.006-45.335zm45.546 50.003l-90.579 91.918a2.954 2.954 0 0 1-4.171.031l-46.005-45.335a2.954 2.954 0 0 1-.031-4.171l90.579-91.918a2.953 2.953 0 0 1 4.171-.03l46.005 45.335a2.951 2.951 0 0 1 .031 4.17z" fill="#fff"/><path fill="#fffde7" d="M-1198.013 720.312l80.443-81.635 48.062 47.361-80.442 81.635z"/><path fill="#78909c" d="M-1123.922 664.436l10.734-10.892 11.317 11.152-10.734 10.892z"/><path fill="#fff" d="M-1123.937 664.409l22.05.26-11.317-11.152z" opacity=".18"/><path fill="#78909c" d="M-1124.916 651.985l5-5.074 5.393 5.315-5 5.074z"/><path fill="#fff" d="M-1124.935 651.957l10.393.241-5.393-5.315z" opacity=".18"/><path fill="#29b6f6" d="M-1130.65 657.804l5-5.074 5.393 5.315-5 5.074z"/><path fill="#fff" d="M-1130.669 657.775l10.393.242-5.393-5.315z" opacity=".18"/><path fill="#78909c" d="M-1102.04 667.38l1.425-1.446 23.646 23.3-1.425 1.448zM-1104.853 670.238l1.426-1.447 23.646 23.3-1.425 1.448zM-1108.223 673.657l1.426-1.446 23.646 23.3-1.426 1.447zM-1111.114 676.588l1.425-1.446 23.646 23.3-1.425 1.447zM-1146.005 687.774l1.426-1.447 29.152 28.727-1.425 1.447zM-1152.55 687.16l1.425-1.447 32.778 32.299-1.426 1.447z"/><path d="M-1098.523 651.98l.593-.602 15.434 15.208-.594.602z"/><ellipse transform="rotate(-45.42 -1074.776 674.776)" cx="-1074.797" cy="674.756" rx=".956" ry=".956"/><path fill="gray" d="M-1178.394 705.3l19.356-19.642 22.608 22.278-19.356 19.643z"/><path fill="#999" d="M-1190.875 717.962l10.921-11.082 10.51 10.356-10.92 11.083z"/><path fill="#b3b3b3" d="M-1178.09 730.559l10.92-11.083 9.826 9.681-10.921 11.083z"/><path fill="#29b6f6" d="M-1136.336 710.407l1.186-1.203 19.273 18.992-1.185 1.203z"/><path fill="#b3b3b3" d="M-1138.688 712.803l1.185-1.203 19.274 18.992-1.186 1.203zM-1141.05 715.195l1.186-1.203 19.273 18.992-1.185 1.203zM-1143.402 717.59l1.186-1.203 19.273 18.992-1.186 1.204zM-1145.762 719.984l1.186-1.204 19.273 18.992-1.186 1.203zM-1148.124 722.378l1.187-1.204 19.272 18.991-1.186 1.204zM-1150.48 724.772l1.187-1.203 19.273 18.99-1.187 1.205zM-1152.841 727.166l1.186-1.204 19.273 18.991-1.186 1.204zM-1155.197 729.56l1.186-1.203 19.273 18.991-1.186 1.204zM-1157.56 731.953l1.187-1.204 19.273 18.992-1.187 1.204zM-1159.914 734.347l1.186-1.204 19.273 18.992-1.187 1.203zM-1162.276 736.74l1.186-1.203 19.272 18.99-1.186 1.204zM-1164.632 739.135l1.187-1.203 19.271 18.99-1.186 1.204zM-1166.988 741.53l1.187-1.204 19.272 18.99-1.187 1.205z"/><path fill="#675a84" d="M-1153.025 674.661l15.002-15.224 48.063 47.36-15.002 15.225z"/><g fill="#fff"><path d="M-1138.154 676.201l1.607-10.557-1.567-1.544-8.329 8.453 1.507 1.485 6.198-6.289-1.735 10.687 1.566 1.544 8.33-8.453-1.507-1.485zM-1137.133 681.727l5.869 5.784 1.34-1.359-4.333-4.27 2.184-2.217 4.05 3.991 1.38-1.401-4.031-3.973 2.097-2.128 4.232 4.171 1.328-1.348-5.787-5.703zM-1119.657 693.787l3.692-7.861-1.507-1.485-8.181 3.904 5.077-6.962-1.59-1.567-6.94 9.821 1.471 1.451 9.031-4.174-4.213 8.921 1.49 1.468 9.919-6.886-1.542-1.52zM-1113.262 693.6c-1.553 1.576-1.465 3.217.265 4.922l1.324 1.305c.796.784.883 1.492.262 2.122-.854.867-1.93.662-3.226-.616-1.068-1.052-1.87-2.154-2.407-3.304l-1.398 1.419c.575 1.111 1.397 2.192 2.465 3.245 2.341 2.307 4.385 2.573 6.132.8 1.553-1.576 1.41-3.271-.43-5.085l-1.324-1.305c-.686-.676-.718-1.329-.096-1.959.815-.828 1.932-.542 3.351.856a10.723 10.723 0 0 1 2.223 3.123l1.398-1.419a12.102 12.102 0 0 0-2.282-3.064c-2.463-2.428-4.548-2.774-6.257-1.04z"/></g><path fill="#fff" d="M-1151.024 674.006l1.297-1.316 46.262 45.587-1.296 1.316zM-1104.634 702.164l1.085-1.102 8.32 8.2-1.084 1.1zM-1106.85 704.42l1.085-1.1 8.32 8.198-1.085 1.101zM-1108.993 706.58l1.085-1.102 8.32 8.2-1.085 1.1z"/></svg>