<?xml version="1.0" encoding="iso-8859-1"?>
<!-- Generator: Adobe Illustrator 19.2.0, SVG Export Plug-In . SVG Version: 6.00 Build 0)  -->
<svg version="1.1" xmlns="http://www.w3.org/2000/svg" xmlns:xlink="http://www.w3.org/1999/xlink" x="0px" y="0px"
	 viewBox="0 0 51.95 179.038" style="enable-background:new 0 0 51.95 179.038;" xml:space="preserve">
<g id="Pencil">
	<g>
		<g>
			<g>
				<path style="fill:#DEDFE0;" d="M-77.301,14.615l3.631,5.353l14.48-9.775l-3.649-5.379c-2.168-3.195-6.513-4.033-9.713-1.873
					l-2.873,1.94C-78.635,7.047-79.476,11.409-77.301,14.615z"/>
			</g>
			<g>
				<path style="fill:#DEDFE0;" d="M-61.769,11.94l-0.337,0.23l-4.86,3.281l-0.152,0.101l0,0.001l-6.549,4.421l95.878,141.817
					c0.071,0.104,0.133,0.197,0.205,0.304l13.763,9.923l7.515,5.419l-2.449-9.05l-4.348-16.067c-4.94-7.318-5.618-8.322-5.691-8.43
					l-0.004,0.002L-59.186,10.199l-2.582,1.743L-61.769,11.94z"/>
			</g>
		</g>
		<g>
			<g>
				<g>
					<g>
						<polygon style="fill:#5A5B5D;" points="51.95,179.038 49.501,169.988 44.435,173.62 						"/>
					</g>
					<g>
						<path style="fill:#F7E683;" d="M44.435,173.62l5.066-3.632l-4.348-16.067c-4.94-7.318-5.618-8.322-5.691-8.43l-7.24,4.888
							l-7.24,4.888c0.052,0.077,0.637,0.943,5.691,8.43L44.435,173.62z"/>
					</g>
					<g>
						<path style="fill:#EDA07E;" d="M-55.754,4.681c-2.863-4.225-7.77-5.897-10.971-3.736l-2.873,1.939
							c-3.21,2.167-3.485,7.368-0.613,11.606l2.769,4.087L-52.9,8.892L-55.754,4.681z"/>
					</g>
					<g>
						<path style="fill:#DC4937;" d="M30.648,163.659c0.025,0.037,14.505-9.738,14.505-9.738L-50.93,11.8l-14.48,9.775
							L30.648,163.659z"/>
					</g>
					<g>
						<path style="fill:#EBEBEC;" d="M-50.498,10.623l-1.154-1.703c-0.287-0.423-0.861-0.536-1.286-0.253l-14.682,9.778
							c-0.43,0.286-0.545,0.869-0.255,1.297l1.216,1.794c0.288,0.425,0.866,0.537,1.291,0.249l14.62-9.869
							C-50.321,11.628-50.21,11.049-50.498,10.623z"/>
					</g>
				</g>
			</g>
			<g>
				<polygon style="fill:#A8362A;" points="-54.972,14.835 40.977,156.845 40.606,157.098 -55.343,15.089 				"/>
			</g>
			<g>
				
					<rect x="-12.813" y="3.923" transform="matrix(0.832 -0.5548 0.5548 0.832 -51.8325 8.0723)" style="fill:#A8362A;" width="0.45" height="171.387"/>
			</g>
		</g>
	</g>
</g>
<g id="Layer_1">
</g>
</svg>
