<svg xmlns="http://www.w3.org/2000/svg" viewBox="0 0 368.962 400.817">
  <path d="M365.793 291.29c-1.718-1.16-3.774-3.216-5.627-5.477-1.71-2.076-3.23-4.315-4.148-6.165-.963-1.956-1.727-3.13-3.087-4.306l-.01-.006c-1.3-1.14-3.165-2.29-6.285-4.157-6.357-3.81-16.424-14.407-21.05-15.495-4.63-1.077-26.252-9.8-30.975-9.906-4.737-.094-18.534 6.038-18.534 6.038l-35.973-31.264-2.945-4.984-25.177 19.31-.03.02-4.012 3.075 35.564 44.225s5.32 18.266 10.93 32.205c5.602 13.933 11.63 26.554 13.874 31.47 2.244 4.915 3.882 17.795 6.677 21.117 2.788 3.333 4.264 2.61 6.383 7.8 2.11 5.19 5.937 14.306 9.353 13.658 3.424-.65 6.123-1.53 4.267-6.572-1.865-5.04-3.02-11.24-6.136-14.233-3.017-2.896-5.683-17.7-5.823-18.53l-.01-.034s.926.304 2.275 1.362c.98.75 2.18 1.894 3.41 3.586.754 1.03 1.53 2.265 2.274 3.752 3.654 7.274 9.2 18.416 15.837 26.365 4.867 5.8 8.855 12.5 12.89 14.61l.01-.004c1.493.79 2.983.936 4.526.19 5.71-2.8 3.086-6.884-1.238-12.303-3.886-4.873-10.35-14.98-13.294-20.7-.33-.646-.615-1.232-.85-1.75-2.22-4.897-4.977-19.272-5.226-20.55-.013-.07-.013-.097-.013-.097l.016.022c.385.554 6.508 9.554 13.008 19.966 6.707 10.763 20.34 31.958 21.806 33.833 1.043 1.345 2.266 3.188 3.806 3.43 0 0 .008-.002.036-.002.324.053.663.035 1.024-.083l.017-.005c.294-.096.617-.276.946-.522 3.625-2.744 5.57-5.825 1.854-13.32-3.73-7.482-22.877-40.06-24.805-45.32-.723-1.99-1.044-3.373-1.163-4.31-.185-1.57.19-1.96.19-1.96s4.052-1.32 9.412 7.277c5.364 8.614 23.403 31.2 25.65 33.53 2.255 2.324 4.663 3.177 6.764 1.088.048-.053.1-.097.144-.158 1.937-2.222 1.542-8.056-7.184-20.133-5.42-7.5-24.32-32.038-27.195-38.868-1.047-2.496-2.088-5.72-3.06-9.04l-.002-.01c-1.68-5.786-2.327-8.71-3.11-11.887-1.24-5-1.974-14.362 3.145-14.383 5.12-.02 13.578 3.13 13.578 3.13s2.886 3.487 13.013 10.298c5.282 3.563 7.795 3.31 10.44 3.695 2.432.352 5.075-.956 5.985-1.93 1.07-1.14 1.297-2.386.7-3.652-.467-.974-1.414-1.968-2.845-2.934z" fill="#D3935F"/>
  <path d="M365.793 291.29c-1.718-1.16-3.774-3.216-5.627-5.477-1.71-2.076-3.23-4.315-4.148-6.165-.963-1.956-1.727-3.13-3.087-4.306l-.01-.006c-1.3-1.14-3.165-2.29-6.285-4.157-6.357-3.81-16.424-14.407-21.05-15.495-4.63-1.077-26.252-9.8-30.975-9.906-4.737-.094-18.534 6.038-18.534 6.038l-35.973-31.264-2.945-4.984-25.177 19.31-.03.02-4.012 3.075 35.564 44.225s5.32 18.266 10.93 32.205c5.602 13.933 11.63 26.554 13.874 31.47 2.244 4.915 3.882 17.795 6.677 21.117 2.788 3.333 4.264 2.61 6.383 7.8 2.11 5.19 5.937 14.306 9.353 13.658 3.424-.65 6.123-1.53 4.267-6.572-1.865-5.04-3.02-11.24-6.136-14.233-3.017-2.896-5.683-17.7-5.823-18.53l-.01-.034s.926.304 2.275 1.362c.98.75 2.18 1.894 3.41 3.586.754 1.03 1.53 2.265 2.274 3.752 3.654 7.274 9.2 18.416 15.837 26.365 4.867 5.8 8.855 12.5 12.89 14.61l.01-.004c1.493.79 2.983.936 4.526.19 5.71-2.8 3.086-6.884-1.238-12.303-3.886-4.873-10.35-14.98-13.294-20.7-.33-.646-.615-1.232-.85-1.75-2.22-4.897-4.977-19.272-5.226-20.55-.013-.07-.013-.097-.013-.097l.016.022c.385.554 6.508 9.554 13.008 19.966 6.707 10.763 20.34 31.958 21.806 33.833 1.043 1.345 2.266 3.188 3.806 3.43 0 0 .008-.002.036-.002.324.053.663.035 1.024-.083l.017-.005c.294-.096.617-.276.946-.522 3.625-2.744 5.57-5.825 1.854-13.32-3.73-7.482-22.877-40.06-24.805-45.32-.723-1.99-1.044-3.373-1.163-4.31-.185-1.57.19-1.96.19-1.96s4.052-1.32 9.412 7.277c5.364 8.614 23.403 31.2 25.65 33.53 2.255 2.324 4.663 3.177 6.764 1.088.048-.053.1-.097.144-.158 1.937-2.222 1.542-8.056-7.184-20.133-5.42-7.5-24.32-32.038-27.195-38.868-1.047-2.496-2.088-5.72-3.06-9.04l-.002-.01c-1.68-5.786-2.327-8.71-3.11-11.887-1.24-5-1.974-14.362 3.145-14.383 5.12-.02 13.578 3.13 13.578 3.13s2.886 3.487 13.013 10.298c5.282 3.563 7.795 3.31 10.44 3.695 2.432.352 5.075-.956 5.985-1.93 1.07-1.14 1.297-2.386.7-3.652-.467-.974-1.414-1.968-2.845-2.934z" fill="#D3935F"/>
  <path d="M288.85 367.647c-3.018-2.896-5.68-17.702-5.827-18.532.07.7 1.26 12.06.48 16.52-.81 4.607-4.268 2.81-6.396 2.084s-6.326-19.413-6.326-19.413-14.76-41.19-18.35-51.228c-6.56-18.346-6.838-26.977-9.483-28.693-18.32-11.885-30.964-33.505-30.964-33.505l.742-.576-4.79 3.673 35.568 44.218s5.313 18.266 10.924 32.207c5.608 13.933 11.637 26.55 13.878 31.466 2.24 4.917 3.88 17.797 6.673 21.124 2.792 3.327 4.264 2.606 6.386 7.802 2.11 5.19 5.937 14.298 9.354 13.658 3.42-.652 6.12-1.53 4.267-6.573-1.86-5.038-3.023-11.24-6.134-14.233z" opacity=".58" fill="#B7855F"/>
  <path d="M365.793 291.29c-1.718-1.16-3.774-3.216-5.627-5.477-1.71-2.076-3.23-4.315-4.148-6.165-.963-1.956-1.727-3.13-3.087-4.306l-.01-.006c-1.3-1.14-3.165-2.29-6.285-4.157-6.357-3.81-16.424-14.407-21.05-15.495-4.63-1.077-26.252-9.8-30.975-9.906-4.737-.094-18.534 6.038-18.534 6.038l-35.973-31.264-2.945-4.984-25.177 19.31-.03.02-4.012 3.075 35.564 44.225s5.32 18.266 10.93 32.205c5.602 13.933 11.63 26.554 13.874 31.47 2.244 4.915 3.882 17.795 6.677 21.117 2.788 3.333 4.264 2.61 6.383 7.8 2.11 5.19 5.937 14.306 9.353 13.658 3.424-.65 6.123-1.53 4.267-6.572-1.865-5.04-3.02-11.24-6.136-14.233-3.017-2.896-5.683-17.7-5.823-18.53l-.01-.034s.926.304 2.275 1.362c.98.75 2.18 1.894 3.41 3.586.754 1.03 1.53 2.265 2.274 3.752 3.654 7.274 9.2 18.416 15.837 26.365 4.867 5.8 8.855 12.5 12.89 14.61l.01-.004c1.493.79 2.983.936 4.526.19 5.71-2.8 3.086-6.884-1.238-12.303-3.886-4.873-10.35-14.98-13.294-20.7-.33-.646-.615-1.232-.85-1.75-2.22-4.897-4.977-19.272-5.226-20.55-.013-.07-.013-.097-.013-.097l.016.022c.385.554 6.508 9.554 13.008 19.966 6.707 10.763 20.34 31.958 21.806 33.833 1.043 1.345 2.266 3.188 3.806 3.43 0 0 .008-.002.036-.002.324.053.663.035 1.024-.083l.017-.005c.294-.096.617-.276.946-.522 3.625-2.744 5.57-5.825 1.854-13.32-3.73-7.482-22.877-40.06-24.805-45.32-.723-1.99-1.044-3.373-1.163-4.31-.185-1.57.19-1.96.19-1.96s4.052-1.32 9.412 7.277c5.364 8.614 23.403 31.2 25.65 33.53 2.255 2.324 4.663 3.177 6.764 1.088.048-.053.1-.097.144-.158 1.937-2.222 1.542-8.056-7.184-20.133-5.42-7.5-24.32-32.038-27.195-38.868-1.047-2.496-2.088-5.72-3.06-9.04l-.002-.01c-1.68-5.786-2.327-8.71-3.11-11.887-1.24-5-1.974-14.362 3.145-14.383 5.12-.02 13.578 3.13 13.578 3.13s2.886 3.487 13.013 10.298c5.282 3.563 7.795 3.31 10.44 3.695 2.432.352 5.075-.956 5.985-1.93 1.07-1.14 1.297-2.386.7-3.652-.467-.974-1.414-1.968-2.845-2.934z" fill="#D3935F"/>
  <path d="M288.85 367.647c-3.018-2.896-5.68-17.702-5.827-18.532.07.7 1.26 12.06.48 16.52-.81 4.607-4.268 2.81-6.396 2.084s-6.326-19.413-6.326-19.413-14.76-41.19-18.35-51.228c-6.56-18.346-6.838-26.977-9.483-28.693-18.32-11.885-30.964-33.505-30.964-33.505l.742-.576-4.79 3.673 35.568 44.218s5.313 18.266 10.924 32.207c5.608 13.933 11.637 26.55 13.878 31.466 2.24 4.917 3.88 17.797 6.673 21.124 2.792 3.327 4.264 2.606 6.386 7.802 2.11 5.19 5.937 14.298 9.354 13.658 3.42-.652 6.12-1.53 4.267-6.573-1.86-5.038-3.023-11.24-6.134-14.233zM309.71 365.936s-.247 4.51-4.148 5.3c-3.902.788-5.262-.7-8.1-6.048-1.718-3.233-5.798-7.935-8.757-11.16.755 1.03 1.525 2.264 2.272 3.748 3.652 7.284 9.198 18.418 15.842 26.368 6.65 7.947 11.714 17.598 17.42 14.793 5.707-2.796 3.088-6.884-1.233-12.3-3.89-4.87-10.356-14.98-13.297-20.7z" opacity=".58" fill="#B7855F"/>
  <path d="M365.793 291.29c-1.718-1.16-3.774-3.216-5.627-5.477-1.71-2.076-3.23-4.315-4.148-6.165-.963-1.956-1.727-3.13-3.087-4.306l-.01-.006c-1.3-1.14-3.165-2.29-6.285-4.157-6.357-3.81-16.424-14.407-21.05-15.495-4.63-1.077-26.252-9.8-30.975-9.906-4.737-.094-18.534 6.038-18.534 6.038l-35.973-31.264-2.945-4.984-25.177 19.31-.03.02-4.012 3.075 35.564 44.225s5.32 18.266 10.93 32.205c5.602 13.933 11.63 26.554 13.874 31.47 2.244 4.915 3.882 17.795 6.677 21.117 2.788 3.333 4.264 2.61 6.383 7.8 2.11 5.19 5.937 14.306 9.353 13.658 3.424-.65 6.123-1.53 4.267-6.572-1.865-5.04-3.02-11.24-6.136-14.233-3.017-2.896-5.683-17.7-5.823-18.53l-.01-.034s.926.304 2.275 1.362c.98.75 2.18 1.894 3.41 3.586.754 1.03 1.53 2.265 2.274 3.752 3.654 7.274 9.2 18.416 15.837 26.365 4.867 5.8 8.855 12.5 12.89 14.61l.01-.004c1.493.79 2.983.936 4.526.19 5.71-2.8 3.086-6.884-1.238-12.303-3.886-4.873-10.35-14.98-13.294-20.7-.33-.646-.615-1.232-.85-1.75-2.22-4.897-4.977-19.272-5.226-20.55-.013-.07-.013-.097-.013-.097l.016.022c.385.554 6.508 9.554 13.008 19.966 6.707 10.763 20.34 31.958 21.806 33.833 1.043 1.345 2.266 3.188 3.806 3.43 0 0 .008-.002.036-.002.324.053.663.035 1.024-.083l.017-.005c.294-.096.617-.276.946-.522 3.625-2.744 5.57-5.825 1.854-13.32-3.73-7.482-22.877-40.06-24.805-45.32-.723-1.99-1.044-3.373-1.163-4.31-.185-1.57.19-1.96.19-1.96s4.052-1.32 9.412 7.277c5.364 8.614 23.403 31.2 25.65 33.53 2.255 2.324 4.663 3.177 6.764 1.088.048-.053.1-.097.144-.158 1.937-2.222 1.542-8.056-7.184-20.133-5.42-7.5-24.32-32.038-27.195-38.868-1.047-2.496-2.088-5.72-3.06-9.04l-.002-.01c-1.68-5.786-2.327-8.71-3.11-11.887-1.24-5-1.974-14.362 3.145-14.383 5.12-.02 13.578 3.13 13.578 3.13s2.886 3.487 13.013 10.298c5.282 3.563 7.795 3.31 10.44 3.695 2.432.352 5.075-.956 5.985-1.93 1.07-1.14 1.297-2.386.7-3.652-.467-.974-1.414-1.968-2.845-2.934z" fill="#D3935F"/>
  <path d="M288.85 367.647c-3.018-2.896-5.68-17.702-5.827-18.532.07.7 1.26 12.06.48 16.52-.81 4.607-4.268 2.81-6.396 2.084s-6.326-19.413-6.326-19.413-14.76-41.19-18.35-51.228c-6.56-18.346-6.838-26.977-9.483-28.693-18.32-11.885-30.964-33.505-30.964-33.505l.742-.576-4.79 3.673 35.568 44.218s5.313 18.266 10.924 32.207c5.608 13.933 11.637 26.55 13.878 31.466 2.24 4.917 3.88 17.797 6.673 21.124 2.792 3.327 4.264 2.606 6.386 7.802 2.11 5.19 5.937 14.298 9.354 13.658 3.42-.652 6.12-1.53 4.267-6.573-1.86-5.038-3.023-11.24-6.134-14.233zM309.71 365.936s-.247 4.51-4.148 5.3c-3.902.788-5.262-.7-8.1-6.048-1.718-3.233-5.798-7.935-8.757-11.16.755 1.03 1.525 2.264 2.272 3.748 3.652 7.284 9.198 18.418 15.842 26.368 6.65 7.947 11.714 17.598 17.42 14.793 5.707-2.796 3.088-6.884-1.233-12.3-3.89-4.87-10.356-14.98-13.297-20.7z" opacity=".58" fill="#B7855F"/>
  <path d="M327.95 318.002c-1.05-2.495-2.092-5.717-3.06-9.04l-.004-.01s-.443 4.015 1.383 8.893c1.814 4.87 8.502 14.273 13.57 21.954 5.077 7.677 3.034 9.308 3.034 9.308s5.292.843 12.358 11.51c6.55 9.892 6.926 15.666 6.953 16.45.045-.025.092-.04.145-.067 1.932-2.21 1.537-8.047-7.188-20.124-5.42-7.5-24.318-32.042-27.193-38.874z" opacity=".21" fill="#FFF"/>
  <path d="M365.793 291.29c-1.718-1.16-3.774-3.216-5.627-5.477-1.71-2.076-3.23-4.315-4.148-6.165-.963-1.956-1.727-3.13-3.087-4.306l-.01-.006c-1.3-1.14-3.165-2.29-6.285-4.157-6.357-3.81-16.424-14.407-21.05-15.495-4.63-1.077-26.252-9.8-30.975-9.906-4.737-.094-18.534 6.038-18.534 6.038l-35.973-31.264-2.945-4.984-25.177 19.31-.03.02-4.012 3.075 35.564 44.225s5.32 18.266 10.93 32.205c5.602 13.933 11.63 26.554 13.874 31.47 2.244 4.915 3.882 17.795 6.677 21.117 2.788 3.333 4.264 2.61 6.383 7.8 2.11 5.19 5.937 14.306 9.353 13.658 3.424-.65 6.123-1.53 4.267-6.572-1.865-5.04-3.02-11.24-6.136-14.233-3.017-2.896-5.683-17.7-5.823-18.53l-.01-.034s.926.304 2.275 1.362c.98.75 2.18 1.894 3.41 3.586.754 1.03 1.53 2.265 2.274 3.752 3.654 7.274 9.2 18.416 15.837 26.365 4.867 5.8 8.855 12.5 12.89 14.61l.01-.004c1.493.79 2.983.936 4.526.19 5.71-2.8 3.086-6.884-1.238-12.303-3.886-4.873-10.35-14.98-13.294-20.7-.33-.646-.615-1.232-.85-1.75-2.22-4.897-4.977-19.272-5.226-20.55-.013-.07-.013-.097-.013-.097l.016.022c.385.554 6.508 9.554 13.008 19.966 6.707 10.763 20.34 31.958 21.806 33.833 1.043 1.345 2.266 3.188 3.806 3.43 0 0 .008-.002.036-.002.324.053.663.035 1.024-.083l.017-.005c.294-.096.617-.276.946-.522 3.625-2.744 5.57-5.825 1.854-13.32-3.73-7.482-22.877-40.06-24.805-45.32-.723-1.99-1.044-3.373-1.163-4.31-.185-1.57.19-1.96.19-1.96s4.052-1.32 9.412 7.277c5.364 8.614 23.403 31.2 25.65 33.53 2.255 2.324 4.663 3.177 6.764 1.088.048-.053.1-.097.144-.158 1.937-2.222 1.542-8.056-7.184-20.133-5.42-7.5-24.32-32.038-27.195-38.868-1.047-2.496-2.088-5.72-3.06-9.04l-.002-.01c-1.68-5.786-2.327-8.71-3.11-11.887-1.24-5-1.974-14.362 3.145-14.383 5.12-.02 13.578 3.13 13.578 3.13s2.886 3.487 13.013 10.298c5.282 3.563 7.795 3.31 10.44 3.695 2.432.352 5.075-.956 5.985-1.93 1.07-1.14 1.297-2.386.7-3.652-.467-.974-1.414-1.968-2.845-2.934z" fill="#D3935F"/>
  <path d="M288.85 367.647c-3.018-2.896-5.68-17.702-5.827-18.532.07.7 1.26 12.06.48 16.52-.81 4.607-4.268 2.81-6.396 2.084s-6.326-19.413-6.326-19.413-14.76-41.19-18.35-51.228c-6.56-18.346-6.838-26.977-9.483-28.693-18.32-11.885-30.964-33.505-30.964-33.505l.742-.576-4.79 3.673 35.568 44.218s5.313 18.266 10.924 32.207c5.608 13.933 11.637 26.55 13.878 31.466 2.24 4.917 3.88 17.797 6.673 21.124 2.792 3.327 4.264 2.606 6.386 7.802 2.11 5.19 5.937 14.298 9.354 13.658 3.42-.652 6.12-1.53 4.267-6.573-1.86-5.038-3.023-11.24-6.134-14.233zM309.71 365.936s-.247 4.51-4.148 5.3c-3.902.788-5.262-.7-8.1-6.048-1.718-3.233-5.798-7.935-8.757-11.16.755 1.03 1.525 2.264 2.272 3.748 3.652 7.284 9.198 18.418 15.842 26.368 6.65 7.947 11.714 17.598 17.42 14.793 5.707-2.796 3.088-6.884-1.233-12.3-3.89-4.87-10.356-14.98-13.297-20.7z" opacity=".58" fill="#B7855F"/>
  <path d="M327.95 318.002c-1.05-2.495-2.092-5.717-3.06-9.04l-.004-.01s-.443 4.015 1.383 8.893c1.814 4.87 8.502 14.273 13.57 21.954 5.077 7.677 3.034 9.308 3.034 9.308s5.292.843 12.358 11.51c6.55 9.892 6.926 15.666 6.953 16.45.045-.025.092-.04.145-.067 1.932-2.21 1.537-8.047-7.188-20.124-5.42-7.5-24.318-32.042-27.193-38.874zM321.33 341.536c-.726-1.983-1.045-3.366-1.16-4.312 0 0-1.092 2.266-.003 6.496 1.08 4.232 5.066 10.172 8.506 15.382 3.445 5.2.08 6.507 2.76 8.472 2.68 1.964 8.96 12.26 13.633 20.235 4.676 7.98-2.81 12.978-2.81 12.978s.008-.003.035-.002c.104-.005.47-.037 1.025-.083l.016-.005c.302-.098.622-.27.952-.522 3.624-2.744 5.572-5.82 1.852-13.314-3.73-7.49-22.88-40.066-24.805-45.326z" opacity=".21" fill="#FFF"/>
  <path d="M365.793 291.29c-1.718-1.16-3.774-3.216-5.627-5.477-1.71-2.076-3.23-4.315-4.148-6.165-.963-1.956-1.727-3.13-3.087-4.306l-.01-.006c-1.3-1.14-3.165-2.29-6.285-4.157-6.357-3.81-16.424-14.407-21.05-15.495-4.63-1.077-26.252-9.8-30.975-9.906-4.737-.094-18.534 6.038-18.534 6.038l-35.973-31.264-2.945-4.984-25.177 19.31-.03.02-4.012 3.075 35.564 44.225s5.32 18.266 10.93 32.205c5.602 13.933 11.63 26.554 13.874 31.47 2.244 4.915 3.882 17.795 6.677 21.117 2.788 3.333 4.264 2.61 6.383 7.8 2.11 5.19 5.937 14.306 9.353 13.658 3.424-.65 6.123-1.53 4.267-6.572-1.865-5.04-3.02-11.24-6.136-14.233-3.017-2.896-5.683-17.7-5.823-18.53l-.01-.034s.926.304 2.275 1.362c.98.75 2.18 1.894 3.41 3.586.754 1.03 1.53 2.265 2.274 3.752 3.654 7.274 9.2 18.416 15.837 26.365 4.867 5.8 8.855 12.5 12.89 14.61l.01-.004c1.493.79 2.983.936 4.526.19 5.71-2.8 3.086-6.884-1.238-12.303-3.886-4.873-10.35-14.98-13.294-20.7-.33-.646-.615-1.232-.85-1.75-2.22-4.897-4.977-19.272-5.226-20.55-.013-.07-.013-.097-.013-.097l.016.022c.385.554 6.508 9.554 13.008 19.966 6.707 10.763 20.34 31.958 21.806 33.833 1.043 1.345 2.266 3.188 3.806 3.43 0 0 .008-.002.036-.002.324.053.663.035 1.024-.083l.017-.005c.294-.096.617-.276.946-.522 3.625-2.744 5.57-5.825 1.854-13.32-3.73-7.482-22.877-40.06-24.805-45.32-.723-1.99-1.044-3.373-1.163-4.31-.185-1.57.19-1.96.19-1.96s4.052-1.32 9.412 7.277c5.364 8.614 23.403 31.2 25.65 33.53 2.255 2.324 4.663 3.177 6.764 1.088.048-.053.1-.097.144-.158 1.937-2.222 1.542-8.056-7.184-20.133-5.42-7.5-24.32-32.038-27.195-38.868-1.047-2.496-2.088-5.72-3.06-9.04l-.002-.01c-1.68-5.786-2.327-8.71-3.11-11.887-1.24-5-1.974-14.362 3.145-14.383 5.12-.02 13.578 3.13 13.578 3.13s2.886 3.487 13.013 10.298c5.282 3.563 7.795 3.31 10.44 3.695 2.432.352 5.075-.956 5.985-1.93 1.07-1.14 1.297-2.386.7-3.652-.467-.974-1.414-1.968-2.845-2.934z" fill="#D3935F"/>
  <path d="M288.85 367.647c-3.018-2.896-5.68-17.702-5.827-18.532.07.7 1.26 12.06.48 16.52-.81 4.607-4.268 2.81-6.396 2.084s-6.326-19.413-6.326-19.413-14.76-41.19-18.35-51.228c-6.56-18.346-6.838-26.977-9.483-28.693-18.32-11.885-30.964-33.505-30.964-33.505l.742-.576-4.79 3.673 35.568 44.218s5.313 18.266 10.924 32.207c5.608 13.933 11.637 26.55 13.878 31.466 2.24 4.917 3.88 17.797 6.673 21.124 2.792 3.327 4.264 2.606 6.386 7.802 2.11 5.19 5.937 14.298 9.354 13.658 3.42-.652 6.12-1.53 4.267-6.573-1.86-5.038-3.023-11.24-6.134-14.233zM309.71 365.936s-.247 4.51-4.148 5.3c-3.902.788-5.262-.7-8.1-6.048-1.718-3.233-5.798-7.935-8.757-11.16.755 1.03 1.525 2.264 2.272 3.748 3.652 7.284 9.198 18.418 15.842 26.368 6.65 7.947 11.714 17.598 17.42 14.793 5.707-2.796 3.088-6.884-1.233-12.3-3.89-4.87-10.356-14.98-13.297-20.7z" opacity=".58" fill="#B7855F"/>
  <path d="M327.95 318.002c-1.05-2.495-2.092-5.717-3.06-9.04l-.004-.01s-.443 4.015 1.383 8.893c1.814 4.87 8.502 14.273 13.57 21.954 5.077 7.677 3.034 9.308 3.034 9.308s5.292.843 12.358 11.51c6.55 9.892 6.926 15.666 6.953 16.45.045-.025.092-.04.145-.067 1.932-2.21 1.537-8.047-7.188-20.124-5.42-7.5-24.318-32.042-27.193-38.874zM321.33 341.536c-.726-1.983-1.045-3.366-1.16-4.312 0 0-1.092 2.266-.003 6.496 1.08 4.232 5.066 10.172 8.506 15.382 3.445 5.2.08 6.507 2.76 8.472 2.68 1.964 8.96 12.26 13.633 20.235 4.676 7.98-2.81 12.978-2.81 12.978s.008-.003.035-.002c.104-.005.47-.037 1.025-.083l.016-.005c.302-.098.622-.27.952-.522 3.624-2.744 5.572-5.82 1.852-13.314-3.73-7.49-22.88-40.066-24.805-45.326zM309.71 365.936c-.333-.645-.62-1.227-.85-1.75-2.217-4.895-4.976-19.273-5.226-20.552.146 1.255 1.706 14.693 2.472 18.738.797 4.247 2.886 6.143 4.438 8.272 1.56 2.126 11.537 18.37 14.14 22.03 2.552 3.587-4.727 5.998-4.972 6.078 1.49.788 2.985.938 4.526.185 5.708-2.796 3.09-6.884-1.232-12.3-3.89-4.87-10.355-14.98-13.296-20.7z" opacity=".21" fill="#FFF"/>
  <g>
    <path d="M365.793 291.29c-1.718-1.16-3.774-3.216-5.627-5.477-1.71-2.076-3.23-4.315-4.148-6.165-.963-1.956-1.727-3.13-3.087-4.306l-.01-.006c-1.3-1.14-3.165-2.29-6.285-4.157-6.357-3.81-16.424-14.407-21.05-15.495-4.63-1.077-26.252-9.8-30.975-9.906-4.737-.094-18.534 6.038-18.534 6.038l-35.973-31.264-2.945-4.984-25.177 19.31-.03.02-4.012 3.075 35.564 44.225s5.32 18.266 10.93 32.205c5.602 13.933 11.63 26.554 13.874 31.47 2.244 4.915 3.882 17.795 6.677 21.117 2.788 3.333 4.264 2.61 6.383 7.8 2.11 5.19 5.937 14.306 9.353 13.658 3.424-.65 6.123-1.53 4.267-6.572-1.865-5.04-3.02-11.24-6.136-14.233-3.017-2.896-5.683-17.7-5.823-18.53l-.01-.034s.926.304 2.275 1.362c.98.75 2.18 1.894 3.41 3.586.754 1.03 1.53 2.265 2.274 3.752 3.654 7.274 9.2 18.416 15.837 26.365 4.867 5.8 8.855 12.5 12.89 14.61l.01-.004c1.493.79 2.983.936 4.526.19 5.71-2.8 3.086-6.884-1.238-12.303-3.886-4.873-10.35-14.98-13.294-20.7-.33-.646-.615-1.232-.85-1.75-2.22-4.897-4.977-19.272-5.226-20.55-.013-.07-.013-.097-.013-.097l.016.022c.385.554 6.508 9.554 13.008 19.966 6.707 10.763 20.34 31.958 21.806 33.833 1.043 1.345 2.266 3.188 3.806 3.43 0 0 .008-.002.036-.002.324.053.663.035 1.024-.083l.017-.005c.294-.096.617-.276.946-.522 3.625-2.744 5.57-5.825 1.854-13.32-3.73-7.482-22.877-40.06-24.805-45.32-.723-1.99-1.044-3.373-1.163-4.31-.185-1.57.19-1.96.19-1.96s4.052-1.32 9.412 7.277c5.364 8.614 23.403 31.2 25.65 33.53 2.255 2.324 4.663 3.177 6.764 1.088.048-.053.1-.097.144-.158 1.937-2.222 1.542-8.056-7.184-20.133-5.42-7.5-24.32-32.038-27.195-38.868-1.047-2.496-2.088-5.72-3.06-9.04l-.002-.01c-1.68-5.786-2.327-8.71-3.11-11.887-1.24-5-1.974-14.362 3.145-14.383 5.12-.02 13.578 3.13 13.578 3.13s2.886 3.487 13.013 10.298c5.282 3.563 7.795 3.31 10.44 3.695 2.432.352 5.075-.956 5.985-1.93 1.07-1.14 1.297-2.386.7-3.652-.467-.974-1.414-1.968-2.845-2.934z" fill="#D3935F"/>
    <path d="M288.85 367.647c-3.018-2.896-5.68-17.702-5.827-18.532.07.7 1.26 12.06.48 16.52-.81 4.607-4.268 2.81-6.396 2.084s-6.326-19.413-6.326-19.413-14.76-41.19-18.35-51.228c-6.56-18.346-6.838-26.977-9.483-28.693-18.32-11.885-30.964-33.505-30.964-33.505l.742-.576-4.79 3.673 35.568 44.218s5.313 18.266 10.924 32.207c5.608 13.933 11.637 26.55 13.878 31.466 2.24 4.917 3.88 17.797 6.673 21.124 2.792 3.327 4.264 2.606 6.386 7.802 2.11 5.19 5.937 14.298 9.354 13.658 3.42-.652 6.12-1.53 4.267-6.573-1.86-5.038-3.023-11.24-6.134-14.233zM309.71 365.936s-.247 4.51-4.148 5.3c-3.902.788-5.262-.7-8.1-6.048-1.718-3.233-5.798-7.935-8.757-11.16.755 1.03 1.525 2.264 2.272 3.748 3.652 7.284 9.198 18.418 15.842 26.368 6.65 7.947 11.714 17.598 17.42 14.793 5.707-2.796 3.088-6.884-1.233-12.3-3.89-4.87-10.356-14.98-13.297-20.7z" opacity=".58" fill="#B7855F"/>
    <path d="M327.95 318.002c-1.05-2.495-2.092-5.717-3.06-9.04l-.004-.01s-.443 4.015 1.383 8.893c1.814 4.87 8.502 14.273 13.57 21.954 5.077 7.677 3.034 9.308 3.034 9.308s5.292.843 12.358 11.51c6.55 9.892 6.926 15.666 6.953 16.45.045-.025.092-.04.145-.067 1.932-2.21 1.537-8.047-7.188-20.124-5.42-7.5-24.318-32.042-27.193-38.874zM321.33 341.536c-.726-1.983-1.045-3.366-1.16-4.312 0 0-1.092 2.266-.003 6.496 1.08 4.232 5.066 10.172 8.506 15.382 3.445 5.2.08 6.507 2.76 8.472 2.68 1.964 8.96 12.26 13.633 20.235 4.676 7.98-2.81 12.978-2.81 12.978s.008-.003.035-.002c.104-.005.47-.037 1.025-.083l.016-.005c.302-.098.622-.27.952-.522 3.624-2.744 5.572-5.82 1.852-13.314-3.73-7.49-22.88-40.066-24.805-45.326zM309.71 365.936c-.333-.645-.62-1.227-.85-1.75-2.217-4.895-4.976-19.273-5.226-20.552.146 1.255 1.706 14.693 2.472 18.738.797 4.247 2.886 6.143 4.438 8.272 1.56 2.126 11.537 18.37 14.14 22.03 2.552 3.587-4.727 5.998-4.972 6.078 1.49.788 2.985.938 4.526.185 5.708-2.796 3.09-6.884-1.232-12.3-3.89-4.87-10.355-14.98-13.296-20.7zM325.584 255.684c-4.625-1.08-26.246-9.794-30.974-9.904-4.734-.098-18.53 6.038-18.53 6.038l-36.623-31.828 34.412 36.302s5.767-1.108 13.23-4.186c7.468-3.07 13.237-2.607 23.774.62 8.514 2.61 15.45 5.877 20.12 10.475 4.58 4.52 21.45 11.98 21.928 12.133-1.307-1.137-3.17-2.287-6.284-4.158-6.363-3.804-16.427-14.403-21.054-15.49z" opacity=".21" fill="#FFF"/>
  </g>
  <g>
    <path d="M365.793 291.29c-1.718-1.16-3.774-3.216-5.627-5.477-1.71-2.076-3.23-4.315-4.148-6.165-.963-1.956-1.727-3.13-3.087-4.306l-.01-.006c-1.3-1.14-3.165-2.29-6.285-4.157-6.357-3.81-16.424-14.407-21.05-15.495-4.63-1.077-26.252-9.8-30.975-9.906-4.737-.094-18.534 6.038-18.534 6.038l-35.973-31.264-2.945-4.984-25.177 19.31-.03.02-4.012 3.075 35.564 44.225s5.32 18.266 10.93 32.205c5.602 13.933 11.63 26.554 13.874 31.47 2.244 4.915 3.882 17.795 6.677 21.117 2.788 3.333 4.264 2.61 6.383 7.8 2.11 5.19 5.937 14.306 9.353 13.658 3.424-.65 6.123-1.53 4.267-6.572-1.865-5.04-3.02-11.24-6.136-14.233-3.017-2.896-5.683-17.7-5.823-18.53l-.01-.034s.926.304 2.275 1.362c.98.75 2.18 1.894 3.41 3.586.754 1.03 1.53 2.265 2.274 3.752 3.654 7.274 9.2 18.416 15.837 26.365 4.867 5.8 8.855 12.5 12.89 14.61l.01-.004c1.493.79 2.983.936 4.526.19 5.71-2.8 3.086-6.884-1.238-12.303-3.886-4.873-10.35-14.98-13.294-20.7-.33-.646-.615-1.232-.85-1.75-2.22-4.897-4.977-19.272-5.226-20.55-.013-.07-.013-.097-.013-.097l.016.022c.385.554 6.508 9.554 13.008 19.966 6.707 10.763 20.34 31.958 21.806 33.833 1.043 1.345 2.266 3.188 3.806 3.43 0 0 .008-.002.036-.002.324.053.663.035 1.024-.083l.017-.005c.294-.096.617-.276.946-.522 3.625-2.744 5.57-5.825 1.854-13.32-3.73-7.482-22.877-40.06-24.805-45.32-.723-1.99-1.044-3.373-1.163-4.31-.185-1.57.19-1.96.19-1.96s4.052-1.32 9.412 7.277c5.364 8.614 23.403 31.2 25.65 33.53 2.255 2.324 4.663 3.177 6.764 1.088.048-.053.1-.097.144-.158 1.937-2.222 1.542-8.056-7.184-20.133-5.42-7.5-24.32-32.038-27.195-38.868-1.047-2.496-2.088-5.72-3.06-9.04l-.002-.01c-1.68-5.786-2.327-8.71-3.11-11.887-1.24-5-1.974-14.362 3.145-14.383 5.12-.02 13.578 3.13 13.578 3.13s2.886 3.487 13.013 10.298c5.282 3.563 7.795 3.31 10.44 3.695 2.432.352 5.075-.956 5.985-1.93 1.07-1.14 1.297-2.386.7-3.652-.467-.974-1.414-1.968-2.845-2.934z" fill="#D3935F"/>
    <path d="M288.85 367.647c-3.018-2.896-5.68-17.702-5.827-18.532.07.7 1.26 12.06.48 16.52-.81 4.607-4.268 2.81-6.396 2.084s-6.326-19.413-6.326-19.413-14.76-41.19-18.35-51.228c-6.56-18.346-6.838-26.977-9.483-28.693-18.32-11.885-30.964-33.505-30.964-33.505l.742-.576-4.79 3.673 35.568 44.218s5.313 18.266 10.924 32.207c5.608 13.933 11.637 26.55 13.878 31.466 2.24 4.917 3.88 17.797 6.673 21.124 2.792 3.327 4.264 2.606 6.386 7.802 2.11 5.19 5.937 14.298 9.354 13.658 3.42-.652 6.12-1.53 4.267-6.573-1.86-5.038-3.023-11.24-6.134-14.233zM309.71 365.936s-.247 4.51-4.148 5.3c-3.902.788-5.262-.7-8.1-6.048-1.718-3.233-5.798-7.935-8.757-11.16.755 1.03 1.525 2.264 2.272 3.748 3.652 7.284 9.198 18.418 15.842 26.368 6.65 7.947 11.714 17.598 17.42 14.793 5.707-2.796 3.088-6.884-1.233-12.3-3.89-4.87-10.356-14.98-13.297-20.7z" opacity=".58" fill="#B7855F"/>
    <path d="M327.95 318.002c-1.05-2.495-2.092-5.717-3.06-9.04l-.004-.01s-.443 4.015 1.383 8.893c1.814 4.87 8.502 14.273 13.57 21.954 5.077 7.677 3.034 9.308 3.034 9.308s5.292.843 12.358 11.51c6.55 9.892 6.926 15.666 6.953 16.45.045-.025.092-.04.145-.067 1.932-2.21 1.537-8.047-7.188-20.124-5.42-7.5-24.318-32.042-27.193-38.874zM321.33 341.536c-.726-1.983-1.045-3.366-1.16-4.312 0 0-1.092 2.266-.003 6.496 1.08 4.232 5.066 10.172 8.506 15.382 3.445 5.2.08 6.507 2.76 8.472 2.68 1.964 8.96 12.26 13.633 20.235 4.676 7.98-2.81 12.978-2.81 12.978s.008-.003.035-.002c.104-.005.47-.037 1.025-.083l.016-.005c.302-.098.622-.27.952-.522 3.624-2.744 5.572-5.82 1.852-13.314-3.73-7.49-22.88-40.066-24.805-45.326zM309.71 365.936c-.333-.645-.62-1.227-.85-1.75-2.217-4.895-4.976-19.273-5.226-20.552.146 1.255 1.706 14.693 2.472 18.738.797 4.247 2.886 6.143 4.438 8.272 1.56 2.126 11.537 18.37 14.14 22.03 2.552 3.587-4.727 5.998-4.972 6.078 1.49.788 2.985.938 4.526.185 5.708-2.796 3.09-6.884-1.232-12.3-3.89-4.87-10.355-14.98-13.296-20.7zM325.584 255.684c-4.625-1.08-26.246-9.794-30.974-9.904-4.734-.098-18.53 6.038-18.53 6.038l-36.623-31.828 34.412 36.302s5.767-1.108 13.23-4.186c7.468-3.07 13.237-2.607 23.774.62 8.514 2.61 15.45 5.877 20.12 10.475 4.58 4.52 21.45 11.98 21.928 12.133-1.307-1.137-3.17-2.287-6.284-4.158-6.363-3.804-16.427-14.403-21.054-15.49z" opacity=".21" fill="#FFF"/>
    <path fill="#D3C5EF" d="M195.088 231.37l28.81 26.455 5.38-4.48 11.093-9.234 16.97-8.577-29.912-33.298"/>
  </g>
  <g>
    <path d="M365.793 291.29c-1.718-1.16-3.774-3.216-5.627-5.477-1.71-2.076-3.23-4.315-4.148-6.165-.963-1.956-1.727-3.13-3.087-4.306l-.01-.006c-1.3-1.14-3.165-2.29-6.285-4.157-6.357-3.81-16.424-14.407-21.05-15.495-4.63-1.077-26.252-9.8-30.975-9.906-4.737-.094-18.534 6.038-18.534 6.038l-35.973-31.264-2.945-4.984-25.177 19.31-.03.02-4.012 3.075 35.564 44.225s5.32 18.266 10.93 32.205c5.602 13.933 11.63 26.554 13.874 31.47 2.244 4.915 3.882 17.795 6.677 21.117 2.788 3.333 4.264 2.61 6.383 7.8 2.11 5.19 5.937 14.306 9.353 13.658 3.424-.65 6.123-1.53 4.267-6.572-1.865-5.04-3.02-11.24-6.136-14.233-3.017-2.896-5.683-17.7-5.823-18.53l-.01-.034s.926.304 2.275 1.362c.98.75 2.18 1.894 3.41 3.586.754 1.03 1.53 2.265 2.274 3.752 3.654 7.274 9.2 18.416 15.837 26.365 4.867 5.8 8.855 12.5 12.89 14.61l.01-.004c1.493.79 2.983.936 4.526.19 5.71-2.8 3.086-6.884-1.238-12.303-3.886-4.873-10.35-14.98-13.294-20.7-.33-.646-.615-1.232-.85-1.75-2.22-4.897-4.977-19.272-5.226-20.55-.013-.07-.013-.097-.013-.097l.016.022c.385.554 6.508 9.554 13.008 19.966 6.707 10.763 20.34 31.958 21.806 33.833 1.043 1.345 2.266 3.188 3.806 3.43 0 0 .008-.002.036-.002.324.053.663.035 1.024-.083l.017-.005c.294-.096.617-.276.946-.522 3.625-2.744 5.57-5.825 1.854-13.32-3.73-7.482-22.877-40.06-24.805-45.32-.723-1.99-1.044-3.373-1.163-4.31-.185-1.57.19-1.96.19-1.96s4.052-1.32 9.412 7.277c5.364 8.614 23.403 31.2 25.65 33.53 2.255 2.324 4.663 3.177 6.764 1.088.048-.053.1-.097.144-.158 1.937-2.222 1.542-8.056-7.184-20.133-5.42-7.5-24.32-32.038-27.195-38.868-1.047-2.496-2.088-5.72-3.06-9.04l-.002-.01c-1.68-5.786-2.327-8.71-3.11-11.887-1.24-5-1.974-14.362 3.145-14.383 5.12-.02 13.578 3.13 13.578 3.13s2.886 3.487 13.013 10.298c5.282 3.563 7.795 3.31 10.44 3.695 2.432.352 5.075-.956 5.985-1.93 1.07-1.14 1.297-2.386.7-3.652-.467-.974-1.414-1.968-2.845-2.934z" fill="#D3935F"/>
    <path d="M288.85 367.647c-3.018-2.896-5.68-17.702-5.827-18.532.07.7 1.26 12.06.48 16.52-.81 4.607-4.268 2.81-6.396 2.084s-6.326-19.413-6.326-19.413-14.76-41.19-18.35-51.228c-6.56-18.346-6.838-26.977-9.483-28.693-18.32-11.885-30.964-33.505-30.964-33.505l.742-.576-4.79 3.673 35.568 44.218s5.313 18.266 10.924 32.207c5.608 13.933 11.637 26.55 13.878 31.466 2.24 4.917 3.88 17.797 6.673 21.124 2.792 3.327 4.264 2.606 6.386 7.802 2.11 5.19 5.937 14.298 9.354 13.658 3.42-.652 6.12-1.53 4.267-6.573-1.86-5.038-3.023-11.24-6.134-14.233zM309.71 365.936s-.247 4.51-4.148 5.3c-3.902.788-5.262-.7-8.1-6.048-1.718-3.233-5.798-7.935-8.757-11.16.755 1.03 1.525 2.264 2.272 3.748 3.652 7.284 9.198 18.418 15.842 26.368 6.65 7.947 11.714 17.598 17.42 14.793 5.707-2.796 3.088-6.884-1.233-12.3-3.89-4.87-10.356-14.98-13.297-20.7z" opacity=".58" fill="#B7855F"/>
    <path d="M327.95 318.002c-1.05-2.495-2.092-5.717-3.06-9.04l-.004-.01s-.443 4.015 1.383 8.893c1.814 4.87 8.502 14.273 13.57 21.954 5.077 7.677 3.034 9.308 3.034 9.308s5.292.843 12.358 11.51c6.55 9.892 6.926 15.666 6.953 16.45.045-.025.092-.04.145-.067 1.932-2.21 1.537-8.047-7.188-20.124-5.42-7.5-24.318-32.042-27.193-38.874zM321.33 341.536c-.726-1.983-1.045-3.366-1.16-4.312 0 0-1.092 2.266-.003 6.496 1.08 4.232 5.066 10.172 8.506 15.382 3.445 5.2.08 6.507 2.76 8.472 2.68 1.964 8.96 12.26 13.633 20.235 4.676 7.98-2.81 12.978-2.81 12.978s.008-.003.035-.002c.104-.005.47-.037 1.025-.083l.016-.005c.302-.098.622-.27.952-.522 3.624-2.744 5.572-5.82 1.852-13.314-3.73-7.49-22.88-40.066-24.805-45.326zM309.71 365.936c-.333-.645-.62-1.227-.85-1.75-2.217-4.895-4.976-19.273-5.226-20.552.146 1.255 1.706 14.693 2.472 18.738.797 4.247 2.886 6.143 4.438 8.272 1.56 2.126 11.537 18.37 14.14 22.03 2.552 3.587-4.727 5.998-4.972 6.078 1.49.788 2.985.938 4.526.185 5.708-2.796 3.09-6.884-1.232-12.3-3.89-4.87-10.355-14.98-13.296-20.7zM325.584 255.684c-4.625-1.08-26.246-9.794-30.974-9.904-4.734-.098-18.53 6.038-18.53 6.038l-36.623-31.828 34.412 36.302s5.767-1.108 13.23-4.186c7.468-3.07 13.237-2.607 23.774.62 8.514 2.61 15.45 5.877 20.12 10.475 4.58 4.52 21.45 11.98 21.928 12.133-1.307-1.137-3.17-2.287-6.284-4.158-6.363-3.804-16.427-14.403-21.054-15.49z" opacity=".21" fill="#FFF"/>
    <path fill="#D3C5EF" d="M195.088 231.37l28.81 26.455 5.38-4.48 11.093-9.234 16.97-8.577-29.912-33.298"/>
    <path fill="#6B437A" d="M227.428 202.235L33.38 0H0v65.56l195.884 166.63"/>
  </g>
  <g>
    <path d="M365.793 291.29c-1.718-1.16-3.774-3.216-5.627-5.477-1.71-2.076-3.23-4.315-4.148-6.165-.963-1.956-1.727-3.13-3.087-4.306l-.01-.006c-1.3-1.14-3.165-2.29-6.285-4.157-6.357-3.81-16.424-14.407-21.05-15.495-4.63-1.077-26.252-9.8-30.975-9.906-4.737-.094-18.534 6.038-18.534 6.038l-35.973-31.264-2.945-4.984-25.177 19.31-.03.02-4.012 3.075 35.564 44.225s5.32 18.266 10.93 32.205c5.602 13.933 11.63 26.554 13.874 31.47 2.244 4.915 3.882 17.795 6.677 21.117 2.788 3.333 4.264 2.61 6.383 7.8 2.11 5.19 5.937 14.306 9.353 13.658 3.424-.65 6.123-1.53 4.267-6.572-1.865-5.04-3.02-11.24-6.136-14.233-3.017-2.896-5.683-17.7-5.823-18.53l-.01-.034s.926.304 2.275 1.362c.98.75 2.18 1.894 3.41 3.586.754 1.03 1.53 2.265 2.274 3.752 3.654 7.274 9.2 18.416 15.837 26.365 4.867 5.8 8.855 12.5 12.89 14.61l.01-.004c1.493.79 2.983.936 4.526.19 5.71-2.8 3.086-6.884-1.238-12.303-3.886-4.873-10.35-14.98-13.294-20.7-.33-.646-.615-1.232-.85-1.75-2.22-4.897-4.977-19.272-5.226-20.55-.013-.07-.013-.097-.013-.097l.016.022c.385.554 6.508 9.554 13.008 19.966 6.707 10.763 20.34 31.958 21.806 33.833 1.043 1.345 2.266 3.188 3.806 3.43 0 0 .008-.002.036-.002.324.053.663.035 1.024-.083l.017-.005c.294-.096.617-.276.946-.522 3.625-2.744 5.57-5.825 1.854-13.32-3.73-7.482-22.877-40.06-24.805-45.32-.723-1.99-1.044-3.373-1.163-4.31-.185-1.57.19-1.96.19-1.96s4.052-1.32 9.412 7.277c5.364 8.614 23.403 31.2 25.65 33.53 2.255 2.324 4.663 3.177 6.764 1.088.048-.053.1-.097.144-.158 1.937-2.222 1.542-8.056-7.184-20.133-5.42-7.5-24.32-32.038-27.195-38.868-1.047-2.496-2.088-5.72-3.06-9.04l-.002-.01c-1.68-5.786-2.327-8.71-3.11-11.887-1.24-5-1.974-14.362 3.145-14.383 5.12-.02 13.578 3.13 13.578 3.13s2.886 3.487 13.013 10.298c5.282 3.563 7.795 3.31 10.44 3.695 2.432.352 5.075-.956 5.985-1.93 1.07-1.14 1.297-2.386.7-3.652-.467-.974-1.414-1.968-2.845-2.934z" fill="#D3935F"/>
    <path d="M288.85 367.647c-3.018-2.896-5.68-17.702-5.827-18.532.07.7 1.26 12.06.48 16.52-.81 4.607-4.268 2.81-6.396 2.084s-6.326-19.413-6.326-19.413-14.76-41.19-18.35-51.228c-6.56-18.346-6.838-26.977-9.483-28.693-18.32-11.885-30.964-33.505-30.964-33.505l.742-.576-4.79 3.673 35.568 44.218s5.313 18.266 10.924 32.207c5.608 13.933 11.637 26.55 13.878 31.466 2.24 4.917 3.88 17.797 6.673 21.124 2.792 3.327 4.264 2.606 6.386 7.802 2.11 5.19 5.937 14.298 9.354 13.658 3.42-.652 6.12-1.53 4.267-6.573-1.86-5.038-3.023-11.24-6.134-14.233zM309.71 365.936s-.247 4.51-4.148 5.3c-3.902.788-5.262-.7-8.1-6.048-1.718-3.233-5.798-7.935-8.757-11.16.755 1.03 1.525 2.264 2.272 3.748 3.652 7.284 9.198 18.418 15.842 26.368 6.65 7.947 11.714 17.598 17.42 14.793 5.707-2.796 3.088-6.884-1.233-12.3-3.89-4.87-10.356-14.98-13.297-20.7z" opacity=".58" fill="#B7855F"/>
    <path d="M327.95 318.002c-1.05-2.495-2.092-5.717-3.06-9.04l-.004-.01s-.443 4.015 1.383 8.893c1.814 4.87 8.502 14.273 13.57 21.954 5.077 7.677 3.034 9.308 3.034 9.308s5.292.843 12.358 11.51c6.55 9.892 6.926 15.666 6.953 16.45.045-.025.092-.04.145-.067 1.932-2.21 1.537-8.047-7.188-20.124-5.42-7.5-24.318-32.042-27.193-38.874zM321.33 341.536c-.726-1.983-1.045-3.366-1.16-4.312 0 0-1.092 2.266-.003 6.496 1.08 4.232 5.066 10.172 8.506 15.382 3.445 5.2.08 6.507 2.76 8.472 2.68 1.964 8.96 12.26 13.633 20.235 4.676 7.98-2.81 12.978-2.81 12.978s.008-.003.035-.002c.104-.005.47-.037 1.025-.083l.016-.005c.302-.098.622-.27.952-.522 3.624-2.744 5.572-5.82 1.852-13.314-3.73-7.49-22.88-40.066-24.805-45.326zM309.71 365.936c-.333-.645-.62-1.227-.85-1.75-2.217-4.895-4.976-19.273-5.226-20.552.146 1.255 1.706 14.693 2.472 18.738.797 4.247 2.886 6.143 4.438 8.272 1.56 2.126 11.537 18.37 14.14 22.03 2.552 3.587-4.727 5.998-4.972 6.078 1.49.788 2.985.938 4.526.185 5.708-2.796 3.09-6.884-1.232-12.3-3.89-4.87-10.355-14.98-13.296-20.7zM325.584 255.684c-4.625-1.08-26.246-9.794-30.974-9.904-4.734-.098-18.53 6.038-18.53 6.038l-36.623-31.828 34.412 36.302s5.767-1.108 13.23-4.186c7.468-3.07 13.237-2.607 23.774.62 8.514 2.61 15.45 5.877 20.12 10.475 4.58 4.52 21.45 11.98 21.928 12.133-1.307-1.137-3.17-2.287-6.284-4.158-6.363-3.804-16.427-14.403-21.054-15.49z" opacity=".21" fill="#FFF"/>
    <path fill="#D3C5EF" d="M195.088 231.37l28.81 26.455 5.38-4.48 11.093-9.234 16.97-8.577-29.912-33.298"/>
    <path fill="#6B437A" d="M227.428 202.235L33.38 0H0v65.56l195.884 166.63"/>
    <path fill="#D3C5EF" d="M195.884 232.19l28.015 25.635 7.778-6.474-26.116-27.61"/>
  </g>
  <g>
    <path d="M365.793 291.29c-1.718-1.16-3.774-3.216-5.627-5.477-1.71-2.076-3.23-4.315-4.148-6.165-.963-1.956-1.727-3.13-3.087-4.306l-.01-.006c-1.3-1.14-3.165-2.29-6.285-4.157-6.357-3.81-16.424-14.407-21.05-15.495-4.63-1.077-26.252-9.8-30.975-9.906-4.737-.094-18.534 6.038-18.534 6.038l-35.973-31.264-2.945-4.984-25.177 19.31-.03.02-4.012 3.075 35.564 44.225s5.32 18.266 10.93 32.205c5.602 13.933 11.63 26.554 13.874 31.47 2.244 4.915 3.882 17.795 6.677 21.117 2.788 3.333 4.264 2.61 6.383 7.8 2.11 5.19 5.937 14.306 9.353 13.658 3.424-.65 6.123-1.53 4.267-6.572-1.865-5.04-3.02-11.24-6.136-14.233-3.017-2.896-5.683-17.7-5.823-18.53l-.01-.034s.926.304 2.275 1.362c.98.75 2.18 1.894 3.41 3.586.754 1.03 1.53 2.265 2.274 3.752 3.654 7.274 9.2 18.416 15.837 26.365 4.867 5.8 8.855 12.5 12.89 14.61l.01-.004c1.493.79 2.983.936 4.526.19 5.71-2.8 3.086-6.884-1.238-12.303-3.886-4.873-10.35-14.98-13.294-20.7-.33-.646-.615-1.232-.85-1.75-2.22-4.897-4.977-19.272-5.226-20.55-.013-.07-.013-.097-.013-.097l.016.022c.385.554 6.508 9.554 13.008 19.966 6.707 10.763 20.34 31.958 21.806 33.833 1.043 1.345 2.266 3.188 3.806 3.43 0 0 .008-.002.036-.002.324.053.663.035 1.024-.083l.017-.005c.294-.096.617-.276.946-.522 3.625-2.744 5.57-5.825 1.854-13.32-3.73-7.482-22.877-40.06-24.805-45.32-.723-1.99-1.044-3.373-1.163-4.31-.185-1.57.19-1.96.19-1.96s4.052-1.32 9.412 7.277c5.364 8.614 23.403 31.2 25.65 33.53 2.255 2.324 4.663 3.177 6.764 1.088.048-.053.1-.097.144-.158 1.937-2.222 1.542-8.056-7.184-20.133-5.42-7.5-24.32-32.038-27.195-38.868-1.047-2.496-2.088-5.72-3.06-9.04l-.002-.01c-1.68-5.786-2.327-8.71-3.11-11.887-1.24-5-1.974-14.362 3.145-14.383 5.12-.02 13.578 3.13 13.578 3.13s2.886 3.487 13.013 10.298c5.282 3.563 7.795 3.31 10.44 3.695 2.432.352 5.075-.956 5.985-1.93 1.07-1.14 1.297-2.386.7-3.652-.467-.974-1.414-1.968-2.845-2.934z" fill="#D3935F"/>
    <path d="M288.85 367.647c-3.018-2.896-5.68-17.702-5.827-18.532.07.7 1.26 12.06.48 16.52-.81 4.607-4.268 2.81-6.396 2.084s-6.326-19.413-6.326-19.413-14.76-41.19-18.35-51.228c-6.56-18.346-6.838-26.977-9.483-28.693-18.32-11.885-30.964-33.505-30.964-33.505l.742-.576-4.79 3.673 35.568 44.218s5.313 18.266 10.924 32.207c5.608 13.933 11.637 26.55 13.878 31.466 2.24 4.917 3.88 17.797 6.673 21.124 2.792 3.327 4.264 2.606 6.386 7.802 2.11 5.19 5.937 14.298 9.354 13.658 3.42-.652 6.12-1.53 4.267-6.573-1.86-5.038-3.023-11.24-6.134-14.233zM309.71 365.936s-.247 4.51-4.148 5.3c-3.902.788-5.262-.7-8.1-6.048-1.718-3.233-5.798-7.935-8.757-11.16.755 1.03 1.525 2.264 2.272 3.748 3.652 7.284 9.198 18.418 15.842 26.368 6.65 7.947 11.714 17.598 17.42 14.793 5.707-2.796 3.088-6.884-1.233-12.3-3.89-4.87-10.356-14.98-13.297-20.7z" opacity=".58" fill="#B7855F"/>
    <path d="M327.95 318.002c-1.05-2.495-2.092-5.717-3.06-9.04l-.004-.01s-.443 4.015 1.383 8.893c1.814 4.87 8.502 14.273 13.57 21.954 5.077 7.677 3.034 9.308 3.034 9.308s5.292.843 12.358 11.51c6.55 9.892 6.926 15.666 6.953 16.45.045-.025.092-.04.145-.067 1.932-2.21 1.537-8.047-7.188-20.124-5.42-7.5-24.318-32.042-27.193-38.874zM321.33 341.536c-.726-1.983-1.045-3.366-1.16-4.312 0 0-1.092 2.266-.003 6.496 1.08 4.232 5.066 10.172 8.506 15.382 3.445 5.2.08 6.507 2.76 8.472 2.68 1.964 8.96 12.26 13.633 20.235 4.676 7.98-2.81 12.978-2.81 12.978s.008-.003.035-.002c.104-.005.47-.037 1.025-.083l.016-.005c.302-.098.622-.27.952-.522 3.624-2.744 5.572-5.82 1.852-13.314-3.73-7.49-22.88-40.066-24.805-45.326zM309.71 365.936c-.333-.645-.62-1.227-.85-1.75-2.217-4.895-4.976-19.273-5.226-20.552.146 1.255 1.706 14.693 2.472 18.738.797 4.247 2.886 6.143 4.438 8.272 1.56 2.126 11.537 18.37 14.14 22.03 2.552 3.587-4.727 5.998-4.972 6.078 1.49.788 2.985.938 4.526.185 5.708-2.796 3.09-6.884-1.232-12.3-3.89-4.87-10.355-14.98-13.296-20.7zM325.584 255.684c-4.625-1.08-26.246-9.794-30.974-9.904-4.734-.098-18.53 6.038-18.53 6.038l-36.623-31.828 34.412 36.302s5.767-1.108 13.23-4.186c7.468-3.07 13.237-2.607 23.774.62 8.514 2.61 15.45 5.877 20.12 10.475 4.58 4.52 21.45 11.98 21.928 12.133-1.307-1.137-3.17-2.287-6.284-4.158-6.363-3.804-16.427-14.403-21.054-15.49z" opacity=".21" fill="#FFF"/>
    <path fill="#D3C5EF" d="M195.088 231.37l28.81 26.455 5.38-4.48 11.093-9.234 16.97-8.577-29.912-33.298"/>
    <path fill="#6B437A" d="M227.428 202.235L33.38 0H0v65.56l195.884 166.63"/>
    <path fill="#D3C5EF" d="M195.884 232.19l28.015 25.635 7.778-6.474-26.116-27.61"/>
    <path fill="#4F3E59" d="M200.236 228.39L0 38.253V65.56l195.884 166.63"/>
  </g>
  <g>
    <path d="M365.793 291.29c-1.718-1.16-3.774-3.216-5.627-5.477-1.71-2.076-3.23-4.315-4.148-6.165-.963-1.956-1.727-3.13-3.087-4.306l-.01-.006c-1.3-1.14-3.165-2.29-6.285-4.157-6.357-3.81-16.424-14.407-21.05-15.495-4.63-1.077-26.252-9.8-30.975-9.906-4.737-.094-18.534 6.038-18.534 6.038l-35.973-31.264-2.945-4.984-25.177 19.31-.03.02-4.012 3.075 35.564 44.225s5.32 18.266 10.93 32.205c5.602 13.933 11.63 26.554 13.874 31.47 2.244 4.915 3.882 17.795 6.677 21.117 2.788 3.333 4.264 2.61 6.383 7.8 2.11 5.19 5.937 14.306 9.353 13.658 3.424-.65 6.123-1.53 4.267-6.572-1.865-5.04-3.02-11.24-6.136-14.233-3.017-2.896-5.683-17.7-5.823-18.53l-.01-.034s.926.304 2.275 1.362c.98.75 2.18 1.894 3.41 3.586.754 1.03 1.53 2.265 2.274 3.752 3.654 7.274 9.2 18.416 15.837 26.365 4.867 5.8 8.855 12.5 12.89 14.61l.01-.004c1.493.79 2.983.936 4.526.19 5.71-2.8 3.086-6.884-1.238-12.303-3.886-4.873-10.35-14.98-13.294-20.7-.33-.646-.615-1.232-.85-1.75-2.22-4.897-4.977-19.272-5.226-20.55-.013-.07-.013-.097-.013-.097l.016.022c.385.554 6.508 9.554 13.008 19.966 6.707 10.763 20.34 31.958 21.806 33.833 1.043 1.345 2.266 3.188 3.806 3.43 0 0 .008-.002.036-.002.324.053.663.035 1.024-.083l.017-.005c.294-.096.617-.276.946-.522 3.625-2.744 5.57-5.825 1.854-13.32-3.73-7.482-22.877-40.06-24.805-45.32-.723-1.99-1.044-3.373-1.163-4.31-.185-1.57.19-1.96.19-1.96s4.052-1.32 9.412 7.277c5.364 8.614 23.403 31.2 25.65 33.53 2.255 2.324 4.663 3.177 6.764 1.088.048-.053.1-.097.144-.158 1.937-2.222 1.542-8.056-7.184-20.133-5.42-7.5-24.32-32.038-27.195-38.868-1.047-2.496-2.088-5.72-3.06-9.04l-.002-.01c-1.68-5.786-2.327-8.71-3.11-11.887-1.24-5-1.974-14.362 3.145-14.383 5.12-.02 13.578 3.13 13.578 3.13s2.886 3.487 13.013 10.298c5.282 3.563 7.795 3.31 10.44 3.695 2.432.352 5.075-.956 5.985-1.93 1.07-1.14 1.297-2.386.7-3.652-.467-.974-1.414-1.968-2.845-2.934z" fill="#D3935F"/>
    <path d="M288.85 367.647c-3.018-2.896-5.68-17.702-5.827-18.532.07.7 1.26 12.06.48 16.52-.81 4.607-4.268 2.81-6.396 2.084s-6.326-19.413-6.326-19.413-14.76-41.19-18.35-51.228c-6.56-18.346-6.838-26.977-9.483-28.693-18.32-11.885-30.964-33.505-30.964-33.505l.742-.576-4.79 3.673 35.568 44.218s5.313 18.266 10.924 32.207c5.608 13.933 11.637 26.55 13.878 31.466 2.24 4.917 3.88 17.797 6.673 21.124 2.792 3.327 4.264 2.606 6.386 7.802 2.11 5.19 5.937 14.298 9.354 13.658 3.42-.652 6.12-1.53 4.267-6.573-1.86-5.038-3.023-11.24-6.134-14.233zM309.71 365.936s-.247 4.51-4.148 5.3c-3.902.788-5.262-.7-8.1-6.048-1.718-3.233-5.798-7.935-8.757-11.16.755 1.03 1.525 2.264 2.272 3.748 3.652 7.284 9.198 18.418 15.842 26.368 6.65 7.947 11.714 17.598 17.42 14.793 5.707-2.796 3.088-6.884-1.233-12.3-3.89-4.87-10.356-14.98-13.297-20.7z" opacity=".58" fill="#B7855F"/>
    <path d="M327.95 318.002c-1.05-2.495-2.092-5.717-3.06-9.04l-.004-.01s-.443 4.015 1.383 8.893c1.814 4.87 8.502 14.273 13.57 21.954 5.077 7.677 3.034 9.308 3.034 9.308s5.292.843 12.358 11.51c6.55 9.892 6.926 15.666 6.953 16.45.045-.025.092-.04.145-.067 1.932-2.21 1.537-8.047-7.188-20.124-5.42-7.5-24.318-32.042-27.193-38.874zM321.33 341.536c-.726-1.983-1.045-3.366-1.16-4.312 0 0-1.092 2.266-.003 6.496 1.08 4.232 5.066 10.172 8.506 15.382 3.445 5.2.08 6.507 2.76 8.472 2.68 1.964 8.96 12.26 13.633 20.235 4.676 7.98-2.81 12.978-2.81 12.978s.008-.003.035-.002c.104-.005.47-.037 1.025-.083l.016-.005c.302-.098.622-.27.952-.522 3.624-2.744 5.572-5.82 1.852-13.314-3.73-7.49-22.88-40.066-24.805-45.326zM309.71 365.936c-.333-.645-.62-1.227-.85-1.75-2.217-4.895-4.976-19.273-5.226-20.552.146 1.255 1.706 14.693 2.472 18.738.797 4.247 2.886 6.143 4.438 8.272 1.56 2.126 11.537 18.37 14.14 22.03 2.552 3.587-4.727 5.998-4.972 6.078 1.49.788 2.985.938 4.526.185 5.708-2.796 3.09-6.884-1.232-12.3-3.89-4.87-10.355-14.98-13.296-20.7zM325.584 255.684c-4.625-1.08-26.246-9.794-30.974-9.904-4.734-.098-18.53 6.038-18.53 6.038l-36.623-31.828 34.412 36.302s5.767-1.108 13.23-4.186c7.468-3.07 13.237-2.607 23.774.62 8.514 2.61 15.45 5.877 20.12 10.475 4.58 4.52 21.45 11.98 21.928 12.133-1.307-1.137-3.17-2.287-6.284-4.158-6.363-3.804-16.427-14.403-21.054-15.49z" opacity=".21" fill="#FFF"/>
    <path fill="#D3C5EF" d="M195.088 231.37l28.81 26.455 5.38-4.48 11.093-9.234 16.97-8.577-29.912-33.298"/>
    <path fill="#6B437A" d="M227.428 202.235L33.38 0H0v65.56l195.884 166.63"/>
    <path fill="#D3C5EF" d="M195.884 232.19l28.015 25.635 7.778-6.474-26.116-27.61"/>
    <path fill="#4F3E59" d="M200.236 228.39L0 38.253V65.56l195.884 166.63"/>
    <path d="M365.793 291.29c-1.718-1.16-3.832-3.29-5.685-5.55-1.75 1.51-2.514 4.047-1.727 6.46 1.034 3.17 4.353 4.935 7.414 3.938 1.152-.375 2.102-1.085 2.785-1.987-.467-.972-1.356-1.893-2.787-2.86z" fill="#C00094"/>
  </g>
  <g>
    <path d="M365.793 291.29c-1.718-1.16-3.774-3.216-5.627-5.477-1.71-2.076-3.23-4.315-4.148-6.165-.963-1.956-1.727-3.13-3.087-4.306l-.01-.006c-1.3-1.14-3.165-2.29-6.285-4.157-6.357-3.81-16.424-14.407-21.05-15.495-4.63-1.077-26.252-9.8-30.975-9.906-4.737-.094-18.534 6.038-18.534 6.038l-35.973-31.264-2.945-4.984-25.177 19.31-.03.02-4.012 3.075 35.564 44.225s5.32 18.266 10.93 32.205c5.602 13.933 11.63 26.554 13.874 31.47 2.244 4.915 3.882 17.795 6.677 21.117 2.788 3.333 4.264 2.61 6.383 7.8 2.11 5.19 5.937 14.306 9.353 13.658 3.424-.65 6.123-1.53 4.267-6.572-1.865-5.04-3.02-11.24-6.136-14.233-3.017-2.896-5.683-17.7-5.823-18.53l-.01-.034s.926.304 2.275 1.362c.98.75 2.18 1.894 3.41 3.586.754 1.03 1.53 2.265 2.274 3.752 3.654 7.274 9.2 18.416 15.837 26.365 4.867 5.8 8.855 12.5 12.89 14.61l.01-.004c1.493.79 2.983.936 4.526.19 5.71-2.8 3.086-6.884-1.238-12.303-3.886-4.873-10.35-14.98-13.294-20.7-.33-.646-.615-1.232-.85-1.75-2.22-4.897-4.977-19.272-5.226-20.55-.013-.07-.013-.097-.013-.097l.016.022c.385.554 6.508 9.554 13.008 19.966 6.707 10.763 20.34 31.958 21.806 33.833 1.043 1.345 2.266 3.188 3.806 3.43 0 0 .008-.002.036-.002.324.053.663.035 1.024-.083l.017-.005c.294-.096.617-.276.946-.522 3.625-2.744 5.57-5.825 1.854-13.32-3.73-7.482-22.877-40.06-24.805-45.32-.723-1.99-1.044-3.373-1.163-4.31-.185-1.57.19-1.96.19-1.96s4.052-1.32 9.412 7.277c5.364 8.614 23.403 31.2 25.65 33.53 2.255 2.324 4.663 3.177 6.764 1.088.048-.053.1-.097.144-.158 1.937-2.222 1.542-8.056-7.184-20.133-5.42-7.5-24.32-32.038-27.195-38.868-1.047-2.496-2.088-5.72-3.06-9.04l-.002-.01c-1.68-5.786-2.327-8.71-3.11-11.887-1.24-5-1.974-14.362 3.145-14.383 5.12-.02 13.578 3.13 13.578 3.13s2.886 3.487 13.013 10.298c5.282 3.563 7.795 3.31 10.44 3.695 2.432.352 5.075-.956 5.985-1.93 1.07-1.14 1.297-2.386.7-3.652-.467-.974-1.414-1.968-2.845-2.934z" fill="#D3935F"/>
    <path d="M288.85 367.647c-3.018-2.896-5.68-17.702-5.827-18.532.07.7 1.26 12.06.48 16.52-.81 4.607-4.268 2.81-6.396 2.084s-6.326-19.413-6.326-19.413-14.76-41.19-18.35-51.228c-6.56-18.346-6.838-26.977-9.483-28.693-18.32-11.885-30.964-33.505-30.964-33.505l.742-.576-4.79 3.673 35.568 44.218s5.313 18.266 10.924 32.207c5.608 13.933 11.637 26.55 13.878 31.466 2.24 4.917 3.88 17.797 6.673 21.124 2.792 3.327 4.264 2.606 6.386 7.802 2.11 5.19 5.937 14.298 9.354 13.658 3.42-.652 6.12-1.53 4.267-6.573-1.86-5.038-3.023-11.24-6.134-14.233zM309.71 365.936s-.247 4.51-4.148 5.3c-3.902.788-5.262-.7-8.1-6.048-1.718-3.233-5.798-7.935-8.757-11.16.755 1.03 1.525 2.264 2.272 3.748 3.652 7.284 9.198 18.418 15.842 26.368 6.65 7.947 11.714 17.598 17.42 14.793 5.707-2.796 3.088-6.884-1.233-12.3-3.89-4.87-10.356-14.98-13.297-20.7z" opacity=".58" fill="#B7855F"/>
    <path d="M327.95 318.002c-1.05-2.495-2.092-5.717-3.06-9.04l-.004-.01s-.443 4.015 1.383 8.893c1.814 4.87 8.502 14.273 13.57 21.954 5.077 7.677 3.034 9.308 3.034 9.308s5.292.843 12.358 11.51c6.55 9.892 6.926 15.666 6.953 16.45.045-.025.092-.04.145-.067 1.932-2.21 1.537-8.047-7.188-20.124-5.42-7.5-24.318-32.042-27.193-38.874zM321.33 341.536c-.726-1.983-1.045-3.366-1.16-4.312 0 0-1.092 2.266-.003 6.496 1.08 4.232 5.066 10.172 8.506 15.382 3.445 5.2.08 6.507 2.76 8.472 2.68 1.964 8.96 12.26 13.633 20.235 4.676 7.98-2.81 12.978-2.81 12.978s.008-.003.035-.002c.104-.005.47-.037 1.025-.083l.016-.005c.302-.098.622-.27.952-.522 3.624-2.744 5.572-5.82 1.852-13.314-3.73-7.49-22.88-40.066-24.805-45.326zM309.71 365.936c-.333-.645-.62-1.227-.85-1.75-2.217-4.895-4.976-19.273-5.226-20.552.146 1.255 1.706 14.693 2.472 18.738.797 4.247 2.886 6.143 4.438 8.272 1.56 2.126 11.537 18.37 14.14 22.03 2.552 3.587-4.727 5.998-4.972 6.078 1.49.788 2.985.938 4.526.185 5.708-2.796 3.09-6.884-1.232-12.3-3.89-4.87-10.355-14.98-13.296-20.7zM325.584 255.684c-4.625-1.08-26.246-9.794-30.974-9.904-4.734-.098-18.53 6.038-18.53 6.038l-36.623-31.828 34.412 36.302s5.767-1.108 13.23-4.186c7.468-3.07 13.237-2.607 23.774.62 8.514 2.61 15.45 5.877 20.12 10.475 4.58 4.52 21.45 11.98 21.928 12.133-1.307-1.137-3.17-2.287-6.284-4.158-6.363-3.804-16.427-14.403-21.054-15.49z" opacity=".21" fill="#FFF"/>
    <path fill="#D3C5EF" d="M195.088 231.37l28.81 26.455 5.38-4.48 11.093-9.234 16.97-8.577-29.912-33.298"/>
    <path fill="#6B437A" d="M227.428 202.235L33.38 0H0v65.56l195.884 166.63"/>
    <path fill="#D3C5EF" d="M195.884 232.19l28.015 25.635 7.778-6.474-26.116-27.61"/>
    <path fill="#4F3E59" d="M200.236 228.39L0 38.253V65.56l195.884 166.63"/>
    <path d="M365.793 291.29c-1.718-1.16-3.832-3.29-5.685-5.55-1.75 1.51-2.514 4.047-1.727 6.46 1.034 3.17 4.353 4.935 7.414 3.938 1.152-.375 2.102-1.085 2.785-1.987-.467-.972-1.356-1.893-2.787-2.86zM357.812 372.51c-1.397.914-2.01 2.448-1.097 3.845.914 1.397 2.786 1.788 4.183.875 1.397-.913 1.788-2.786.875-4.183-.913-1.397-2.564-1.45-3.96-.536z" fill="#C00094"/>
  </g>
  <g>
    <path d="M365.793 291.29c-1.718-1.16-3.774-3.216-5.627-5.477-1.71-2.076-3.23-4.315-4.148-6.165-.963-1.956-1.727-3.13-3.087-4.306l-.01-.006c-1.3-1.14-3.165-2.29-6.285-4.157-6.357-3.81-16.424-14.407-21.05-15.495-4.63-1.077-26.252-9.8-30.975-9.906-4.737-.094-18.534 6.038-18.534 6.038l-35.973-31.264-2.945-4.984-25.177 19.31-.03.02-4.012 3.075 35.564 44.225s5.32 18.266 10.93 32.205c5.602 13.933 11.63 26.554 13.874 31.47 2.244 4.915 3.882 17.795 6.677 21.117 2.788 3.333 4.264 2.61 6.383 7.8 2.11 5.19 5.937 14.306 9.353 13.658 3.424-.65 6.123-1.53 4.267-6.572-1.865-5.04-3.02-11.24-6.136-14.233-3.017-2.896-5.683-17.7-5.823-18.53l-.01-.034s.926.304 2.275 1.362c.98.75 2.18 1.894 3.41 3.586.754 1.03 1.53 2.265 2.274 3.752 3.654 7.274 9.2 18.416 15.837 26.365 4.867 5.8 8.855 12.5 12.89 14.61l.01-.004c1.493.79 2.983.936 4.526.19 5.71-2.8 3.086-6.884-1.238-12.303-3.886-4.873-10.35-14.98-13.294-20.7-.33-.646-.615-1.232-.85-1.75-2.22-4.897-4.977-19.272-5.226-20.55-.013-.07-.013-.097-.013-.097l.016.022c.385.554 6.508 9.554 13.008 19.966 6.707 10.763 20.34 31.958 21.806 33.833 1.043 1.345 2.266 3.188 3.806 3.43 0 0 .008-.002.036-.002.324.053.663.035 1.024-.083l.017-.005c.294-.096.617-.276.946-.522 3.625-2.744 5.57-5.825 1.854-13.32-3.73-7.482-22.877-40.06-24.805-45.32-.723-1.99-1.044-3.373-1.163-4.31-.185-1.57.19-1.96.19-1.96s4.052-1.32 9.412 7.277c5.364 8.614 23.403 31.2 25.65 33.53 2.255 2.324 4.663 3.177 6.764 1.088.048-.053.1-.097.144-.158 1.937-2.222 1.542-8.056-7.184-20.133-5.42-7.5-24.32-32.038-27.195-38.868-1.047-2.496-2.088-5.72-3.06-9.04l-.002-.01c-1.68-5.786-2.327-8.71-3.11-11.887-1.24-5-1.974-14.362 3.145-14.383 5.12-.02 13.578 3.13 13.578 3.13s2.886 3.487 13.013 10.298c5.282 3.563 7.795 3.31 10.44 3.695 2.432.352 5.075-.956 5.985-1.93 1.07-1.14 1.297-2.386.7-3.652-.467-.974-1.414-1.968-2.845-2.934z" fill="#D3935F"/>
    <path d="M288.85 367.647c-3.018-2.896-5.68-17.702-5.827-18.532.07.7 1.26 12.06.48 16.52-.81 4.607-4.268 2.81-6.396 2.084s-6.326-19.413-6.326-19.413-14.76-41.19-18.35-51.228c-6.56-18.346-6.838-26.977-9.483-28.693-18.32-11.885-30.964-33.505-30.964-33.505l.742-.576-4.79 3.673 35.568 44.218s5.313 18.266 10.924 32.207c5.608 13.933 11.637 26.55 13.878 31.466 2.24 4.917 3.88 17.797 6.673 21.124 2.792 3.327 4.264 2.606 6.386 7.802 2.11 5.19 5.937 14.298 9.354 13.658 3.42-.652 6.12-1.53 4.267-6.573-1.86-5.038-3.023-11.24-6.134-14.233zM309.71 365.936s-.247 4.51-4.148 5.3c-3.902.788-5.262-.7-8.1-6.048-1.718-3.233-5.798-7.935-8.757-11.16.755 1.03 1.525 2.264 2.272 3.748 3.652 7.284 9.198 18.418 15.842 26.368 6.65 7.947 11.714 17.598 17.42 14.793 5.707-2.796 3.088-6.884-1.233-12.3-3.89-4.87-10.356-14.98-13.297-20.7z" opacity=".58" fill="#B7855F"/>
    <path d="M327.95 318.002c-1.05-2.495-2.092-5.717-3.06-9.04l-.004-.01s-.443 4.015 1.383 8.893c1.814 4.87 8.502 14.273 13.57 21.954 5.077 7.677 3.034 9.308 3.034 9.308s5.292.843 12.358 11.51c6.55 9.892 6.926 15.666 6.953 16.45.045-.025.092-.04.145-.067 1.932-2.21 1.537-8.047-7.188-20.124-5.42-7.5-24.318-32.042-27.193-38.874zM321.33 341.536c-.726-1.983-1.045-3.366-1.16-4.312 0 0-1.092 2.266-.003 6.496 1.08 4.232 5.066 10.172 8.506 15.382 3.445 5.2.08 6.507 2.76 8.472 2.68 1.964 8.96 12.26 13.633 20.235 4.676 7.98-2.81 12.978-2.81 12.978s.008-.003.035-.002c.104-.005.47-.037 1.025-.083l.016-.005c.302-.098.622-.27.952-.522 3.624-2.744 5.572-5.82 1.852-13.314-3.73-7.49-22.88-40.066-24.805-45.326zM309.71 365.936c-.333-.645-.62-1.227-.85-1.75-2.217-4.895-4.976-19.273-5.226-20.552.146 1.255 1.706 14.693 2.472 18.738.797 4.247 2.886 6.143 4.438 8.272 1.56 2.126 11.537 18.37 14.14 22.03 2.552 3.587-4.727 5.998-4.972 6.078 1.49.788 2.985.938 4.526.185 5.708-2.796 3.09-6.884-1.232-12.3-3.89-4.87-10.355-14.98-13.296-20.7zM325.584 255.684c-4.625-1.08-26.246-9.794-30.974-9.904-4.734-.098-18.53 6.038-18.53 6.038l-36.623-31.828 34.412 36.302s5.767-1.108 13.23-4.186c7.468-3.07 13.237-2.607 23.774.62 8.514 2.61 15.45 5.877 20.12 10.475 4.58 4.52 21.45 11.98 21.928 12.133-1.307-1.137-3.17-2.287-6.284-4.158-6.363-3.804-16.427-14.403-21.054-15.49z" opacity=".21" fill="#FFF"/>
    <path fill="#D3C5EF" d="M195.088 231.37l28.81 26.455 5.38-4.48 11.093-9.234 16.97-8.577-29.912-33.298"/>
    <path fill="#6B437A" d="M227.428 202.235L33.38 0H0v65.56l195.884 166.63"/>
    <path fill="#D3C5EF" d="M195.884 232.19l28.015 25.635 7.778-6.474-26.116-27.61"/>
    <path fill="#4F3E59" d="M200.236 228.39L0 38.253V65.56l195.884 166.63"/>
    <path d="M365.793 291.29c-1.718-1.16-3.832-3.29-5.685-5.55-1.75 1.51-2.514 4.047-1.727 6.46 1.034 3.17 4.353 4.935 7.414 3.938 1.152-.375 2.102-1.085 2.785-1.987-.467-.972-1.356-1.893-2.787-2.86zM357.812 372.51c-1.397.914-2.01 2.448-1.097 3.845.914 1.397 2.786 1.788 4.183.875 1.397-.913 1.788-2.786.875-4.183-.913-1.397-2.564-1.45-3.96-.536zM339.914 390.972c-1.91 1.25-2.75 3.347-1.5 5.258 1.25 1.91 3.81 2.446 5.722 1.197 1.91-1.25 2.446-3.81 1.197-5.722-1.25-1.91-3.51-1.982-5.42-.733z" fill="#C00094"/>
  </g>
  <g>
    <path d="M365.793 291.29c-1.718-1.16-3.774-3.216-5.627-5.477-1.71-2.076-3.23-4.315-4.148-6.165-.963-1.956-1.727-3.13-3.087-4.306l-.01-.006c-1.3-1.14-3.165-2.29-6.285-4.157-6.357-3.81-16.424-14.407-21.05-15.495-4.63-1.077-26.252-9.8-30.975-9.906-4.737-.094-18.534 6.038-18.534 6.038l-35.973-31.264-2.945-4.984-25.177 19.31-.03.02-4.012 3.075 35.564 44.225s5.32 18.266 10.93 32.205c5.602 13.933 11.63 26.554 13.874 31.47 2.244 4.915 3.882 17.795 6.677 21.117 2.788 3.333 4.264 2.61 6.383 7.8 2.11 5.19 5.937 14.306 9.353 13.658 3.424-.65 6.123-1.53 4.267-6.572-1.865-5.04-3.02-11.24-6.136-14.233-3.017-2.896-5.683-17.7-5.823-18.53l-.01-.034s.926.304 2.275 1.362c.98.75 2.18 1.894 3.41 3.586.754 1.03 1.53 2.265 2.274 3.752 3.654 7.274 9.2 18.416 15.837 26.365 4.867 5.8 8.855 12.5 12.89 14.61l.01-.004c1.493.79 2.983.936 4.526.19 5.71-2.8 3.086-6.884-1.238-12.303-3.886-4.873-10.35-14.98-13.294-20.7-.33-.646-.615-1.232-.85-1.75-2.22-4.897-4.977-19.272-5.226-20.55-.013-.07-.013-.097-.013-.097l.016.022c.385.554 6.508 9.554 13.008 19.966 6.707 10.763 20.34 31.958 21.806 33.833 1.043 1.345 2.266 3.188 3.806 3.43 0 0 .008-.002.036-.002.324.053.663.035 1.024-.083l.017-.005c.294-.096.617-.276.946-.522 3.625-2.744 5.57-5.825 1.854-13.32-3.73-7.482-22.877-40.06-24.805-45.32-.723-1.99-1.044-3.373-1.163-4.31-.185-1.57.19-1.96.19-1.96s4.052-1.32 9.412 7.277c5.364 8.614 23.403 31.2 25.65 33.53 2.255 2.324 4.663 3.177 6.764 1.088.048-.053.1-.097.144-.158 1.937-2.222 1.542-8.056-7.184-20.133-5.42-7.5-24.32-32.038-27.195-38.868-1.047-2.496-2.088-5.72-3.06-9.04l-.002-.01c-1.68-5.786-2.327-8.71-3.11-11.887-1.24-5-1.974-14.362 3.145-14.383 5.12-.02 13.578 3.13 13.578 3.13s2.886 3.487 13.013 10.298c5.282 3.563 7.795 3.31 10.44 3.695 2.432.352 5.075-.956 5.985-1.93 1.07-1.14 1.297-2.386.7-3.652-.467-.974-1.414-1.968-2.845-2.934z" fill="#D3935F"/>
    <path d="M288.85 367.647c-3.018-2.896-5.68-17.702-5.827-18.532.07.7 1.26 12.06.48 16.52-.81 4.607-4.268 2.81-6.396 2.084s-6.326-19.413-6.326-19.413-14.76-41.19-18.35-51.228c-6.56-18.346-6.838-26.977-9.483-28.693-18.32-11.885-30.964-33.505-30.964-33.505l.742-.576-4.79 3.673 35.568 44.218s5.313 18.266 10.924 32.207c5.608 13.933 11.637 26.55 13.878 31.466 2.24 4.917 3.88 17.797 6.673 21.124 2.792 3.327 4.264 2.606 6.386 7.802 2.11 5.19 5.937 14.298 9.354 13.658 3.42-.652 6.12-1.53 4.267-6.573-1.86-5.038-3.023-11.24-6.134-14.233zM309.71 365.936s-.247 4.51-4.148 5.3c-3.902.788-5.262-.7-8.1-6.048-1.718-3.233-5.798-7.935-8.757-11.16.755 1.03 1.525 2.264 2.272 3.748 3.652 7.284 9.198 18.418 15.842 26.368 6.65 7.947 11.714 17.598 17.42 14.793 5.707-2.796 3.088-6.884-1.233-12.3-3.89-4.87-10.356-14.98-13.297-20.7z" opacity=".58" fill="#B7855F"/>
    <path d="M327.95 318.002c-1.05-2.495-2.092-5.717-3.06-9.04l-.004-.01s-.443 4.015 1.383 8.893c1.814 4.87 8.502 14.273 13.57 21.954 5.077 7.677 3.034 9.308 3.034 9.308s5.292.843 12.358 11.51c6.55 9.892 6.926 15.666 6.953 16.45.045-.025.092-.04.145-.067 1.932-2.21 1.537-8.047-7.188-20.124-5.42-7.5-24.318-32.042-27.193-38.874zM321.33 341.536c-.726-1.983-1.045-3.366-1.16-4.312 0 0-1.092 2.266-.003 6.496 1.08 4.232 5.066 10.172 8.506 15.382 3.445 5.2.08 6.507 2.76 8.472 2.68 1.964 8.96 12.26 13.633 20.235 4.676 7.98-2.81 12.978-2.81 12.978s.008-.003.035-.002c.104-.005.47-.037 1.025-.083l.016-.005c.302-.098.622-.27.952-.522 3.624-2.744 5.572-5.82 1.852-13.314-3.73-7.49-22.88-40.066-24.805-45.326zM309.71 365.936c-.333-.645-.62-1.227-.85-1.75-2.217-4.895-4.976-19.273-5.226-20.552.146 1.255 1.706 14.693 2.472 18.738.797 4.247 2.886 6.143 4.438 8.272 1.56 2.126 11.537 18.37 14.14 22.03 2.552 3.587-4.727 5.998-4.972 6.078 1.49.788 2.985.938 4.526.185 5.708-2.796 3.09-6.884-1.232-12.3-3.89-4.87-10.355-14.98-13.296-20.7zM325.584 255.684c-4.625-1.08-26.246-9.794-30.974-9.904-4.734-.098-18.53 6.038-18.53 6.038l-36.623-31.828 34.412 36.302s5.767-1.108 13.23-4.186c7.468-3.07 13.237-2.607 23.774.62 8.514 2.61 15.45 5.877 20.12 10.475 4.58 4.52 21.45 11.98 21.928 12.133-1.307-1.137-3.17-2.287-6.284-4.158-6.363-3.804-16.427-14.403-21.054-15.49z" opacity=".21" fill="#FFF"/>
    <path fill="#D3C5EF" d="M195.088 231.37l28.81 26.455 5.38-4.48 11.093-9.234 16.97-8.577-29.912-33.298"/>
    <path fill="#6B437A" d="M227.428 202.235L33.38 0H0v65.56l195.884 166.63"/>
    <path fill="#D3C5EF" d="M195.884 232.19l28.015 25.635 7.778-6.474-26.116-27.61"/>
    <path fill="#4F3E59" d="M200.236 228.39L0 38.253V65.56l195.884 166.63"/>
    <path d="M365.793 291.29c-1.718-1.16-3.832-3.29-5.685-5.55-1.75 1.51-2.514 4.047-1.727 6.46 1.034 3.17 4.353 4.935 7.414 3.938 1.152-.375 2.102-1.085 2.785-1.987-.467-.972-1.356-1.893-2.787-2.86zM357.812 372.51c-1.397.914-2.01 2.448-1.097 3.845.914 1.397 2.786 1.788 4.183.875 1.397-.913 1.788-2.786.875-4.183-.913-1.397-2.564-1.45-3.96-.536zM339.914 390.972c-1.91 1.25-2.75 3.347-1.5 5.258 1.25 1.91 3.81 2.446 5.722 1.197 1.91-1.25 2.446-3.81 1.197-5.722-1.25-1.91-3.51-1.982-5.42-.733zM318.602 390.875c-1.688 1.104-2.43 2.957-1.325 4.645 1.104 1.688 3.367 2.16 5.055 1.057 1.688-1.104 2.16-3.367 1.057-5.055-1.105-1.688-3.1-1.75-4.788-.647z" fill="#C00094"/>
  </g>
  <g>
    <path d="M365.793 291.29c-1.718-1.16-3.774-3.216-5.627-5.477-1.71-2.076-3.23-4.315-4.148-6.165-.963-1.956-1.727-3.13-3.087-4.306l-.01-.006c-1.3-1.14-3.165-2.29-6.285-4.157-6.357-3.81-16.424-14.407-21.05-15.495-4.63-1.077-26.252-9.8-30.975-9.906-4.737-.094-18.534 6.038-18.534 6.038l-35.973-31.264-2.945-4.984-25.177 19.31-.03.02-4.012 3.075 35.564 44.225s5.32 18.266 10.93 32.205c5.602 13.933 11.63 26.554 13.874 31.47 2.244 4.915 3.882 17.795 6.677 21.117 2.788 3.333 4.264 2.61 6.383 7.8 2.11 5.19 5.937 14.306 9.353 13.658 3.424-.65 6.123-1.53 4.267-6.572-1.865-5.04-3.02-11.24-6.136-14.233-3.017-2.896-5.683-17.7-5.823-18.53l-.01-.034s.926.304 2.275 1.362c.98.75 2.18 1.894 3.41 3.586.754 1.03 1.53 2.265 2.274 3.752 3.654 7.274 9.2 18.416 15.837 26.365 4.867 5.8 8.855 12.5 12.89 14.61l.01-.004c1.493.79 2.983.936 4.526.19 5.71-2.8 3.086-6.884-1.238-12.303-3.886-4.873-10.35-14.98-13.294-20.7-.33-.646-.615-1.232-.85-1.75-2.22-4.897-4.977-19.272-5.226-20.55-.013-.07-.013-.097-.013-.097l.016.022c.385.554 6.508 9.554 13.008 19.966 6.707 10.763 20.34 31.958 21.806 33.833 1.043 1.345 2.266 3.188 3.806 3.43 0 0 .008-.002.036-.002.324.053.663.035 1.024-.083l.017-.005c.294-.096.617-.276.946-.522 3.625-2.744 5.57-5.825 1.854-13.32-3.73-7.482-22.877-40.06-24.805-45.32-.723-1.99-1.044-3.373-1.163-4.31-.185-1.57.19-1.96.19-1.96s4.052-1.32 9.412 7.277c5.364 8.614 23.403 31.2 25.65 33.53 2.255 2.324 4.663 3.177 6.764 1.088.048-.053.1-.097.144-.158 1.937-2.222 1.542-8.056-7.184-20.133-5.42-7.5-24.32-32.038-27.195-38.868-1.047-2.496-2.088-5.72-3.06-9.04l-.002-.01c-1.68-5.786-2.327-8.71-3.11-11.887-1.24-5-1.974-14.362 3.145-14.383 5.12-.02 13.578 3.13 13.578 3.13s2.886 3.487 13.013 10.298c5.282 3.563 7.795 3.31 10.44 3.695 2.432.352 5.075-.956 5.985-1.93 1.07-1.14 1.297-2.386.7-3.652-.467-.974-1.414-1.968-2.845-2.934z" fill="#D3935F"/>
    <path d="M288.85 367.647c-3.018-2.896-5.68-17.702-5.827-18.532.07.7 1.26 12.06.48 16.52-.81 4.607-4.268 2.81-6.396 2.084s-6.326-19.413-6.326-19.413-14.76-41.19-18.35-51.228c-6.56-18.346-6.838-26.977-9.483-28.693-18.32-11.885-30.964-33.505-30.964-33.505l.742-.576-4.79 3.673 35.568 44.218s5.313 18.266 10.924 32.207c5.608 13.933 11.637 26.55 13.878 31.466 2.24 4.917 3.88 17.797 6.673 21.124 2.792 3.327 4.264 2.606 6.386 7.802 2.11 5.19 5.937 14.298 9.354 13.658 3.42-.652 6.12-1.53 4.267-6.573-1.86-5.038-3.023-11.24-6.134-14.233z" fill="#BF845C"/>
    <path d="M309.71 365.936s-.247 4.51-4.148 5.3c-3.902.788-5.262-.7-8.1-6.048-1.718-3.233-5.798-7.935-8.757-11.16.755 1.03 1.525 2.264 2.272 3.748 3.652 7.284 9.198 18.418 15.842 26.368 6.65 7.947 11.714 17.598 17.42 14.793 5.707-2.796 3.088-6.884-1.233-12.3-3.89-4.87-10.356-14.98-13.297-20.7zM327.95 318.002c-1.05-2.495-2.092-5.717-3.06-9.04l-.004-.01s-.443 4.015 1.383 8.893c1.814 4.87 8.502 14.273 13.57 21.954 5.077 7.677 3.034 9.308 3.034 9.308s5.292.843 12.358 11.51c6.55 9.892 6.926 15.666 6.953 16.45.045-.025.092-.04.145-.067 1.932-2.21 1.537-8.047-7.188-20.124-5.42-7.5-24.318-32.042-27.193-38.874zM321.33 341.536c-.726-1.983-1.045-3.366-1.16-4.312 0 0-1.092 2.266-.003 6.496 1.08 4.232 5.066 10.172 8.506 15.382 3.445 5.2.08 6.507 2.76 8.472 2.68 1.964 8.96 12.26 13.633 20.235 4.676 7.98-2.81 12.978-2.81 12.978s.008-.003.035-.002c.104-.005.47-.037 1.025-.083l.016-.005c.302-.098.622-.27.952-.522 3.624-2.744 5.572-5.82 1.852-13.314-3.73-7.49-22.88-40.066-24.805-45.326z" fill="#D3935F"/>
    <path d="M309.71 365.936c-.333-.645-.62-1.227-.85-1.75-2.217-4.895-4.976-19.273-5.226-20.552.146 1.255 1.706 14.693 2.472 18.738.797 4.247 2.886 6.143 4.438 8.272 1.56 2.126 11.537 18.37 14.14 22.03 2.552 3.587-4.727 5.998-4.972 6.078 1.49.788 2.985.938 4.526.185 5.708-2.796 3.09-6.884-1.232-12.3-3.89-4.87-10.355-14.98-13.296-20.7zM325.584 255.684c-4.625-1.08-26.246-9.794-30.974-9.904-4.734-.098-18.53 6.038-18.53 6.038l-36.623-31.828 34.412 36.302s5.767-1.108 13.23-4.186c7.468-3.07 13.237-2.607 23.774.62 8.514 2.61 15.45 5.877 20.12 10.475 4.58 4.52 21.45 11.98 21.928 12.133-1.307-1.137-3.17-2.287-6.284-4.158-6.363-3.804-16.427-14.403-21.054-15.49z" fill="#D3935F"/>
    <path fill="#D3C5EF" d="M195.088 231.37l28.81 26.455 5.38-4.48 11.093-9.234 16.97-8.577-29.912-33.298"/>
    <path fill="#6B437A" d="M227.428 202.235L33.38 0H0v65.56l195.884 166.63"/>
    <path fill="#D3C5EF" d="M195.884 232.19l28.015 25.635 7.778-6.474-26.116-27.61"/>
    <path fill="#4F3E59" d="M200.236 228.39L0 38.253V65.56l195.884 166.63"/>
    <path d="M365.793 291.29c-1.718-1.16-3.832-3.29-5.685-5.55-1.75 1.51-2.514 4.047-1.727 6.46 1.034 3.17 4.353 4.935 7.414 3.938 1.152-.375 2.102-1.085 2.785-1.987-.467-.972-1.356-1.893-2.787-2.86zM357.812 372.51c-1.397.914-2.01 2.448-1.097 3.845.914 1.397 2.786 1.788 4.183.875 1.397-.913 1.788-2.786.875-4.183-.913-1.397-2.564-1.45-3.96-.536zM339.914 390.972c-1.91 1.25-2.75 3.347-1.5 5.258 1.25 1.91 3.81 2.446 5.722 1.197 1.91-1.25 2.446-3.81 1.197-5.722-1.25-1.91-3.51-1.982-5.42-.733zM318.602 390.875c-1.688 1.104-2.43 2.957-1.325 4.645 1.104 1.688 3.367 2.16 5.055 1.057 1.688-1.104 2.16-3.367 1.057-5.055-1.105-1.688-3.1-1.75-4.788-.647zM289.67 382.322c-1.45.95-2.09 2.544-1.14 3.996s2.898 1.86 4.35.91c1.452-.95 1.86-2.897.91-4.35-.95-1.452-2.667-1.506-4.12-.556z" fill="#C00094"/>
  </g>
</svg>
