<svg xmlns="http://www.w3.org/2000/svg" viewBox="0 0 199.2 106.369">
  <path d="M3.692 105.065s2.458 1.337 6.667.627c4.208-.71 107.7-36.717 107.7-36.717s1.28-11.947 4.358-14.697c3.077-2.75 12.48-6.576 12.48-6.576l-4.237-8.51L3.693 105.065z" fill="#B3B3B3"/>
  <path d="M3.692 105.065s2.458 1.337 6.667.627c4.208-.71 107.7-36.717 107.7-36.717s1.28-11.947 4.358-14.697c3.077-2.75 12.48-6.576 12.48-6.576l-4.237-8.51L3.693 105.065z" fill="#B3B3B3"/>
  <path d="M122.417 54.277c-6.308-2.067-15.26-5.12-15.26-5.12S4.716 99.972 1.368 102.263C-.863 103.79.305 106.37.305 106.37l103.77-40.41s4.6-.078 13.984 3.015c11.084 3.653 25.993-1.042 25.993-1.042l-7.298-13.256s-8.03 1.667-14.338-.4z" fill="#EDEDED"/>
  <path d="M3.692 105.065s2.458 1.337 6.667.627c4.208-.71 107.7-36.717 107.7-36.717s1.28-11.947 4.358-14.697c3.077-2.75 12.48-6.576 12.48-6.576l-4.237-8.51L3.693 105.065z" fill="#B3B3B3"/>
  <path d="M122.417 54.277c-6.308-2.067-15.26-5.12-15.26-5.12S4.716 99.972 1.368 102.263C-.863 103.79.305 106.37.305 106.37l103.77-40.41s4.6-.078 13.984 3.015c11.084 3.653 25.993-1.042 25.993-1.042l-7.298-13.256s-8.03 1.667-14.338-.4z" fill="#EDEDED"/>
  <path d="M108.986 54.67c-1.847-.33-3.617.796-4.134 2.55-.037.13-.07.26-.093.395-.025.135-.04.272-.05.406-.12 1.832 1.145 3.492 2.993 3.823 1.843.33 3.607-.787 4.13-2.546.036-.13.07-.263.093-.398.024-.136.04-.27.05-.402.123-1.827-1.147-3.497-2.99-3.827z" fill="#E6E6E6"/>
  <g>
    <path d="M3.692 105.065s2.458 1.337 6.667.627c4.208-.71 107.7-36.717 107.7-36.717s1.28-11.947 4.358-14.697c3.077-2.75 12.48-6.576 12.48-6.576l-4.237-8.51L3.693 105.065z" fill="#B3B3B3"/>
    <path d="M122.417 54.277c-6.308-2.067-15.26-5.12-15.26-5.12S4.716 99.972 1.368 102.263C-.863 103.79.305 106.37.305 106.37l103.77-40.41s4.6-.078 13.984 3.015c11.084 3.653 25.993-1.042 25.993-1.042l-7.298-13.256s-8.03 1.667-14.338-.4z" fill="#EDEDED"/>
    <path d="M108.986 54.67c-1.847-.33-3.617.796-4.134 2.55-.037.13-.07.26-.093.395-.025.135-.04.272-.05.406-.12 1.832 1.145 3.492 2.993 3.823 1.843.33 3.607-.787 4.13-2.546.036-.13.07-.263.093-.398.024-.136.04-.27.05-.402.123-1.827-1.147-3.497-2.99-3.827z" fill="#E6E6E6"/>
    <path d="M104.71 58.02l7.122 1.275c.037-.13.07-.263.094-.398.024-.135.04-.268.05-.4l-7.124-1.276-.143.8z" fill="#B3B3B3"/>
  </g>
  <g>
    <path d="M3.692 105.065s2.458 1.337 6.667.627c4.208-.71 107.7-36.717 107.7-36.717s1.28-11.947 4.358-14.697c3.077-2.75 12.48-6.576 12.48-6.576l-4.237-8.51L3.693 105.065z" fill="#B3B3B3"/>
    <path d="M122.417 54.277c-6.308-2.067-15.26-5.12-15.26-5.12S4.716 99.972 1.368 102.263C-.863 103.79.305 106.37.305 106.37l103.77-40.41s4.6-.078 13.984 3.015c11.084 3.653 25.993-1.042 25.993-1.042l-7.298-13.256s-8.03 1.667-14.338-.4z" fill="#EDEDED"/>
    <path d="M108.986 54.67c-1.847-.33-3.617.796-4.134 2.55-.037.13-.07.26-.093.395-.025.135-.04.272-.05.406-.12 1.832 1.145 3.492 2.993 3.823 1.843.33 3.607-.787 4.13-2.546.036-.13.07-.263.093-.398.024-.136.04-.27.05-.402.123-1.827-1.147-3.497-2.99-3.827z" fill="#E6E6E6"/>
    <path d="M104.71 58.02l7.122 1.275c.037-.13.07-.263.094-.398.024-.135.04-.268.05-.4l-7.124-1.276-.143.8z" fill="#B3B3B3"/>
    <path d="M197.793 8.138c-3.12-6.94-11.304-10.045-18.242-6.925L143.11 17.6c-3.152 1.42-5.51 3.883-6.856 6.8l-7.843 12.486 6.447 14.34 17.898-7.346c.628-.18 1.25-.405 1.864-.68l36.442-16.388c6.94-3.12 10.045-11.304 6.925-18.242l-.194-.432zm-8.55 14.627L152.8 39.153c-4.708 2.117-10.26.01-12.376-4.698l-.194-.43c-2.117-4.708-.01-10.26 4.698-12.377L181.37 5.26c4.708-2.117 10.26-.01 12.377 4.698l.194.43c2.118 4.708.01 10.26-4.697 12.377z" fill="#937C1B"/>
  </g>
  <g>
    <path d="M3.692 105.065s2.458 1.337 6.667.627c4.208-.71 107.7-36.717 107.7-36.717s1.28-11.947 4.358-14.697c3.077-2.75 12.48-6.576 12.48-6.576l-4.237-8.51L3.693 105.065z" fill="#B3B3B3"/>
    <path d="M122.417 54.277c-6.308-2.067-15.26-5.12-15.26-5.12S4.716 99.972 1.368 102.263C-.863 103.79.305 106.37.305 106.37l103.77-40.41s4.6-.078 13.984 3.015c11.084 3.653 25.993-1.042 25.993-1.042l-7.298-13.256s-8.03 1.667-14.338-.4z" fill="#EDEDED"/>
    <path d="M108.986 54.67c-1.847-.33-3.617.796-4.134 2.55-.037.13-.07.26-.093.395-.025.135-.04.272-.05.406-.12 1.832 1.145 3.492 2.993 3.823 1.843.33 3.607-.787 4.13-2.546.036-.13.07-.263.093-.398.024-.136.04-.27.05-.402.123-1.827-1.147-3.497-2.99-3.827z" fill="#E6E6E6"/>
    <path d="M104.71 58.02l7.122 1.275c.037-.13.07-.263.094-.398.024-.135.04-.268.05-.4l-7.124-1.276-.143.8z" fill="#B3B3B3"/>
    <path d="M197.793 8.138c-3.12-6.94-11.304-10.045-18.242-6.925L143.11 17.6c-3.152 1.42-5.51 3.883-6.856 6.8l-7.843 12.486 6.447 14.34 17.898-7.346c.628-.18 1.25-.405 1.864-.68l36.442-16.388c6.94-3.12 10.045-11.304 6.925-18.242l-.194-.432zm-8.55 14.627L152.8 39.153c-4.708 2.117-10.26.01-12.376-4.698l-.194-.43c-2.117-4.708-.01-10.26 4.698-12.377L181.37 5.26c4.708-2.117 10.26-.01 12.377 4.698l.194.43c2.118 4.708.01 10.26-4.697 12.377zM188.068 46.022c-2.685-3.665-6.507-6.175-10.76-7.068-2.005-.42-3.993-.456-5.89-.132l-2.412-1.92-4.24 1.907.26 2.547-28.27 13.32 7.346 16.337s9.6-4.618 15.312-3.72c4.462.7 7.277 1.604 8.842 2.23 5.48 3.253 12.264 3.333 17.33-.378 5.905-4.327 7.745-12.435 4.47-19.715-.536-1.193-1.205-2.34-1.988-3.408zm-5.25 19.347c-4.887 3.58-12.178 1.968-16.253-3.594-.59-.805-1.092-1.667-1.495-2.56-2.36-5.246-1.14-11.01 2.968-14.02 2.33-1.706 5.28-2.296 8.308-1.66 3.122.655 5.943 2.52 7.945 5.253.59.804 1.094 1.666 1.496 2.56 2.36 5.246 1.138 11.01-2.968 14.02z" fill="#937C1B"/>
  </g>
</svg>
